<?xml version="1.0" encoding="utf-8"?>
<!-- Generator: Adobe Illustrator 30.1.0, SVG Export Plug-In . SVG Version: 9.03 Build 0)  -->
<svg version="1.0" id="Ebene_1" xmlns="http://www.w3.org/2000/svg" xmlns:xlink="http://www.w3.org/1999/xlink" x="0px" y="0px"
	 viewBox="0 0 1536 1338" style="enable-background:new 0 0 1536 1338;" xml:space="preserve">
<style type="text/css">
	.st0{opacity:0.7;}
</style>
<g transform="translate(0.000000,1338.000000) scale(0.100000,-0.100000)" class="st0">
	<path d="M9015,13364c-21-21-48-77-70-143c-27-84-17-185,38-366c26-82,58-213,71-290c52-286,76-676,58-920c-20-251-42-468-57-565
		c-8-52-19-165-25-250c-11-188-36-295-85-366c-19-28-117-131-218-230c-139-136-198-202-246-274c-95-142-146-251-170-363
		c-33-153-37-144,72-152c50-3,130-7,176-8l84-2l33,77c76,177,206,375,359,548c177,199,207,236,247,302c50,84,132,266,169,377
		c28,83,29,90,29,295c-1,140-6,238-15,291c-8,44-22,172-30,285c-24,321-65,759-76,825c-23,135-249,845-290,912
		C9046,13384,9038,13387,9015,13364z"/>
	<path d="M2345,13278c-106-62-97-85,264-676c322-527,410-683,472-839c108-270,239-886,239-1126c0-40,4-77,8-84c9-14,641-268,648-261
		c4,4-97,456-177,793c-62,262-174,616-275,872c-56,142-69,169-147,298c-293,483-588,844-810,992c-59,39-80,48-126,50
		C2396,13300,2377,13296,2345,13278z"/>
	<path d="M5727,13209c-24-14-38-48-142-341c-48-134-159-439-247-678s-166-466-173-505c-8-38-23-122-34-186c-37-205-95-375-157-456
		l-24-32l115-458c134-529,236-906,302-1115l46-148h48c111,0,417,40,447,59c9,5,1,29-31,93c-58,114-113,282-186,573
		c-126,503-144,630-144,985c1,248,2,261,38,470c20,118,67,364,105,545c118,571,149,737,160,850c21,227,10,286-59,332
		C5752,13223,5752,13223,5727,13209z"/>
	<path d="M10135,13014l-30-39l-1-375c0-300-4-396-17-479c-45-279-149-638-245-846c-28-61-65-148-83-195c-19-51-61-127-107-195
		c-41-60-87-128-102-150s-44-80-64-130c-61-144-146-303-199-374c-27-36-90-109-140-163c-164-177-287-354-376-537
		c-44-92-49-111-27-111c40,0,402-42,476-55c47-8,92-15,101-15c10,0,40,40,78,104c76,128,220,336,362,522c177,232,252,361,304,524
		c15,47,40,126,56,175c59,187,272,951,325,1170c21,89,24,122,24,300c0,215-11,308-56,462c-48,164-113,290-211,402l-39,44
		L10135,13014z"/>
	<path d="M7256,13025c-60-61-63-133-11-265l38-95l5-335c6-447-13-693-75-954c-25-107-25-112-13-245c8-80,11-198,8-286
		c-6-167,5-120-156-655c-138-457-202-708-202-792v-35l118-16c182-26,268-32,276-18c4,6,12,73,17,149c21,314,51,481,135,745
		c88,276,319,1097,350,1240c18,85,20,324,4,437c-17,118-87,431-115,516c-42,126-223,476-294,570C7300,13040,7281,13049,7256,13025z"
		/>
	<path d="M8404,12603c-48-27-77-54-119-108c-52-67-150-276-220-465c-97-263-410-1211-490-1485c-42-143-94-314-115-380
		c-50-151-75-259-95-405c-15-111-37-411-31-417c2-2,84,12,182,31s230,42,292,52c61,10,117,21,123,25c13,7-2,198-23,300
		c-10,49-9,69,10,150c12,52,29,162,37,244c38,371,88,609,225,1075c77,261,155,492,275,805c92,241,105,292,105,417
		c0,112-10,141-55,163C8463,12624,8442,12624,8404,12603z"/>
	<path d="M12222,12589c-42-27-68-73-137-239c-66-159-114-249-206-387c-106-157-197-260-429-483c-179-172-231-229-325-355
		c-425-572-1315-1881-1315-1934c0-12,77-49,122-58c18-3,36,2,55,15c95,67,334,162,608,242c230,67,306,105,417,208
		c44,41,51,54,84,161c19,64,55,175,79,246c24,72,62,193,85,269c63,210,128,332,295,546c412,529,577,766,687,987
		c124,248,175,434,165,605c-4,75-10,106-27,136C12344,12612,12283,12628,12222,12589z"/>
	<path d="M11148,12353c-58-61-84-112-201-413c-208-532-238-599-520-1155c-163-321-201-382-341-540c-265-298-696-900-665-929
		c2-2,71-27,152-55l148-51l37,61c169,278,770,1160,1157,1699c183,255,169,229,235,455c108,376,139,573,125,799c-6,111-21,158-50,170
		C11199,12404,11197,12402,11148,12353z"/>
	<path d="M6327,12263c-39-41-59-97-51-141c12-64,59-190,152-412c174-414,230-568,311-855c62-216,75-294,75-430c0-97-4-121-32-203
		c-18-51-55-137-82-190c-31-60-60-134-75-193c-22-88-75-385-75-421c0-11,22-17,89-26c136-18,125-24,140,71c19,126,88,386,204,772
		c58,193,113,377,122,410c41,144,37,467-8,585c-53,138-171,390-232,496c-155,267-414,564-492,564C6362,12290,6342,12278,6327,12263z
		"/>
	<path d="M8930,12234c-168-80-395-259-462-363c-45-71-36-154,22-206c19-17,35-20,119-19c56,1,138,10,195,23c54,12,130,24,167,27
		l69,7v136c0,159-17,412-28,423C9008,12266,8971,12254,8930,12234z"/>
	<path d="M9460,12237c0-7,11-139,25-292c14-154,25-289,25-301c0-15,16-28,62-50c33-16,104-57,157-91c67-43,98-58,103-50
		c25,37,133,423,140,497c3,33,0,37-67,82c-81,55-227,133-345,183C9469,12254,9460,12256,9460,12237z"/>
	<path d="M1433,11915c-38-27-56-139-51-328c5-156,6-166,42-267c55-155,177-397,249-492c68-91,564-599,585-598c9,0,12,28,12,106
		c0,58,5,217,11,352l11,246l-39,30c-53,41-199,191-271,279c-62,76-267,382-362,542c-30,50-66,102-81,118
		C1508,11934,1467,11938,1433,11915z"/>
	<path d="M3815,11911c-66-13-105-63-105-133c0-77,22-111,134-201c255-205,343-318,539-684c107-200,319-626,411-828
		c145-315,266-651,266-738c0-54,4-55,143-49c112,4,128,7,124,21c-3,9-21,70-41,136c-63,203-182,648-301,1118l-114,448l-43,47
		c-48,52-122,161-219,326c-119,202-233,310-486,464l-137,82l-70-1C3877,11918,3832,11915,3815,11911z"/>
	<path d="M2674,11819c-137-107-211-309-273-735c-44-303-54-452-48-738c4-222,8-271,35-426c38-218,83-393,197-767c2-6,73-67,157-134
		c147-119,293-255,333-311l20-28l205,35c113,19,211,37,218,40c19,7-105,234-223,410c-227,336-380,671-449,976c-61,274-70,367-71,729
		c0,184,6,452,14,595c15,278,13,305-30,359C2733,11857,2721,11857,2674,11819z"/>
	<path d="M5853,11755c-31-22-30-51,6-310c17-115,35-266,41-335c11-120,14-131,77-280c121-287,182-481,231-735c25-132,27-157,27-427
		v-288h31c38,0,235,19,249,24c8,3,5,44-7,127c-9,68-33,288-53,489c-43,437-58,562-91,740c-29,155-102,461-140,582
		c-47,151-162,347-232,397C5951,11768,5882,11776,5853,11755z"/>
	<path d="M12933,11617c-49-53-78-144-139-441c-49-242-84-357-140-468c-63-126-225-410-269-473c-27-40-56-102-83-182
		c-121-354-248-608-362-721c-24-24-74-61-111-83c-151-90-515-240-886-365c-128-44-233-81-232-84c0-3,34-27,75-54l75-48l82,21
		c113,28,234,39,497,46c124,4,255,10,291,15c60,7,164,44,244,87c66,35,187,135,328,273c130,126,154,155,188,223
		c99,196,289,658,442,1077c111,303,121,362,122,735v300l-32,66c-18,36-41,73-51,82C12955,11639,12952,11639,12933,11617z"/>
	<path d="M10343,11164l-91-329l18-45c9-25,20-54,24-65c6-16,35,35,133,230c69,138,132,264,139,281c12,29,10,34-46,125
		c-32,52-65,102-72,113C10436,11490,10424,11455,10343,11164z"/>
	<path d="M8664,11311c-48-22-86-65-198-225c-46-66-99-140-117-164c-31-43-31-43-7-37c14,4,91,14,173,23l147,17l34,85
		c35,86,68,201,78,278l6,42h-37C8722,11330,8687,11321,8664,11311z"/>
	<path d="M13881,11281c-11-21-66-81-122-132c-58-54-188-197-302-333c-225-269-316-363-411-427c-36-24-68-53-72-64s-60-159-126-328
		c-66-170-118-310-116-313c11-10,507,248,572,297c191,146,412,497,559,889c77,208,105,353,78,418
		C13923,11330,13905,11328,13881,11281z"/>
	<path d="M4852,11283c-35-8-66-21-69-29c-5-14,70-127,102-154c14-11,19-11,35,6c20,19,80,156,80,180
		C5000,11304,4935,11303,4852,11283z"/>
	<path d="M5620,10988c0-161,19-376,45-517c9-46,47-170,85-277c132-368,212-654,214-763l1-73l90,7c50,4,92,8,93,10
		c10,9,21,156,22,271c1,393-104,814-312,1253c-32,69-66,133-76,144c-17,19-142,97-155,97C5623,11140,5620,11071,5620,10988z"/>
	<path d="M12082,10970c-44-43-60-103-88-315c-36-279-74-458-135-631c-65-187-181-375-278-452c-23-18-218-123-434-233
		c-461-236-737-381-737-389c0-3,45-27,101-52l100-47l247,85c511,177,835,312,965,403c136,95,246,291,387,691c41,118,48,149,54,245
		c12,210-19,520-64,638C12165,11005,12132,11021,12082,10970z"/>
	<path d="M8425,10820c-166-26-268-48-283-63c-19-19-58-210-87-421c-14-103-25-193-25-198c0-6,10-8,23-5c12,4,121,11,242,17
		c263,14,233,0,442,205c110,109,148,152,167,195c27,59,46,155,46,231c0,40-3,48-22,53C8877,10847,8544,10838,8425,10820z"/>
	<path d="M11476,10578c-25-40-59-105-77-143c-31-68-32-77-45-289c-24-414-32-440-162-505c-24-12-78-54-120-93
		c-139-129-183-151-491-244c-265-80-531-187-531-214c0-3,59-27,130-53l130-47l123,66c67,37,334,175,592,307c259,132,487,253,507,269
		c51,40,130,147,180,244l42,82l-48,203c-77,321-130,472-172,486C11527,10649,11502,10618,11476,10578z"/>
	<path d="M4225,10627c-50-38,13-199,165-417c317-458,341-504,436-838c20-70,38-128,39-130c1-1,30,5,64,14c42,12,61,22,61,33
		c0,68-81,312-185,557c-127,301-345,745-379,773c-8,7-52,14-98,17C4263,10641,4241,10639,4225,10627z"/>
	<path d="M2850,10611c0-38,36-271,60-391c34-168,83-327,138-444c36-76,44-86,98-119c33-19,120-63,194-97c441-200,725-402,814-578
		c10-19,23-31,29-29c13,5,569,239,625,262l33,14l-25,48c-91,180-417,616-569,759c-91,87-156,120-562,282c-249,99-805,302-829,302
		C2853,10620,2850,10616,2850,10611z"/>
	<path d="M6640,10605c-72-17-104-53-95-104c6-34,108-244,138-285c12-17,15-13,32,45c20,68,28,277,12,332
		C6719,10623,6717,10624,6640,10605z"/>
	<path d="M107,10209c-9-6-29-33-44-62c-69-136-28-289,146-548c247-368,623-637,1165-833l129-47l366-3c378-3,463-10,596-53
		c158-50,313-168,363-274c15-34,33-59,42-59c26,0,89,60,120,114c25,43,30,62,30,122s-4,77-28,115c-48,76-261,255-612,516
		c-238,176-289,210-361,239c-59,23-74,24-273,24c-116,1-310,5-431,10c-256,10-299,20-495,121c-156,81-235,148-376,326
		c-145,182-229,271-271,289C135,10222,131,10223,107,10209z"/>
	<path d="M8182,10068c-168-13-157-4-168-150c-9-127-9-396,1-435c5-22,10-23,99-23h94l12,73c28,175,73,287,185,456c30,46,55,86,55,88
		C8460,10082,8300,10078,8182,10068z"/>
	<path d="M13875,9964c-164-16-381-71-490-125c-150-75-418-263-589-413c-66-58-309-327-302-334c2-1,55,4,117,12c204,28,370,38,579,35
		l205-3l204,102c350,175,662,252,901,223c272-34,318-36,355-18c28,13,43,31,65,80c33,69,37,102,16,133c-36,51-295,204-413,243
		C14414,9935,14006,9976,13875,9964z"/>
	<path d="M3424,9407c3-13,20-109,37-213c29-179,33-194,80-285c69-135,70-136,161-114c133,32,379,116,385,131c17,46-146,207-332,326
		c-87,56-310,178-326,178C3422,9430,3420,9421,3424,9407z"/>
	<path d="M7975,9373c-85-11-417-68-543-94c-186-37-271-37-543,1c-118,17-254,33-304,36c-112,8-580-29-709-56c-156-31-294-44-679-60
		c-266-12-225,0-707-203c-554-233-689-274-1196-361l-187-32l-3-52c-3-65-47-164-99-220c-20-23-61-53-92-68l-54-27l7-91
		c3-50,10-95,15-100c5-6,52-5,122,2c162,17,472,15,614-3c187-25,345-85,471-180c71-54,116-105,163-189l33-59l165,9
		c248,13,670,11,776-5c318-46,545-128,723-260c93-69,99-70,247-46c195,33,499,17,697-36l78-21l47,31c26,17,69,38,97,46
		c104,31,294,10,411-45l61-29l114,57c129,65,263,112,389,137c129,26,359,17,464-19c88-30,168-67,213-101l31-23l109,53
		c60,30,147,65,194,77c79,21,104,23,340,22c214-1,274-5,374-23c66-12,120-20,121-19c2,2,19,53,39,113c63,188,139,309,277,440
		c128,121,267,199,477,268c150,49,157,56,157,168c0,68-5,85-38,152c-34,68-45,80-105,120c-128,85-422,222-647,300
		c-55,19-152,56-215,82c-190,77-609,213-706,230C8914,9339,8116,9391,7975,9373z M7900,8556c444-53,752-146,724-219
		c-7-20-89-51-174-66c-209-35-378-44-985-48c-726-6-1180,12-1630,63c-255,28-430,75-430,113c0,22,45,49,110,66
		c102,26,656,79,1085,104C6849,8584,7743,8575,7900,8556z"/>
	<path d="M12925,9060c-275-19-612-76-659-112c-147-109-286-185-421-228c-63-20-103-23-375-31c-373-10-571-38-555-77
		c34-81,48-144,48-225l-1-87l32,5c397,69,709,58,1601-56c236-31,242-31,330-15c284,49,406,43,900-44c94-16,224-33,290-36
		c125-7,376,8,467,27c111,23,240,97,438,250c109,84,305,271,326,311c26,50,8,169-26,176c-9,1-51-18-95-43s-95-48-115-51
		c-19-3-78-17-130-29c-149-37-249-47-470-46c-215,0-434,19-529,47c-60,17-566,216-621,244C13316,9062,13101,9072,12925,9060z"/>
	<path d="M1610,8640c-135-10-221-35-389-116c-241-115-388-208-621-394c-91-73-193-152-227-176c-71-52-197-112-302-145l-73-24l7-99
		c8-118,15-138,57-177l32-29h136h135l225,79c124,44,306,111,405,149c352,136,397,145,755,146c218,1,263-2,313-17l57-18l93,35
		c176,66,411,134,523,152c23,3,46,9,53,13c15,10-15,304-36,349c-8,17-40,55-70,82c-103,95-230,148-413,175
		C2152,8642,1764,8651,1610,8640z"/>
	<path d="M11325,8270c-56-5-58-6-25-13c19-4,80-12,135-17c430-47,886-145,1153-250c318-124,768-395,1290-778l144-105l56,27
		c83,40,340,184,392,219c149,100,240,197,240,254c0,74-60,133-134,133c-21,0-82-14-135-31c-90-29-109-31-287-36
		c-313-9-507,18-679,96c-76,35-529,276-633,337l-72,43l-283,35c-344,43-636,72-862,86C11446,8280,11422,8280,11325,8270z"/>
	<path d="M10728,8163c-113-40-137-53-97-53c13,0,96-7,184-15c1141-107,2068-484,2557-1040c129-147,259-350,319-499
		c14-35,36-68,54-81c39-30,508-286,689-377c231-116,427-168,584-155c77,6,105,28,151,122c25,51,29,68,22,88c-19,50-103,97-325,183
		c-77,31-169,71-203,90c-126,70-309,227-548,469c-139,140-201,195-340,296c-511,372-1005,660-1300,758c-392,129-1011,233-1470,246
		l-170,5L10728,8163z"/>
	<path d="M10404,8005c-52-39-204-185-204-196c0-3,141-9,313-12c1080-21,1862-257,2325-701c195-187,323-412,389-683
		c24-100,27-127,29-360l2-253l52-107c29-60,101-220,161-357c217-500,375-737,606-910c138-103,267-156,350-143c107,18,85,93-116,401
		c-236,361-363,607-451,875c-61,184-150,539-194,771c-32,171-36,183-96,297c-34,65-92,161-128,213c-87,123-326,364-462,464
		c-554,411-1436,678-2411,731l-116,6L10404,8005z"/>
	<path d="M3081,7978c-211-17-500-79-736-159c-404-137-641-353-850-774c-229-462-427-1049-401-1189c9-48,52-76,117-76
		c73,0,105,28,169,150c66,126,93,165,201,294c184,220,492,517,687,664c114,85,274,168,351,182c64,12,71,16,221,135
		c319,252,414,319,533,376c153,73,211,83,467,84c148,0,243-4,279-13c30-7,56-10,59-7c10,10-83,117-139,159c-108,82-271,143-435,165
		C3501,7982,3201,7988,3081,7978z"/>
	<path d="M10131,7707c-26-32-111-262-111-302c0-7,17-19,38-25c90-30,250-122,332-192c102-88,119-99,190-125c131-49,267-74,880-162
		c613-89,768-121,983-201c102-38,182-155,244-355c25-83,27-103,27-250c0-137-4-177-27-280c-41-181-49-200-188-480
		c-81-163-134-281-141-315c-13-69,1-126,43-175c25-28,38-35,69-35c77,0,234,138,375,327c109,148,250,442,311,651
		c23,79,25,103,25,267c0,207-14,308-66,462c-67,202-159,347-320,508c-385,386-1057,621-1955,685C10618,7725,10145,7723,10131,7707z"
		/>
	<path d="M3710,7594c-14-2-52-9-85-15c-172-29-263-76-505-258c-349-262-397-305-497-443c-191-267-455-576-594-696
		c-46-40-147-116-224-170c-213-147-255-193-255-276c0-50,33-82,96-92c79-12,310,3,396,25c201,52,419,183,669,403
		c215,188,447,410,482,460c104,152,339,238,649,238c209,0,365-34,481-106c72-44,135-53,244-35c99,17,155,47,273,145
		c115,96,226,172,340,234c167,91,439,194,643,243c53,12,97,27,97,31c0,11-89,67-175,111c-147,73-353,130-577,157c-94,12-514,9-783-6
		c-94-5-129-2-235,20C4030,7588,3775,7606,3710,7594z"/>
	<path d="M8126,7385c-113-22-277-79-381-133c-88-46-90-48-89-82c1-46,72-303,139-507c76-231,123-320,265-503
		c227-293,367-526,404-676c24-95,64-164,226-390c160-223,224-342,246-459c43-227,65-275,119-261c46,12,157,131,193,209
		c39,81,77,211,97,326c19,109,19,319,0,411c-21,100-56,180-279,635c-107,219-205,426-216,459c-18,55-20,85-20,368
		c0,289-1,311-21,364c-39,104-147,181-313,224C8391,7397,8225,7403,8126,7385z"/>
	<path d="M9243,7389c-147-19-391-113-386-150c3-30,84-211,125-281c25-42,81-111,133-164c77-78,99-94,143-108c43-12,64-13,110-4
		c183,34,470-78,642-250c84-84,115-143,115-217c0-54-5-69-43-131c-116-193-222-586-223-831c-1-86,2-110,21-147
		c75-157,357-266,522-204c35,13,32,28-40,223c-53,142-56,155-56,245c-1,88,1,99,29,147c17,29,80,106,141,170c61,65,122,136,137,158
		c80,122,76,308-17,720c-76,336-108,407-241,540c-67,67-110,100-170,132c-185,96-363,137-657,153c-106,5-200,9-208,9
		C9312,7398,9277,7394,9243,7389z"/>
	<path d="M7105,7251c-22-10-52-31-66-47c-67-72-193-314-246-473c-32-93-37-118-37-206v-100l56-115c127-261,135-387,56-850
		c-63-366-36-658,88-954c42-99,114-215,167-265c30-29,39-32,69-26c72,15,147,83,194,176c33,66,35,139,4,229c-16,48-23,98-27,191
		c-6,141,9,254,53,405c23,79,42,134,132,364c21,56,26,86,30,210c5,161-4,223-64,462c-54,215-47,283,57,575l50,142l-26,97
		c-14,54-31,104-37,112c-19,23-104,61-170,77C7297,7276,7155,7274,7105,7251z"/>
	<path d="M6282,7250c-430-55-678-124-987-275c-335-164-521-332-631-569c-86-187-113-317-144-693c-33-402-52-456-242-691
		c-38-48-79-104-89-124l-19-37l25-29c26-31,118-77,199-98c69-19,205-17,280,2c129,33,254,119,321,220c64,97,73,136,85,385
		c18,386,35,517,90,677c37,109,82,184,155,258c65,66,127,102,220,129c51,15,92,17,319,12c144-3,331-13,416-22s201-15,257-13
		c134,4,136,6,139,135c4,161,56,321,180,545c35,64,64,119,64,122c0,9-98,34-195,51C6614,7254,6380,7262,6282,7250z"/>
	<path d="M10560,6976c0-2,11-32,24-67c32-85,99-360,131-536c23-123,26-165,23-301l-3-158l-37-75c-29-57-66-104-163-207
		c-70-74-133-149-141-167c-32-77-17-152,81-420c41-112,41-147-1-188c-79-79-349-56-503,42c-77,50-154,138-174,201
		c-33,103-17,322,44,570c40,161,87,289,155,417c30,56,54,114,54,128c0,45-36,98-117,175c-88,84-189,145-308,187c-75,26-88,28-225,25
		c-143-2-146-2-207,28c-68,34-178,136-234,219c-19,28-37,51-41,51c-10,0-21-205-16-314c7-132,21-169,247-623
		c282-570,285-579,285-838c0-186-10-263-55-420c-79-274-288-475-406-389c-43,31-80,117-99,229c-30,181-64,247-276,544
		c-148,206-169,244-203,356c-54,179-174,380-399,670c-141,181-193,280-280,534l-63,183l-37-112c-76-227-76-247-12-509
		c45-182,60-308,53-445c-6-121-21-180-91-354c-90-224-127-386-127-562c0-109,4-137,27-208c49-155,21-283-88-398
		c-103-109-214-137-294-73c-114,90-231,331-295,609c-17,75-23,136-26,295c-5,194-4,206,32,415c44,263,55,458,32,567
		c-9,40-37,118-63,174c-41,87-51,100-68,96c-12-3-39-10-61-16c-58-15-129-13-393,10c-311,29-614,31-694,6c-79-24-172-97-228-179
		c-105-156-140-322-160-768c-6-143-17-269-26-304c-59-237-295-417-569-433c-176-10-385,62-446,153l-19,29l7-125c13-212,7-553-11-665
		c-21-128-45-175-127-256c-85-84-184-149-301-201c-164-70-281-136-363-202c-124-99-528-503-561-561c-27-47-29-58-33-185
		c-5-213,24-343,121-533c72-140,125-207,220-278c160-119,559-336,778-424c149-60,506-173,592-187c56-9,96-7,255,13
		c121,15,242,24,338,24h150l140-69l140-68l160-163c183-186,288-268,430-336c102-49,382-137,570-179c55-12,111-28,125-35
		s63-47,110-89c73-66,110-89,265-167c131-65,200-94,253-104c175-35,505-46,622-20c36,8,112,17,170,21c84,5,133,15,245,50
		c77,24,257,75,400,114c143,38,280,78,305,88c25,11,101,55,170,99c156,101,222,134,333,168c119,37,201,32,342-21l100-38l475-3
		c404-3,485-1,544,12c56,13,100,15,221,9c184-8,267,6,365,64c128,75,285,248,375,414l40,73l-1,110c-2,228-83,410-521,1173
		c-357,624-404,731-459,1067c-40,247,24,779,185,1540c79,374,97,443,126,487c35,53,176,191,312,306c152,128,310,293,396,412
		c114,161,256,471,225,492c-61,39-343,95-852,168c-505,72-681,102-812,135C10556,6982,10560,6982,10560,6976z"/>
	<path d="M3755,6689c-60-4-149-16-197-28c-132-31-271-107-249-135c5-6,67-115,139-243c165-292,224-386,377-598
		c67-93,134-191,148-216c55-93,83-214,108-461l12-117l31,52c18,29,71,101,118,160c152,192,173,259,207,676c30,359,55,467,160,694
		c44,96,46,101,31,92c-5-3-46-10-91-15c-119-14-192-1-274,49C4148,6675,3990,6703,3755,6689z"/>
</g>
</svg>
