<?xml version="1.0" encoding="UTF-8"?>
<svg id="Ebene_1" xmlns="http://www.w3.org/2000/svg" version="1.1" viewBox="0 0 950 1889">
  <!-- Generator: Adobe Illustrator 30.1.0, SVG Export Plug-In . SVG Version: 2.1.1 Build 136)  -->
  <defs>
    <style>
      .st0 {
        fill: #fff;
        stroke: #010200;
        stroke-miterlimit: 10;
        stroke-width: 4px;
      }

      .st1 {
        opacity: .7;
      }
    </style>
  </defs>
  <g class="st1">
    <path class="st0" d="M93.6,2.1c-1.2.7-4.3.9-8.5.6-4.1-.4-8.7-.2-12.2.7-3.1.7-7.1,1.1-8.8.8-3.7-.5-12.3,1.4-17.3,3.9-2.1,1.1-5.1,1.9-6.7,1.9-4.6,0-13.1,4.4-17.6,9-2.2,2.3-5.6,5-7.6,6C5.9,29.7,1,38.6,1,50.2c.1,9.7,5.3,18.9,13,22.8,3.9,2,12,11.6,12,14.3,0,.9,1.3,3.1,2.9,4.9s4.2,6.2,5.8,9.8c1.7,3.6,5.2,9.4,7.9,12.8,2.7,3.5,5.9,7.8,7.2,9.5,3.4,4.7,8.3,9.6,10.2,10.2.9.3,2.2,1.5,2.9,2.8.7,1.2,3.4,3.7,6.1,5.5,2.8,1.7,5,3.6,5,4.1s1.3,1.4,2.8,2c1.6.7,3.6,2.5,4.5,4,.9,1.6,6.3,7.6,11.9,13.4,5.7,5.8,10.8,11.8,11.3,13.3.6,1.6,2.1,3.4,3.3,4,3,1.5,7.2,7.3,7.2,9.9,0,1.2.9,3.2,2,4.5s2,3.3,2,4.5.8,3.3,1.8,4.6c1.6,2.1,6.2,14.7,6.2,17,0,.4,1.5,4.1,3.4,8.1,6.4,13.9,9.5,21.3,13.1,31.8,5.2,15,11.4,38.8,12.5,48.4.5,4.4,1.7,11.5,2.5,15.6s2,11.3,2.5,16c.6,4.7,1.3,9.2,1.6,10,1,2.1,2.4,10.7,2.8,16,.1,2.5,1,7,1.8,10,1,3.4,1.4,8.2,1.2,12.4-.2,3.8.1,7.7.7,8.8.5,1,1.2,4.6,1.4,8.1,2.9,41.3,3.3,64.8,1.5,73.2-.5,2.7-1.1,12.4-1.1,21.5-.1,17.9-1.4,31-3.5,35.1-.7,1.5-1.8,5.4-2.3,8.7-.5,3.4-1.4,6.9-1.9,7.9s-1.3,4-1.7,6.8c-.4,2.7-1.3,6.1-2,7.5-1.4,2.6-3.4,13.7-4,22.8-.2,2.9-1.1,6.7-2,8.5s-1.9,5.2-2.2,7.7-1.3,5.8-2.3,7.5c-2,3.6-3.7,11-4.9,22.6-.6,4.8-2.1,12.7-3.5,17.5-1.3,4.9-2.7,11.6-3.1,14.9-.3,3.3-1.2,7.6-2,9.5s-3.3,8.4-5.6,14.3c-2.4,6.2-5,11.2-6.1,11.8-1,.5-1.8,1.9-1.8,3,0,1.2-.8,3.8-1.8,5.8-3.8,7.4-7,20.9-9.2,38.6-.4,3.3-1.4,8-2.3,10.5-6.2,17.9-9.7,26.3-11.8,28.6-1,1.1-1.9,2.8-1.9,3.7s-1.6,5.6-3.6,10.4-4.2,11-4.9,13.7c-.8,2.6-2.5,6.5-3.8,8.5-1.4,2.1-3,5.3-3.5,7.2-.6,1.9-3.3,9.9-6,17.9-6,17.8-9.1,27.7-10.8,35.3-.8,3.2-2.6,8.4-4,11.5-4.1,9-5,11.3-6.9,17.2-1,3-2.1,5.9-2.5,6.5-.5.5-1.3,3.6-1.9,6.8-.6,3.3-2.4,10-4,15.1-2.7,8.5-7.1,27.2-9.1,39.1-2.5,14.8-3.9,21.4-4.8,23.1-.5,1.1-1.7,4.7-2.6,8.1-1.4,5.9-2.3,10.5-4.6,24.3-.5,3-1.4,8.4-2.1,12s-1.3,9-1.5,12c-.1,3-.7,10.4-1.3,16.5-1.6,17.8-2.5,61.1-1.2,65.9.9,3.4,2.2,15.3,3.6,34.1,1.4,17.4,2.6,27.2,4.4,34.5,1.2,4.7,2.6,11.2,3.1,14.4,1.7,9.3,5.6,23.7,7.9,28.6,1.1,2.5,2.1,5.7,2.1,7.2s1.6,6.1,3.5,10.2,3.5,8.1,3.5,8.8,1.6,4.4,3.5,8.2c1.9,3.7,3.5,7.5,3.5,8.4,0,.8,1.8,4.7,3.9,8.6s4.4,9.2,5.1,11.6c.6,2.5,2.4,5.8,4,7.5,1.5,1.6,3.1,4.3,3.4,6,.8,3.1,4.9,9.9,7.7,12.5.9.8,2,2.6,2.4,4s2.9,5.2,5.4,8.5c2.6,3.3,5.3,7.4,6,9.1.6,1.7,3.4,5.3,6.2,8,2.7,2.6,4.9,5.4,4.9,6.1s2.7,4,5.9,7.2,6.4,6.9,7,8c1.1,2,8.7,8.5,22.4,19.1,3.9,3,8.5,7.5,10.1,10,1.7,2.5,3.3,4.6,3.7,4.8s1.7,1.2,3,2.3c1.2,1.1,3.4,2.2,4.8,2.6,1.4.3,4.6,2.2,7.1,4.3,2.5,2,7.9,5.6,12,8s8.8,5.4,10.4,6.7,5.9,4,9.5,5.9,7.7,4.1,9.1,4.9c1.4.7,4.5,2.1,7,3s7.2,3,10.5,4.6,7.6,3.2,9.5,3.5c1.9.4,5.3,1.6,7.5,2.7,3.8,1.8,6.3,2.7,24,7.8,3.9,1.1,9.7,2.3,13,2.6s7.4,1.2,9,2.1c2,1.1,7.1,1.8,15,2.3,8.2.4,13,1.1,15,2.3,2,1,5.4,1.6,10.1,1.6,4,0,8.7.6,10.6,1.5,2.6,1,9.6,1.6,25.9,2,22.6.5,39.8-.4,55.9-3,4.7-.8,10.3-1.7,12.5-2,2.2-.4,4.9-1,6-1.5,4-1.6,10-3,12-2.8,1.1.1,5.8-1.5,10.5-3.5s10.9-3.9,13.7-4.3c2.9-.4,5.8-1.3,6.4-2,.6-.8,1.8-1.4,2.5-1.4.8,0,1.4-.5,1.4-1,0-.6.9-1,1.9-1,1.1,0,2.1-.3,2.3-.8.2-.4,3.6-1.7,7.6-3,3.9-1.3,7.2-2.7,7.2-3.3,0-.5.6-.9,1.4-.9.7,0,2.5-1.1,4-2.5,1.9-1.8,3.8-2.5,6.7-2.5,2.1,0,3.9-.4,3.9-.9s3.4-2.9,7.6-5.3c8.7-4.9,9-5.1,16.6-10.1,3.1-2,6-3.7,6.3-3.7s3.5-2,7.2-4.5c3.6-2.5,7-4.5,7.5-4.5s4.8-2.7,9.4-6.1c5.5-4,8.4-6.7,8.4-8,0-1.5.7-1.9,3.3-1.9s8.8-3.1,13.2-6.8c2.4-2,12.6-8.2,13.4-8.2.5,0,3.7-1.8,7-4s6.2-4,6.5-4,2.5-1.3,4.8-2.9c2.4-1.6,8.2-4.8,12.8-7,4.7-2.2,9.6-4.7,11-5.5,4.5-2.6,13.4-6.3,18.3-7.7,2.6-.7,4.7-1.7,4.7-2.1s1.5-.8,3.4-.8,3.7-.4,4-.8c.3-.5,4-1.7,8.3-2.6,4.3-1,8.9-2.2,10.2-2.7s3.2-.7,4.2-.4c1,.4,2.4.3,3.1-.2,2.1-1.3,25.9-5.5,31.3-5.6,2.8,0,6.4.4,8,.9,4.4,1.4,12.5,6.4,16,10,1.6,1.7,4.5,3.6,6.3,4.2,1.9.7,4.9,2.5,6.8,4.2,1.9,1.6,4.5,3,5.9,3,3.7,0,9.2,4.1,11.1,8.3,2.2,4.8,2.2,14.2,0,18.5-.9,1.7-1.6,5.3-1.6,7.9,0,6.6-1.7,12.1-4.6,15-2.2,2.2-2.9,4-2.5,7,.1.6-1.9,1.9-4.3,2.8-5.6,2.1-7.1,4.4-8,11.8-.7,5.3-1.1,6-4.6,8.3-4.2,2.8-6,6.5-6,12.5,0,3-.6,4.2-2.6,5.6-5,3.5-6.9,6.5-8.5,13.1-1.5,6.4-1.7,6.7-5.5,7.9-2.1.7-4.7,1.6-5.6,1.9-1,.4-1.8,1.6-1.8,3,0,1.2-.5,2.6-1.1,2.9-.6.4-.8,1.3-.5,2,.2.7,0,3-.7,5-.8,2.8-2,4.1-4.7,5.3-4.6,2.1-9,6.1-9,8.3,0,.9-.6,2.2-1.4,2.9-.8.6-1.6,2.6-1.8,4.3-.3,2.8-1.1,3.6-6.2,6.2-6.3,3.2-10.1,8.1-12.2,15.5-.7,2.8-2.2,4.4-7.1,7.5-5.3,3.4-6.3,4.5-6.8,7.5-1.4,8.7-2.9,11.4-8.3,14.3-4.6,2.5-5.3,3.4-6.3,7.3-.6,2.4-1.5,4.7-2,5s-.9,1.8-.9,3.3c0,2.5-.5,3-3.4,3.5-4.5.9-7.1,3.9-11.3,12.9-1.2,2.5-2.6,3.9-4.3,4.3-4.1.8-7.2,2.7-8.9,5.4-5.2,8.4-6.5,10-8.4,10.5-5.3,1.5-9.6,3.9-10,5.6-.3,1-2.1,2.8-4,3.9-1.9,1.2-3.8,2.7-4.1,3.5s-2,2.1-3.8,3c-1.8,1-4.7,3.2-6.5,5.1s-4.6,3.7-6.3,4c-2.1.5-3.2,1.4-3.6,3.1-.6,2.3-4.9,5.3-7.7,5.3-.8,0-2.7,1.2-4.2,2.6-2.3,2.1-3.4,2.5-6.2,1.9-3.5-.6-3.6-.6-4.7,4.7-.4,1.6-1.2,2.8-1.9,2.8-3.6,0-16.7,10-16.7,12.8,0,.4-1.7,1.4-3.7,2.1-5,1.8-10.4,7.5-13.7,14.4-1.5,3.2-3.5,5.8-4.6,6.2-5.1,1.6-12.3,11.9-14.5,20.6-.3,1.4-2.4,4.2-4.5,6.3-4.1,4-10,17-10,22.1,0,1.4-1.2,4.3-2.6,6.5-2.9,4.4-6.4,15.6-6.4,20.6,0,1.7-.9,5.1-1.9,7.5-2.6,5.8-4.1,32.7-2,36.5.9,1.8,1,3.7.2,8-1.9,10.6.2,15.1,10.2,22.1,2.8,1.9,8.4,5.9,12.5,8.9,8.2,5.9,12.1,7.2,17.2,5.5,1.8-.6,6.4-1.4,10.3-1.7,3.8-.4,8.7-1.3,10.8-2,2.2-.8,5.4-1.4,7.2-1.4,1.7,0,5.8-.9,9.1-1.9,3.2-1.1,8.2-2.2,10.9-2.6,2.8-.4,6.6-1.4,8.5-2.2,1.9-.9,5.5-2.2,8-2.9,6.4-1.8,11.1-3.7,14-5.5,1.4-.9,4.8-2.4,7.5-3.4,6.4-2.2,14.4-6.2,17-8.5,1.1-1,3.4-2.1,5.2-2.5,1.7-.3,3.7-1.3,4.4-2.1s2.6-2.1,4.3-2.8,4.4-2.5,5.9-4c1.5-1.4,3.2-2.6,3.8-2.6.5,0,.9-.4.9-.9s1.5-1.4,3.3-2.1c3.7-1.5,3.7-1.6,17.5-14.8,5.6-5.4,10.2-10.3,10.2-10.8,0-1.8,39.1-40.6,47.4-46.9,1.4-1.1,2.9-2.8,3.2-3.8.3-.9,1.2-1.7,2-1.7,1.3,0,6.4-4.7,10-9.2.5-.7,2.8-2.7,4.9-4.3,6.4-4.9,12.7-11.6,17.4-18.3,7-9.9,18.9-18.8,31-23.2,8.8-3.2,10-4.1,12.3-8.7,1.5-3.1,3.3-4.9,6.3-6.3,2.3-1.1,4.7-2,5.3-2s1.4-1.2,1.8-2.8c4.4-20.1,16.4-37.1,33.1-46.9,5.7-3.3,15.8-16.5,16.7-21.8,2.7-15.1,12.5-32.5,23.4-41.2,2.4-2,4.5-4.7,5.3-7,2-6.4,7-15.5,11.5-21.3,3.5-4.5,4.5-6.7,5.3-12.1,1.2-7.5,3.8-15.5,7.2-21.9,2-4,2.3-6.1,2.5-17.5.2-14.4,1.8-21.5,7.9-33.5,5.1-10.1,5.7-13.3,3.8-19.9-.9-3.5-1.6-10.6-1.7-19.1-.2-10.9-.7-14.6-2.4-19.3-2.4-6.5-4.3-18.9-4.1-25.8.2-3.3-.4-5.5-1.8-7.5-3-4.3-6.8-12.2-8.8-18.4-1-3.2-3.8-8-6.6-11.5-5.6-6.8-10.2-15-12.9-23.1-1.5-4.3-3.4-7.1-8.1-11.6-6.7-6.6-12.6-15.1-15.9-23.2-1.6-3.7-3.2-5.8-5.5-7-5.2-2.8-12.9-9.6-19-16.9-3.2-3.7-6.2-6.7-6.9-6.7-2,0-13.9-6-18.7-9.5-2.6-1.8-7.4-4.4-10.8-5.8-8.9-3.6-16.5-8.4-22.7-14.5-4.3-4.2-7-5.9-12.7-7.8-4-1.4-8.2-3.2-9.4-4s-3.2-1.4-4.3-1.4c-2.1,0-5.2-1.5-8.2-3.9-1.1-.9-2.9-1.1-5.1-.7-2.4.4-3.8.2-4.6-.8-.9-1-2-1.2-3.4-.7-3,1.1-15.1.6-21.7-.9-5.9-1.3-8.1-1.3-20.3-.4-5.7.4-8.2.2-9.4-.8-1.3-1-1.7-1-2-.1-.3.8-2.2,1.3-4.8,1.3-2.4,0-6.6.4-9.2,1-2.6.5-10.9,1.4-18.3,2.1-7.4.6-15.9,1.4-18.7,1.6-3.7.3-5.3.9-5.3,1.9,0,.8-.7,1.4-1.5,1.4s-1.5.5-1.5,1c0,.7-2.3.9-6,.7-5.4-.3-6.2-.1-9.2,2.6-3.9,3.4-8.8,5.7-12.2,5.7-1.4,0-2.7.4-3,.9s-2.7,1.2-5.3,1.6c-2.8.4-5.8,1.6-7.3,3-1.4,1.2-6.5,3.5-11.5,5.1-4.9,1.5-9.7,3.3-10.5,4s-3.8,1.9-6.6,2.7c-5.8,1.7-8.8,3.2-12.4,6.3-1.4,1.2-3.6,2.4-5,2.7-5.1,1.1-11.4,3.9-14.2,6.2-1.6,1.4-4.7,3-6.9,3.6-2.1.7-4.4,1.8-5,2.6-.6.7-1.7,1.3-2.5,1.3-.7,0-1.9.8-2.6,1.9-1.4,2-6.9,5.1-9.1,5.1-.8,0-2.3,1.1-3.3,2.5s-2.7,2.5-3.7,2.5c-.9,0-4.8,2.3-8.6,5-3.8,2.8-7.4,5-8,5s-1.1.4-1.1.9-1.5,1.6-3.3,2.4c-1.8.9-4.5,2.7-6,4.1-2.6,2.4-8.3,4.6-11.9,4.6-1.3,0-1.8.8-1.8,2.8,0,2.1-.7,3.2-2.6,4.1-1.5.6-4.6,2.7-6.9,4.6s-4.7,3.5-5.4,3.5c-.6,0-4,2.2-7.6,4.9-3.5,2.7-8.1,5.5-10.2,6.1-2.1.7-4.9,2.1-6.2,3.1-1.3,1.1-3.2,1.9-4.3,1.9-1,0-4.1,1.1-6.8,2.5s-6.2,2.5-7.8,2.5-3.5.6-4.1,1.4c-.6.7-3.8,1.6-7.1,2s-6.2,1.1-6.5,1.6-2.5,1.5-4.8,2.1-5.4,2-6.8,3c-1.5,1-3.1,1.9-3.7,1.9-.5,0-2.3.7-4.1,1.6-3.3,1.7-10.1,1.2-10.1-.6,0-.6-1.8-1-4-1s-4-.5-4-1c0-.6-.9-1-2-1s-2-.5-2-1c0-.6-1.5-1-3.4-1s-3.8-.5-4.1-1c-.3-.6-3.5-1-6.9-1-7.2,0-12.7-1.9-16.2-5.7-1.6-1.7-4.3-3-8.6-3.9-8.7-1.9-11.5-1.8-12.7.5-1.5,2.7-7.2,3.5-11.5,1.7-3.2-1.3-3.6-1.9-3.6-5,0-3.4-.1-3.5-2.6-2.6-3.3,1.3-3.9.9-5.9-4.4-1.2-3.2-2.6-4.8-4.6-5.7-1.7-.6-4.2-2.6-5.7-4.4s-5-4.9-7.8-6.9c-2.9-2-5.9-4.7-6.8-6.1-1.5-2.3-3.7-3.8-10.3-6.9-1.8-.8-3.3-2.2-3.3-3,0-.9-.4-1.6-1-1.6-.5,0-1-.9-1-1.9,0-1.1-1.6-3.7-3.5-5.8s-3.5-4.3-3.5-4.9-1.1-2.1-2.5-3.4-2.5-2.9-2.5-3.5c0-.7-.9-2.4-2.1-3.9-1.1-1.4-3.2-5.4-4.5-8.8-1.4-3.5-3.1-7.7-3.8-9.3-.8-1.7-2.4-5.5-3.6-8.5s-2.9-7.1-3.7-9c-3-6.9-3.5-9.7-4.3-27.5-.7-16.7-1.9-25-4-30-2.2-5-2.5-19.9-1.6-73,.5-32.5,1-42,2.2-46,.9-2.8,2.2-7.5,3-10.5s3.2-11.1,5.4-18c6.5-21,8-26.4,8-28.5,0-3.3,4.7-21.8,6.4-25,.9-1.7,1.6-4.1,1.6-5.5.1-2.9,3.5-13.7,5-15.5.5-.7,2.4-6.7,4-13.4,1.7-6.7,3.4-12.9,3.9-13.9.5-.9,1.4-3.5,1.9-5.7.6-2.2,2-6.5,3.2-9.5,2.1-5.4,3.5-9.6,8.4-25.5,1.3-4.4,3.2-10,4.1-12.5,1-2.5,2.8-8.1,4-12.5,1.3-4.4,3.5-12.1,5-17,1.5-5,2.9-10.1,3.2-11.5s1-2.7,1.4-3,1.3-3.9,1.9-8c.7-4.1,1.6-8.4,2.1-9.5,1-2.3,2.8-11.2,3.5-17,.3-2.2.9-4.9,1.4-6s1.1-4.7,1.5-8c.3-3.2,1.2-8,2-10.5s1.9-7.2,2.6-10.5c.6-3.3,1.5-6.9,1.9-8,.7-2,2.5-8.8,4-15.5.5-1.9,3.2-9.6,6-17,11.7-30.4,14-38.7,17-60.5.6-3.9,2.5-12.4,4.4-19,4.5-15.9,6.4-24.6,7-32.8.3-3.7,1-8.4,1.5-10.5.5-2,1.4-7.5,2-12.2s1.5-12.3,2.1-17,1.5-13.9,2.1-20.5c.5-6.6,1.2-13.6,1.4-15.5,1.7-17,2.6-25.5,3.5-31.5.5-3.9,1.2-10.2,1.5-14,.3-3.9,1-12.2,1.6-18.6s.8-14.5.5-18-.8-14.1-1.1-23.4c-.3-9.4-1.2-21.1-2-26-1.9-11.5-4.2-32.3-5.1-44.5-.3-5.2-1-11.8-1.5-14.5-.6-2.8-1.6-10.9-2.4-18.1s-1.8-14.2-2.4-15.5c-1-2.7-2.9-13.3-3.5-19.4-.2-2.2-.6-4.7-.8-5.5-1.5-4.6-2.9-12-3.8-20.2-.9-8.1-2.1-14-7.2-37.3-1.1-5.2-2-7.5-7.3-19-5.9-12.8-7.5-16.5-7.5-17.5,0-.6-.9-2.8-2-5s-2-4.7-2-5.7c0-2-4.1-10.2-11.4-22.9-2.5-4.5-4.6-8.7-4.6-9.3s-.4-1.1-.9-1.1-3.3-3-6.2-6.8c-2.9-3.7-7.3-9-9.8-11.7-2.6-2.8-5.9-6.6-7.6-8.5-1.6-2-6-6.9-9.6-11-3.7-4.1-7.6-9.7-8.7-12.3-1.2-2.6-4.3-7.3-6.9-10.5-2.7-3.1-5.9-7.2-7.2-9.1-3.4-4.8-4.8-6.5-12.6-14.6-3.8-3.9-9-9.3-11.4-11.9-2.5-2.5-4.8-4.6-5.3-4.6-.4,0-1.4-1.3-2.3-2.9-.8-1.7-2.6-3.6-3.9-4.3s-4.6-2.5-7.4-4c-2.7-1.5-7-4.1-9.5-5.8s-6.3-3.7-8.4-4.6-5.1-2.2-6.8-2.9c-6.8-2.9-11.7-4.5-13.9-4.5-1.3,0-4-.7-6.1-1.6-2.2-.9-5.9-1.4-9.3-1.2-3.2.1-8.8-.1-12.7-.5-4.7-.5-7.6-.3-8.9.4Z"/>
  </g>
</svg>