<svg xmlns="http://www.w3.org/2000/svg" id="Ebene_1" version="1.1" viewBox="93.06 189.82 140.69 152.46">
  <!-- Generator: Adobe Illustrator 30.1.0, SVG Export Plug-In . SVG Version: 2.1.1 Build 136)  -->
  <defs>
    <style>
      .st0 {
        fill: #fff;
        opacity: .7;
        stroke: #1d1d1b;
        stroke-miterlimit: 10;
      }

      .st1 {
        fill: #7c7c7d;
      }

      .st2 {
        fill: none;
      }
    </style>
  </defs>
  <path class="st0" d="M233.53,237.8c-.03-.25,0-.52.07-.6.16-.2-.43-1.86-.76-2.14-.13-.11-.34-.45-.46-.75-.29-.79-3.63-3.77-4.35-3.9-.28-.06-.62-.25-.76-.44-.2-.24-.92-.46-2.7-.79-1.33-.24-2.51-.51-2.61-.6s-.62-.05-1.14.08c-.54.13-1.24.15-1.57.05-.34-.09-.88-.16-1.23-.13-.32.02-.84-.03-1.14-.12-.66-.18-6.86.69-7.1.99-.1.12-.55.3-1,.37-.45.1-1.09.3-1.42.45s-1.06.37-1.64.47-1.09.23-1.16.31c-.05.07-.37.18-.71.26-.73.17-4.9,2.1-5.13,2.38-.1.12-.54.29-.99.36-.46.09-1.47.47-2.27.84s-1.53.65-1.64.6c-.43-.13-.33-.69.22-1.37.42-.52.59-.93.76-1.87.12-.66.32-1.45.43-1.74.19-.54,0-3.49-.25-3.7-.07-.06-.56-.07-1.09-.02s-1.02.04-1.11-.03c-.33-.28-1.06,0-1.56.63-.35.43-.85.8-1.7,1.21-.66.33-1.3.71-1.43.88-.64.79-1.69.49-1.43-.42.64-2.35.95-3.7.93-4.19,0-.75.85-3.99,1.15-4.37.13-.16.25-.58.26-.93.02-.82.16-1.38.44-1.71s1-3.41.98-4.17c0-.31.08-.86.19-1.2.13-.39.04-3.29-.22-7.61l-.42-6.98-.57-.32c-.41-.26-.62-.5-.83-1.04-.15-.4-.47-.87-.7-1.07s-.43-.52-.45-.72c-.02-.29-.47-.74-2.71-2.63-1.53-1.29-2.75-2.23-2.8-2.17s-.38.09-.73.04-.86,0-1.11.08c-.43.15-.49.22-.62.74-.2.89,0,1.37.87,2.11.58.49.83.81.96,1.29l.19.63.64.07c.55.06.83.22,2.06,1.27s1.53,1.22,2.07,1.32c.74.13.89.32,1.02,1.34.06.39.19.79.3.88s.29,1.56.4,3.26.31,3.34.42,3.64c.12.31.14.87.05,1.26s-.09.9.02,1.15c.12.28.08.79-.12,1.48-.17.56-.31,1.35-.3,1.72,0,.73-.15,1.48-.99,4.57-.3,1.11-.6,2.46-.67,3.03s-.22,1.29-.3,1.6c-.09.29-.14.86-.1,1.25.05.58-.03.83-.39,1.28-.29.36-.56.97-.76,1.73-.18.71-.52,1.53-.87,2.07-.31.49-.63,1.14-.7,1.45-.11.47-.19.59-.75.95-.32.22-.77.55-.96.7-.28.24-.57.24-1.5.02-1.23-.31-2.19-.2-3.81.49-.74.3-.95.49-1.83,1.58s-1.02,1.34-1.26,2.33c-.2.78-.21,1.2-.06,1.45.32.45.31.85-.08,2.4-.52,2.1-.89,2.3-2.24,1.16-.76-.64-.95-1.14-.59-1.59.1-.12.23-.51.29-.84.11-.59.07-.67-.63-1.26-.49-.41-.84-.6-1.04-.54-.72.16-.93-.02-1.07-.95-.08-.54-.27-1.02-.46-1.19-.18-.16-.36-.47-.41-.69s-.36-.62-.77-.99c-.59-.5-.72-.7-.79-1.32-.06-.39-.22-.91-.36-1.16-.4-.68.04-1.19,1.72-2.03.78-.38,1.5-.81,1.63-.97.12-.15.47-.35.79-.47.31-.1.69-.34.84-.53s.47-.4.68-.46c.23-.08.8-.38,1.29-.68.47-.3,1.3-.64,1.84-.75s1.09-.35,1.23-.52.83-.61,1.52-1c.69-.37,1.35-.78,1.46-.92s.77-.5,1.48-.81c1.18-.52,1.35-.65,2.12-1.6.8-1,.84-1.1.84-1.89,0-1.02.29-2.58.53-2.88.1-.12.16-.61.17-1.1,0-.8.05-.95.65-1.69.56-.7.72-1.04,1-2.26.2-.83.49-1.62.69-1.88.37-.46.42-1.36.08-1.65-.24-.21-1.18-.05-1.42.25-.1.12-.25.49-.33.81-.14.56-.19.61-.74.87-.51.22-.6.33-.77.82-.1.32-.42.96-.72,1.4-.46.72-.54,1-.5,1.75.02.49,0,.96-.09,1.06-.23.28-.53,1.7-.52,2.43,0,.96-.13,1.2-.84,1.53-.34.17-.75.45-.91.64s-.83.57-1.51.85-1.34.64-1.47.8c-.12.15-.49.43-.8.61-.3.17-.68.46-.83.65-.14.17-.82.55-1.5.84s-1.35.65-1.49.82-.51.4-.82.51c-.32.11-.71.37-.87.57s-.56.52-.88.71c-.3.17-.66.44-.78.58s-.76.49-1.44.77c-1.09.46-1.31.61-1.92,1.36-.45.55-.83.9-1.1.97-.48.14-.91.67-.96,1.18,0,.24-.26.71-.57,1.08-.49.61-.53.75-.48,1.97.03,1.34-.29,2.81-.76,3.39-.14.17-.26.71-.25,1.17,0,.47-.08,1.2-.19,1.61s-.15,1.3-.1,1.96c.04.67,0,1.58-.11,2.05s-.17,1.28-.14,1.81c.05.52,0,1.03-.07,1.14-.08.09-.62.38-1.2.62s-1.37.58-1.77.79c-.9.46-1.77.77-2.83.98-.43.09-.84.22-.88.27s-.99.54-2.11,1.09c-1.11.53-2.09,1.06-2.18,1.17-.38.47-.84.31-2.12-.77-.69-.58-1.66-1.29-2.16-1.58s-1.4-.87-1.98-1.29l-1.08-.75-1.28.16c-1.64.2-3.33.94-3.95,1.71-.27.34-.68.64-1.03.76-.46.16-.75.43-1.49,1.34s-1.05,1.2-1.4,1.3c-.43.13-.94.7-4.9,5.56-4.22,5.15-4.45,5.41-5,5.61-.32.11-.82.3-1.1.42-.29.1-.9.28-1.36.39-.45.12-.89.29-.98.4s-.36.22-.61.25c-.35.05-.53-.04-.77-.35-.3-.39-.34-.4-.5-.02-.39.92-.5,1.05-1.05,1.2-.31.08-.64.07-.72,0-.1-.08-.45-.2-.8-.29-.48-.11-.67-.07-.92.24s-.25.42.05.68c.78.66.69,1.06-.36,1.6-.34.17-.65.45-.76.69-.19.36-.15.44.5.99.89.76,1.51.76,2.12,0,.33-.4.63-.55,1.4-.72.62-.13,1.1-.34,1.28-.57.16-.2.54-.44.86-.56.31-.1.72-.38.92-.63.23-.28.62-.49,1.22-.62.48-.11.93-.26.99-.34.05-.07.65-.35,1.34-.64s1.34-.64,1.47-.8c.12-.15.45-.38.74-.53.42-.19,1.29-1.17,5.16-5.86,3.63-4.37,4.77-5.68,5.19-5.93.29-.16.84-.69,1.21-1.15.59-.73.79-.87,1.36-1,.63-.14.68-.13,1.21.46.34.4.7,1.09.95,1.86.38,1.16.43,1.25,1.19,1.73.68.46.83.63.99,1.17.11.34.36.78.57.96s.36.4.36.5c-.02.1-.55.71-1.19,1.35-.75.75-1.2,1.31-1.3,1.59-.13.34-.31.51-.8.73-.42.19-.84.56-1.3,1.12-.5.62-.84.89-1.25,1.04-.42.14-.75.43-1.29,1.08-.67.83-.77.91-1.48.99-.39.05-1.02.04-1.36-.02s-.84-.08-1.11-.03-.8.02-1.19-.06c-.81-.17-3.37.09-4.06.41-.26.12-.57.35-.69.5-.13.16-.78.51-1.47.8l-1.23.5-1.45,1.8c-1.26,1.56-1.45,1.87-1.52,2.4s-.27.84-1.6,2.49-1.53,1.97-1.6,2.49-.27.84-1.34,2.17c-.86,1.06-1.33,1.77-1.47,2.18-.13.44-.74,1.32-2.08,3.04-1.59,2.03-1.9,2.51-1.97,2.95-.07.46-.32.86-1.59,2.43-1.19,1.48-1.54,1.98-1.57,2.33-.05.48-.92,1.44-1.26,1.4-.09-.01-.24.07-.34.19s-.76.31-1.48.43-1.38.31-1.48.43-.7.31-1.34.41c-.65.11-1.43.35-1.77.54-.46.27-.76.31-1.26.16-.52-.17-.77-.11-1.34.23-.39.23-.77.59-.88.81-.24.5-1.18.67-1.62.3-.24-.21-.63-.17-.83.09-.02.03-.05.52-.05,1.09,0,.61-.12,1.17-.28,1.37-.37.46-.49,1.04-.24,1.24.11.09.61.27,1.12.38.72.16,1.02.14,1.3-.1.2-.17.56-.43.81-.6.25-.15.7-.49.99-.74.63-.55,3.02-1.68,4.01-1.88.39-.08.78-.22.87-.33.08-.09.6-.28,1.14-.39.54-.11,1.05-.29,1.13-.38.07-.08.56-.21,1.06-.26.52-.06,1.24-.26,1.61-.47.36-.19.98-.4,1.37-.47,1-.15,1.45-.54,1.62-1.42.11-.54.33-.97.83-1.59s.71-1.01.76-1.46c.05-.37.27-.84.55-1.19.26-.32.52-.83.61-1.14.1-.43.58-1.16,2.08-3.09,1.58-2.01,1.97-2.59,2.01-2.98.03-.32.28-.76.76-1.35.52-.65.73-1.03.79-1.48.07-.53.27-.84,1.38-2.22s1.31-1.7,1.38-2.22c.07-.55.27-.84,2.23-3.27,2.14-2.65,2.15-2.66,2.72-2.73.45-.07.7.03,1.15.41.38.32.8.52,1.17.54.71.06,1.6.74,1.62,1.28.05.61-1.89,2.9-2.64,3.17-.51.18-.75.43-2.31,2.35s-1.79,2.17-2.31,2.35c-.52.19-.75.43-3.23,3.49-2.47,3.07-2.66,3.34-2.74,3.91-.08.5-.27.84-1.17,1.96s-1.09,1.45-1.17,1.96c-.07.53-.27.84-1.34,2.17-1.18,1.47-1.28,1.63-1.54,2.68-.15.62-.45,1.43-.67,1.81-.21.39-.41.92-.44,1.19-.02.28-.18.66-.35.86-.18.23-.31.74-.3,1.4,0,.85-.1,1.14-.47,1.6-.47.58-1.09,2.11-1.17,2.88-.02.23-.17.56-.31.74s-.37.91-.51,1.65-.29,1.38-.32,1.42c-.21.26-.98,3.54-.93,3.96.03.27-.03.88-.15,1.34-.11.47-.19,1.18-.14,1.58.02.4-.02,1.05-.1,1.43-.09.4-.08,2.29.05,4.23.17,2.86.29,3.75.68,4.69.26.65.51,1.45.56,1.78.05.32.27.84.46,1.14.2.31.33.62.27.68-.07.08.72.84,1.97,1.89,1.27,1.08,2.12,1.71,2.19,1.63.05-.07.91.05,1.9.27,1.39.29,2.09.34,3.18.2.76-.13,1.62-.12,1.92,0,.39.15.69.11,1.12-.14.31-.19,1.81-.51,3.46-.74,1.58-.22,2.96-.51,3.05-.61.1-.12.77-.32,1.51-.47.74-.15,1.4-.33,1.48-.43s.49-.22.92-.27.93-.23,1.13-.4.78-.4,1.26-.52c.51-.12,1.03-.35,1.18-.54.14-.17.82-.55,1.5-.84.68-.28,1.38-.69,1.55-.9.22-.27.64-.48,1.21-.61.8-.18.94-.27,1.57-1.05.6-.74.86-.94,2.01-1.47.89-.42,1.46-.78,1.75-1.15.24-.3.69-.68,1.01-.87.3-.17.67-.45.8-.61.12-.15.48-.36.8-.48.35-.13.75-.43,1.06-.8s.69-.68.98-.76c.32-.11.83-.54,1.61-1.36.61-.66,1.34-1.43,1.59-1.71.26-.28.65-.58.86-.68.27-.11,1.59-1.66,4.65-5.46,4.07-5.04,4.26-5.31,4.35-5.9.06-.51.27-.84,1.19-1.98.86-1.06,1.18-1.38,1.47-1.41.48-.07.87.28,1.05.98.12.42.36.76.9,1.21.88.75,1.46,1.84,1.39,2.69-.04.78-1.22,2.25-2.03,2.54-.46.16-.75.43-1.48,1.33s-1.03,1.17-1.54,1.37-.73.4-1.18,1.06c-.43.61-.72.89-1.19,1.12-.41.2-.87.6-1.26,1.08-.45.55-.8.84-1.2.98-.42.14-.75.43-1.28,1.07-.52.65-.85.93-1.28,1.07-.35.13-.75.43-1.06.8s-.71.67-1.06.8c-.46.16-.75.43-1.47,1.31-.55.69-1.12,1.23-1.48,1.45-.37.21-.93.77-1.62,1.62-.86,1.06-1.15,1.32-1.61,1.49-.46.16-.75.43-1.47,1.31-.59.73-.89,1.44-.88,2.11,0,.55-.05,1.09-.15,1.21-.09.11-.17.62-.19,1.13s-.06.97-.11,1.03c-.04.05-.11.77-.14,1.58-.02.79-.1,1.52-.16,1.61s-.08.89-.06,1.81c.03.93-.06,2.19-.24,2.88-.36,1.44-.41,3.95-.09,4.22.28.24,1.45-.02,1.74-.36.12-.15.29-.59.4-1s.4-1,.67-1.34c.46-.56.6-1.21.34-1.44s-.12-.87.37-1.48c.62-.77.62-1.08.02-1.59-.37-.31-.45-.54-.47-1.41,0-.55.06-1.12.15-1.23s.16-.66.15-1.21.04-1.07.11-1.15.1-.53.08-.99l-.05-.83,1.25-1.55c.82-1.02,1.41-1.62,1.7-1.78.51-.25,1.1-.97,1.32-1.66.12-.35.27-.52.66-.69.28-.12.79-.55,1.14-.93.34-.39.99-1.02,1.42-1.4s1.26-1.2,1.85-1.83c.72-.77,1.22-1.18,1.55-1.29.37-.12.7-.43,1.4-1.3s1.04-1.18,1.49-1.34c.42-.14.75-.43,1.28-1.07s.85-.93,1.28-1.07c.45-.14.75-.43,1.42-1.25.5-.62,1.07-1.18,1.42-1.38.3-.17.86-.68,1.23-1.14.47-.58.82-.87,1.27-1.03l.63-.24.11-.67c.05-.37.21-.8.34-.96.28-.35.45-.94.44-1.57,0-.25.14-1.06.33-1.81.38-1.54.39-1.46-.21-3.05-.25-.66-.48-1.65-.52-2.16s-.19-1.2-.34-1.51-.28-.98-.28-1.49v-.93l3.29-4.09c2.87-3.55,3.36-4.11,3.67-4.14.28-.04.63.17,1.48.89.92.78,1.24.96,1.71.99.33.03.72.16.89.3s.57.28.89.3c.44.04.79.22,1.48.8.78.66.9.83.93,1.35l.03.6-2.15,2.53c-2.29,2.71-2.77,3.23-3.42,3.7-.23.19-.45.48-.53.75-.11.36-.24.5-.64.68-.39.17-.92.76-2.38,2.56-1.69,2.1-1.93,2.35-2.45,2.52-.32.11-.6.24-.65.29s-.08.56-.09,1.13c0,.65-.12,1.17-.3,1.4-.16.2-.33.64-.37.97-.05.34-.25.83-.47,1.09-.27.34-.37.64-.33,1.05.07.81-.32,2.56-.65,2.98-.16.2-.33.64-.4.98-.06.38-.38,1.03-.83,1.7l-.73,1.08.38.93c.59,1.47.8,1.4,2.91-.85.59-.65.7-.84.74-1.43,0-.37.17-.85.33-1.05s.39-.87.51-1.5c.13-.62.37-1.63.57-2.28.2-.63.34-1.7.33-2.35-.02-1.2-.02-1.22.49-1.44.44-.22,1.32-1.26,6.48-7.65l5.97-7.4v-1.03c0-.56.11-1.14.22-1.28.18-.23.05-1.34-.18-1.53-.07-.06-.21-.43-.3-.82-.12-.51-.34-.85-.74-1.2-.35-.3-.62-.68-.71-1.06-.1-.36-.36-.76-.7-1.05s-.6-.69-.7-1.05c-.18-.7-.41-.92-1.12-1.06-.38-.07-.56-.18-.64-.43-.16-.43.37-1.81.82-2.09.51-.32,1.16-1.28,1.03-1.51-.26-.45-.14-1.1.27-1.61.43-.54.53-1.16.22-1.42s-.14-1.23.28-1.57c.31-.28.35-.41.18-.84-.25-.64.27-2.83.77-3.22.39-.3,2.58-.51,3.48-.34.39.08.85.02,1.1-.14.24-.14,1.08-.37,1.89-.51,1.45-.24,2.39-.58,4.08-1.53.5-.26,1.27-.55,1.72-.65.69-.12.9-.25,1.34-.79.33-.4.72-.71,1.08-.83.47-.17.75-.43,1.66-1.54s1.09-1.45,1.17-1.96c.04-.33.2-.76.35-.95s.3-.6.35-.95c.04-.33.2-.76.35-.95.14-.2.31-.56.36-.83s.24-.66.41-.9c.17-.22.36-.67.41-1.01.04-.33.22-.79.38-.99.17-.22.41-.92.54-1.58.31-1.66.72-2.78,1.27-3.46.27-.34.49-.81.54-1.18.04-.33.2-.76.35-.95s.3-.6.35-.95c.12-.89.92-1.83,1.96-2.25.93-.39,3.83-1.1,3.98-.98.05.04.31.05.56.02.37-.05.52-.19.91-.79.46-.72.48-.72,1.69-.92.67-.11,1.26-.27,1.34-.36.07-.08.23-.57.36-1.08.22-.88.27-.95.74-1.17.28-.15.55-.37.6-.51.13-.37-.25-.66-.67-.57-.25.06-.43-.05-.83-.5-.67-.77-1.25-.72-1.96.15-.28.35-.79.75-1.17.94s-.87.57-1.11.87c-.6.74-2.72,1.82-4.02,2.03-1.29.22-4.25,1.59-4.75,2.21-.22.27-.51,1.04-.7,1.89-.19.79-.43,1.56-.55,1.71s-.47,1.3-.78,2.55c-1.02,4.07-1.12,4.4-1.39,4.73-.15.19-.42.98-.61,1.77s-.43,1.56-.54,1.69c-.12.15-.33.81-.47,1.48-.24,1.09-.35,1.33-1.08,2.23-.91,1.13-.99,1.15-1.79.48-.24-.21-.71-.4-1.04-.42-.36-.04-.79-.22-1.13-.51s-.77-.47-1.13-.51c-.68-.05-1.87-.97-2.33-1.79-.26-.49-.32-.52-.72-.38s-.97-.12-.79-.35c.13-.16.09-1.1-.05-1.22-.07-.06-.33-.08-.58-.04-.35.05-.6.24-1.05.79-.72.89-1.02,1.08-1.29.86-.11-.09-.48-.88-.82-1.76-.67-1.67-.88-3.55-.46-4.08.31-.39,2.24-.68,3.13-.48.64.13.93.07,2.21-.55,1.39-.65,1.5-.74,1.68-1.27.1-.3.31-.8.46-1.11.4-.77.68-2.32.47-2.65-.08-.16-.1-.56-.03-.88.2-.76.14-.94-.44-1.44-.27-.23-.51-.52-.54-.64-.09-.37.2-1.62.46-1.94.13-.19.29-.54.35-.81.14-.65.15-.67.94-.83.38-.09,1.17-.41,1.76-.73.57-.33,1.22-.64,1.42-.72.22-.07.62-.41.9-.76.43-.54.65-.65,1.5-.84.54-.11,1.05-.29,1.14-.39.08-.09.54-.26,1.03-.38s.93-.26.98-.32c.07-.08.58-.21,1.16-.31s1.27-.3,1.57-.44.93-.34,1.42-.45c.51-.12.96-.27,1.03-.35.08-.09.54-.26,1.04-.39s.97-.31,1.05-.4c.09-.11.52-.26.97-.33.45-.1,1.08-.29,1.37-.42.31-.15.81-.22,1.13-.15.31.05.9.08,1.28.07.39-.03.79,0,.89.1s.55.13.99.09c.45-.02,1.42.07,2.15.21s1.73.22,2.23.17,1.48,0,2.17.14c.68.15,1.47.22,1.69.18.59-.11.74.06.96,1.04.16.75.26.9,1.17,1.67.78.66,1.02.95,1.14,1.42s.36.76,1.17,1.44c.56.48,1.07,1.02,1.15,1.22.44,1.21,2.58.53,2.44-.78l-.09.04ZM157.07,306.91c-.56-.18-.39-.67.68-1.99.8-1,1.07-1.25,1.26-1.18.56.18.39.67-.68,1.99-.8,1-1.07,1.25-1.26,1.18ZM153.01,311.94c-.62.02-.59-.41.08-1.25s1.17-1.05,1.4-.58c.17.33-1.02,1.8-1.48,1.83ZM165.8,294.81c-.27-.23-.11-1.09.29-1.54,2.22-2.49,2.7-2.86,2.99-2.27.1.2-.11.52-1.45,2.13-1.5,1.78-1.6,1.88-1.83,1.69h0ZM162.98,298.38c-.13-.07-.2-.28-.16-.49.1-.48.74-.69.94-.32.18.36-.44,1.01-.78.81ZM159.4,302.99c-.14-.03-.28-.21-.3-.39-.04-.26.24-.68,1.34-2.04s1.45-1.72,1.7-1.73c.17-.01.38.09.43.23.1.18-.14.56-1.4,2.12s-1.58,1.88-1.77,1.81h0ZM149.32,315.56c-.16.02-.41-.08-.57-.21-.27-.23-.26-.29.13-.62.24-.2.62-.54.86-.74.53-.48,1.05-.54.99-.11-.07.42-1.09,1.63-1.42,1.68h0ZM164.15,297.01c-.27-.02-.46-.48-.3-.68.13-.16.53-.12.77.09.15.12-.25.62-.48.59h0ZM147.06,317.21c-.36.06-.38,0-.36-.96,0-.56-.04-1.07-.11-1.14-.06-.05-.33-.05-.59.02-.38.09-.47.05-.49-.19,0-.25.14-.33.78-.43.82-.12,1.43.17,1.27.62-.05.14,0,.53.12.87.21.68,0,1.13-.62,1.2h0ZM145.71,318.35c-.11.04-.37.03-.57-.05-.19-.09-.53-.04-.73.09-.52.31-.68.1-.44-.51.2-.53.13-.75-.2-.62-.3.11-.77-.38-.66-.69.06-.15.28-.51.52-.8.53-.66.89-.44.81.48-.06.79.1.92,1.11,1,.65.06.77.11.74.36-.05.34-.3.65-.58.75h0ZM154.42,307.02c-.27-.23-.06-.89.28-.94.39-.05.52.42.22.8-.2.24-.33.28-.5.14ZM142.66,320.66c-.77.23-1.34.02-1.01-.38.22-.27,1.55-.95,1.81-.94.33.05.42.47.17.78-.13.16-.57.4-.97.54ZM169.38,286.39c-.53-.06-.56-.45-.06-.69.52-.24,1.12.32.64.61-.09.06-.36.08-.58.08h0ZM167.94,287.63c-.42.06-.71-.29-.63-.69.15-.62.31-.67.81-.24.39.33.45.47.29.66-.11.13-.31.26-.47.28h0ZM156.25,301.67c-.25-.03-.65-2.02-.44-2.18.08-.05.3,0,.5.13.24.16.34.42.34,1.03,0,.85-.09,1.06-.39,1.02h0ZM152.55,305.74c-.29.07-.61.25-.73.4-.36.44-.7.59-.94.38-.31-.26.03-.93.63-1.26.37-.23.51-.43.79-1.14.43-1.15.73-1.21,1.1-.24.38.98.09,1.62-.85,1.86h0ZM149.25,309.78l-.57.15-.14.74c-.17.87-.36,1.16-.71,1.05-.26-.08-.39-.92-.2-1.16.05-.07,0-.35-.1-.65-.27-.68.04-1.05.75-.86.32.09.64.05.82-.12.34-.32.84-.35,1-.04.17.33-.19.72-.86.88h.01ZM157.81,299.02c-.16-.13-.14-.39.04-.46s.3.23.15.42c-.05.07-.15.08-.2.04h.01ZM136.17,325.1c-.26.07-.64.21-.83.29s-.48.07-.65-.03c-.39-.24-.06-.64.75-.95.4-.16.8-.48,1.18-.95.61-.75,1.03-.85,1.12-.23.07.47-.96,1.7-1.56,1.88h0ZM164.7,289.39c-.89.44-1.18.24-1.14-.78.03-.57-.06-.84-.33-1.07-.21-.18-.39-.44-.4-.61-.03-.45.44-.9.84-.83.33.05.37.18.4.81l.02.74.6.1c.69.11,1.2.7.92,1.05-.1.12-.5.39-.91.59ZM171.51,280.97c-.06-.05-.08-.16,0-.24.05-.07.17-.08.23-.03.07.06.07.17,0,.24-.07.08-.16.09-.23.03ZM138,322.29c-.11-.05-.08-.2.04-.35.23-.28.43-.25.45.06,0,.21-.26.37-.48.29h0ZM154.11,301.35c-.21-.2-.44-.33-.49-.26-.07.08-.36.06-.65-.06s-.68-.17-.85-.13c-.44.08-.64-.15-.55-.62.09-.34.2-.42.63-.55.42-.12.59-.07.95.28l.42.45.38-.63c.34-.55.42-.6.8-.48.47.15.58.38.31.71-.11.13-.22.56-.28.94-.05.39-.12.71-.18.73-.05,0-.28-.17-.49-.39h0ZM162.76,290.69c-.07-.15-.08-.31,0-.39.12-.15.56.15.57.42,0,.25-.42.24-.56-.02h0ZM169.84,282.13c-.36-.12-.38-.14-.21-.36.16-.2.6-.13.62.1,0,.25-.14.35-.42.26h.01ZM158,296.69c-.13-.11-.17-.3-.08-.41.29-.36.56.07.34.58,0,.02-.12-.06-.25-.17h0ZM145.72,311.61c-.39.05-.51-.09-.27-.38s.56-.32.65-.04c.07.24-.04.38-.38.42h0ZM143.17,314.64c-.27-.1.03-1.22.42-1.52.19-.13.38-.22.44-.17.38.32-.42,1.87-.87,1.69h0ZM159.25,293.99c-.85.14-1.35-.37-.88-.95.27-.34.41-.35.92-.2.5.15.63.26.67.52.06.44-.02.51-.71.62h0ZM155.98,298.02c-.81.11-.84-.67-.04-.94.44-.17.76-.05.77.27.03.27-.36.62-.73.67h0ZM132.27,326.76c-.07-.06-.17-.35-.22-.64s-.25-.66-.44-.83-.43-.57-.53-.9c-.1-.36-.41-.8-.7-1.05-.6-.51-.61-.83-.03-.93.68-.13,1.4.35,1.45.98.03.27.16.61.3.73.31.26,1.35.14,1.7-.19.15-.14.35-.23.44-.19.27.1-.03.86-.49,1.19-.29.21-.45.48-.56.97-.15.67-.61,1.11-.92.85h0ZM161.41,289.73c-.53.5-1.01.62-1.38.31-.26-.22-.06-.51.64-.95.47-.3.5-.37.45-.94-.06-.69.02-.87.41-.87.2-.01.32.14.43.54.09.32.25.66.38.78.17.14.15.24-.1.43-.18.12-.56.43-.83.7h0ZM144.15,311.46c-.22-.19-.28-.57-.1-.79.12-.15.24-.5.28-.78.08-.5.09-.52.28-.26.1.13.1.38,0,.56s-.17.47-.14.63c.04.28-.19.75-.31.64h0ZM138.37,318.29c-.1-.13-.09-.37.03-.57.21-.36.4-.32.43.13.02.43-.25.69-.45.43h0ZM168.53,280.48c-.47.26-.9-.01-.82-.51.07-.42.43-.59,1.21-.58.93.02.77.5-.39,1.1h0ZM135.12,321.7c-.5-.42-.57-2.13-.09-2.32.39-.15.78.25.87.89.15,1.06-.28,1.85-.78,1.42h0ZM136.95,319.56c-.27-.1-.27-.79,0-.96.28-.17.71.15.6.46-.1.32-.4.57-.59.5h-.01ZM155.33,296.09c-.76.4-1.08.17-1.06-.76,0-.78.21-1.11.69-1.09.19,0,.34-.09.36-.22.05-.32-.41-.41-.65-.12-.11.13-.28.19-.38.11s-.27-.07-.41,0c-.29.18-.54,0-.34-.24.09-.11.34-.14.58-.08.34.09.51,0,.83-.39.36-.44.42-.46.6-.15.1.18.35.46.56.61.66.54.71,1.52.08,1.86-.14.07-.53.28-.87.46h0ZM148,305.71c-.12-.03-.47.15-.81.42-.57.45-.64.46-1.1.14l-.47-.33.65-.65c.35-.36.69-.66.75-.68.17-.04,1.33.99,1.24,1.09-.03.04-.15.06-.26.01h0ZM165.06,284.06c-.35-.18-.66-.92-.48-1.13.1-.12.33-.18.5-.14.26.04.37.18.44.6.1.59-.09.88-.46.67ZM130,327.51c-.35-.18-.1-1.1.26-1.07.14,0,.33.15.44.3.24.34-.34.96-.7.77h0ZM133.2,323.18c-.14-.05-.36-.4-.49-.77-.14-.37-.35-.77-.48-.88-.37-.31-.26-.63.25-.72.59-.11,1.47.65,1.51,1.3.03.57-.42,1.18-.79,1.08h0ZM148.75,303.18c-.33-.08-.44-.17-.45-.38s.12-.3.55-.37c.71-.12.96.09.61.52-.18.23-.41.31-.71.24h0ZM153.24,296.97c-.07-.19-.08-.41-.03-.48.07-.08.22-.04.35.07.16.13.17.3.03.48-.2.24-.24.22-.35-.07ZM152.35,298.14c-.36.14-.67.4-.94.81-.72,1.07-1.79,1.25-1.81.3l-.02-.54,1-.35c.55-.19,1.03-.38,1.06-.42.14-.17.13-1.54-.02-1.67-.23-.2-.29-1.27-.09-1.52.13-.16.26-.14.42.04.17.19.16.41-.02.73-.22.4-.2.51.21,1.02,1.04,1.26,1.05,1.25.2,1.59h.01ZM163.01,284.82c-.13-.25-.03-.84.17-.85.21-.03.29.58.09.83-.09.11-.2.12-.27.02h.01ZM129.17,326.04c-.99-.07-1.2-.27-.95-.89.32-.86-.05-.81-.95.1-.27.29-.25.36.21.76.76.71,1.13,1.46.92,1.89-.3.6-.51.58-1.38-.17-.44-.4-1.22-1.01-1.74-1.39-.71-.49-.91-.7-.85-.88.11-.34,1.78-1.08,2.09-.93.31.13.6-.15.72-.71.1-.46.6-.82.85-.62.1.08.4.2.67.25.45.08.55.19.96.9s.53,1.38.32,1.65c-.03.04-.42.06-.85.03h-.02ZM159.68,288.49c-.03-.09,0-.24.05-.32.05-.07.16-.07.22-.02.07.06.05.2-.05.32-.09.11-.18.12-.22.02ZM156.74,292.01c-.56.03-.63-.44-.14-.89.34-.32.44-.51.39-.96-.06-.66.43-1.27.82-1.05.43.23.39.72-.11,1.33-.28.35-.45.71-.41.9.06.41-.14.65-.54.67h-.01ZM141.79,310.28c-.26-.08-.42-.63-.25-.84.16-.2.6.03.64.36.06.41-.08.59-.39.48ZM135.43,317.64c-.47-.06-.72,0-.93.26-.15.19-.2.4-.11.47s.2.31.24.52c.08.36.06.39-.41.56-.43.15-.58.1-1.15-.39-.65-.55-.65-.57-.39-1.05.64-1.23.83-1.36,1.51-1.21.35.07.77.04.94-.07.38-.27.96-.16,1.18.2.27.46-.15.8-.88.71ZM163.11,283.57c-.14.02-.78-.89-.76-1.07.04-.26.64-.52,1.04-.45.18.04.38.21.49.41.16.31.14.41-.24.73-.24.2-.49.38-.54.38h0ZM166.08,279.63c-.43.07-.58-.04-.54-.35.03-.11.25-.24.51-.27s.49.03.53.13c.07.29-.07.44-.5.49ZM159.47,287.75c-.13-.11-.23-.28-.21-.38.03-.24.63-.24.7,0,.09.32-.25.58-.49.38h0ZM125.61,329.14c-.49.13-.64.07-1.11-.35-.89-.84-.93-.86-1.37-.42-.33.33-.43.36-.65.11-.15-.15-.27-.53-.28-.85s-.08-.64-.16-.72c-.8-.82-1.07-1-1.36-.97-.18.02-.37.1-.42.16s-.37.18-.7.25c-.55.12-.69.07-1.33-.47l-.7-.61.38-.47c.49-.61.51-.86.15-1.34-.38-.52-.04-.97.8-1.04.34-.03.75-.11.94-.2.32-.14.33-.13.36.37.03.57-.33,1.12-1.07,1.61-.44.29-.49.38-.48.82.02.4.09.48.36.47.19,0,.39-.08.46-.16.22-.27,2.5-.47,2.95-.26.35.18.4.34.4,1.24,0,1.24.3,1.64.79,1.03.63-.78,1.75-.26,2.67,1.24.14.26-.01.4-.64.57h.01ZM161.52,284.47c-.11-.05-.11-.16-.02-.29s.26-.14.37-.05c.21.18-.07.44-.35.34h0ZM148.65,300.29c-.43.02-1.05-.33-1.01-.56.1-.55,1.35-.55,1.5,0,.09.28-.15.55-.49.56ZM139.68,310.85c-.1-.08-.24-.32-.3-.5-.06-.26-.23-.4-.55-.51-.26-.08-.54-.3-.62-.48-.29-.54-.54-.68-1.16-.62-.9.1-1.16-.3-.67-1,.52-.78.97-1.08,1.34-.92.33.12.55-.12.37-.43-.06-.1-.19-.07-.29.05-.11.13-.25.13-.35,0-.26-.34.17-.8.55-.58.17.1.44.14.6.1.17-.04.43.05.6.19.22.19.24.41.05,1.01-.31,1-.23,1.39.32,1.72.63.37.92,1.36.56,1.81-.16.2-.33.26-.44.17h-.01ZM159.32,285.97c-.62-.21-.71-.83-.29-1.96.23-.62.46-1.11.52-1.12.06,0,.24.18.41.41.23.31.27.66.16,1.33-.17,1.05-.42,1.46-.79,1.34h-.01ZM156.1,290.09c-.27.18-.52.24-.59.14-.13-.22.17-1.64.35-1.71.33-.13,1.03.87.8,1.15-.04.05-.3.24-.57.42h0ZM150.09,296.8c-.32-.27-.34-.49-.06-.66.48-.29.78-.31,1.1-.04.16.13.12.28-.17.65-.37.46-.39.46-.87.06h0ZM146.34,302.31c-.4.25-.76-.19-.45-.56s.61-.39.78-.07c.13.25.05.4-.32.63h0ZM135.07,315.64c-.49-.03-.71-.35-.51-.84.28-.78,1.19-.96,1.44-.28.17.48-.36,1.14-.92,1.12h-.01ZM131.49,320.1c-.28-.03-.34-.6-.1-.9.29-.36.64-.25.6.19-.04.46-.24.73-.51.7h0ZM153.8,291.67c-.87.17-1.07.07-1.07-.56,0-.36-.11-.52-.44-.69-.55-.29-1.14-1.06-.97-1.27.08-.09.34-.19.58-.21.4-.04.44-.01.56.48.09.32.27.56.53.7.21.09.61.31.88.49s.56.36.62.39c.48.27.25.48-.69.68h0ZM144.41,303.74c-.45.02-.99-.99-.97-1.84.03-.93.28-.91.4.02.09.83.17.94.69,1.04.62.1.52.76-.12.78ZM137.27,311.84c-.24,0-.65-.16-.89-.35-.41-.28-.43-.36-.22-.7.42-.64,1.55-.52,1.93.21.2.37-.31.89-.82.84h0ZM147.85,297.84c-.46.42-.63.5-.88.35-.41-.26-.11-1.63.4-1.85.18-.1.36-.19.39-.23.11-.13-.41-.48-.59-.41-.1.05-.29-.02-.41-.12-.18-.16-.14-.28.3-.81.5-.57.52-.65.27-.92-.16-.18-.55-.31-.96-.31-1.01-.02-1.04-.47-.04-.74.29-.07.68-.33.87-.57.38-.47.71-.55,1.17-.3.16.09.49.05.74-.08s.59-.2.78-.18c.19.05.54-.06.8-.23.4-.27.48-.27.58.04.2.51.02,1.1-.47,1.55-.24.22-.4.47-.37.57.06.23-.23.6-.38.47-.06-.05-.03-.25.08-.43.15-.24.13-.44-.06-.64-.24-.24-.4-.25-.88,0-.33.18-.66.39-.75.5-.22.27,0,1.25.33,1.53.24.21.24.32-.03.65-.36.44-.15.8.4.75.25-.03.21.04-.21.44-.29.25-.77.7-1.09,1v-.03ZM160.61,281.93c-.2-.17-.26-.9-.09-1.12.25-.31.5-.14.53.36s-.21.95-.44.76ZM133.18,316.07c-.33.2-.72-.16-.64-.56.11-.47.64-.66.99-.36.32.27.19.59-.35.92h0ZM154.17,289.72c-.22-.03-.27-.77-.05-.86.25-.08.51.18.42.45-.11.34-.17.42-.37.41h0ZM130.83,317.8c-.19-.09-.19-.23.02-.48.29-.36.62-.41.72-.1.09.3-.46.72-.73.58h-.01ZM121.05,329.72c-.31-.05-.42-.2-.56-.7-.45-1.51.13-2.58.6-1.12.13.38.37.81.54.96.26.22.26.34.05.61-.15.19-.41.31-.62.26h-.01ZM145.28,299.52c-.12-.1-.35-.2-.51-.21-.23-.02-.27.02-.27.41,0,.57-.05.62-.63.5-.66-.13-.81-.57-.37-1.13.18-.23.43-.66.54-.95.14-.38.33-.61.64-.79.57-.35.89-.22.93.38.02.29.1.56.19.63.24.21.21.68-.06,1.02-.16.2-.32.25-.46.13h0ZM134.81,312.54c-.14-.05-.27-.16-.26-.24-.02-.2.78-.61.94-.47.2.17-.4.8-.68.71h0ZM126.17,323.48c-.22.02-.39-.56-.27-.89.11-.29.59-.5.8-.32.2.17-.24,1.16-.52,1.21h-.01ZM156.18,285.47c-.32.04-.3-.7.04-1.1.33-.38.89-1.76.85-2.13,0-.37.41-.76.96-.91.29-.07.6-.24.7-.36.11-.13.24-.2.31-.15.12.1-.38,1.03-.95,1.71-.26.32-.37.64-.34.93.05.38-.06.56-.65,1.21-.39.41-.8.77-.92.78v.02ZM140.05,305.18c-.07-.24.21-.64.35-.52.05.04.1.2.11.37.02.33-.37.46-.47.15h0ZM126.69,321.05c-.81-.66-1.79-1.2-1.91-1.05-.05.07.01.21.13.32.49.41.5.68.08,1.2-.23.28-.38.65-.36.83.06.44-.13.64-.66.69-.22.02-.64.18-.92.38-.27.18-.79.35-1.14.37-.59.02-.65,0-.82-.44-.1-.26-.18-.74-.19-1.07-.02-.72-.22-.93-.68-.71-.52.24-.65.02-.71-1.26s.22-1.85.95-1.94c.75-.09,1,.19.72.79-.21.46-.19.57.17.87.22.19.41.48.4.65,0,.34,1.51,1.73,1.68,1.51.21-.26.44-1.57.33-1.81-.08-.13-.27-.36-.44-.51s-.26-.45-.23-.71c.06-.43.13-.52.72-.89.35-.23.82-.48,1.06-.55.23-.08.53-.28.67-.45.38-.47.89-.65,1.17-.41.22.19.19.3-.23.78-.27.29-.55.62-.61.73-.23.33.31.53.84.31.68-.28.95-.06.63.51-.18.35-.18.55.06.87.29.4.33,1.2.05,1.4-.08.05-.43-.13-.77-.4h.01ZM130.71,316.23c-.3-.14-.3-.64-.03-.98.16-.2.56.15.58.51.02.43-.2.63-.54.47h-.01ZM129.16,317.56c-.58-.49-.28-1.57.4-1.47.55.11.63.26.43.87-.22.7-.5.89-.84.6h.01ZM133.17,312.81s-.17-.07-.3-.12c-.27-.1-.35-.77-.12-1.05.15-.19.54.02.75.45.12.21-.18.84-.33.72h0ZM131.27,314.15c-.17-.14-.48-.32-.72-.38-.62-.21-1.21-1.72-.84-2.18.5-.62,1.51-.03,1.18.66-.17.33.09.68.41.57.26-.1.73.32.75.68,0,.17-.09.42-.23.6-.2.24-.32.25-.54.06h-.01ZM150.26,290.37c-.1-.08-.17-.25-.15-.35.04-.26.63-.42.69-.19.09.28-.36.7-.54.54h0ZM144.74,296.11c-.28-.24.17-.54.59-.4.6.19.65.52.05.52-.27,0-.57-.05-.65-.12h0ZM118.28,330.05c-.39.05-.81-.35-.8-.74.01-.37.63-.94.84-.76.15.12.39,1.26.28,1.39-.02.05-.16.09-.32.11ZM139.22,303.48c-.18.07-1.14-.47-1.14-.65,0-.07.26-.3.59-.47.33-.2.76-.49.96-.66.48-.39.93-.08.74.51-.11.36-.82,1.14-1.15,1.27h0ZM153.94,284.84c-.05-.11-.04-.28.04-.38s.24-.14.34-.09c.12.03.1.18-.04.35s-.28.22-.34.12ZM154.12,282.91c-.6-.48-.85-.79-.8-.92.15-.42.69-.39,1.34.05.58.4.62.48.52.94-.05.27-.13.52-.15.57-.03.04-.44-.24-.91-.63h0ZM155.87,281.99c-.06-.05-.08-.16,0-.24.05-.07.17-.08.23-.03.07.06.07.17,0,.24-.07.08-.16.09-.23.03ZM151.08,287.49c-.22.04-.46.01-.55-.06s-.36-.04-.62.11c-.71.35-1.01-.04-.58-.79.39-.69.54-.77.56-.36.03.52.44.69.86.32.47-.4.94-.45,1.1-.11.17.3-.26.8-.76.89h-.01ZM147.83,290.92c-.24-.11-.51-.18-.6-.15-.23.08-.67-.32-.54-.48.18-.23,1.03-.49,1.41-.42.27.05.37.15.4.5.06.62-.15.8-.67.55h0ZM140.42,300.56c-.39.05-.74-.28-.63-.6.14-.4.77-.82.96-.66.15.12.16.95,0,1.14-.03.04-.18.1-.34.12h0ZM115.97,330.36c-.16.02-.35-.02-.45-.11s-.4-.14-.69-.13-.67-.11-.83-.25-.61-.29-1-.35c-.83-.12-1.27-.65-1.01-1.2.09-.19.29-.64.44-.98.47-1.09,1.16-.8.92.39-.14.74.1.95.78.66.53-.23,1.05-.02.99.38-.06.38.41.57.81.35.38-.2.85-.03.87.33.02.26-.53.86-.83.9h0ZM136.33,304.77c-.31-.1-.31-.74,0-1.11.26-.32.69-.19.75.22.06.44-.41.99-.74.89h0ZM133.01,309.06c-.06-.05-.09-.22-.09-.37,0-.34.47-.55.57-.27.07.24-.32.77-.47.64h-.01ZM143.98,294.65c-.73.04-.86-.03-1.24-.71-.3-.52-.14-.82.7-1.35.38-.24.58-.49.84-1.01.28-.6.36-.7.72-.74.4-.07.44-.04.64.48.23.63.17.76-.42.8-.44.04-.95.51-1.14,1.05-.06.18.05.4.29.61.67.57.55.85-.4.88h.01ZM142.82,296.46c-.31-.1-.4-1.01-.11-1.14.23-.08.76.31.77.56.03.3-.39.66-.65.58h-.01ZM131.26,310.54c-.32-.11-.46-.25-.55-.6-.16-.57-.38-.75-.79-.65-.18.02-.46-.07-.61-.24-.24-.24-.23-.4.03-.83.29-.46.27-.56-.05-.9-.2-.21-.33-.48-.29-.58.1-.28,1.22-1,1.41-.93.32.11.59.9.46,1.34-.08.27-.03.54.12.67s.33.48.41.8c.09.32.3.7.47.85.39.33.4.5.08.9-.17.22-.39.28-.69.19v-.02ZM128.35,314.53c-.32-.04-.3-.55.02-.59.28-.04.45.29.28.49-.05.07-.19.11-.31.1h0ZM151.95,284.29c-.55.22-1.1.04-1.04-.34.04-.2,1.73-.84,1.88-.72.11.09.06.41-.14.68-.05.09-.37.25-.7.38h0ZM133.41,306.86c-.29.1-.54.04-.83-.2-.73-.62-.41-1.46.5-1.28.48.09.56.15.73.62.22.59.2.67-.4.86h0ZM126.28,315.74c-.14-.03-.37.07-.51.2-.38.31-.96-.09-.96-.7,0-.25-.14-.57-.3-.7-.38-.32-.21-.76.32-.86.56-.11.58-.08.75.86.07.45.19.84.24.88.16.13.5-.34.49-.65,0-.14.1-.35.22-.45.2-.17.24-.14.33.39.11.61-.16,1.09-.57,1.04h0ZM138.14,300.46c-.55-.13-.6-.44-.12-.9.38-.4.83-.27.91.23s-.28.81-.79.67h0ZM128.02,312.84c-.42-.04-.4-.45.05-1,.23-.28.37-.32.55-.17.46.39.04,1.23-.6,1.17ZM116.11,327.69c-.42.03-.44.01-.49-.41-.08-.72.18-.86.73-.4.55.47.46.75-.24.81ZM136.35,301.58c-.4.04-.44-.01-.84-1.16l-.43-1.18h-.52c-.29-.01-.59.08-.65.18-.47.78-.79,1.57-.89,2.1-.14.79-.37.82-.68.08-.13-.32-.35-.66-.5-.78-.31-.26-.15-.51.47-.71.77-.23,1.47-.91,1.62-1.53.17-.72.25-.79,1.07-1.07.39-.12.86-.36,1.04-.5.19-.16.41-.22.49-.15.18.16.26,2,.09,2.41-.07.19.02.4.27.61.31.26.35.43.19.91-.15.49-.39.75-.73.78h0ZM126.65,313.81c-.05-.11-.02-.31.09-.44s.29-.21.4-.16c.12.03.09.19-.09.42s-.33.28-.4.19h0ZM139.32,297.64c-.07-.06-.42,0-.76.15-.35.13-.71.19-.81.11-.22-.19-.06-.84.29-1.18.43-.41,1.87.43,1.51.89-.05.07-.17.08-.23.03ZM122.02,318.7c-.14-.05-.25-.15-.27-.2-.01-.21.51-.43.68-.28.23.2-.09.58-.41.49h0ZM128.12,310.53c-.35-.2-.47-.72-.25-.99.18-.23.43-.05.72.52.25.48,0,.76-.46.47h0ZM148.15,285.42c-.06-.05-.08-.16,0-.24.05-.07.17-.08.23-.03.07.06.07.17,0,.24-.07.08-.16.09-.23.03ZM146.96,286.9c-.06-.05-.08-.16-.02-.22.07-.08.2-.12.3-.11.11.02.11.12.02.22-.1.12-.22.17-.3.11ZM139.14,294.88c-.13-.17-.16-.39-.05-.45.29-.21.79.22.84.71l.05.45-.3-.19c-.17-.1-.41-.33-.54-.53h0ZM144.28,289.61s-.05-.14-.03-.25c.02-.1.1-.14.16-.09.07.06.08.18.03.25-.07.08-.13.11-.16.09ZM131.79,304.96c-.09-.01-.16-.11-.14-.23.02-.1.12-.12.22-.04.22.19.19.3-.08.27h0ZM126.36,311.12c-.12-.1-.19-.38-.13-.61.06-.25.07-.6.01-.81-.1-.44.06-.66.38-.54.17.05.28.42.32.98.07.94-.17,1.33-.58.98h0ZM134.06,301.89c-.3-.03-.45-.49-.23-.76.23-.28.52-.13.54.3.02.33-.09.49-.31.46h0ZM125.16,312.23c-.18-.26-.45-.36-1.07-.38-.47,0-1.11-.08-1.43-.14s-.77-.02-.98.1c-.33.18-.41.15-.45-.08-.04-.21.16-.5.82-1.19l.88-.91-.28-.83c-.3-.93-.24-1.26.24-1.4.55-.17.86.39.68,1.25-.08.43-.22.86-.29.97-.25.31-.17,1.01.14,1.28.22.19.38.16.69-.09.58-.51,1.12-.21,1.18.63.03.34.11.68.19.75s.09.19.04.26c-.07.08-.22,0-.36-.22h0ZM121.84,316.24c-.33-.28-.24-.7.14-.58.36.12.57.55.32.7-.09.06-.3.02-.46-.12h0ZM116.05,322.96c-.39-.24-.48-.73-.21-1.06.17-.22.3-.17.71.17.46.39.48.43.15.76-.23.23-.41.28-.64.13h-.01ZM131.45,304.11c-.15-.12-.09-.53.07-.55s.27.36.13.52c-.05.07-.15.08-.21.03h0ZM122.78,314.41c-.02-.15.03-.32.13-.37.09-.04.19.07.21.25.02.15-.03.32-.13.37-.09.04-.19-.07-.21-.25ZM130.12,305.25c-.29-.25-.26-.63.07-.67.18-.02.27.07.31.31.07.45-.09.6-.37.36h-.01ZM147,283.92c-.58.19-1.64-.24-1.7-.69-.07-.47.09-.6.94-.73.73-.11,1.5.25,1.52.7.03.27-.3.58-.75.72h-.01ZM143.62,288.08c-.33-.1-.37-.79-.06-.98.3-.17.75.16.64.48-.13.41-.33.58-.59.5h0ZM126.4,307.99c-.56.29-1.13.4-1.29.27-.09-.07-.08-.34.01-.6.09-.29.17-.65.2-.81.01-.17.23-1.03.48-1.92.42-1.54.45-1.61.91-1.77.75-.27.99.2.44.89-.1.12-.32.7-.47,1.27-.29,1.09-.17,1.46.43,1.33.73-.17.84.78.1.99-.22.07-.58.21-.81.34h0ZM148.25,281.32c-.4.04-.74-.24-.61-.54.13-.32,1.02-.45,1.17-.17.17.33-.07.64-.55.71h0ZM149.04,279.22c-.21-.81-.05-1.22.49-1.24.26-.01.34.06.35.25.02.36-.36,1.62-.52,1.69-.07.03-.2-.28-.32-.7ZM118.1,318.17c-.1-.08-.1-.24,0-.35s.27-.11.41,0c.16.13.17.25,0,.35-.14.07-.31.08-.41,0ZM129.19,304.46c-.38.02-.62-.39-.39-.67.2-.24.62-.16.78.18.16.29.02.47-.39.48h0ZM137.23,293.6c-.28-.24-.18-.74.16-.79.32-.04.53.45.29.74-.13.16-.29.18-.45.05h0ZM110,327.04c-.18-.24-.51-.59-.73-.8-.48-.45-.45-.99.06-1.12.47-.1,1.33.88,1.29,1.52-.04.76-.26.91-.62.41h0ZM139.36,290.61c-.29-.15-.41-.92-.2-1.19.2-.24.66.2.72.7.05.47-.17.69-.52.49ZM134.14,296.11c-.79.08-1.58.2-1.78.26-.44.11-.52-.17-.19-.59.16-.2.46-.31.72-.3.25.03.71-.14,1.04-.37.74-.53,1.47-.5,1.73.06.1.24.12.49.05.58s-.78.25-1.56.35h0ZM116.48,319.16c-.31.19-.69-.11-.67-.55.02-.69,1.05-.97,1.15-.3.06.36-.08.61-.47.84h-.01ZM111.1,325.78c-.37.12-.74-.67-.47-1.01.12-.15.19-.59.15-.98-.07-.83.21-1.13.81-.85.49.23.66.58.42.88-.11.13-.24.52-.28.85-.09.65-.26.96-.65,1.11h.02ZM130.16,301.95c-.22.02-.37-.41-.21-.61.09-.11.23-.13.31-.05.27.23.22.62-.1.66h0ZM140.08,288.44c-.23-.31-.42-.4-.65-.34-.38.09-.91-.3-.87-.6.02-.1-.16-.36-.39-.56-.35-.3-.38-.39-.17-.66.29-.36.41-1.17.19-1.36-.21-.18-.82-.03-1.37.32-.26.17-.4.21-.31.1.07-.12.14-.45.13-.75-.02-.51,0-.53.62-.88.7-.36,1.05-.84.8-1.04-.1-.08-.7.11-1.37.4-.67.32-1.28.52-1.38.49s-.07-.33.06-.66c.39-.96-.25-1.23-.93-.38-.29.36-.72.43-1.03.17-.21-.18-.16-.27.58-1.03.79-.8.83-.9,1.13-2.17.16-.73.43-1.58.59-1.88.15-.31.44-1.01.63-1.57.32-.91.4-1,.73-1.08.45-.07,1.19-.74,1.97-1.73.41-.53.69-.75,1.09-.87.3-.06.6-.21.68-.31.2-.24.49,0,.48.43,0,.24-.17.42-.76.81-.4.27-.88.5-1.04.5-.5.03-.63.37-.35.97.22.46.22.62-.06.97-.26.32-.42.37-.8.23-.36-.12-.55-.08-.75.16-.14.17-.21.39-.16.45.32.36.43.36.78.05.28-.24.48-.29.69-.16.39.24,1.06.04,1.44-.41.26-.32.27-.31.14.05-.17.49.22,1,1.11,1.48.04.03.33-.1.62-.31.56-.36.88-.23.78.39-.03.24-.16.38-.46.52-.21.11-.63.3-.92.42-.28.15-.83.29-1.24.36-.76.13-1.06.53-.66.87.13.11.24.39.26.6.02.22.16.54.32.7.15.17.28.42.29.54.02.33.37.63.83.68.5.04.48.22-.14.63-.28.19-.58.41-.68.49s-.37-.05-.67-.29c-.44-.37-.51-.39-.76-.08-.46.56-.61,1.47-.27,1.56.33.1.52.25,1.05.91.55.69.57.98.12,1.33-.33.26-.33.28.03.27.34,0,.36.04.34.58-.02.33.07.67.18.77.12.1.13.22.04.26-.11.04-.34-.11-.53-.34h.02ZM132.54,298.34c-.6-.28-.79-.51-.58-.76.11-.13.31-.26.47-.28.3-.04.79.3.8.56.03.34-.37.61-.69.48ZM131.65,299.26c-.13-.04-.14-.14,0-.21.1-.07.29-.1.39-.05.13.04.14.14,0,.21-.1.07-.29.1-.39.05ZM147.03,279.87c-.29.05-.6,0-.73-.09-.18-.16-.14-.23.32-.57.65-.49,1.12-.59,1.29-.27.18.36-.27.84-.88.93ZM144.29,282.47c-.27-.02-.33-.12-.32-.43.05-.57.61-.86,1.06-.57.34.22.34.27-.02.64-.21.21-.54.38-.72.36h0ZM119.17,313.64c-.15-.12-.13-.29.04-.51.15-.19.25-.42.21-.52-.1-.33.44-.83.77-.7.48.18.45.34-.2,1.17-.51.63-.64.72-.83.57h.01ZM149.87,275.42c-.23-.02-.38-1.11-.28-2,.12-.89-.09-1.09-.94-.95-.82.12-1,.49-.49,1.01.25.25.17.65-.22,1.19-.53.73-.62.79-.78.58-.1-.13-.07-.67.08-1.25.14-.56.26-1.21.25-1.44-.03-.39,0-.43.55-.71.36-.19.84-.24,1.21-.15.58.13.63.17.6.46,0,.19.06.48.17.66.19.32.27,2.29.1,2.51-.04.05-.16.09-.25.08h0ZM112.46,320.32c-.62-.28-.76-.41-.85-.76-.15-.51.18-.98.75-1.08.39-.08.41-.13.36-1.01-.02-.51,0-.93.05-.93.04,0,.38.14.75.32.56.25.7.39.8.74l.12.44-.54.13c-.73.19-.85.41-.63,1.12.43,1.33.27,1.52-.81,1.03h0ZM141.27,285.15c-.37-.31.09-.8.5-.55.28.17.28.24.03.48-.19.18-.37.21-.53.07h0ZM146.56,277.83c-.88.14-1.08.11-1.18-.16-.06-.18-.06-.46,0-.62.07-.21,0-.35-.34-.52-.42-.22-.42-.24-.04-.64.28-.3.46-.36.7-.2.18.11.27.3.21.45s-.04.33.03.39c.26.22,1.18,0,1.46-.35.33-.4.74-.51,1.04-.25.26.22.18.47-.38,1.19-.38.49-.57.58-1.48.71h-.01ZM137.18,290.04c-.64-.02-.91-.32-.76-.85.11-.34.21-.46.46-.52.44-.11,1.03.44.93.86-.08.48-.14.54-.63.5h0ZM116.46,314.7c-.29-.25-.7-.57-.9-.72-.45-.31-.53-1.36-.16-1.69.29-.25,1.16.37,1.3.94.05.25.21.54.34.65.23.2.27.82.06,1.09-.08.09-.35-.02-.64-.27ZM123.81,305.71c-.01-.24.27-.2.33.05.07.19.05.22-.13.16-.11-.05-.19-.14-.2-.21ZM127.14,300.74c-.87-.83-.99-1.07-.7-1.43s1.11-.31,1.6.11c.33.28.24,1.2-.14,1.58-.21.21-.31.19-.76-.26h0ZM125.75,302.85c-.4-.14-.39-.92.02-1.43s.61-.43.77.27c.12.51-.39,1.28-.79,1.16ZM135.16,290.91c-.58.19-.98-.17-.64-.59.36-.44,1.16-.62,1.33-.3s-.12.71-.69.88h0ZM144.51,278.94c-.18-.16-.19-.27.03-.47.43-.41.87-.1.51.34-.22.27-.34.3-.54.13ZM130.12,296.95c-.32-.09-.29-.61.03-.81.13-.09.36-.06.48.04.28.24-.16.88-.51.76h0ZM119.04,310.58c-.28-.24-.31-.69-.07-.99.31-.39.63-.22.59.32-.04.67-.24.91-.52.67h0ZM109,323.05c-.17.13-.34.42-.39.64-.07.35-.12.38-.35.18-.15-.12-.34-.52-.46-.86-.25-.87.19-1.33,1.11-1.17.74.13,1.09.56.65.82-.15.08-.42.26-.56.39h0ZM120.62,307.62c-.26-.08-.59-.16-.74-.18-.16,0-.48-.07-.69-.13-.24-.06-.67-.07-.95-.02-.31.05-.64.03-.75-.07s-.43-.21-.71-.26c-.48-.09-.56-.15-.75-.66-.12-.31-.28-.96-.34-1.44s-.15-.99-.16-1.13c-.07-.33.22-.7.41-.53s.25.91.08,1.13c-.18.23-.01.37.67.5.48.09.62.18.85.63.35.61.48.61.72,0,.36-.9.74-.87,1.12.09.14.39.27.53.56.58.33.05.43-.02.83-.68l.45-.73.6.51c.33.28.62.59.61.67.02.08-.29.54-.67,1.01-.65.81-.71.85-1.12.7h-.02ZM132.34,292.95c-.23-.02-.32-.11-.33-.33-.02-.38.67-.5.87-.13.16.29-.08.5-.53.46h0ZM117.16,311.48c-.34-.29-.36-.85-.03-1.04.49-.31.92.55.51,1.05-.13.16-.29.16-.49,0h0ZM123.74,303.27c-.43.02-.57-.44-.34-1.08.14-.35.26-.46.66-.51s.5,0,.62.3c.17.46-.43,1.27-.94,1.29ZM134.4,288.95c-.51.07-1.01.05-1.11-.03-.23-.2.19-.72.69-.86.22-.07.51-.25.65-.42.15-.19.32-.25.43-.15.23.2.48,1.06.35,1.22-.05.07-.51.18-1.02.25h.01ZM127.58,297.85c-.35.05-.64-.18-.46-.39.15-.19.89-.34,1.03-.21s-.25.56-.57.6ZM141.1,280.54c-.19-.09-.2-.19-.02-.33.14-.13.35-.16.51-.07.19.09.2.19.02.33-.14.13-.35.16-.51.07ZM127.9,296.46c-.47.1-.87.06-1.05-.1-.16-.13-.27-.28-.25-.3s.08-.18.13-.32c.16-.43,1.59-.62,2.01-.27.48.4.16.77-.84.99ZM109.95,318.63c-.46.09-1.01.3-1.21.47-.34.3-.44.29-.87-.08-.94-.8-.47-1.35.89-1.08.39.08.98.01,1.33-.12.35-.16.71-.17.85-.05.35.3-.07.67-1,.85h.01ZM111.76,315.97c-.13-.11-.2-.26-.15-.33.12-.15.56-.03.57.16.02.29-.19.36-.42.16h0ZM148.38,270.31c-.87.24-1.68-.7-1.17-1.33.24-.3,1.42-.36,1.73-.1.21.18.24.97.06,1.2-.03.04-.31.15-.62.23h0ZM131.74,290.98c-.47-.08-.92-.87-.93-1.6,0-.62.2-1.01.46-.83.49.34,1.23,1.13,1.33,1.39.16.43-.41,1.12-.86,1.04h0ZM112.56,314.61c-.34,0-.49-.28-.28-.55.2-.24.75-.25.83,0,.07.27-.19.54-.55.55ZM134.85,286.77s-.33-.33-.7-.71l-.65-.7.37-.69c.42-.78.81-.95.9-.4.04.26.17.4.65.57.97.41.98.42.17,1.21-.39.38-.73.7-.74.71h0ZM107.45,320.63c-.27-.1-.07-.88.25-.92.16-.02.25.07.29.31.06.39-.24.73-.53.61h-.01ZM145.31,273.28c-.1-.08-.12-.26-.08-.41.06-.18.18-.19.33-.06.13.11.17.3.08.41s-.24.14-.33.06ZM110.06,316.86c-.48.16-2.7.36-2.84.25-.04-.03-.13-.22-.2-.42-.11-.32-.06-.44.48-.95.57-.56.6-.62.42-.96-.29-.56-.18-1.53.19-1.87.2-.17.34-.5.38-.85.04-.64.42-.91,1.19-.87.68.03.77.22.44.83-.25.44-.41.56-.86.63-.57.09-.58.1-.48.5.05.29.26.52.7.79.58.35.61.42.51.98-.1.51-.04.67.37,1.02.54.46.47.64-.32.93h.02ZM124.94,298.11c-.79.39-1.08.31-.67-.19.15-.19.33-.28.39-.23.07.06.24-.04.38-.22.17-.22.2-.42.06-.63-.16-.23-.16-.31.05-.34s.3.12.41.57c.07.35.13.63.11.66-.01.01-.34.19-.72.38h-.01ZM115.62,309.18c-.07-.24.21-.64.35-.52.05.04.1.2.11.37.02.33-.37.46-.47.15h.01ZM121.75,301.66c-.14-.05-.38-.19-.54-.32-.32-.27-.82-.13-1.19.33-.34.42-.85.26-1.08-.35-.1-.29-.36-.8-.57-1.18-.22-.37-.39-.76-.41-.87-.02-.29.95-.9,1.7-1.06.79-.19,1.12.09,1.14.92.02.54.15.81.65,1.34.36.37.67.75.7.87.09.28-.09.42-.39.33h0ZM113.25,312.27c-.7.18-1.01,0-1.32-.76-.43-1.05.01-1.42.81-.65.2.21.41.33.47.26.04-.05.26-.17.46-.22.32-.09.38-.06.43.23.06.41-.38,1.01-.85,1.13h0ZM119.42,304.3c-.23.08-.52.06-.63-.04-.12-.1-.42-.2-.66-.2-.65-.03-.98-.49-.67-.93.18-.25.48-.36,1.11-.4.94-.04,1.52.29,1.46.9-.05.48-.08.5-.6.67h-.01ZM127.31,294.05c-.42-.35-.78-.98-.66-1.12.07-.08.33-.18.57-.2.4-.04.44-.01.56.45.15.51-.19,1.11-.47.87ZM141.08,276.33c-.17-.07-.28-.21-.27-.3.05-.29.52-.47.75-.27.32.27-.08.74-.48.57h0ZM111.05,313.29c-.34-.19-.41-.77-.12-1.12.17-.22.44-.01.68.56.24.52-.1.87-.56.57h0ZM147.58,267.35c-.23.03-.68-1.3-.52-1.5.23-.28.81.07.93.56.12.42-.1.89-.41.94h0ZM131.41,287.39c-.23.03-.41-.62-.23-.83.25-.31.58-.16.56.25-.04.44-.12.56-.33.58ZM124.18,295.38c-.73.11-1.1.09-1.18-.09-.19-.35.14-.54.59-.32s.75-.04.93-.77c.06-.31.24-.63.37-.71.33-.2.74.18.8.7.07.65-.37,1.02-1.5,1.2h-.01ZM139.92,275.42c-.33-.15-.44-.42-.24-.68.2-.24,1.41-.5,1.6-.35.24.21-1.03,1.15-1.36,1.02h0ZM145.82,268.08c-.02-.31.25-.38.32-.09.04.1-.02.23-.12.28-.11.04-.19-.02-.2-.19h0ZM113.93,307.78c-.44-.14-.48-.66-.08-1.15.27-.34.44-.42.63-.3.55.29.02,1.63-.56,1.45h.01ZM142.15,271.04c-.42.16-.84.4-.92.51-.13.16-.29.05-.88-.57-.9-.95-1.09-.87-1.48.63-.28,1.17-.65,1.55-1.1,1.18-.29-.25-.27-.68.07-1.93.24-.88.35-1.07.79-1.37.45-.32.5-.41.4-.8-.15-.58,0-.72.86-.74.84-.02,1,.21.47.67-.49.4-.45,1,.08,1.45.45.38,1.02.39,1.33.01.28-.35.8-.43,1.27-.22.35.18.36.24.15.51-.14.17-.61.48-1.04.66h0ZM111.71,308.98c-.23.03-.26-.52-.03-.8s.54-.29.63-.01c.06.21-.35.79-.59.81h-.01ZM130.1,284.86c-.55-.11-.54-.17.02-.69.39-.35.65-.76.9-1.39l.37-.91-.53-.31c-.49-.28-.52-.33-.29-.61.3-.38.85-1.57.87-1.92.05-.55-.4-.68-.89-.25-.43.38-.48.39-.94,0-.55-.47-.6-.37.74-1.23.63-.42.79-.44,1.3-.21.56.25,1.25.13,1.31-.22,0-.08.18-.43.39-.74.19-.31.32-.63.28-.71-.24-.41-.18-.88.22-1.49.35-.59.47-.69.62-.56.11.09.33.12.51.09.52-.13.59.11.17.48-.57.47-.63.78-.28,1.24.35.48.26.81-.35,1.15-.36.22-.51.4-.68.85-.18.5-.3.63-.77.85-.29.14-.71.47-.91.72-.31.39-.33.54-.12.89.18.34.17.55-.07.98-.33.61-.24.81.36.76.58-.05.56.25-.03.86-.39.38-.58.71-.7,1.24-.15.67-.2.76-.65.96-.27.13-.64.21-.83.18h-.02ZM127.58,288.32c-.18-.06-.25-.28-.22-.64.04-.38-.06-.66-.29-.86-.42-.35-.42-.85,0-1.14.34-.24.67-.02.78.54.05.22.16.47.27.56.5.42.06,1.71-.52,1.53h-.02ZM125.12,291.03c-.21.08-.37-.05-.95-.78-.63-.8-.71-.85-1.05-.77-.21.08-.43.2-.51.3-.23.28-.75-.3-.65-.73.03-.22-.01-.6-.11-.84-.44-.98-.61-1.85-.41-2.09.23-.28.71-.01.65.37-.05.27.57,1.59.88,1.85.13.11.41.21.61.24.3.03.4.11.49.39.09.3.26.42.83.61.39.13.78.36.85.5.13.27-.21.8-.63.96h0ZM143,268.34c-.32.11-.67.16-.78.07-.22-.19-.08-.84.22-1.01.29-.18,1.17.06,1.24.33.09.28,0,.35-.69.62h0ZM132.98,280.73c-.31-.26.09-.67.46-.47.17.1.18.22.02.4-.16.2-.3.22-.48.07h0ZM113.05,305.14c-.25-.15-.61-.34-.8-.41-.3-.12-.32-.18-.13-.43.16-.2.3-.22.52-.03.16.13.48.18.7.1.51-.18.78.25.41.71-.21.26-.34.27-.71.06h.01ZM109.71,309.41c-.26-.08-.05-1.31.27-1.63.42-.39.72-.05.55.62-.18.68-.53,1.11-.81,1.01h-.01ZM115.69,301.64c-.06-.05-.07-.15,0-.23.05-.07.19-.06.3.03.1.08.09.19,0,.23-.1.05-.23.03-.3-.03ZM118.76,297.22c-.41.02-.62-.39-.34-.72.23-.28.63-.22.82.13.15.3-.07.57-.48.59ZM145.94,262.68c-.1-.04-.08-.18.03-.32s.2-.48.22-.79c.05-.93.49-1.06.8-.23.08.25,0,.44-.38.85-.27.29-.58.51-.67.47v.02ZM113.76,302.5c-.06-.05-.07-.15,0-.23.05-.07.19-.06.3.03.1.08.09.19,0,.23-.1.05-.23.03-.3-.03ZM120.18,293.33c-.21-.09-.44.01-.74.33-.34.37-.53.43-1.04.34-.74-.13-.91-.43-.53-.9s.39-.69.12-1.3c-.27-.64.02-1.2.52-.98.72.34.91.61.74,1.1-.39,1.07.12,1.41,1.05.71.8-.59,1.22-.6,1.16-.01-.03.32-.1.41-.51.61-.26.12-.62.16-.79.11h.02ZM116.26,298.64c-.68.28-1.19.38-1.67.28-.38-.09-.73-.09-.77-.04s-.03.4,0,.77c.14,1.1-.84,1.83-1.13.86-.16-.57-.41-.66-.91-.36-.49.33-.99.11-.84-.37.11-.29,1.91-1.22,2.42-1.24.17-.01.4-.11.51-.25.1-.12.54-.31.96-.43.44-.11.84-.28.92-.38.18-.23,1.4-.49,1.59-.33.2.17.21.66.04.87-.08.09-.58.37-1.13.61h0ZM122.31,291.12c-.28-.14-.15-.94.15-.98.09-.01.3.12.4.29.25.37-.17.9-.55.69ZM143.68,264.25c-.44.08-.85-.17-.79-.51.08-.48,1.27-.35,1.29.14.02.22-.05.29-.5.37ZM141.42,267.25c-.17.06-.55-.13-1.09-.56-.94-.7-.95-.94-.07-1.01.58-.05,2.08.31,2.08.51.02.2-.62.95-.92,1.06ZM108.61,307.49c-.22.02-.37-.41-.21-.61.17-.22.2-.19.38.14.14.26.07.42-.17.47h0ZM128.41,282.03c-.37-.2-.19-1.09.26-1.29.7-.33.94.44.34,1.06-.22.22-.45.32-.6.24h0ZM124.02,287.41c-.54,0-.83-.52-.54-.96.21-.34.35-.38.71-.26.72.23.6,1.19-.16,1.22h0ZM109.4,305.51c-.33.08-.38.06-.35-.2.06-.43.24-.61.63-.62.27,0,.32.04.28.29-.06.38-.1.41-.56.54h0ZM135.24,273.23c-.05-.14-.02-.36.09-.49s.29-.18.39-.1c.11.09.09.28-.09.49-.2.24-.3.27-.39.1ZM125.97,284.21c-.34.03-.67.2-.87.44-.53.66-1.17.53-1.26-.27-.07-.63.22-.83,1.29-.97.66-.08,1.08-.04,1.31.16.42.35.24.57-.47.64h0ZM143.82,261.79c-.35-.2-.21-.54.26-.6s.64.23.32.52c-.18.17-.38.2-.58.08h0ZM136.52,271.28s-.21-.27-.36-.5-.37-.59-.52-.78c-.23-.31-.21-.45.05-.77.21-.26.44-.37.67-.34.52.1.52.12.55,1.19.02.9-.14,1.42-.38,1.21h0ZM132.66,276.05c-.09-.01-.11-.12-.02-.22.1-.12.23-.16.3-.11.07.06.08.16.02.22-.07.08-.19.13-.3.11ZM120.11,291.03c-.23-.02-.37-2.04-.16-2.31.18-.23.53-.05.77.4.3.6-.12,1.96-.61,1.91ZM109.93,303.45c-.27-.02-.3-1.16-.05-1.47s.81-.36.96-.07c.1.2-.06.58-.55,1.32-.1.12-.25.24-.36.22ZM126.99,280.75c-.54-.2-.31-.97.28-.99.42,0,.6.44.3.8-.16.2-.38.27-.58.19ZM137.58,267.6c-.05-.11-.04-.28.04-.38s.24-.14.34-.09c.12.03.1.18-.04.35s-.28.22-.34.12ZM133.02,272.82c-.31.1-.59-.32-.37-.59.23-.28.87-.42.93-.19.08.25-.2.63-.56.77h0ZM116.58,292.66c-.16-.13-.17-.3-.03-.48s.3-.2.46-.06.17.3.03.48-.3.2-.46.06ZM113.39,295.46c-.31.19-.64.31-.74.3-.29-.02-.25-.73.06-1.12.16-.2.32-.63.37-.97.21-1.54,2.37-2.75,2.35-1.34.01.62-.44,1.37-.84,1.37-.44.01-.63.3-.48.72s.02.61-.73,1.03h.01ZM139.08,262.71c-.44.24-.87.42-.95.42-.09-.01-.29.18-.44.4-.16.23-.37.39-.47.35-.24-.09.82-1.63,1.79-2.6.91-.93,1.29-.83,1.04.24-.09.4-.18.73-.17.74,0,.01-.37.21-.8.46h0ZM135.5,266.63c-.64-.07-.62-.48.11-1.38.89-1.1,1.16-1.21,1.35-.53.12.46.08.57-.51,1.22-.44.49-.74.71-.95.69h0ZM132.52,270.36c-.14.43-.28.55-.87.85-.45.2-.9.58-1.28,1.05-.65.81-1.39,1.16-1.33.62.03-.16.71-1.14,1.55-2.18,1.35-1.67,1.57-1.89,2.19-2.15.79-.35.89-.31.83.3-.04.33-.16.5-.49.71-.31.21-.5.44-.61.8h0ZM133.92,267.9c-.11-.05-.08-.2.04-.35.23-.28.43-.25.45.06,0,.21-.26.37-.48.29h0ZM115.33,290.61c-.38.04-.44-.01-.4-.25.07-.44.57-1.01.91-1.02.85-.03.37,1.2-.51,1.27ZM117.11,288.04c-.21.05-.48.21-.59.34-.29.36-.46.06-.16-.31.15-.19.31-.56.35-.84s.25-.67.53-.96c.6-.64.97-.44.83.45-.13.77-.42,1.16-.96,1.32h0ZM126.85,275.46c-.57-.16-.29-1.15.4-1.38.25-.08.29-.03.27.43-.01.63-.32,1.06-.67.95ZM125.29,277.4c-.53.02-.59-.41-.14-.98s.98-.71,1.18-.31c.17.3-.61,1.27-1.04,1.29ZM127.73,273.76c-.13-.04-.14-.14-.01-.21.1-.07.29-.1.39-.05.13.04.14.14,0,.21-.1.07-.29.1-.39.05ZM119.7,283.89c-.12,0-.22-.32-.22-.75,0-.59.09-.83.58-1.43.61-.75,1.11-.94,1.33-.5.09.17-.04.44-.43.95-.31.39-.62.88-.68,1.08-.16.5-.32.7-.58.67v-.02ZM118.41,285.34c-.11-.05-.08-.2.04-.35.23-.28.43-.25.45.06.01.21-.26.37-.48.29h0ZM124.12,278.21c-.06-.05-.05-.2.05-.32.09-.11.19-.11.22-.02.04.1.01.24-.05.32-.05.07-.15.08-.22.02Z"/>
  <path class="st1" d="M133.71,318.02c-.11-.09-.25-.1-.3-.03-.07.08-.06.18,0,.23.07.06.2.08.3.03.09-.04.1-.14,0-.23Z"/>
  <path class="st1" d="M139.54,281.32c.12-.28.09-.49-.15-.74-.19-.2-.3-.5-.27-.68.04-.17.04-.51.02-.71-.03-.3.09-.52.51-.91.51-.5.53-.53.22-.79s-1.81-.24-2.04.06c-.07.08-.03.45.08.79s.14.77.06.95c-.07.19-.07.53,0,.78.07.24.04.62-.07.82-.27.56.29,1.27.91,1.11.49-.13.48-.11.75-.7v.02Z"/>
  <path class="st1" d="M137.13,281.07c-.1-.08-.2-.06-.22.04-.02.12.05.22.14.23.27.02.3-.09.08-.27h0Z"/>
  <path class="st1" d="M136.97,279.08c.23-.6-.16-1.02-.53-.56-.3.38-.41,1.17-.16,1.38.2.17.45-.12.7-.81h0Z"/>
  <polygon class="st2" points="236.01 235.48 139.94 354.53 80.73 304.43 176.79 185.38 236.01 235.48"/>
</svg>