<?xml version="1.0" encoding="UTF-8"?>
<svg id="Ebene_1" xmlns="http://www.w3.org/2000/svg" version="1.1" viewBox="0 0 1287 1536">
  <!-- Generator: Adobe Illustrator 30.1.0, SVG Export Plug-In . SVG Version: 2.1.1 Build 136)  -->
  <defs>
    <style>
      .st0 {
        fill: #fff;
        stroke: #010200;
        stroke-miterlimit: 10;
        stroke-width: 4px;
      }

      .st1 {
        opacity: .7;
      }
    </style>
  </defs>
  <g class="st1">
    <path class="st0" d="M339.38.88c-39.5,2.4-84.8,9.3-104.7,16.2-4.9,1.7-17.8,7.2-28.5,12.3s-28.5,12.7-39.5,17c-52.9,20.4-64.9,25.8-82.6,37.4C44.08,109.88,13.68,144.28,6.28,172.08c-2.4,8.6-4.7,25.1-5.6,40.1L-.02,222.88l4.2,5.8c12.4,16.6,24.2,28.2,28.6,28.2,1.9,0,4.3-2.8,4.9-5.6.3-1.3.7-3.6,1-5,.8-3.7,8.8-11.9,17.3-17.6,9.1-6.1,34.9-18.9,45.2-22.3,4.2-1.4,10.1-2.8,13.1-3.2,5.2-.6,11.7-4.1,33.9-18.2,5.2-3.3-5.1,7.8-12.3,13.3-9.3,7-14.6,9.5-29,14-29.6,9.2-47.9,20.7-57.5,35.9-6.4,10.2-7.5,15.7-5,25.5,1.7,7.1,16.1,39.2,20.4,45.7,6.6,10,14.5,14.2,24.3,13.1,12.4-1.5,15.4-6.9,13-23.6l-1.3-9.1,3.8-7.6c3.3-6.6,4-9.3,5.1-19.3.7-6.4,1.8-12.7,2.5-14,2.9-5.5,12-13.5,23.4-20.7,6.7-4.2,15.4-9.9,19.5-12.6,9-6,19-10.8,37.4-17.6,14.9-5.5,55.6-18.5,56.2-17.9.2.2-13.2,6.4-29.8,13.7-72.2,32-85.6,41.2-88.2,60.6-1,7.4-2.4,11.4-6.2,17.1-9.9,14.9-10.5,26.3-2.8,54.4,1.9,6.9,4.4,17,5.5,22.5,2.8,13.7,6.7,21.5,12.3,24.5,5.1,2.7,10.1,2.2,14.3-1.4,3.9-3.3,4.2-9.8,1.4-25.6l-2.4-12.9,2.9-7.2c3.9-9.9,11.3-20.6,19.8-28.4,7.8-7.3,9.6-8.4,30.2-17.5,16-7.1,34.3-16.8,52.8-28.1,7-4.3,12.7-7.6,12.7-7.3,0,2.6-7.6,14-12.6,18.9-7.9,7.9-13.6,11.2-38.1,21.7-24.3,10.4-32.7,14.7-38.2,19.5-8.5,7.2-13.4,17.5-14.6,30-.9,9.8,1.8,37.6,3.9,40.8,1,1.5,5.1,4.1,9.9,6.4,4.5,2.1,12.9,7.3,18.7,11.6,6.1,4.4,16.8,10.9,25.3,15.2,14,7.1,15.5,8.1,26.1,18.3,12.2,11.7,15.2,13.7,22.1,14.6,3.6.5,5.5.2,9.9-2,3-1.5,6.9-4.3,8.6-6.2l3.1-3.6-.7-18.1c-.4-11-.2-23.1.5-30.7,1.2-13.9,6.5-36.8,10.3-45.2,4.8-10.3,31.2-37.4,43.7-44.8,7.3-4.3,18.2-8.3,26.1-9.4l4.5-.7-7.5,6.7c-12.6,11.2-32.6,32.1-41.6,43.2-14.8,18.5-20.6,33.6-22.4,57.7-.6,7.1-1.7,20.5-2.7,29.7-2.7,27.3-1,30,24.7,40.2,15.2,5.9,21.6,9.6,39.5,22.6,8.3,6,17.5,12.2,20.5,13.7,5.3,2.7,6,2.8,20.1,2.6,22.1-.2,26.3-2.6,35.4-20.1,5.3-10.3,7.3-12.7,21.4-25.3l10.4-9.3-.6,10.9c-1.8,36.8-28.5,68.8-80.2,96.4-32.2,17.2-41,25.8-37.7,37,2,6.4,8.6,11.5,26.6,20.2,8.8,4.3,18.4,9.2,21.1,10.9,13.4,7.9,32.1,7.9,77-.1,3.6-.6,13.1-4.3,24-9.4,19.8-9.1,24.4-10.5,26.9-8,2.7,2.8,3.1,6.5,1,10.4-6.9,12.7-39.7,24.1-90.9,31.6l-15.9,2.3-18.3-5.4c-41.4-12.2-74.9-28.1-81.3-38.7-4.4-7.2-1.9-15.4,9.7-31.7,15.2-21.4,18.7-29.2,18.1-41-.8-17.4-13.8-31.5-42.8-46-22.7-11.4-58.9-24-71.2-24.8-7.2-.4-7.8-.3-10.2,2.1-1.4,1.4-2.6,3.7-2.6,5,0,4,5.5,13.5,17.2,29.7,10.5,14.6,20.8,30.4,20.8,32.1,0,.4-5.8.9-12.9,1l-12.8.4-10.6,5.3c-12.3,6.1-14.1,8.1-18.1,19.7-1.5,4.4-3.9,10-5.3,12.3-6.9,12-8.6,16.6-9.1,24.2-.3,6.6,0,8.6,2.8,16.5,1.8,4.9,4.8,14.8,6.7,21.8,5.8,22.4,7.5,23.8,25.5,21,12.6-2,19.6-1.1,30.4,4.1,4.1,1.9,7.4,3.7,7.4,4,0,.2-3,1.4-6.7,2.7-10.1,3.3-18,7.5-23.4,12.6-9.5,8.9-13.7,18.1-15.9,35-1,8.2-1,9.6.6,12.8,3.3,7.1,15.8,11.4,33,11.5,11,0,18.6-1.3,25.9-4.5,4.1-1.9,7.3-2.5,12.4-2.5,3.7,0,11.2-.7,16.7-1.5,16.1-2.4,25,.1,34.7,9.8,7.4,7.3,23.8,26,27,30.6,2.3,3.4,3.2,5.9,3.5,10.1.3,4.8,0,6.1-2.7,10-3.8,5.6-8.3,9.2-16.9,13.5-9.4,4.6-19.4,7.5-28.3,8.2-9.5.7-13.9-.1-17.3-3.2-3.7-3.5-3.3-7,2.1-18.1,6.4-13.1,6.7-17.4,1.8-27.6-4.6-9.8-7.5-11.8-16.9-11.8s-24.5,4.9-29.4,9.5l-3.7,3.3,1.3,5.8c1.1,5.3,1,6.2-.9,10-2.6,5.5-4.4,7-6.4,5.4-1.8-1.5-4.9-9.8-7.6-20.5-2.8-11.2-4.2-12.4-15.6-13.7-4.8-.5-14.5-2.2-21.4-3.9-7-1.6-14.1-2.9-15.9-2.9-4.8,0-9.1,2.5-12.5,7.2-5.1,7.3-8.3,10.4-15.5,15.3-3.9,2.6-8,6-9,7.5-3,4.3-2.6,10,1.5,19.1,4.3,9.4,6.4,18.8,6.5,28.4.1,9,1.7,13.6,5.3,15.3,2.5,1.2,3.6,1.1,10.3-1.2,9-3.1,13.4-3.3,19-.5,6.5,3.1,10.4,8.1,10.4,13.1,0,3.4.6,4.6,3.5,7.4,5.1,4.7,15.6,9.7,21.8,10.1,4.6.4,5.8.1,10.1-2.9,10.1-6.9,15.2-9.9,18.6-10.8,5.6-1.6,17-3.4,17.6-2.7.3.3-1.7,3.6-4.6,7.4-2.8,3.7-6.9,10.4-9,14.9-2.4,5.1-5.2,9.2-7.4,11-4.7,4-12.1,15.3-14.2,21.8-2.9,9.1-.8,12.7,12.4,21.3,11.7,7.6,20.9,17.2,31.6,32.7,7.1,10.2,9.4,14.4,11.1,20.5,2.6,8.8,2.1,9.7-4.8,8.6-11.5-1.9-51.9-20.5-53.2-24.5-.4-1.2-2.9-4.8-5.6-8-7.6-9.2-7.7-9.9-2.8-19.6,3.4-6.9,4.1-9.3,4-13.8,0-6.2-2-11-5.3-12.7-4.3-2.3-12.7-.5-30.3,6.5-19.6,7.8-22.6,9.5-25.4,14-4.5,7.2-3,11.8,12.3,36.1,9.6,15.4,15.7,21.9,21.7,23.5,2.3.6,11.3,1,21.7.8,19.5-.3,22.3.1,31.2,5.4l5.5,3.3-5.2.3c-2.9.2-10.8-.4-17.5-1.3-25.8-3.5-31.4-3.1-34.3,2.5-2.1,4-1.9,4.8,1.7,12.1,2.6,5.3,6.5,9.7,22,25,12.8,12.8,18.8,19.4,18.8,20.8,0,3-2.6,7.8-4.9,9-1,.6-9.2,1-18.7.9-22.8-.1-31.4,1.9-31.4,7.3,0,1,2.3,3.7,5.3,6,5.8,4.6,8.1,7.2,12.1,14.1,6.1,10.7,13.8,10.3,33.8-2,9.5-5.9,18.4-10.2,20.8-10.2,2.8,0,3.5,2.4,4.8,16,.7,6.3,2.1,14.8,3.2,18.7,2.4,8.9,2.5,9.9.3,10.5-1,.3-7.2-.4-13.8-1.4-15.4-2.4-44.4-3.5-50.3-1.9-2.3.7-5.7,2.5-7.4,4-3.2,2.8-3.2,3-3.8,14.7-.7,13.4-1.1,14.5-9.5,25.5-8.7,11.6-10.7,22.6-5.8,32.5,5.9,11.9,12.8,22.5,14.9,23,1.6.4,6-1.1,14.1-4.9,10.9-5.1,26.6-11.7,27.9-11.7.3,0-3.1,4.2-7.6,9.3-23.3,26.5-29.3,44.8-16.8,51.3,1.7.9,7.1,2.7,12,4,4.8,1.3,10.7,3.3,12.9,4.5,4.9,2.5,13.1,9.8,12.3,11-.3.5-4.7.9-9.7.9-15.4,0-36.7,1.8-47.1,4-29.9,6.1-32.7,9.8-19.6,26,2.9,3.6,8.6,11.5,12.7,17.7,4,6.2,7.8,11.5,8.3,11.8,2.3,1.4.5,2-6.8,2.3-4.2.2-12.2,1-17.7,1.8-19,2.8-20.2,3.8-20.7,17.4-.3,8.4-.8,10.4-4.1,17.6-4.1,9-4.6,13.3-1.9,15.7,2.8,2.6,7.4,2.1,22.7-2.4,17.1-5,28.6-5.7,37-2.2,3.2,1.4,4.5,2.3,3.5,2.7-.8.3-7.1,2.4-13.8,4.6-6.8,2.2-17.2,6.5-23,9.4-5.9,2.9-15.4,7.4-21.2,10-14.8,6.5-41,26.1-48.1,35.9-1.5,2.1-4,7.5-5.4,11.9-3.3,10.2-6.9,17.4-13.8,27.4-9.9,14.5-12.3,21.4-9.4,27.1,3.3,6.3,12.1,6.8,23.3,1.3,7.5-3.6,12.9-9.4,14.4-15.2,3.4-12.6,5.2-14.3,18.2-17.7,4.6-1.2,17.5-5.1,28.7-8.7s20.5-6.3,20.6-6.2c.1.2,1.2,2.2,2.4,4.5,3.8,7.5,16.6,13,32.6,14,14,.9,17.1-1.6,20.9-17.2,3.5-14.1,14.1-28.8,26.5-36.7,5.2-3.2,8.7-3.5,17.5-1.2,13,3.4,31.5-.2,44.8-8.8,8.1-5.2,15.1-12.5,26.8-27.7,16.5-21.6,18.4-25.7,14-30.1s-16.7-1.9-37.2,7.6c-14.3,6.6-17.7,6.9-26.9,2.1-3.5-1.8-10.4-5.9-15.4-9.1-4.9-3.2-13.4-8-18.7-10.7-10.8-5.4-16.8-10.1-16.8-13.1,0-2.5,13.4-27,16.1-29.4,1.9-1.7,2.1-1.6,5.1,1.2,1.7,1.6,6.4,7.3,10.4,12.8,8.2,11.1,12.1,14.2,19.9,15.9,10,2.1,25.2-2.9,38.9-12.7,6.8-4.8,15.6-13.8,15.6-15.8,0-2.2-1.2-3.2-11.5-9.9-12.8-8.4-28.6-21.1-35.8-28.9-10.3-11.1-15-19.5-16.3-28.7-.8-6.5,0-7.6,6.9-9.9,11-3.5,14.9-7.9,18.1-20.6,2.1-7.9,4.2-10.4,9.9-11.8,15.7-4.1,29.7-11.9,41.8-23.7,8-7.7,10.2-12.2,12.3-25.5.9-5.3,2.3-12.2,3.1-15.4,4.7-18.1-.7-30.7-15.9-36.7-7.8-3.2-24.2-3.1-31.1.2-3.5,1.7-6.7,2.4-10.7,2.3-7.2,0-19.5-2-22.7-3.7-2.4-1.2-2.4-1.3,3-4.4,8.5-4.8,29.1-11.3,37.9-11.8,6.4-.4,8.1-.1,11.5,1.8,13,7.2,14.8,7.9,20.3,7.9,7.6,0,13.7-3,16.2-8.1,5.7-11.1-1.3-36.9-11.4-42.1-3.2-1.7-5.8-2.1-12.1-2.1-10.1.1-19,2.8-27.6,8.5-10.5,6.8-18.6,6.4-35.4-1.9-13.8-6.9-13.8-10.7.2-30.8,4.3-6.3,5.2-7,8.5-7.3,4.5-.4,8.1,1.4,25.8,12.8,19,12.3,25.3,15.4,31.7,15.4,6,.1,8.9-2,15.3-11.4,4.8-7,10.5-12.3,16.2-14.7,5.5-2.5,10.5-7.5,13.2-13.3,1.8-3.8,2.1-6.4,2.1-16.5,0-13.9-1.6-20.8-7.4-33.1-6.4-13.3-13.6-19.7-19.7-17.4-1.5.6-5.8,3.9-9.5,7.4-9,8.5-16.1,13.8-24.3,18.1-11,5.7-12.3,5.3-29.8-8.6-5.7-4.5-14-10.7-18.6-13.7-6.3-4.3-8.1-5.9-7.5-7.1,2-4.3.7-10.1-4.5-20.1-2.8-5.6-5.2-10.7-5.2-11.6,0-.8,1.4-3.3,3-5.6,3.9-5.3,5.7-11.5,7.5-25.6.8-6.3,1.7-11.8,2-12.2.3-.5,3,0,6,1.1,6.2,2.1,15.7,2.5,23.5.8,2.8-.6,5.4-.9,5.7-.6.9.9-3.4,6.2-14.9,18.5-11.8,12.6-15.3,18-14.4,21.8.4,1.3,3.1,4.8,6.2,7.7,3.1,2.8,8.6,9.2,12.4,14.2,8.6,11.5,10.9,13.5,15.7,14.2,5.3.7,9.1-1.4,23-12.4,6.1-4.8,15.5-11.3,20.9-14.3,5.3-3,11.9-7.5,14.7-10,4.8-4.4,4.9-4.6,5.7-12.2,1.1-9.3,2.4-11.9,10-20.4,6.3-6.9,7.6-9.8,6.6-13.9-.9-3.5-5.2-5.9-18.1-10.1-14.3-4.6-24.1-9.3-29.6-14.3l-4.4-4,2-2c1.1-1.1,9.1-6,17.8-11,20.1-11.5,30.3-18.1,44.7-29.2,16.6-12.7,30.3-25.1,34-30.8,2.8-4.3,4.3-5.4,13.1-9.5,17-8.1,21.3-7.5,36.4,5,4.4,3.6,13.4,10.1,20,14.5,18.3,12,19.6,12.9,21.6,16.3,2.6,4.3,2.4,6.2-2.1,18-6.3,16.7-6.9,29.7-1.9,46.1,5.6,18.4,11.9,24.5,25.5,24.5,7.1,0,16.1,1.8,20.9,4.2,4.6,2.4,13.9,9.4,17.3,13l2.3,2.5-6.4,3.1c-6.6,3.3-11.5,7.9-19.8,18.7-4.1,5.4-5.9,6.7-18,13.1-16.8,8.9-20.2,10.1-36.9,12.5-15.7,2.2-22.2,4-30.1,7.9-12.3,6.3-16.9,17.6-14.8,36.8.5,4.8,1.2,12.1,1.5,16.2.9,10.4,2.5,13.4,8.8,16.5,6.4,3.1,15.4,4.9,36.4,7,19.3,2,24.7,3.3,24.7,6,0,3.9-12.3,9.5-20.8,9.5-2.8,0-5.5-1-8.8-3.1-6.4-4.1-12.1-4.1-19.7-.2-5.4,2.7-5.7,3.1-9.8,12.3-2.4,5.2-4.3,10-4.3,10.6-.1.7,6.2,6.1,13.8,12,10.4,8.1,13.6,11.1,12.3,11.5-.9.3-6.6.9-12.7,1.3-21.8,1.3-31.2,4.1-34.8,10.3-1.2,2.1-2.2,6.8-2.8,13.1-.5,5.5-1.6,12.1-2.4,14.8s-1.5,6.9-1.5,9.2c0,8.9,3.8,13.1,18.8,20.6,8.4,4.2,14.4,9.3,16.2,13.7,1.7,3.9.9,4.5-7.9,5.4-19.1,1.9-36,6.9-53.1,15.6-14.7,7.4-20,11.8-20,16.4,0,3,.7,4,5.5,7.5,6.3,4.6,6.9,7.3,3.6,13.8-2.9,5.5-5.6,8-10.4,9.2-8.6,2.3-20,10.9-23.1,17.4-2.5,5.3-1.9,9.3,2.9,19.7,2.6,5.5,5,12.4,5.6,16.1,2.8,17.4,4.4,21.5,9.7,24.2,1.5.8,7.9,2.6,14.2,4,13.5,3.1,22.2,6.9,28.4,12.6,5.6,5.2,8.9,10.9,15.1,26.2,8.1,20.1,13.4,25.8,17.1,18.6,2.6-5.3,6.5-8.8,12.4-11.5,11.9-5.3,13-8.8,6.9-22.9-3.2-7.6-4.3-11.6-4.7-17.1-.6-8.7.9-11.7,6.5-13.2,14.5-4,18.6-5.5,21.3-7.7,7.7-6.5.3-17.6-17-25.8-9.9-4.7-16.5-5.5-20.2-2.7-1.4,1.2-3.6,4.2-4.8,6.7-3.7,7.6-10.5,13.6-18.8,16.7-12,4.4-14.4,3.7-21.3-6.4-2.2-3.3-7-9.4-10.6-13.6-5.2-5.8-6.4-7.9-5.7-9.1.6-.8,6.8-4,14-7,15.6-6.6,19.2-6.9,30.9-2.4,4.4,1.7,9.2,3.4,10.7,3.7,3.8,1,8.9-1,12.6-4.8,8.2-8.6,4.6-12.7-21.6-24.7-11.6-5.3-19.9-9.8-22.5-12.1l-4.2-3.7,2-2.2c4.4-4.9,15.6-8.2,35.8-10.5,17.5-1.9,22.8-3.8,39.8-13.6,16.7-9.7,19.9-12.7,19.9-18.4,0-6.1-3.3-9.9-18.9-22.5-7.7-6.2-14.3-12-14.6-12.9s.4-3.4,1.5-5.6,2-5.8,2-8.1c0-2.6.6-4.7,1.6-5.5.9-.7,5.9-1.6,12.2-2,20.2-1.3,33.2-9.3,33.2-20.2,0-3.3-1.9-7.6-10.5-23.1-6-10.8-5.2-17,2.9-23,2.1-1.6,4.2-2.1,9.4-2.1,6.3,0,7.7.5,23.7,8.2,19.2,9.2,24.9,11.3,30.5,11.3,6.2,0,9.4-3.5,12.5-13.4,1.4-4.6,2.5-9,2.5-9.7s-3.2-7.7-7-15.5c-5.6-11.3-8-15.1-11.6-18.3-7.5-6.6-13.2-7.7-50.6-10.1-29.2-1.8-43.4-8.4-41.4-19.2.9-4.9,7.8-15.3,10.7-16.3,1.3-.4,11.6-1.1,22.9-1.5,11.3-.5,22.2-1.3,24.3-2,5-1.5,15.9-9.9,36.3-28.2,9.4-8.5,18-15.4,19-15.5,2.8-.2,22.4-6.3,25.7-8,3.9-2,10.5-9,12.9-13.6,2.6-5.1,2.6-12.2.1-15.6-1.1-1.4-4.8-4.8-8.4-7.4-8.5-6.4-10.3-10.1-9.5-18.5,1.2-11.7,2-12,23.1-9,20,2.8,27.6,1.9,50.5-5.8,24-8.2,28.9-11.1,31-18.2.7-2.6.4-4-1.5-7.5-1.2-2.4-3.5-9.6-5-15.9l-2.7-11.6-17.7-13.9c-28.9-22.9-31.7-24.5-52.5-30.4-18.9-5.3-21.6-6.3-26.5-10.5-6.4-5.4-2.3-13.7,10.4-21,15.9-9.1,22.9-26.3,22.9-55.9,0-19.8-2.6-28.4-9.7-32.2-2.6-1.4-7.4-1.8-27.2-2.4-25.8-.8-38.9-2.5-60.3-8-40.1-10.3-66.9-23.4-72.3-35.4-2.6-5.6-2.5-11.9.2-14.6,1.8-1.8,4.1-3,14.5-7.5,1.1-.5,7-6.5,12.9-13.4,14.8-17,35.7-37.8,43-42.7,7.5-5,16.6-14.6,32.1-33.8,6.7-8.3,13.3-16.1,14.7-17.4l2.6-2.3-1.5,6.3c-3,13.1-5.9,17.4-25.1,37.6-9.8,10.3-26.9,28.1-38,39.5-21.9,22.4-26.3,28.4-26.3,35.7,0,11.6,14.7,24.3,36.5,31.5,19.7,6.6,55.9,11.9,82,12,16.8.1,17.1.1,26.5-3.2,11.6-4,23.3-10.3,33.7-18,9.4-7,14.7-12.9,18-20,2.2-4.6,2.5-6.4,2.2-13.6-.4-7.1-.9-9.2-4.3-16l-3.8-7.9,3.6-19.1c6.1-31.4,12-54.8,17.9-70.6q2.1-5.4,2.8-2.5c.4,1.6.7,9.4.8,17.1.1,17.6-1.5,27.6-7.6,45.4-2.8,8.3-4.7,16-5,20.1-.5,5.8-.2,7.4,2.7,13.9,5.2,11.8,7.4,28.5,4.9,37.3-1.1,4-9.6,21.7-14.3,30-2.1,3.5-2.9,6.3-3,11-.2,3.4-.7,9.1-1.1,12.8-1.2,9.9,1.7,14,14.3,20.3,10.2,5.1,33.4,12.5,45.9,14.6l7.3,1.2-1.6,3c-2.3,4.5-2.8,12.2-1.5,23.9,1,8.4,2,12,5.2,19,2.1,4.7,3.9,9.7,3.9,11.1s-1.4,4.4-3,6.7c-7.8,10.7-26.5,16.5-42,13-8.7-2-21.1-8.8-27.2-15-7-7.2-13.1-17.4-15.4-25.7-1.6-5.6-1.6-7.8-.6-20,1.5-18,.3-23.9-6.5-33-1.7-2.3-3.2-3.2-5.3-3.2-4.1,0-5.6,2.8-8.1,14.6-2,9.7-4.4,15.9-9.4,23.9-3.3,5.4-3.2,10,.4,15.6,1.5,2.4,8.8,11.4,16.2,19.9,7.4,8.6,17.9,20.9,23.3,27.5,14.2,17.1,27.2,30.2,31.4,31.6s10,.5,15.5-2.3c3.6-1.8,20.2-12.9,42.3-28.4,7.6-5.4,14.9-13.3,16.4-18.1,1.6-4.6.8-9.8-2.4-16.9-3-6.4-3.2-10.9-1.1-18.1,2.6-8.7,16.4-34.3,18.6-34.3.4,0,5.1,2.5,10.5,5.6,16.7,9.7,28,14.7,32.7,14.6,4.9,0,13.9-3.5,32.7-12.4,10.8-5.2,15.4-8.1,23-14.4,5.2-4.4,15.8-13.1,23.5-19.3,27.9-22.5,47.5-41.8,56.8-55.9,9.2-13.9,13.3-34.3,11.6-57.7-.4-5.5-.3-15.4.2-22s.9-13.1,1-14.5c.4-7.1,10.9,66.6,10.9,76.5,0,19.9-13.5,40.6-35.9,55.2-17.9,11.6-21.9,14.4-32.2,22.7-15.3,12.2-19.6,18.8-15.2,23.2,1.6,1.5,3.8,1.6,23.8,1.1,12.1-.4,31.9-1.2,44-1.8l22-1.1,23.7-12c23.4-11.8,23.8-12.1,27.3-17.4,5.9-8.9,12.8-27.4,20-53.7,4.7-17.5,6-27.6,4.5-36.9-.6-4-5.1-19.4-10-34.2-4.9-14.9-8.8-27.2-8.6-27.3.6-.6,9.9,17.2,14.9,28.2,11.7,26.3,14.6,42.3,11.1,62.1-.8,4.9-1.9,12.3-2.4,16.5-1,8.9-4.8,18.9-13.5,35.7l-6.4,12.2,9.9-5c22.9-11.8,43.7-28.5,49.3-39.6,5.5-10.9,7.8-27.6,5.8-41.8-.6-4.5-3.5-14.4-6.7-23.5-9.1-25.2-17.5-50.3-17.1-50.7.4-.5,17,33.6,22.8,46.8,2.1,4.8,4.8,12,6,16,2.1,6.9,2.2,7.8,1,19-.7,6.6-1,14.5-.6,18,.8,7.5,3.4,19.8,4.2,19.8,1.5,0,13.7-18.1,20.3-30,12.4-22.3,26-56.2,28.6-71.3,3-17,.5-35.3-7.2-53.4-5.7-13.2-11-22.5-24.4-42.3-6.8-10.2-16.4-24.6-21.4-32-26.2-39.5-46.4-61-109.4-116.2-15.8-13.8-35.3-30.6-43.5-37.4-75.6-63.2-153.8-106.4-238.9-132.3-56.3-17.1-113.4-27.1-132.2-23.1-7.3,1.5-11.9,5.5-11.4,9.7l.3,2.8,47.5,8.7c26.1,4.8,47.6,8.7,47.7,8.7.1.1.9,2.5,1.8,5.3,1,2.9,2.1,5.6,2.4,6.1.4.4,7,1.2,14.7,1.8l13.9,1,8,7.8,8,7.8,13.6,2.3,13.6,2.3,4,8.6,3.9,8.6,11.7,4.9c6.5,2.7,11.6,5.1,11.3,5.3-.2.2-3.1-.3-6.4-1.1-3.3-.9-6.6-1.6-7.3-1.6-.8.1,5.6,6.8,14.1,15l15.5,14.9-16.5-4.3c-9.1-2.4-18.2-4.8-20.2-5.4-2.1-.6-3.8-.9-3.8-.7,0,.1,2.2,4.9,5,10.6,2.7,5.7,4.8,10.5,4.6,10.6-.2.2-9.2-4-20.2-9.3-10.9-5.3-21.8-10.4-24-11.4l-4.2-1.8-3.8,9.4-3.8,9.4-25-12.9-25-12.9-5.6,10.5c-3.1,5.8-5.9,10.5-6.4,10.5-.4,0-9-6.4-19.1-14.1-10.1-7.8-19.3-14.1-20.4-14.1s-10.3,1.3-20.4,3c-10.2,1.6-18.9,3-19.5,3-.5,0-5.2-7.2-10.3-16l-9.4-16h-54.2l-7.8-16.4-7.7-16.3-9.7-.7c-5.3-.3-14-.6-19.4-.6s-9.7-.4-9.5-.9c.2-.4,4.3-4.1,9.2-8.2,10.5-8.6,12.1-7.1-13.9-12.6-19.9-4.2-19.8-3.9-1-5.8l7-.7-9.5-5-9.5-4.9,11.3.5c6.1.3,11.2.3,11.2,0s-1.8-3.7-4.1-7.6c-2.2-3.8-3.9-7.1-3.7-7.2.1-.2,12.7,2.9,27.8,6.9l27.5,7.2.3-5.4c.2-2.9.6-5.3,1-5.3s10.5,4.2,22.5,9.3l21.7,9.3,19.8-1.8c10.8-.9,20.3-1.7,21-1.8.7,0,1.2-1.3,1.2-3.3v-3.3l-45.2-10.7c-48.9-11.5-60.6-13.9-91.3-18.6-37.7-5.7-74.2-9.7-114.5-12.6-25.4-1.9-88.5-2.7-108.8-1.5Z"/>
  </g>
</svg>