<?xml version="1.0" encoding="utf-8"?>
<!-- Generator: Adobe Illustrator 30.1.0, SVG Export Plug-In . SVG Version: 9.03 Build 0)  -->
<svg version="1.0" id="Ebene_1" xmlns="http://www.w3.org/2000/svg" xmlns:xlink="http://www.w3.org/1999/xlink" x="0px" y="0px"
	 viewBox="0 0 1287 1536" style="enable-background:new 0 0 1287 1536;" xml:space="preserve">
<style type="text/css">
	.st0{opacity:0.7;}
</style>
<g transform="translate(0.000000,1536.000000) scale(0.100000,-0.100000)" class="st0">
	<path d="M3393.83,15351.17c-395-24-848-93-1047-162c-49-17-178-72-285-123s-285-127-395-170c-529-204-649-258-826-374
		c-400-261-704-605-778-883c-24-86-47-251-56-401l-7-107l42-58c124-166,242-282,286-282c19,0,43,28,49,56c3,13,7,36,10,50
		c8,37,88,119,173,176c91,61,349,189,452,223c42,14,101,28,131,32c52,6,117,41,339,182c52,33-51-78-123-133c-93-70-146-95-290-140
		c-296-92-479-207-575-359c-64-102-75-157-50-255c17-71,161-392,204-457c66-100,145-142,243-131c124,15,154,69,130,236l-13,91l38,76
		c33,66,40,93,51,193c7,64,18,127,25,140c29,55,120,135,234,207c67,42,154,99,195,126c90,60,190,108,374,176c149,55,556,185,562,179
		c2-2-132-64-298-137c-722-320-856-412-882-606c-10-74-24-114-62-171c-99-149-105-263-28-544c19-69,44-170,55-225
		c28-137,67-215,123-245c51-27,101-22,143,14c39,33,42,98,14,256l-24,129l29,72c39,99,113,206,198,284c78,73,96,84,302,175
		c160,71,343,168,528,281c70,43,127,76,127,73c0-26-76-140-126-189c-79-79-136-112-381-217c-243-104-327-147-382-195
		c-85-72-134-175-146-300c-9-98,18-376,39-408c10-15,51-41,99-64c45-21,129-73,187-116c61-44,168-109,253-152c140-71,155-81,261-183
		c122-117,152-137,221-146c36-5,55-2,99,20c30,15,69,43,86,62l31,36l-7,181c-4,110-2,231,5,307c12,139,65,368,103,452
		c48,103,312,374,437,448c73,43,182,83,261,94l45,7l-75-67c-126-112-326-321-416-432c-148-185-206-336-224-577c-6-71-17-205-27-297
		c-27-273-10-300,247-402c152-59,216-96,395-226c83-60,175-122,205-137c53-27,60-28,201-26c221,2,263,26,354,201
		c53,103,73,127,214,253l104,93l-6-109c-18-368-285-688-802-964c-322-172-410-258-377-370c20-64,86-115,266-202
		c88-43,184-92,211-109c134-79,321-79,770,1c36,6,131,43,240,94c198,91,244,105,269,80c27-28,31-65,10-104c-69-127-397-241-909-316
		l-159-23l-183,54c-414,122-749,281-813,387c-44,72-19,154,97,317c152,214,187,292,181,410c-8,174-138,315-428,460
		c-227,114-589,240-712,248c-72,4-78,3-102-21c-14-14-26-37-26-50c0-40,55-135,172-297c105-146,208-304,208-321c0-4-58-9-129-10
		l-128-4l-106-53c-123-61-141-81-181-197c-15-44-39-100-53-123c-69-120-86-166-91-242c-3-66,0-86,28-165c18-49,48-148,67-218
		c58-224,75-238,255-210c126,20,196,11,304-41c41-19,74-37,74-40c0-2-30-14-67-27c-101-33-180-75-234-126c-95-89-137-181-159-350
		c-10-82-10-96,6-128c33-71,158-114,330-115c110,0,186,13,259,45c41,19,73,25,124,25c37,0,112,7,167,15c161,24,250-1,347-98
		c74-73,238-260,270-306c23-34,32-59,35-101c3-48,0-61-27-100c-38-56-83-92-169-135c-94-46-194-75-283-82c-95-7-139,1-173,32
		c-37,35-33,70,21,181c64,131,67,174,18,276c-46,98-75,118-169,118c-91,0-245-49-294-95l-37-33l13-58c11-53,10-62-9-100
		c-26-55-44-70-64-54c-18,15-49,98-76,205c-28,112-42,124-156,137c-48,5-145,22-214,39c-70,16-141,29-159,29c-48,0-91-25-125-72
		c-51-73-83-104-155-153c-39-26-80-60-90-75c-30-43-26-100,15-191c43-94,64-188,65-284c1-90,17-136,53-153c25-12,36-11,103,12
		c90,31,134,33,190,5c65-31,104-81,104-131c0-34,6-46,35-74c51-47,156-97,218-101c46-4,58-1,101,29c101,69,152,99,186,108
		c56,16,170,34,176,27c3-3-17-36-46-74c-28-37-69-104-90-149c-24-51-52-92-74-110c-47-40-121-153-142-218c-29-91-8-127,124-213
		c117-76,209-172,316-327c71-102,94-144,111-205c26-88,21-97-48-86c-115,19-519,205-532,245c-4,12-29,48-56,80c-76,92-77,99-28,196
		c34,69,41,93,40,138c0,62-20,110-53,127c-43,23-127,5-303-65c-196-78-226-95-254-140c-45-72-30-118,123-361c96-154,157-219,217-235
		c23-6,113-10,217-8c195,3,223-1,312-54l55-33l-52-3c-29-2-108,4-175,13c-258,35-314,31-343-25c-21-40-19-48,17-121
		c26-53,65-97,220-250c128-128,188-194,188-208c0-30-26-78-49-90c-10-6-92-10-187-9c-228,1-314-19-314-73c0-10,23-37,53-60
		c58-46,81-72,121-141c61-107,138-103,338,20c95,59,184,102,208,102c28,0,35-24,48-160c7-63,21-148,32-187c24-89,25-99,3-105
		c-10-3-72,4-138,14c-154,24-444,35-503,19c-23-7-57-25-74-40c-32-28-32-30-38-147c-7-134-11-145-95-255c-87-116-107-226-58-325
		c59-119,128-225,149-230c16-4,60,11,141,49c109,51,266,117,279,117c3,0-31-42-76-93c-233-265-293-448-168-513c17-9,71-27,120-40
		c48-13,107-33,129-45c49-25,131-98,123-110c-3-5-47-9-97-9c-154,0-367-18-471-40c-299-61-327-98-196-260c29-36,86-115,127-177
		c40-62,78-115,83-118c23-14,5-20-68-23c-42-2-122-10-177-18c-190-28-202-38-207-174c-3-84-8-104-41-176c-41-90-46-133-19-157
		c28-26,74-21,227,24c171,50,286,57,370,22c32-14,45-23,35-27c-8-3-71-24-138-46c-68-22-172-65-230-94c-59-29-154-74-212-100
		c-148-65-410-261-481-359c-15-21-40-75-54-119c-33-102-69-174-138-274c-99-145-123-214-94-271c33-63,121-68,233-13
		c75,36,129,94,144,152c34,126,52,143,182,177c46,12,175,51,287,87s205,63,206,62c1-2,12-22,24-45c38-75,166-130,326-140
		c140-9,171,16,209,172c35,141,141,288,265,367c52,32,87,35,175,12c130-34,315,2,448,88c81,52,151,125,268,277
		c165,216,184,257,140,301s-167,19-372-76c-143-66-177-69-269-21c-35,18-104,59-154,91c-49,32-134,80-187,107
		c-108,54-168,101-168,131c0,25,134,270,161,294c19,17,21,16,51-12c17-16,64-73,104-128c82-111,121-142,199-159
		c100-21,252,29,389,127c68,48,156,138,156,158c0,22-12,32-115,99c-128,84-286,211-358,289c-103,111-150,195-163,287
		c-8,65,0,76,69,99c110,35,149,79,181,206c21,79,42,104,99,118c157,41,297,119,418,237c80,77,102,122,123,255c9,53,23,122,31,154
		c47,181-7,307-159,367c-78,32-242,31-311-2c-35-17-67-24-107-23c-72,0-195,20-227,37c-24,12-24,13,30,44c85,48,291,113,379,118
		c64,4,81,1,115-18c130-72,148-79,203-79c76,0,137,30,162,81c57,111-13,369-114,421c-32,17-58,21-121,21c-101-1-190-28-276-85
		c-105-68-186-64-354,19c-138,69-138,107,2,308c43,63,52,70,85,73c45,4,81-14,258-128c190-123,253-154,317-154c60-1,89,20,153,114
		c48,70,105,123,162,147c55,25,105,75,132,133c18,38,21,64,21,165c0,139-16,208-74,331c-64,133-136,197-197,174c-15-6-58-39-95-74
		c-90-85-161-138-243-181c-110-57-123-53-298,86c-57,45-140,107-186,137c-63,43-81,59-75,71c20,43,7,101-45,201
		c-28,56-52,107-52,116c0,8,14,33,30,56c39,53,57,115,75,256c8,63,17,118,20,122c3,5,30,0,60-11c62-21,157-25,235-8c28,6,54,9,57,6
		c9-9-34-62-149-185c-118-126-153-180-144-218c4-13,31-48,62-77c31-28,86-92,124-142c86-115,109-135,157-142c53-7,91,14,230,124
		c61,48,155,113,209,143c53,30,119,75,147,100c48,44,49,46,57,122c11,93,24,119,100,204c63,69,76,98,66,139c-9,35-52,59-181,101
		c-143,46-241,93-296,143l-44,40l20,20c11,11,91,60,178,110c201,115,303,181,447,292c166,127,303,251,340,308c28,43,43,54,131,95
		c170,81,213,75,364-50c44-36,134-101,200-145c183-120,196-129,216-163c26-43,24-62-21-180c-63-167-69-297-19-461
		c56-184,119-245,255-245c71,0,161-18,209-42c46-24,139-94,173-130l23-25l-64-31c-66-33-115-79-198-187c-41-54-59-67-180-131
		c-168-89-202-101-369-125c-157-22-222-40-301-79c-123-63-169-176-148-368c5-48,12-121,15-162c9-104,25-134,88-165
		c64-31,154-49,364-70c193-20,247-33,247-60c0-39-123-95-208-95c-28,0-55,10-88,31c-64,41-121,41-197,2c-54-27-57-31-98-123
		c-24-52-43-100-43-106c-1-7,62-61,138-120c104-81,136-111,123-115c-9-3-66-9-127-13c-218-13-312-41-348-103c-12-21-22-68-28-131
		c-5-55-16-121-24-148c-8-27-15-69-15-92c0-89,38-131,188-206c84-42,144-93,162-137c17-39,9-45-79-54c-191-19-360-69-531-156
		c-147-74-200-118-200-164c0-30,7-40,55-75c63-46,69-73,36-138c-29-55-56-80-104-92c-86-23-200-109-231-174c-25-53-19-93,29-197
		c26-55,50-124,56-161c28-174,44-215,97-242c15-8,79-26,142-40c135-31,222-69,284-126c56-52,89-109,151-262c81-201,134-258,171-186
		c26,53,65,88,124,115c119,53,130,88,69,229c-32,76-43,116-47,171c-6,87,9,117,65,132c145,40,186,55,213,77c77,65,3,176-170,258
		c-99,47-165,55-202,27c-14-12-36-42-48-67c-37-76-105-136-188-167c-120-44-144-37-213,64c-22,33-70,94-106,136c-52,58-64,79-57,91
		c6,8,68,40,140,70c156,66,192,69,309,24c44-17,92-34,107-37c38-10,89,10,126,48c82,86,46,127-216,247c-116,53-199,98-225,121
		l-42,37l20,22c44,49,156,82,358,105c175,19,228,38,398,136c167,97,199,127,199,184c0,61-33,99-189,225c-77,62-143,120-146,129
		s4,34,15,56s20,58,20,81c0,26,6,47,16,55c9,7,59,16,122,20c202,13,332,93,332,202c0,33-19,76-105,231c-60,108-52,170,29,230
		c21,16,42,21,94,21c63,0,77-5,237-82c192-92,249-113,305-113c62,0,94,35,125,134c14,46,25,90,25,97s-32,77-70,155
		c-56,113-80,151-116,183c-75,66-132,77-506,101c-292,18-434,84-414,192c9,49,78,153,107,163c13,4,116,11,229,15
		c113,5,222,13,243,20c50,15,159,99,363,282c94,85,180,154,190,155c28,2,224,63,257,80c39,20,105,90,129,136c26,51,26,122,1,156
		c-11,14-48,48-84,74c-85,64-103,101-95,185c12,117,20,120,231,90c200-28,276-19,505,58c240,82,289,111,310,182c7,26,4,40-15,75
		c-12,24-35,96-50,159l-27,116l-177,139c-289,229-317,245-525,304c-189,53-216,63-265,105c-64,54-23,137,104,210
		c159,91,229,263,229,559c0,198-26,284-97,322c-26,14-74,18-272,24c-258,8-389,25-603,80c-401,103-669,234-723,354
		c-26,56-25,119,2,146c18,18,41,30,145,75c11,5,70,65,129,134c148,170,357,378,430,427c75,50,166,146,321,338c67,83,133,161,147,174
		l26,23l-15-63c-30-131-59-174-251-376c-98-103-269-281-380-395c-219-224-263-284-263-357c0-116,147-243,365-315
		c197-66,559-119,820-120c168-1,171-1,265,32c116,40,233,103,337,180c94,70,147,129,180,200c22,46,25,64,22,136c-4,71-9,92-43,160
		l-38,79l36,191c61,314,120,548,179,706c21,54,21,54,28,25c4-16,7-94,8-171c1-176-15-276-76-454c-28-83-47-160-50-201
		c-5-58-2-74,27-139c52-118,74-285,49-373c-11-40-96-217-143-300c-21-35-29-63-30-110c-2-34-7-91-11-128c-12-99,17-140,143-203
		c102-51,334-125,459-146l73-12l-16-30c-23-45-28-122-15-239c10-84,20-120,52-190c21-47,39-97,39-111s-14-44-30-67
		c-78-107-265-165-420-130c-87,20-211,88-272,150c-70,72-131,174-154,257c-16,56-16,78-6,200c15,180,3,239-65,330
		c-17,23-32,32-53,32c-41,0-56-28-81-146c-20-97-44-159-94-239c-33-54-32-100,4-156c15-24,88-114,162-199c74-86,179-209,233-275
		c142-171,272-302,314-316s100-5,155,23c36,18,202,129,423,284c76,54,149,133,164,181c16,46,8,98-24,169c-30,64-32,109-11,181
		c26,87,164,343,186,343c4,0,51-25,105-56c167-97,280-147,327-146c49,0,139,35,327,124c108,52,154,81,230,144c52,44,158,131,235,193
		c279,225,475,418,568,559c92,139,133,343,116,577c-4,55-3,154,2,220s9,131,10,145c4,71,109-666,109-765c0-199-135-406-359-552
		c-179-116-219-144-322-227c-153-122-196-188-152-232c16-15,38-16,238-11c121,4,319,12,440,18l220,11l237,120
		c234,118,238,121,273,174c59,89,128,274,200,537c47,175,60,276,45,369c-6,40-51,194-100,342c-49,149-88,272-86,273
		c6,6,99-172,149-282c117-263,146-423,111-621c-8-49-19-123-24-165c-10-89-48-189-135-357l-64-122l99,50c229,118,437,285,493,396
		c55,109,78,276,58,418c-6,45-35,144-67,235c-91,252-175,503-171,507c4,5,170-336,228-468c21-48,48-120,60-160c21-69,22-78,10-190
		c-7-66-10-145-6-180c8-75,34-198,42-198c15,0,137,181,203,300c124,223,260,562,286,713c30,170,5,353-72,534
		c-57,132-110,225-244,423c-68,102-164,246-214,320c-262,395-464,610-1094,1162c-158,138-353,306-435,374
		c-756,632-1538,1064-2389,1323c-563,171-1134,271-1322,231c-73-15-119-55-114-97l3-28l475-87c261-48,476-87,477-87c1-1,9-25,18-53
		c10-29,21-56,24-61c4-4,70-12,147-18l139-10l80-78l80-78l136-23l136-23l40-86l39-86l117-49c65-27,116-51,113-53c-2-2-31,3-64,11
		c-33,9-66,16-73,16c-8-1,56-68,141-150l155-149l-165,43c-91,24-182,48-202,54c-21,6-38,9-38,7c0-1,22-49,50-106
		c27-57,48-105,46-106c-2-2-92,40-202,93c-109,53-218,104-240,114l-42,18l-38-94l-38-94l-250,129l-250,129l-56-105
		c-31-58-59-105-64-105c-4,0-90,64-191,141c-101,78-193,141-204,141s-103-13-204-30c-102-16-189-30-195-30c-5,0-52,72-103,160
		l-94,160h-271h-271l-78,164l-77,163l-97,7c-53,3-140,6-194,6s-97,4-95,9c2,4,43,41,92,82c105,86,121,71-139,126
		c-199,42-198,39-10,58l70,7l-95,50l-95,49l113-5c61-3,112-3,112,0s-18,37-41,76c-22,38-39,71-37,72c1,2,127-29,278-69l275-72l3,54
		c2,29,6,53,10,53s105-42,225-93l217-93l198,18c108,9,203,17,210,18c7,0,12,13,12,33v33l-452,107c-489,115-606,139-913,186
		c-377,57-742,97-1145,126C4227.83,15355.17,3596.83,15363.17,3393.83,15351.17z"/>
</g>
</svg>
