<?xml version="1.0" encoding="utf-8"?>
<!-- Generator: Adobe Illustrator 30.1.0, SVG Export Plug-In . SVG Version: 9.03 Build 0)  -->
<svg version="1.0" id="Ebene_1" xmlns="http://www.w3.org/2000/svg" xmlns:xlink="http://www.w3.org/1999/xlink" x="0px" y="0px"
	 viewBox="0 0 1240 1448" style="enable-background:new 0 0 1240 1448;" xml:space="preserve">
<style type="text/css">
	.st0{opacity:0.7;}
</style>
<g transform="translate(0.000000,1448.000000) scale(0.100000,-0.100000)" class="st0">
	<path d="M6863.24,14441.85c-44-4-125-21-180-38c-385-113-383-113-560-211c-93-51-186-108-206-125s-74-76-119-131
		c-46-55-154-172-240-260c-186-189-273-312-399-563c-97-194-127-293-146-492c-39-394-4-643,150-1065c62-171,103-266,160-370
		c43-77,166-305,275-506c129-238,239-428,318-546c89-132,154-248,246-429c68-137,172-334,230-439c277-498,532-1178,715-1910
		c33-132,79-294,101-360c29-85,51-181,75-330c20-115,38-222,41-237l6-28h-286h-287l-47,78c-47,78-135,172-159,172
		c-31,0-201,101-263,155c-14,13-45,25-68,29c-24,4-60,15-80,25c-44,22-440,151-574,186c-88,24-124,26-693,47l-600,21l-325-27
		c-577-49-683-68-975-171c-285-101-331-122-418-194c-123-102-177-180-233-339c-16-48-17-62-6-172c15-147,35-202,103-283
		c89-105,83-96,62-91c-10,2-169,24-353,49c-302,40-354,45-530,45c-398-1-502-24-820-181c-58-29-107-55-110-60c-3-4-41-35-85-68
		c-74-57-164-149-285-293c-42-50-55-76-94-197c-53-161-56-210-31-421c36-297,112-533,211-651c20-24,60-80,89-124
		c82-126,174-203,299-250c82-31,126-53,126-63c0-4-22-15-48-24c-26-10-76-40-111-68s-88-67-118-86c-123-79-288-257-400-432
		c-16-24-47-69-71-100c-23-31-45-68-47-82c-10-50-38-157-68-260c-27-95-31-122-34-277c-3-136-1-181,11-217c9-25,20-87,26-138
		c11-92,68-325,94-383c8-16,65-123,128-237l113-207l210-188l210-189l231-131c127-72,249-136,270-142c22-6,60-24,85-40
		c39-24,114-43,510-129l464-101l630-80l630-81h1585c1315,0,1692,4,2210,19c344,10,693,16,776,14c103-4,196-1,295,10
		c79,9,196,18,259,21c69,4,146,14,190,26c132,36,232,50,357,50c67,0,123,4,125,8c5,12,212,59,318,72c340,42,891,208,1174,355
		c151,77,189,101,274,171c37,30,144,118,239,194c236,191,447,426,632,704c128,191,129,193,171,332c77,255,82,315,54,611l-15,164
		l-95,227c-52,125-110,249-129,275c-18,27-163,187-321,355c-242,258-310,324-424,412c-74,58-151,115-170,128c-63,40-159,82-213,93
		c-79,17-85,25-24,32c58,7,203,55,272,89c22,11,63,37,91,58s82,57,120,80c99,61,159,115,227,204c73,96,117,207,117,298
		c0,33,7,88,16,122c23,89,16,246-13,303c-12,23-28,66-36,95s-28,75-46,102c-17,28-31,56-31,64s-21,36-47,62c-27,25-55,60-64,76
		c-21,40-440,330-579,401c-58,29-141,66-185,82c-140,51-382,109-525,126c-30,4-122,21-205,38c-127,25-179,31-338,35
		c-123,2-198,0-219-7c-26-9-533-71-581-71c-10,0-18,74-36,326l-22,325l-169,757c-147,660-194,852-368,1497
		c-111,407-241,900-291,1095c-89,350-90,358-111,585c-26,284-137,1000-191,1228c-54,231-91,340-164,487c-76,155-129,228-314,440
		c-137,158-148,167-228,208c-55,28-88,51-95,67c-6,14-9,27-7,29c12,11,242,120,351,167c116,49,134,60,199,123c39,38,79,86,90,105
		c55,101,61,106,204,193c39,23,106,68,150,100c43,32,85,58,92,58c6,0,16,6,20,14s26,16,48,18c63,6,52,23-12,19l-56-3l27,33
		c19,23,44,38,75,46l46,13l-43-5c-48-6-75-19-108-52c-12-13-27-23-34-23c-6,0-35-20-63-44c-29-24-98-67-154-95l-103-51v59
		c0,65-2,68-87,146c-49,44-60,49-184,81C7170.24,14444.85,7009.24,14456.85,6863.24,14441.85z M5048.24,6477.85c91-8,213-15,271-15
		c92-2,122-7,215-36c60-19,114-35,119-35c23,0,85-22,85-29c0-28-152-56-435-81c-61-5-211-26-335-45c-259-41-788-82-1115-87
		c-166-2-213,0-280,15c-98,23-165,52-165,72c0,18,35,41,75,50c17,4,113,32,214,62c135,40,253,67,435,98c248,42,254,43,501,44
		C4771.24,6490.85,4957.24,6484.85,5048.24,6477.85z M9827.24,5426.85c79-8,146-17,148-19c3-3-12-10-34-17c-54-17-330-24-766-21
		c-370,3-377,3-367,23c10,18,24,19,288,20c152,0,338,7,412,14C9686.24,5443.85,9664.24,5443.85,9827.24,5426.85z M8139.24,3338.85
		c113-43,228-57,454-57c124,0,194-6,381-35c343-53,722-114,784-126c113-23,147-29,219-39c44-6,92-20,119-35c24-14,52-25,62-25
		c9,0,46-14,81-31s87-42,116-56c59-28,141-110,172-171c50-99,31-217-67-421c-35-72-166-209-239-250c-84-47-162-96-208-129
		c-57-42-216-120-294-144c-36-11-85-31-108-45c-62-36-304-104-497-139c-45-9-148-19-231-24c-82-5-188-15-235-24c-47-8-146-20-220-26
		s-160-13-190-16c-63-5-306-30-425-44c-96-11-156-12-615-5c-280,4-494-1-1010-21l-655-27l-1145,42c-941,34-1243,48-1695,81
		c-346,26-568,46-599,55c-26,8-60,15-73,15c-115,0-351,122-424,220c-100,133-139,237-142,379c-2,96-2,96,41,178
		c69,130,209,248,350,296c30,10,109,23,174,28c66,5,176,16,246,23c111,11,181,10,542-6c401-18,431-21,895-84c264-36,662-97,885-135
		c319-56,429-71,520-73c64-1,121-6,128-10c24-15,827,25,907,45c22,6,72,17,110,26c39,8,72,19,75,23c7,11,90,41,365,130
		c132,42,258,85,280,94c74,32,180,88,225,120c25,18,155,99,290,181s275,172,312,200c44,33,92,59,137,73c39,13,73,27,77,33
		c3,6,10,6,17,1S8086.24,3357.85,8139.24,3338.85z M6998.24,2801.85c-8-5-19-10-25-10c-5,0-3,5,5,10s20,10,25,10
		C7009.24,2811.85,7006.24,2806.85,6998.24,2801.85z M6263.24,2545.85c-33-8-82-20-110-28c-27-8-95-17-150-21c-55-3-118-8-140-10
		c-37-5-38-4-10,5c17,5,76,13,133,16c56,4,142,17,190,30c48,12,101,22,117,22C6313.24,2559.85,6302.24,2554.85,6263.24,2545.85z
		 M9013.24,1601.85c-11-5-60-9-108-9c-48-1-138-10-200-21c-62-10-170-24-242-30c-170-13-289-25-515-49c-234-25-392-34-365-22
		c11,5,52,10,91,10c39,1,106,5,150,11c99,12,351,38,424,44c264,22,327,28,410,43c52,9,151,19,220,23c69,3,132,7,140,8
		C9026.24,1609.85,9024.24,1606.85,9013.24,1601.85z M7530.24,1483.85c10-4-37-7-103-7c-67,0-110,3-97,6
		C7361.24,1491.85,7508.24,1491.85,7530.24,1483.85z M9398.24,191.85c0-6-40-9-102-8l-103,2l90,6c50,3,96,7,103,8
		C9392.24,200.85,9398.24,197.85,9398.24,191.85z"/>
	<path d="M8086.24,14304.85c7-3,16-2,19,1c4,3-2,6-13,5C8081.24,14310.85,8078.24,14307.85,8086.24,14304.85z"/>
	<path d="M8128.24,14291.85c20-13,33-13,25,0c-3,6-14,10-23,10C8115.24,14301.85,8115.24,14299.85,8128.24,14291.85z"/>
</g>
</svg>
