<?xml version="1.0" encoding="UTF-8"?>
<svg id="Ebene_1" xmlns="http://www.w3.org/2000/svg" version="1.1" viewBox="0 0 1240 1448">
  <!-- Generator: Adobe Illustrator 30.1.0, SVG Export Plug-In . SVG Version: 2.1.1 Build 136)  -->
  <defs>
    <style>
      .st0 {
        fill: #fff;
        stroke: #010200;
        stroke-miterlimit: 10;
        stroke-width: 5px;
      }

      .st1 {
        opacity: .7;
      }
    </style>
  </defs>
  <g class="st1">
    <path class="st0" d="M686.32,3.81c-4.4.4-12.5,2.1-18,3.8-38.5,11.3-38.3,11.3-56,21.1-9.3,5.1-18.6,10.8-20.6,12.5s-7.4,7.6-11.9,13.1c-4.6,5.5-15.4,17.2-24,26-18.6,18.9-27.3,31.2-39.9,56.3-9.7,19.4-12.7,29.3-14.6,49.2-3.9,39.4-.4,64.3,15,106.5,6.2,17.1,10.3,26.6,16,37,4.3,7.7,16.6,30.5,27.5,50.6,12.9,23.8,23.9,42.8,31.8,54.6,8.9,13.2,15.4,24.8,24.6,42.9,6.8,13.7,17.2,33.4,23,43.9,27.7,49.8,53.2,117.8,71.5,191,3.3,13.2,7.9,29.4,10.1,36,2.9,8.5,5.1,18.1,7.5,33,2,11.5,3.8,22.2,4.1,23.7l.6,2.8h-57.3l-4.7-7.8c-4.7-7.8-13.5-17.2-15.9-17.2-3.1,0-20.1-10.1-26.3-15.5-1.4-1.3-4.5-2.5-6.8-2.9-2.4-.4-6-1.5-8-2.5-4.4-2.2-44-15.1-57.4-18.6-8.8-2.4-12.4-2.6-69.3-4.7l-60-2.1-32.5,2.7c-57.7,4.9-68.3,6.8-97.5,17.1-28.5,10.1-33.1,12.2-41.8,19.4-12.3,10.2-17.7,18-23.3,33.9-1.6,4.8-1.7,6.2-.6,17.2,1.5,14.7,3.5,20.2,10.3,28.3,8.9,10.5,8.3,9.6,6.2,9.1-1-.2-16.9-2.4-35.3-4.9-30.2-4-35.4-4.5-53-4.5-39.8.1-50.2,2.4-82,18.1-5.8,2.9-10.7,5.5-11,6-.3.4-4.1,3.5-8.5,6.8-7.4,5.7-16.4,14.9-28.5,29.3-4.2,5-5.5,7.6-9.4,19.7-5.3,16.1-5.6,21-3.1,42.1,3.6,29.7,11.2,53.3,21.1,65.1,2,2.4,6,8,8.9,12.4,8.2,12.6,17.4,20.3,29.9,25,8.2,3.1,12.6,5.3,12.6,6.3,0,.4-2.2,1.5-4.8,2.4-2.6,1-7.6,4-11.1,6.8s-8.8,6.7-11.8,8.6c-12.3,7.9-28.8,25.7-40,43.2-1.6,2.4-4.7,6.9-7.1,10-2.3,3.1-4.5,6.8-4.7,8.2-1,5-3.8,15.7-6.8,26-2.7,9.5-3.1,12.2-3.4,27.7-.3,13.6-.1,18.1,1.1,21.7.9,2.5,2,8.7,2.6,13.8,1.1,9.2,6.8,32.5,9.4,38.3.8,1.6,6.5,12.3,12.8,23.7l11.3,20.7,21,18.8,21,18.9,23.1,13.1c12.7,7.2,24.9,13.6,27,14.2,2.2.6,6,2.4,8.5,4,3.9,2.4,11.4,4.3,51,12.9l46.4,10.1,63,8,63,8.1h158.5c131.5,0,169.2-.4,221-1.9,34.4-1,69.3-1.6,77.6-1.4,10.3.4,19.6.1,29.5-1,7.9-.9,19.6-1.8,25.9-2.1,6.9-.4,14.6-1.4,19-2.6,13.2-3.6,23.2-5,35.7-5,6.7,0,12.3-.4,12.5-.8.5-1.2,21.2-5.9,31.8-7.2,34-4.2,89.1-20.8,117.4-35.5,15.1-7.7,18.9-10.1,27.4-17.1,3.7-3,14.4-11.8,23.9-19.4,23.6-19.1,44.7-42.6,63.2-70.4,12.8-19.1,12.9-19.3,17.1-33.2,7.7-25.5,8.2-31.5,5.4-61.1l-1.5-16.4-9.5-22.7c-5.2-12.5-11-24.9-12.9-27.5-1.8-2.7-16.3-18.7-32.1-35.5-24.2-25.8-31-32.4-42.4-41.2-7.4-5.8-15.1-11.5-17-12.8-6.3-4-15.9-8.2-21.3-9.3-7.9-1.7-8.5-2.5-2.4-3.2,5.8-.7,20.3-5.5,27.2-8.9,2.2-1.1,6.3-3.7,9.1-5.8s8.2-5.7,12-8c9.9-6.1,15.9-11.5,22.7-20.4,7.3-9.6,11.7-20.7,11.7-29.8,0-3.3.7-8.8,1.6-12.2,2.3-8.9,1.6-24.6-1.3-30.3-1.2-2.3-2.8-6.6-3.6-9.5s-2.8-7.5-4.6-10.2c-1.7-2.8-3.1-5.6-3.1-6.4s-2.1-3.6-4.7-6.2c-2.7-2.5-5.5-6-6.4-7.6-2.1-4-44-33-57.9-40.1-5.8-2.9-14.1-6.6-18.5-8.2-14-5.1-38.2-10.9-52.5-12.6-3-.4-12.2-2.1-20.5-3.8-12.7-2.5-17.9-3.1-33.8-3.5-12.3-.2-19.8,0-21.9.7-2.6.9-53.3,7.1-58.1,7.1-1,0-1.8-7.4-3.6-32.6l-2.2-32.5-16.9-75.7c-14.7-66-19.4-85.2-36.8-149.7-11.1-40.7-24.1-90-29.1-109.5-8.9-35-9-35.8-11.1-58.5-2.6-28.4-13.7-100-19.1-122.8-5.4-23.1-9.1-34-16.4-48.7-7.6-15.5-12.9-22.8-31.4-44-13.7-15.8-14.8-16.7-22.8-20.8-5.5-2.8-8.8-5.1-9.5-6.7-.6-1.4-.9-2.7-.7-2.9,1.2-1.1,24.2-12,35.1-16.7,11.6-4.9,13.4-6,19.9-12.3,3.9-3.8,7.9-8.6,9-10.5,5.5-10.1,6.1-10.6,20.4-19.3,3.9-2.3,10.6-6.8,15-10,4.3-3.2,8.5-5.8,9.2-5.8.6,0,1.6-.6,2-1.4s2.6-1.6,4.8-1.8c6.3-.6,5.2-2.3-1.2-1.9l-5.6.3,2.7-3.3c1.9-2.3,4.4-3.8,7.5-4.6l4.6-1.3-4.3.5c-4.8.6-7.5,1.9-10.8,5.2-1.2,1.3-2.7,2.3-3.4,2.3-.6,0-3.5,2-6.3,4.4-2.9,2.4-9.8,6.7-15.4,9.5l-10.3,5.1v-5.9c0-6.5-.2-6.8-8.7-14.6-4.9-4.4-6-4.9-18.4-8.1-14.7-3.7-30.8-4.9-45.4-3.4ZM504.82,800.21c9.1.8,21.3,1.5,27.1,1.5,9.2.2,12.2.7,21.5,3.6,6,1.9,11.4,3.5,11.9,3.5,2.3,0,8.5,2.2,8.5,2.9,0,2.8-15.2,5.6-43.5,8.1-6.1.5-21.1,2.6-33.5,4.5-25.9,4.1-78.8,8.2-111.5,8.7-16.6.2-21.3,0-28-1.5-9.8-2.3-16.5-5.2-16.5-7.2,0-1.8,3.5-4.1,7.5-5,1.7-.4,11.3-3.2,21.4-6.2,13.5-4,25.3-6.7,43.5-9.8,24.8-4.2,25.4-4.3,50.1-4.4,13.8,0,32.4.6,41.5,1.3ZM982.72,905.31c7.9.8,14.6,1.7,14.8,1.9.3.3-1.2,1-3.4,1.7-5.4,1.7-33,2.4-76.6,2.1-37-.3-37.7-.3-36.7-2.3,1-1.8,2.4-1.9,28.8-2,15.2,0,33.8-.7,41.2-1.4,17.8-1.7,15.6-1.7,31.9,0ZM813.92,1114.11c11.3,4.3,22.8,5.7,45.4,5.7,12.4,0,19.4.6,38.1,3.5,34.3,5.3,72.2,11.4,78.4,12.6,11.3,2.3,14.7,2.9,21.9,3.9,4.4.6,9.2,2,11.9,3.5,2.4,1.4,5.2,2.5,6.2,2.5.9,0,4.6,1.4,8.1,3.1s8.7,4.2,11.6,5.6c5.9,2.8,14.1,11,17.2,17.1,5,9.9,3.1,21.7-6.7,42.1-3.5,7.2-16.6,20.9-23.9,25-8.4,4.7-16.2,9.6-20.8,12.9-5.7,4.2-21.6,12-29.4,14.4-3.6,1.1-8.5,3.1-10.8,4.5-6.2,3.6-30.4,10.4-49.7,13.9-4.5.9-14.8,1.9-23.1,2.4-8.2.5-18.8,1.5-23.5,2.4-4.7.8-14.6,2-22,2.6s-16,1.3-19,1.6c-6.3.5-30.6,3-42.5,4.4-9.6,1.1-15.6,1.2-61.5.5-28-.4-49.4.1-101,2.1l-65.5,2.7-114.5-4.2c-94.1-3.4-124.3-4.8-169.5-8.1-34.6-2.6-56.8-4.6-59.9-5.5-2.6-.8-6-1.5-7.3-1.5-11.5,0-35.1-12.2-42.4-22-10-13.3-13.9-23.7-14.2-37.9q-.2-9.6,4.1-17.8c6.9-13,20.9-24.8,35-29.6,3-1,10.9-2.3,17.4-2.8,6.6-.5,17.6-1.6,24.6-2.3,11.1-1.1,18.1-1,54.2.6,40.1,1.8,43.1,2.1,89.5,8.4,26.4,3.6,66.2,9.7,88.5,13.5,31.9,5.6,42.9,7.1,52,7.3,6.4.1,12.1.6,12.8,1,2.4,1.5,82.7-2.5,90.7-4.5,2.2-.6,7.2-1.7,11-2.6,3.9-.8,7.2-1.9,7.5-2.3.7-1.1,9-4.1,36.5-13,13.2-4.2,25.8-8.5,28-9.4,7.4-3.2,18-8.8,22.5-12,2.5-1.8,15.5-9.9,29-18.1s27.5-17.2,31.2-20c4.4-3.3,9.2-5.9,13.7-7.3,3.9-1.3,7.3-2.7,7.7-3.3.3-.6,1-.6,1.7-.1s5.5,2.6,10.8,4.5ZM699.82,1167.81c-.8.5-1.9,1-2.5,1-.5,0-.3-.5.5-1s2-1,2.5-1c.6,0,.3.5-.5,1ZM626.32,1193.41c-3.3.8-8.2,2-11,2.8-2.7.8-9.5,1.7-15,2.1-5.5.3-11.8.8-14,1-3.7.5-3.8.4-1-.5,1.7-.5,7.6-1.3,13.3-1.6,5.6-.4,14.2-1.7,19-3,4.8-1.2,10.1-2.2,11.7-2.2,2,0,.9.5-3,1.4ZM901.32,1287.81c-1.1.5-6,.9-10.8.9-4.8.1-13.8,1-20,2.1-6.2,1-17,2.4-24.2,3-17,1.3-28.9,2.5-51.5,4.9-23.4,2.5-39.2,3.4-36.5,2.2,1.1-.5,5.2-1,9.1-1,3.9-.1,10.6-.5,15-1.1,9.9-1.2,35.1-3.8,42.4-4.4,26.4-2.2,32.7-2.8,41-4.3,5.2-.9,15.1-1.9,22-2.3,6.9-.3,13.2-.7,14-.8.8,0,.6.3-.5.8ZM753.02,1299.61c1,.4-3.7.7-10.3.7s-11-.3-9.7-.6c3.1-.9,17.8-.9,20-.1ZM939.82,1428.81c0,.6-4,.9-10.2.8l-10.3-.2,9-.6c5-.3,9.6-.7,10.3-.8.6-.1,1.2.2,1.2.8Z"/>
    <path class="st0" d="M808.62,17.51c.7.3,1.6.2,1.9-.1.4-.3-.2-.6-1.3-.5-1.1,0-1.4.3-.6.6Z"/>
    <path class="st0" d="M812.82,18.81c2,1.3,3.3,1.3,2.5,0-.3-.6-1.4-1-2.3-1-1.5,0-1.5.2-.2,1Z"/>
  </g>
</svg>