<svg xmlns="http://www.w3.org/2000/svg" id="Ebene_1" version="1.1" viewBox="37.98 237.55 239.29 132.83">
  <!-- Generator: Adobe Illustrator 30.1.0, SVG Export Plug-In . SVG Version: 2.1.1 Build 136)  -->
  <defs>
    <style>
      .st0 {
        fill: #fff;
        stroke: #313131;
        stroke-miterlimit: 10;
        stroke-width: .25px;
      }
    </style>
  </defs>
  <path class="st0" d="M79.3,242.03c-1.64,1.22-3.91,4.17-4.85,6.43-.99,2.15-3.11,5.44-4.52,7.22-3.52,4.14-15.99,23.23-17.83,27.2-.79,1.66-.75,2.72-.06,2.43,3.44-1.43,4.74,11.38,1.47,15.14-1.77,2.21-4.57,2.57-5.28.87-.28-.68.42-1.24,1.48-1.29,3.89-.02,4.88-11.52.98-12.16-.88-.17-1.39-.76-1.24-1.35.32-2.14-10.04,1.38-11.1,3.69-.69,1.89-.1,2.98,3.98,7.29,10.17,10.85,18.5,27.94,24.13,49.5,1.83,6.98,10.96,15.33,20.81,18.97,18.73,6.88,66.89,5.36,118.1-3.7,18.12-3.28,22.37-4.38,34.92-9.75,24.53-10.49,31.22-16.36,35.37-30.91,3.4-11.83.96-21.23-7.21-28.25-3.93-3.3-55.92-24.5-82.18-33.31-36.02-12.23-64.96-20.72-75.11-21.84-8.37-1.05-25.86-.44-28.23.95-.34.14-1.94,1.48-3.65,2.86ZM81.64,253.75c2.39,3.14,7.55,28.1,7.41,35.5-.23,7.18-7.02,33.78-10.57,40.73-2.74,5.68-7.35,8.81-10.91,7.35-3.08-1.25-3.03-2.74-.12-2.22,5.93,1,10.24-5.74,14.13-21.25,5.53-22.2,5.73-24.96,3.15-39.51-3.14-17.52-4.4-20.87-7.49-19.58-1.26.53-2.53.39-2.76-.18-.28-.68.79-1.66,2.39-2.33,2.06-.86,3.31-.45,4.78,1.48ZM63.65,273.8c3.89,1.58,5.26,6.49,4.06,15.54-.99,7.62-5.12,19.63-7.86,22.1-2.14,1.96-5.83,1.5-5.51-.64.13-.99.75-1.11,1.54-.51,3.44,2.44,10.49-17.73,9.74-28.23-.36-5.06-.55-5.51-3.71-6.33-1.69-.5-3.35-1.27-3.5-1.61-.57-1.37,2.17-1.57,5.24-.32Z"/>
</svg>