<svg xmlns="http://www.w3.org/2000/svg" id="Ebene_1" version="1.1" viewBox="122.39 264.08 160.29 146.43">
  <!-- Generator: Adobe Illustrator 30.1.0, SVG Export Plug-In . SVG Version: 2.1.1 Build 136)  -->
  <defs>
    <style>
      .st0 {
        fill: #010101;
        opacity: .7;
      }
    </style>
  </defs>
  <path class="st0" d="M127.04,360.7c2.6-.94,6.25-2.51,8.11-3.49,1.99-1.06,6.18-2.46,10.23-3.42,3.77-.9,7.13-1.87,7.46-2.19.33-.31,1.81-.8,3.28-1.09,1.47-.29,2.8-.84,2.94-1.23.14-.38,1.92-.99,3.94-1.35,2.5-.44,4-1.03,4.66-1.84.59-.72,2.97-1.78,6.03-2.67,5.09-1.48,14.85-4.68,18.09-5.93,2.43-.94,2.11-2.59-.78-3.99-2.25-1.1-2.29-1.17-.53-.87,1.76.3,1.86.22,1.18-.92-.4-.69-.42-1.17-.03-1.07.39.1,1.19,1.19,1.79,2.43,1.56,3.26,3.36,4.11,6.54,3.08,1.47-.47,2.47-1.03,2.22-1.23-.24-.21-.11-.57.28-.81.39-.24-.6-1.31-2.2-2.38-1.6-1.07-3.79-2.83-4.84-3.92-2.19-2.24-3.85-2.29-16.01-.51-3.78.55-6.55.69-6.15.32.54-.51.45-.72-.34-.78-.85-.07-.86-.16-.03-.42,1.84-.59-5.16-1.42-7.44-.89-2.12.5-2.14.48-.52-.44l1.67-.95-2.16-.31c-1.19-.17-2.05-.61-1.92-.96.13-.36-.99-.34-2.5.02-1.51.37-2.38.42-1.93.11,1.54-1.06.49-1.83-1.41-1.04-1.05.44-1.53.56-1.07.28,1.41-.86.67-1.56-1.76-1.66-1.27-.05-2.4-.4-2.49-.76s.36-.61,1.01-.57c.65.05,1.08-.25.98-.66s.18-.65.63-.54c.45.11.73-.12.64-.5s-.69-.48-1.31-.21c-.62.28-1.39.14-1.7-.3-.39-.54-.23-.71.49-.53.78.2.86-.02.27-.83-.49-.69.05-.57,1.48.35,1.25.79,2.37,1.8,2.48,2.24.41,1.54,1.44.45,1.72-1.82l.28-2.29.21,1.99c.11,1.09.69,2.47,1.29,3.05,1.08,1.07,1.09,1.07,1.32-.34.2-1.21.3-1.16.73.33.31,1.09.89,1.64,1.55,1.47.57-.15,1.54.21,2.16.81.61.6,1.38.83,1.72.51.33-.32,1.41-.04,2.39.62,1.59,1.08,4.71,1.39,7.85.8.6-.11,1.89-.05,2.85.14.96.19,2.36.29,3.12.22.75-.07,2.4-.03,3.66.09,1.26.11,2.67-.05,3.14-.36.47-.31,1.11-.34,1.43-.07.32.27,1.17.34,1.9.15s3.2.74,5.5,2.08c4.29,2.49,7.09,4.73,5.41,4.3-.54-.14-.64.1-.26.6.35.45,1.15.59,1.79.3.63-.29,1.37-.61,1.63-.71.26-.1.37-1.15.25-2.34-.23-2.06-.2-2.05.62.35l.86,2.5-.07-4.76.63,2.09c.81,2.68,1.76,1.81,1.61-1.48-.07-1.39-.14-3.3-.17-4.23-.04-1.57-.1-1.59-.79-.28-.71,1.33-.8,1.32-1.51-.11-.41-.84-.47-1.6-.13-1.69.96-.25.28-1.96-.83-2.11-.79-.11-.83-.26-.19-.75.44-.34.7-1.03.57-1.54s.14-1.17.59-1.48c.52-.35.5-1.63-.07-3.54-.49-1.65-.56-2.32-.17-1.49,1.78,3.69,2.08,4,3.39,3.56.74-.25,2.13-1.23,3.1-2.18l1.76-1.73-.99,1.7c-.97,1.67-.96,1.68.69,1.07.92-.34,2.01-.93,2.42-1.32.41-.39.8-.47.87-.19.3,1.34-.88,2.53-3.87,3.88-3.06,1.38-4.96,2.76-3.11,2.27.46-.12.96.3,1.12.92s1.02,1.38,1.91,1.66c.89.29,1.53.77,1.43,1.07-.24.62,2.45,3.52,2.78,3.01.2-.31.85,1.21,1.75,4.13.71,2.28,2.68,1.37,5.34-2.47,2.44-3.51,9.72-10.52,9.96-9.57.06.23.5-.07.98-.67.48-.59.95-.83,1.04-.53.09.31.49-.13.9-.97.61-1.25.79-1.34,1-.5.18.7.67.8,1.61.31.74-.39,1.29-.96,1.21-1.26s.39-.51,1.04-.46c.65.05,1.53-.35,1.95-.88.43-.52,1.03-.83,1.33-.67.31.16,1.01-.25,1.56-.93.66-.81.89-.9.67-.27-.5,1.39,1.66.63,3.55-1.26,1.58-1.58,1.59-1.58,1.11.05-.71,2.37.64,1.69,2.18-1.11.73-1.31,1.52-2.09,1.77-1.73.33.47.83.32,1.87-.55,1.05-.89,1.21-1.53.62-2.48-.55-.9-.52-1.08.09-.6.69.53,1.33.04,2.89-2.3,2.35-3.51,2.93-3.83,2.87-1.56-.03,1.24.3,1.66,1.28,1.62.91-.03.63.3-.89,1.05-1.21.61-2.14,1.36-2.06,1.66s-.38.7-1.03.87c-.88.23-.92.46-.16.95.8.51.53.7-1.39.97-2.31.33-2.33.36-.68,1.02,1.68.67,1.67.68-.13.71-1.48.03-1.69.21-1.13.95.59.76.16,1.06-2.45,1.76-1.74.46-3.29,1.17-3.45,1.59-.16.41.06.67.48.55s.85.14.95.57c.15.6-.04.65-.86.23-1.35-.69-9.26,1.43-14.25,3.84-3.27,1.57-4.44,2.69-8.31,7.96l-4.5,6.13,3.94,2.02-.5-1.96c-.6-2.36.88-4.59,3.49-5.28,2.38-.63,5.06,1.34,4.85,3.57-.11,1.21.07,1.4.86.87.93-.62,2.6.48,2.62,1.72.01.77,3.46-.3,3.79-1.17.16-.42.59-.84.96-.94s.14.62-.52,1.6l-1.19,1.78,1.91.36,1.91.36-1.92.4c-1.05.22-1.83.18-1.73-.09.1-.27-.58-.24-1.52.06s-1.52.7-1.31.88c.21.18,0,.82-.49,1.41-.47.59-.66,1.86-.42,2.83s-.04,2.69-.62,3.84c-1.9,3.74-6.7,3.54-7.68-.31-.54-2.13-1.38-2.16-2.75-.1-.89,1.33-.78,1.48,1.94,2.61,1.59.66,4.33,1.44,6.09,1.75,1.76.3,3.88.91,4.71,1.36.82.45,3.21.58,5.29.29,2.08-.29,3.65-.32,3.49-.09-.49.74-6,2.3-6.14,1.74s-5.14-.28-5.57.28c-.14.17-.96,0-1.83-.36-1.4-.59-3.65-.94-4.68-.73-.19.04-1.99-.7-3.99-1.65-2.94-1.4-3.86-1.54-4.8-.74-.64.54-.9,1.22-.57,1.5.33.28.31,1.05-.04,1.7-.35.65-.4,1.3-.12,1.45.29.15.15.83-.31,1.52-.46.69-.56,1.62-.22,2.06.34.45.32.74-.04.64-.36-.09-1.02.87-1.46,2.13-1.21,3.47.24,3.8,9.19,2.13,4.57-.85,7.85-1.15,8.3-.76.41.35,1.91.37,3.32.03,1.42-.34,2.59-.29,2.61.1.02.39.61.46,1.32.16.85-.37,1.16-.25.93.36-.25.68.18.66,1.63-.05,1.67-.82,1.79-.81.82.11-.94.87-.94,1.14-.04,1.37.62.16,1.62,0,2.23-.36.84-.49,1.1-.32,1.06.7-.04,1.01.38,1.3,1.62,1.14,1.77-.23,4,1.18,3.36,2.13-.21.31-.97.34-1.68.05-1.08-.43-1.25-.34-1.02.59s-.03.91-1.51-.03c-1.31-.83-1.75-.87-1.64-.15.08.54-.27.33-.79-.47-.51-.8-1.29-1.29-1.73-1.08-.43.21-.91-.1-1.06-.69s-.43-.82-.63-.52c-.21.3-.97.09-1.69-.46-1.64-1.25-3.1-.98-2.1.39.55.75.32.74-.89-.03-.89-.57-2.44-1.04-3.44-1.05-1.6,0-1.74.16-1.1,1.25l.74,1.25-2.32-.74c-2.29-.73-9.92-.8-12.51-.12-.94.25-1.13.65-.65,1.37,4.69,7.01,10.9,19.41,15.01,30,2.42,6.24,2.65,7.29,2.2,10.15-.73,4.62-2.59,6.95-5.79,7.25-1.4.13-3.18-.12-3.94-.58-1.83-1.08-12.53-10.64-12.3-10.99.17-.26,2.23,1.43,6.57,5.38,1.05.96,2.19,1.49,2.51,1.18.33-.32.53-.12.44.43-.23,1.4,4.06,3.94,6.49,3.84,1.63-.07,2.3-.55,3.5-2.54,1.03-1.69,1.27-2.89.77-3.82-.53-.98-.47-1.18.18-.69,1.6,1.21.56-5.14-1.68-10.21-3.45-7.82-9.54-19.58-11.89-22.96-1.21-1.74-2.71-4.42-3.31-5.95-.61-1.53-2.03-4.32-3.16-6.19-1.83-3.05-1.99-3.65-1.45-5.56.78-2.76.72-2.92-1.06-2.45-1.23.32-1.36.7-.74,2.07.41.93.53,1.37.27.99-.27-.38-.89-.42-1.39-.09-.99.66-.15,2.27,1.51,2.93,1.5.6,3.53,4.52,2.16,4.18-.67-.17-.79-.05-.34.34.38.33.49,1.19.24,1.92-.35,1.03-.63.62-1.29-1.87-.58-2.21-.97-2.85-1.27-2.08-.31.82-.54.61-.85-.8-.24-1.05-1.09-2.99-1.89-4.3-1.33-2.17-1.64-2.32-3.39-1.61-1.87.77-2.24,1.45-4.82,8.91-.37,1.06-1.44,2.23-2.4,2.61-.96.38-1.98,1.03-2.27,1.46-.29.42-1.09.91-1.76,1.09-.68.18-1.3.73-1.39,1.22-.12.68-.22.71-.41.13-.35-1.05-2.36.31-3.49,2.37-.71,1.3-.89,1.4-.76.44.19-1.47-1.78-1.2-2.64.35-.3.55-1.02,1.89-1.61,2.99l-1.08,1.99.76-2.08c.73-2,.7-2.07-.7-1.7-.8.21-2.1,1.55-2.89,2.99-1.33,2.41-1.43,2.47-1.35.86.08-1.5-.17-1.29-1.89,1.53-1.6,2.63-1.96,2.94-1.85,1.6.18-2.21-1.02-1.08-2.26,2.12-.82,2.12-.92,2.19-.87.67l.06-1.72-1.14,2.01c-.63,1.1-1.01,1.51-.86.91.15-.6-.43.04-1.3,1.43-1.66,2.68-5.03,5.48-5.31,4.4-.09-.35-.94-.42-1.91-.16s-2.06.19-2.45-.14c-.5-.43-.02-.66,1.66-.8,2.48-.21,4.43-1.14,4.2-2.04-.07-.29-1.21-.37-2.53-.17-1.97.29-1.83.19.8-.61,2.35-.71,2.87-1.05,1.97-1.3-.94-.26-.67-.49,1.09-.97,2.47-.67,2.94-1.84.7-1.77-.75.02-.41-.24.8-.61,1.65-.51,1.86-.73.9-.99-.92-.25-.55-.52,1.45-1.06,2.58-.7,3.44-1.87,1.42-1.95-.53-.02-.36-.11.38-.2,1.62-.2,5.27-2.39,5.1-3.07-.07-.26-.84-.57-1.71-.68-1.14-.14-.1-.6,3.61-1.61,2.86-.78,4.47-1.04,3.56-.58-.9.46-1.69,1.21-1.74,1.67-.07.61.68.38,2.79-.87,1.58-.94,3.8-2.16,4.91-2.72,1.79-.89,1.85-1.03.5-1.11-1.07-.06-.24-.57,2.76-1.7l4.29-1.61,1.36-5.52c.74-3.04,1.28-5.82,1.19-6.18-.19-.74-3.55-2.32-4.44-2.08-.31.08-.96,1.05-1.45,2.14-.48,1.09-1.35,2.8-1.95,3.79-.59.99-.75,1.16-.35.38.63-1.26.53-1.51-.91-2.07-1.36-.53-1.42-.64-.31-.62.73.01,1.44-.31,1.59-.71.15-.4-.48-.54-1.4-.32-.91.22-4.27.97-7.47,1.65-3.2.68-8.01,1.83-10.71,2.56-2.69.73-5.41,1.12-6.03.87-.62-.25-2.84.03-4.94.62-4.7,1.33-9.94,2.09-12.05,1.77-.88-.13-2.22,0-2.99.29-1.76.68-9.18,1.82-13.63,2.1-5.92.37-7.04.49-11.72,1.3-2.52.43-4.64.57-4.71.3s2.01-1.26,4.61-2.2h0ZM140.14,360.3c.39-.1.46-.89.15-1.75-.3-.86-.81-1.49-1.11-1.41s-.38.87-.16,1.75.72,1.52,1.11,1.41ZM147.62,359.68c.4-.11.29-1.02-.27-2.15-1.35-2.75-1.71-2.76-1.02-.01.33,1.29.91,2.26,1.29,2.16h0ZM155.56,357.89c.42.1.89-.16,1.05-.58.15-.42-.04-.69-.43-.58-.41.11-.81-.86-.95-2.31-.17-1.89-.36-2.21-.76-1.34-.65,1.44.06,4.55,1.09,4.81h0ZM162.82,356.51c.11.25.93.26,1.82.02.88-.25,1.23-.56.77-.72-.46-.15-1.27-1.54-1.81-3.09-1.09-3.16-1.62-3.71-2.16-2.23-.3.82.37,3.77,1.38,6.03h0ZM171.17,353.96c.44.73,1.1,1.25,1.48,1.15s.42-.4.11-.67c-.31-.26-.26-.77.12-1.13.37-.35.31-1.28-.15-2.07-.45-.78-.62-2.12-.37-2.95.25-.84.13-1.95-.28-2.47-.64-.83-.86-.71-1.74.93-1,1.87-.67,4.71.83,7.21h0ZM178.82,326.39c1.55-.18,3.74-.37,4.88-.44,1.16-.06,2.01-.38,1.92-.73-.23-.92-5.71-1.16-8.12-.35-2.7.92-2.62.86-2.01,1.39.29.25,1.79.31,3.33.13h0ZM182.25,352.39c.44.73,1.32,1.18,1.96,1.01.93-.26.94-.38.05-.61-.71-.19-.88-.51-.47-.9.35-.34.24-2.18-.24-4.11s-.76-3.81-.62-4.2c.32-.84-1.33-1.01-2.5-.26-.87.56.35,6.63,1.82,9.07h0ZM181.09,343.65c.34-.32.69-.28.79.09s-.15.76-.54.87-.75.06-.79-.09.21-.54.54-.87h0ZM193.83,350.17c1.84,1.07,2.81.55,1.06-.57-.62-.39-1-1.05-.85-1.45.15-.41-.02-.82-.38-.9-.73-.19-1.8-5.06-1.36-6.23.15-.41-.2-.62-.79-.47-2.1.56-.28,8.12,2.32,9.62h0ZM192.61,339.13c.55-.37.83-.77.59-.89s-.72.07-1.08.41c-.98.93-.67,1.24.49.48h0ZM197.69,345.74c.81.66.9.61.67-.34-.43-1.8-.42-2.06.15-3.11.38-.69.31-.94-.23-.79-.69.18-1.77,2.33-1.6,3.16.04.17.49.67,1.01,1.09h0ZM201.12,344.15c.4-.11.64-.48.55-.83s-.48-.56-.88-.45-.64.48-.55.83.48.55.88.45ZM198.47,328.53c-.08.18.76.76,1.86,1.3,2.78,1.35,2.28.39-.7-1.35-1.34-.79-2.12-1.16-1.73-.84.39.32.65.72.57.9h0ZM203.8,343.54c.35.78,1.81,2.04,3.26,2.81,1.44.77,2.72,1.76,2.83,2.2s.5.53.86.18c.36-.34.35-1.02-.01-1.5-.53-.68-.42-.77.49-.4.64.26,1.33.22,1.53-.08.79-1.18,0-1.59-2.06-1.04-1.18.31-2.22.31-2.3-.02s-.49-1.03-.9-1.57c-.64-.83-.44-.99,1.33-1.06,2.33-.09,4.78.93,5.89,2.44.58.79,1.52.78,4.51-.07,2.91-.82,3.33-1.07,1.85-1.08-1.49-.02-1.12-.24,1.66-1,4.22-1.15,7.69-3.64,6-4.31-1.02-.4-8.68.1-11.05.72-1.47.39,1.26,1.23,4.49,1.39,2.28.11,2.27.13-.91,1.03-3.11.87-7.19.39-6.75-.8.11-.3-1.59-.12-3.78.42-2.19.53-4.17.87-4.39.76-.41-.21-.8-1.56-1.12-3.82-.21-1.54,2.53-3.38,5.6-3.74,1.31-.16,3.26-.85,4.32-1.56,1.51-.99,2.25-1.16,3.28-.75,2.34.94.98,2.03-3.53,2.85-2.36.42-4.23,1.01-4.16,1.31s-.58.82-1.46,1.17c-1.48.59-1.49.73-.2,1.98,1.29,1.25,1.34,1.24.67-.01-.51-.96-.38-1.45.46-1.7,10.23-3.1,16.81-5.23,17-5.51.65-.97-2.26-1.7-4.07-1.01-1.75.66-1.94.6-1.38-.44.56-1.04.44-1.08-.84-.32-1.18.7-1.72.61-2.54-.42-.57-.72-.97-.91-.87-.44.13.65-.58.95-2.8,1.2-2.27.25-2.93.54-2.76,1.21.12.49-.42,1.05-1.21,1.26s-1.5.14-1.58-.17c-.17-.66-4.35,1.23-5.13,2.33-.31.42-.4,1.41-.21,2.2.2.83-.11,1.55-.74,1.72-1.43.38-1.99,1.74-.84,2.03.51.12,1.2.87,1.54,1.64h0ZM206.86,357.14c.23-.91.71-1.72,1.07-1.82s.34-.44-.04-.77c-.7-.6-2.01,2.3-1.63,3.6.1.35.37-.11.6-1.01h0ZM208.08,353.57c.46.12.52-.17.13-.68-.76-.98-1.32-1.05-1.09-.13.08.33.52.69.96.8h0ZM208.96,350.94c.73.6.84.38.49-1.02-.25-1.04-.71-1.55-1.06-1.22-.77.73-.64,1.25.57,2.24ZM215.82,349.81c.49.59.55.49.22-.34-.26-.65-.99-1.17-1.62-1.16-.73.02-.81.14-.22.34.51.18,1.24.7,1.62,1.16h0ZM214.83,328.91c1.97-.52,2.03-.64.89-1.77-2.6-2.57-2.88-2.71-3.31-1.59-.22.57-.23,1.68-.04,2.47.29,1.17.75,1.34,2.46.88ZM222.52,337.54c.17-.37.72-.58,1.22-.45.5.13.83-.08.74-.45-.2-.78-6.61.76-8.42,2.02-.84.58-.1.64,2.48.2,2.01-.35,3.81-.94,3.98-1.32h0ZM211.2,318.44c.09-.49-.09-1.21-.4-1.6-.31-.39-.38.02-.16.9s.48,1.19.56.7ZM219.97,348.5c.52-.35.31-.46-.53-.27-.76.17-1.15.44-.86.59.29.15.92,0,1.39-.31h0ZM213.77,323.05c.59-.16,1.16.05,1.27.46s.31.57.45.36c.14-.22-.38-1.37-1.16-2.55-.96-1.47-1.54-1.85-1.79-1.2-.61,1.59.09,3.24,1.24,2.93h0ZM224.32,353.02c.15-.04.3-.69.32-1.45.03-.76-.2-1.14-.51-.85-.54.51-.38,2.45.18,2.3h0ZM219.46,326.22c.51.43.95.41,1.12-.04.16-.41-.29-.98-.99-1.26-1.38-.55-1.46.19-.13,1.31h0ZM235.41,360.38c1.33.65,2.72.02,2-.92-.47-.61-1.61-.57-3.96.13-2.4.71-2.7.9-1.09.68,1.22-.17,2.6-.11,3.05.11ZM228.09,335.07c.41-.62.11-.63-1.01-.03-.91.48-1.16.86-.58.87.55.02,1.27-.37,1.6-.84h0ZM232.42,338.59c.09-.58.47-1.37.84-1.75.41-.42.19-.55-.59-.35-.85.21-1.12.79-.84,1.75.28.95.48,1.07.59.35ZM238.3,334.54c1.47-.44,3.39-1.29,4.28-1.88,1.54-1.03,1.49-1.07-1.27-.81-1.58.14-3.01.58-3.17.96-.16.38-.8,1.02-1.44,1.43-1.73,1.12-1.34,1.19,1.6.3ZM239.34,331.1c.85-.39.26-.37-1.32.04-1.58.4-2.28.73-1.55.71.73-.02,2.02-.36,2.88-.75h0ZM238.51,329.14c.17-.26-.18-.71-.78-1.02-.87-.44-.93-.35-.31.47.43.56.92.81,1.09.55ZM243.13,334.73c.45.11.74-.1.65-.48s-.49-.59-.89-.49-.68.32-.64.47.44.37.89.49h0ZM249.64,311.3c.85-.39.26-.37-1.32.04-1.58.4-2.28.73-1.55.71.73-.02,2.02-.36,2.88-.75h0ZM193.08,366.87c.99-.26,1.42-.22.98.08-.45.31-1.25.52-1.79.48-.54-.04-.17-.3.82-.56ZM182.69,319.67c.52.43,1.01,1.06,1.1,1.42s-.26.29-.77-.14c-.52-.43-1.01-1.07-1.1-1.42s.26-.29.78.13h0ZM190.32,300.92c-.26-6.19,1.34-22.13,2.83-28.21,1.34-5.46,1.7-6.13,4.03-7.46,3.31-1.89,5.26-1.54,8.27,1.48,1.95,1.95,2.53,3.28,4.05,9.31,1.87,7.4,3.41,20.11,2.41,19.86-.32-.08-.26,1.06.13,2.54.75,2.82.97,13.54.27,13.18-.22-.11-.39-2.27-.37-4.78.03-5.08-.27-6.81-.81-4.6-.31,1.27-.36,1.24-.4-.23-.02-.93-.12-2.14-.22-2.68-.13-.67.13-.64.82.13.8.88.83.7.14-.86-.48-1.07-.91-4.65-.95-7.94-.1-7.28-1.12-14.24-2.04-14-.37.1-.8.9-.96,1.79q-.28,1.61-.73.02c-.25-.87-.38-3.14-.3-5.04.14-3.27-1.26-6.84-2.55-6.5-.52.14-1.58,12.42-1.21,13.97.21.86.13.88-.75.2-.7-.54-.45.97.9,5.22,1.7,5.39,1.72,5.59.2,1.99-.93-2.19-2.1-4.85-2.62-5.91-.76-1.57-.68-2.06.43-2.72.74-.43,1.22-1.34,1.05-2s-.19-1.94-.05-2.84c.78-5.01.95-9.02.39-9.5-.88-.77-3.45.03-3.22,1,.13.57-.05.59-.67.08-1.22-1.03-2.92.33-3.31,2.67-.24,1.42.17,3.02,1.45,5.68.97,2.04,1.95,4.55,2.17,5.57.21,1.03-.52-.11-1.64-2.52-1.11-2.42-2.23-4.5-2.48-4.63s-.73.87-1.06,2.22c-.58,2.33-.48,2.59,1.87,5.22,1.36,1.52,2.88,2.87,3.38,2.99s1.07,1.01,1.27,1.96c.36,1.7.34,1.71-.5.35l-.86-1.4-.57,1.9c-.31,1.04-.25,2.31.14,2.81.39.51.39.84,0,.74-1.01-.25-2.24-2.52-1.48-2.72,1.5-.4.63-3.54-1.59-5.82l-2.31-2.37-.45,2.17c-.57,2.78-.13,4.66,1.26,5.37.88.46.83.55-.26.48-1.03-.07-1.28.24-1.02,1.25.19.74.09,1.41-.23,1.5s-.72,1.92-.91,4.07c-.25,2.99-.08,4.09.72,4.59.57.37.83.72.58.79s.04.68.67,1.36c1.09,1.18,1.09,1.19-.28.3-.78-.52-1.55-.74-1.72-.5-.57.84.94,9.02,2.18,11.84.69,1.57,2.2,3.42,3.4,4.18,1.59,1,2.02,1.64,1.65,2.46-.39.88-.47.84-.36-.21.11-1.13,0-1.16-.75-.23-.75.92-.94.89-1.21-.18-.18-.7-1.06-2.19-1.98-3.29-1.84-2.23-3.61-8.75-3.83-14.11h0ZM208.15,275.04c.34-.32.47-1.07.29-1.65-.26-.87-.38-.81-.62.37-.39,1.93-.39,1.95.32,1.28ZM208.77,372.35c.34.57.55,1.44.46,1.93-.09.48-.37.01-.62-1.04-.25-1.06-.18-1.46.16-.88h0ZM211.09,380.42c2.7,4.83,3.03,5.76,1.25,3.43-.96-1.25-1.89-3-2.08-3.89-.26-1.3-.1-1.21.83.47h0ZM211.45,363.23c2.61-3.42,2.94-4.3,2.66-7.19l-.31-3.3.76,2.62c.76,2.61.2,6.44-.98,6.72-.35.08-1.58,1.49-2.74,3.13-1.16,1.64-2.17,2.74-2.24,2.45-.07-.29,1.21-2.29,2.85-4.43h0ZM213.98,387.91c.18.11.76,1.01,1.29,1.99.71,1.31.7,1.59,0,1.03-.88-.69-2.07-3.5-1.29-3.02h0ZM214.77,382.86c.42-.11.45-.47.06-.81-.44-.38-.34-.52.28-.36.54.14,1.32-.1,1.74-.53.42-.42.28-.11-.32.71-1.04,1.42-2.27,2.17-2.44,1.5-.04-.17.26-.41.67-.52h0ZM217.81,392.9c.88.66,1.76,1.55,1.94,1.96.18.42.74,1.38,1.24,2.14,1.62,2.47.03,1.03-2.41-2.18-1.92-2.52-2.06-2.89-.77-1.92h0ZM196.98,300.52c1.65.69,3.09,1.26,3.21,1.27.12,0,.08.78-.08,1.72l-.3,1.72-.44-1.55c-.24-.85-1.55-2.2-2.9-2.99l-2.47-1.43,2.99,1.25h0ZM194.45,291.98c2,2.59,2.27,3.75.37,1.61-.81-.91-1.56-2.09-1.69-2.62-.12-.53.47-.07,1.31,1.01h0ZM201.47,318.45c3.11.84,4.98,1.07,6.16.77,1.05-.26,1.12-.17.38.54-.49.48-1.16.8-1.49.71-.33-.09-.46.97-.28,2.34l.33,2.49-.76-2.48c-.56-1.83-1.4-2.77-3.18-3.59-1.34-.61-1.85-.96-1.15-.77h0ZM215.31,370.98c.33.41.44.97.26,1.24-.19.27-.45-.06-.59-.74-.15-.76-.03-.95.33-.5h0ZM219.51,387.62c.33.41.44.97.26,1.24-.19.27-.45-.06-.59-.74-.15-.76-.03-.95.33-.5h0ZM215.22,367.59c.32.41.44.97.25,1.24s-.45-.06-.59-.74c-.15-.76-.02-.95.34-.5h0ZM223.27,392.3c.99-.31,2.28-.32,2.87-.02,1.23.63,1.76,2.13.83,2.37-.35.09-.72-.34-.81-.96-.12-.75-.94-1.08-2.44-.98-2.11.13-2.14.1-.45-.42ZM199.5,297.97c.6.31.95.76.78,1.02s-.66,0-1.09-.56c-.62-.81-.56-.9.31-.47ZM201.59,307.67c.31.39.49,1.11.4,1.6-.09.49-.34.17-.56-.7s-.15-1.29.16-.9ZM218.75,375.53c.33.41.44.97.26,1.24s-.45-.05-.59-.74c-.15-.75-.02-.95.33-.5h0ZM200.45,299.95c.46-.12,1.18.07,1.6.43.51.43.77-.03.75-1.39,0-1.17.55.27,1.31,3.41.82,3.38.91,4.21.22,2.18-.84-2.49-1.54-3.41-2.91-3.84-.99-.31-1.43-.66-.97-.78ZM217.61,367.96c.34.57.55,1.44.46,1.93-.09.48-.36.01-.61-1.05-.25-1.06-.18-1.46.16-.88h0ZM221.44,378.4c.57-1.45.9-3.99.75-5.66l-.28-3.03,1.04,3.69c.65,2.32.73,3.61.22,3.49-.45-.11-.77.03-.7.32.12.56-1.83,4.67-1.97,4.15-.05-.18.38-1.5.94-2.95h0ZM199.27,292.25c.41.93.77,2.37.79,3.2.03.83-.31.06-.75-1.69-.43-1.76-.46-2.44-.05-1.51h0ZM215.25,352.57c.32.4.44.97.26,1.24s-.45-.05-.59-.74c-.15-.75-.03-.95.33-.5h0ZM216.58,356.44c.34-.09.8.56,1.02,1.44s.28,1.63.13,1.67-.61-.61-1.02-1.44c-.41-.83-.47-1.58-.13-1.67ZM224.62,389.68c.32.41.44.97.26,1.24s-.45-.05-.59-.74c-.15-.75-.03-.95.33-.5h0ZM205.69,308.67c.32.41.44.97.25,1.24s-.45-.06-.59-.74c-.15-.76-.02-.96.34-.5h0ZM219.13,361.75c.45,1.11.88,2.84.96,3.85.08,1-.29.1-.82-2.02-.53-2.11-.59-2.94-.15-1.83h0ZM198.03,270.93c.04-3.6.7-4.37.8-.93.05,1.49.14,3.92.21,5.41l.13,2.7-.59-2.23c-.32-1.23-.57-3.45-.56-4.93h0ZM222.71,363.87c.34.58.55,1.44.46,1.93-.09.48-.36.02-.61-1.05-.25-1.06-.18-1.45.16-.88h0ZM206.06,294.89c.37.75.65,1.9.63,2.56-.03.66-.33.05-.68-1.36-.35-1.41-.32-1.95.04-1.2h0ZM208.41,303.3c.55-1.39.81-.38.4,1.6-.19.95-.39,1.12-.58.49-.16-.52-.08-1.46.17-2.09h0ZM222.88,360.57c.34-.32.69-.28.79.09s-.15.76-.54.87-.75.06-.79-.09.21-.54.55-.87h0ZM224.77,369.12c.31.39.49,1.11.4,1.6-.08.49-.34.17-.56-.7s-.15-1.28.16-.9ZM226.2,373.69c.33-.8.49-.44.57,1.22.13,2.91-.15,3.54-.65,1.48-.21-.86-.17-2.07.08-2.7h0ZM204.16,284.46c.31.39.49,1.11.4,1.6-.09.49-.34.17-.56-.7s-.15-1.28.16-.9ZM230.87,389.18l.06-2.06.52,1.7c.29.93.24,1.96-.1,2.28-.34.32-.6.49-.58.36.02-.12.06-1.15.1-2.28h0ZM210.49,305.48c.14-1.39.24-1.49.5-.48.18.7.25,2.07.15,3.03-.13,1.39-.24,1.49-.49.47-.18-.7-.24-2.07-.15-3.03h0ZM232.38,393.09c.32.4.44.97.25,1.24-.18.28-.45-.06-.59-.74-.15-.75-.02-.95.34-.5h0ZM208.85,296.92c.33.4.44.96.26,1.24-.19.28-.45-.06-.59-.74-.15-.75-.03-.95.33-.5h0ZM207.96,290.29c.37.75.66,1.9.63,2.56-.03.66-.33.05-.68-1.36-.34-1.41-.32-1.95.05-1.2h0ZM207.13,284.02c.34.58.55,1.44.46,1.93-.09.49-.36.02-.61-1.04-.25-1.06-.19-1.46.15-.88h0ZM207.12,280.99c.33.41.44.97.26,1.24-.19.27-.45-.06-.59-.74-.15-.76-.02-.96.33-.5h0ZM239.89,404.71c.31.38.49,1.11.4,1.6-.09.49-.34.17-.56-.7s-.15-1.28.16-.89ZM238.84,394.41c.33.57.59,1.58.57,2.24-.03.66-.3.2-.61-1.03-.31-1.23-.29-1.77.05-1.21ZM220.88,310.28c.18-.13,1.85-.74,3.71-1.36,1.86-.62,3.71-1.5,4.1-1.94.39-.45,1.47-1.05,2.39-1.34,1.6-.5,1.63-.47.57.73-.61.69-.75,1.17-.3,1.07s1.11-.73,1.46-1.39c.36-.66.44-1.14.18-1.07s-.27-.54-.02-1.36c.24-.82.77-1.57,1.19-1.68s.68.42.61,1.21c-.18,1.87.25,1.65,2.25-1.11,2.49-3.44,3.45-4.5,4.26-4.71.41-.11.76-.96.78-1.89.03-.93.41-2.15.87-2.7,1.01-1.25,1.37-.23.43,1.24-.56.88-.39.91.9.17,1.08-.62,1.49-.65,1.28-.08-.2.53.08.57.76.12.84-.56.84-.77,0-.98-.59-.15-.87-.56-.64-.91.24-.35.82-.31,1.3.11,1.16,1,.33,2.4-2.48,4.2-1.38.88-2.04,1.73-1.7,2.18.31.4.09.86-.49,1.01s-.98.57-.89.92-.31.77-.88.92-1.2.72-1.41,1.26c-.2.54-1.52,1.84-2.95,2.87-4.42,3.23-5.46,4.14-5.33,4.65s-1.63.77-6.55,1.02l-2.72.14,2.11-.72,2.12-.71-2.63.19c-1.44.1-2.48.09-2.3-.03h0ZM246.98,326.49l1.58-2.07-1.29,2.22c-1.21,2.08-1.69,2.63-1.81,2.14-.03-.12.66-1.14,1.53-2.28ZM254.97,347.89c1.29-.11,2.87-.33,3.51-.49.93-.23,1-.13.33.51-.58.56-.56.88.07,1.03.5.12.97.48,1.05.8s-.87.05-2.1-.58c-1.44-.73-2.73-.9-3.56-.46-.72.38-1.39.39-1.48.03-.1-.4.76-.73,2.17-.85h0ZM261.16,345.49c3.16-.86,4.68-1.09,3.69-.55-2.44,1.34-.19,1.71,3.93.65,1.81-.46,2.75-.59,2.08-.28-2,.96-.26,1.59,2.42.88,1.5-.4,2.4-.36,2.23.09-.16.42.36.59,1.15.38s1.71-.15,2.04.14c.33.29,1.47.3,2.54.03,1.7-.43,1.79-.37.81.52-.89.8-.9,1.16-.05,1.7,1.26.8.7,1.07-1.42.66-1.04-.2-1.6-.02-1.83.58-.2.56-.79.41-1.65-.42-.79-.75-1.25-.88-1.12-.32.14.64-.27.58-1.26-.18-1.66-1.27-3.33-1.18-2.33.12,1.03,1.33-.05,1.23-3.16-.3-1.57-.77-3.44-1.3-4.16-1.17-2.71.5-4.69.13-4.54-.84.11-.69-.59-.87-2.29-.61-1.36.2-.04-.28,2.91-1.09h0Z"/>
</svg>