<?xml version="1.0" encoding="UTF-8"?>
<svg id="Ebene_1" xmlns="http://www.w3.org/2000/svg" version="1.1" viewBox="0 0 1169 1536">
  <!-- Generator: Adobe Illustrator 30.1.0, SVG Export Plug-In . SVG Version: 2.1.1 Build 136)  -->
  <defs>
    <style>
      .st0 {
        fill: #fff;
        stroke: #010200;
        stroke-miterlimit: 10;
        stroke-width: 4px;
      }

      .st1 {
        opacity: .7;
      }
    </style>
  </defs>
  <g class="st1">
    <path class="st0" d="M839.5.7c-26.4,3.2-52.4,10.8-83.8,24.3-53.3,23-107,59.1-150,101-35.4,34.3-66,75.3-73.1,98-6.5,20.4-3.2,44.2,8.8,63.4,6.6,10.6,43.1,51.7,49.7,55.9,3.8,2.5,28.3,8.3,44.9,10.6,29.5,4.2,126.5,13.8,168,16.6,27.7,1.9,47.5,4.1,60,6.6,25.4,5.2,86.1,22.4,114.4,32.4,21.3,7.6,33.8,13,58.7,25.7,29.5,15.1,28.9,15,41,6.1,4.6-3.5,17-12.1,27.4-19.2,32.5-22.1,47.6-36.5,55.8-53.4,5.7-11.8,7.2-18.4,7.1-33.2-.1-16.9-2.7-28.4-14.4-63.5-13-39.1-22.2-60.7-39.7-93.5-26.7-49.8-69-109.7-95.5-135.1-13.1-12.5-23.2-18.8-38.3-23.7-19.5-6.3-25.5-6.9-40.7-3.8-5.1,1.1-12,2.5-15.3,3.1-3.3.7-7.3,1.8-8.9,2.6-2.5,1.3-3.1,1.3-5.3-.1-1.3-.9-2.9-2.7-3.5-4-1.9-4.1-24.4-13.5-38.8-16.1-6.9-1.2-21.4-1.6-28.5-.7ZM827.2,26.5c-32.7,16-66.2,39.1-109.3,75.5-60.8,51.2-93.6,97.8-105.1,149.7-1.9,8.3-2.2,12.8-2.2,29.3.1,21.6,2.1,36.6,7,50.6,1.4,4.2,2.4,7.8,2.1,8-1.6,1.6-21.5-25.8-26.7-36.7-5.3-11.2-6.3-18.4-5.7-41.2.4-17.6.8-21.3,3-29.2,5.8-20.5,13.2-36.5,26-56.2,9.4-14.5,17.2-23.8,35.1-42.1,30.4-31,44.6-41.9,90.1-68.5,21.2-12.5,43.1-23.9,60-31.3,13.7-5.9,33-13.3,35.4-13.3.8-.1-3.6,2.4-9.7,5.4ZM910,55c-1.8,21.2-13.2,87.3-20.1,117-1.1,4.7-5.6,26-10,47.5-14.5,70.7-23.6,110.8-31,135.9l-2.1,6.8-7.9-.4c-4.4-.3-8.5-1-9.2-1.7-1.6-1.6-1.5-56.6.2-71.6,5-43.9,15.3-99,24.6-131.5,10.6-36.8,33.7-91.8,50.7-120.5l5.3-9,.3,7c.2,3.8-.2,13.1-.8,20.5ZM944.6,49.3c12.1,15.8,16.6,23.2,26.9,43.8,12.5,24.9,16.2,34,23.6,58.1,8.5,27.9,21.4,73.6,23.5,83.3,3.4,15.8,2.5,56.7-1.6,75-2.2,9.8-13.2,33.3-30.2,64.8-10.9,20-12.6,22.1-17.1,21.2-1.7-.4-3.6-1-4-1.5-.5-.4.7-3.6,2.7-7.1,8.8-16.3,20-60.7,23.6-94.4,2.2-20.7.9-55-3.1-77-1.2-7-11.7-43.5-18.4-64.5-2.6-8-6.9-21.7-9.5-30.5-2.7-8.8-6.5-20.3-8.5-25.5-2.1-5.2-6.3-16.9-9.5-26s-7.5-20.8-9.5-26-3.9-10.2-4.3-11c-1.2-3.3,5.6,4.3,15.4,17.3ZM877,36.5c0,.2-9.3,12-20.6,26.2-51.1,63.8-82.7,109.4-98.9,142.9-25.8,53.2-33.6,82.7-33.9,128.8l-.1,18.8-9-.6c-6.5-.5-9.5-1.2-10.6-2.4-1.1-1.1-2.8-7.7-4.8-17.7-4.7-24.7-5.4-32.2-4.8-51,.6-19.3,1.8-24.5,11-48,18.9-48,41.3-80.7,86.1-126.2,22.7-23.1,31.1-30.4,62.6-54.2,23-17.5,23-17.4,23-16.6ZM1000.6,70.7c10.3,11.5,36.9,47.1,52.2,70,29.9,44.7,62.4,114.3,73.6,157.5,5,19.3,6.1,26.7,6,42.3,0,16.8-1.4,21.8-9.8,35.9-11,18.3-15.5,23.6-42.9,48.9-13.3,12.3-15.1,13.4-19.1,11.8-1.6-.6.5-3.5,14.6-20.2,26.3-31,33.3-42.1,37.9-59.9,2-7.7,2.1-10.1,1.6-27.5-.7-25.1-2-30.3-17.7-69.5-6.6-16.5-30-68-40.8-89.5-12.7-25.4-30.2-56.9-40.7-73-2.8-4.4-6.5-10.3-8.2-13-1.6-2.8-4.6-7.6-6.7-10.8-4-6.2-4-7.3,0-3Z"/>
    <path class="st0" d="M579.1,350.6c-3.7,4.1-4.8,6.7-6.3,14-.8,4.2-.5,8.1,1.8,22.5,3.5,22,3.6,34.4.6,45.2-5.1,17.9-29.5,68.3-48.5,100.2-15.8,26.6-25.6,41.7-69.7,108.5-48.4,73.2-51.5,77.9-67.1,103.2-7.1,11.4-16.9,26.8-21.9,34.3s-15.9,24.2-24.2,37.3c-36.4,57.1-50.1,84.9-56.4,114.3-3.4,15.6-1.5,53.5,3.1,64.6,1.3,3,1.8,3.3,5.5,3.3,8.1,0,10.8-5.8,13.5-28.7,2.5-21,6.8-36.6,19.7-70.8,22-58.3,51.6-113.1,105.1-195,17.3-26.5,68.5-105.7,87.6-135.5,23.4-36.8,43.7-74.4,53.5-99.5,7.4-18.9,13.7-33,19.3-43,5.6-10.2,15.8-24.5,17.4-24.5,1.5,0,1,3.9-1.6,14.5-11,45.1-42.6,104.7-111.2,209.7-53.1,81.3-115.4,185-134.3,223.3-32.7,66.4-48.5,113.1-50.8,151-.9,14.3.2,30.3,2.4,35,3.1,6.6,9.9,5.1,13.5-2.9,2.7-6.2,4.4-15.4,8.4-44.8,5.5-40.8,6.8-47,15.1-71.8,17.7-52.4,30.9-79.4,65.1-133,8.3-12.9,17.9-28.7,21.5-35s9.5-16.9,13.3-23.5c3.7-6.6,14-23.3,23-37,64.4-99.2,103.5-164.4,126.6-211.3,7.2-14.5,10.3-19.6,14.7-24.4,10.2-11,24.7-19,40.5-22.2,16.8-3.5,29.7-.5,38,8.9,2.8,3.1,9.5,17.3,11.3,24,2.2,8.1,3,36.2,1.4,50.9-1.6,15.6-7.4,49.2-10.9,64-14.5,60.6-56.9,145.1-104.4,208.1-30,39.8-51.4,64.8-85,99.5-64.1,66.3-68.2,70.9-80.9,91.8-12.8,21-20.4,41.2-22.8,60.4-1,8.5-.9,9.4.8,11.8,1.3,1.6,3,2.6,5.3,2.8,6.8.6,10.6-5.6,33.8-54.7,11.2-23.7,27.3-50.9,38.1-64.5,3.2-4,12.5-14.2,20.6-22.7,40.5-41.9,45.7-47.6,77.5-85.9,24-28.8,33.3-41.1,46.9-62.2,39.8-62,70.4-126.1,82-171.8,3.9-15.4,5.4-24.2,9-52,1.7-12.9,3.7-26.2,4.5-29.5,4.5-17.9,18.6-33.6,39-43.5,20.3-9.8,34.5-12.3,57-10.1,13.5,1.3,18.4,2.9,28.3,9.3,9.9,6.5,34.3,30.8,40.4,40.3,5.9,9.1,15.8,29,19.2,38.5,4.2,11.6,8.7,31.5,9.5,42,.8,11.4-.3,33.5-2.3,46.3-5.6,34.4-22.8,66.8-58.7,110.2-14.7,17.9-119.6,121.5-161.9,160-59.1,53.7-106,104.3-129.3,139.5-11.9,17.8-32.9,63.8-41.1,89.8-2.9,9.4-3.2,11.2-1.3,11.2.7,0,2,.9,3,2,3.2,3.8,10.5,1.8,15-4.2,4.1-5.5,8.1-14.4,16.6-37,4.5-12,10.2-26.2,12.6-31.5,12.9-28.6,30.9-56.1,55.9-85.3,20.7-24.3,34.6-37.8,72.6-70.4,6.3-5.5,12.8-11.1,14.4-12.5l3-2.6-2,3c-1,1.6-6.2,9.5-11.5,17.5-31.6,47.5-54.8,98.3-66,144.5-2,8.5-4.3,39.5-3.7,52,.3,6.7.4,7,3,7.3,4.2.5,9.6-5,13.9-14.3,5-10.7,7-17.9,12.3-44.1,5.2-25.6,9.3-42.1,13.6-55.5,5.7-17.6,29.3-62.3,45-85.3,19.1-28.1,38.1-48.9,106.5-117.1,33.1-33,65.5-65.9,72-73,39-42.7,62.7-76.5,81.9-116.5,12.8-26.8,16-40.7,16-68.5,0-17.7-.2-19.7-2.8-29-6.5-23.1-6.9-27.8-2.8-29.9,4.5-2.3,10.1-3.1,10.7-1.4.3.8-.6,6.1-2,11.9-1.4,5.7-2.5,12.7-2.5,15.5,0,6.4,2,16.6,3.2,16.2.5-.2,4.5-4.4,8.9-9.3,9.6-10.7,19.4-25.1,26.9-39.4,4.2-8,7.4-12.4,14.2-19.7,4.8-5.1,8.8-9.8,8.8-10.2,0-.5-1.7-1.2-3.8-1.5-2.4-.3-7.4-2.7-12.8-6.2-12.3-7.8-37.6-20.3-55.7-27.4-24.9-9.7-44.4-15.4-87.8-25.5-37.9-8.9-53.6-11.1-102.9-14.1-66.2-4.1-90-6.7-127.5-13.9-25.6-5-39.6-7.2-58.9-9.6-21-2.5-21.3-2.6-22.9-5.8-1.8-3.9-4-3.8-7.6.4ZM953.2,489.2c14.9,6.9,23.2,21.8,25.9,46.5,2.2,20.6-.6,40.1-8.6,60.5-7.9,19.9-23.2,47-39.3,69.7-7.3,10.3-26.9,35.1-27.7,35.1-.2,0,2-4.6,4.9-10.3,10.4-19.7,17.3-39.9,21-61.7,2.3-13.3,3.1-36.4,1.7-48-1.3-10-5.7-29.4-9.6-42-3.4-10.7-5.6-24.9-5.8-36.5l-.2-9.9,6.5-3.4c6.3-3.2,6.8-3.3,16.1-2.9,7.5.3,10.7.9,15.1,2.9Z"/>
    <path class="st0" d="M964.6,553.9c-6.5,7.3-15.9,17-20.9,21.6l-9,8.5.6,7.6c.3,4.2,1,8.1,1.6,8.7,1.2,1.2,33.9-31.2,36.5-36.2,1.6-3,4.1-20,3.4-22.2-.2-.6-5.7,4.8-12.2,12Z"/>
    <path class="st0" d="M569,386.6c-5.5,28-33.4,77-106.3,186.4-18.9,28.4-49.3,70.2-65.7,90.5-12.9,15.9-48.9,68.7-61.6,90.2-7.8,13.3-22.1,42.5-24.5,50.3-1.1,3.6-2.3,10.5-2.5,15.5-.6,10.2.9,14.8,5.9,17.5,2.4,1.3,3,1.3,5.4,0,4-2.2,6.4-6.3,12.3-20.7,23.4-57.7,40.1-90.8,61.4-122.3,5.1-7.4,20.1-28.6,33.5-47,34.2-47.1,71.2-103.6,112.1-171.8,10.2-16.9,13.2-21.1,27.5-38.7,3.9-4.7,7.3-9.6,7.7-10.8,1.1-3.9.8-14.9-.8-28.7-1.9-16.4-2.8-18.5-4.4-10.4Z"/>
    <path class="st0" d="M658.4,430.4c-6.6,1.5-14.4,5.1-14.4,6.6,0,.5.5,1.2,1,1.5,2.2,1.4,7.8,14.3,9.5,21.7.9,4.3,2,7.8,2.4,7.8s2.8-2,5.4-4.4c4-3.8,5-5.7,7.3-13.3,1.4-4.8,3.5-11,4.7-13.6,1.3-3.1,1.7-5.1,1-5.8-1.7-1.7-10.5-1.9-16.9-.5Z"/>
    <path class="st0" d="M682.7,448.6c-5.1,4.9-14.4,13.6-20.6,19.3-12.1,11.2-15.1,15-15.1,19.3,0,3.2,4.2,8.5,7.1,9q2.1.3-.1,3.1c-4.3,5.4-11.8,10.5-16.5,11.3-6.8,1-12.6,5.2-17.7,13-9.9,14.9-10.2,24.1-1.3,35,5.4,6.6,4.5,10.7-2.6,12-8.3,1.6-12.6,6.9-13.6,16.8-.4,4.6-.2,5.6,2.7,9.4,2.8,3.9,3,4.7,2.1,7.5-.6,1.8-1.7,7.6-2.6,12.9-1.7,10.9-9.1,42.3-10.6,45-.6,1-3.9,3.1-7.5,4.8-6.8,3.1-16.8,11.7-20.6,17.9-1.5,2.4-2.4,6.1-3,12.5-1.7,16.8-2,18.7-3.4,19.3-.7.2-4.5-.2-8.4-1.1-10.1-2.3-14.4-1.1-22.6,6.6-8.7,8.2-10.6,12.5-11.6,26.7-.9,12.7-3.2,28.7-4.9,33.9-.9,2.6-2.9,4.5-9.2,8.6-4.5,2.9-9.6,6.8-11.3,8.8-2.8,3.2-3.5,5.1-6.4,16.6-1.1,4.1-1.4,4.4-9.3,8.1-4.5,2.1-9.3,5-10.7,6.5-2.2,2.5-2.5,3.6-2.5,10.9.1,6.7.6,9.3,2.8,14.1l2.7,5.8-2,2.8c-3.8,5.4-14.7,14.6-21.9,18.5-4.1,2.2-8.9,5.7-10.7,7.9-6.7,7.8-9.3,21.1-5.8,29.4l1.5,3.7-3.7,3c-2.1,1.6-6,4.8-8.8,7-2.7,2.2-6.2,6-7.6,8.5s-3.7,5-5.1,5.7c-1.3.6-6.7,3.2-12,5.7-13.9,6.5-18.9,13-18.9,24.1,0,5.2,3.1,16.8,5.8,22.2,1.2,2.3,2.2,5.3,2.2,6.5-.1,4-3.5,10.1-9.9,17.2-7.4,8.4-11.9,15.1-18.2,27l-4.7,9.1-.7,14c-1.3,26.2-2,30.9-6,38.2-8.7,15.9-22.1,31.5-37,43.3-22.1,17.5-26.5,25.6-22,40.7,2.6,8.8,16.3,21.3,23.3,21.3,2.6,0,2.8,1.4.7,6.3-.8,2-1.5,6.1-1.5,9,0,4.3.6,6.2,2.9,9.3,1.5,2.2,4,4.8,5.5,5.8,2.7,1.7,2.7,2,2.1,7.6-.8,6.6,1.3,16.3,4.6,21.7,2.2,3.5,6.5,6.3,9.7,6.3,1,0,2.6.6,3.6,1.3,1.8,1.3,1.7,1.7-.8,10.3-1.4,4.9-2.6,10.4-2.6,12.2,0,10.2,11.3,19.6,20.4,17.1,3.5-1,9.1-6.2,14.8-13.9,2.6-3.6,5.2-5.4,12.5-9,11.4-5.6,14.7-8.6,18.8-17.5,3.8-8.1,9.5-25.5,9.5-28.8,0-1.2-1.1-6.7-2.5-12.1s-2.5-10.2-2.5-10.7c0-.4,1.8-2.8,3.9-5.3,4.3-4.9,4.6-6.3,5.5-21.6.3-4.7,2.1-15.7,4.1-24.5l3.7-16-1.7-5.4c-2.3-7.3-2.1-13.4,1-27.9,2.1-10.2,3.7-14.5,9.3-25.9,6.4-13,6.7-14,6.8-21.2l.1-7.6,10.7-7.4c5.9-4.1,15.2-11.6,20.7-16.7,16.1-15.1,25.2-20.8,42.2-26.4,11.5-3.8,22.6-15.7,24.8-26.9l1.1-5.6,7.1-1.7c9.2-2.3,15.7-5.5,23.2-11.5,7.7-6.2,11.7-11.6,20.6-27.7,4-7.2,9.1-16,11.4-19.6,6.4-9.8,8.7-14.9,14.9-33,3.1-9.1,8.6-22.4,12.1-29.5,3.6-7.2,6.5-13.7,6.5-14.6s-2.7-5.4-6-10.2l-6-8.6,2.2-1.4c1.3-.8,6.3-3.1,11.1-5.3,12.7-5.6,19.8-13.3,29-31.1,5.7-11.2,8.1-14.7,15.8-23,5-5.4,10.7-12.1,12.5-14.9,5.5-8.1,6.2-19.1,1.8-27.6l-1.7-3.2,3.4-2.9c1.9-1.6,6-4.2,9.2-5.7,5.6-2.7,9-3.7,26.7-8,11.8-2.8,16.6-6.3,28.5-20.9,9-11,10.3-12.2,12.6-11.7,9.2,1.8,17.6-6,39.1-35.9,4.8-6.6,11.6-15.3,15.2-19.4,7.8-8.7,8.1-10.7,3.5-19.5-3.1-5.9-3.2-6-1.4-9.3,2-3.7,5.9-7,12.4-10.2,9.6-4.9,11.5-11.3,6.6-21.9-1.4-3.1-2.5-7.2-2.5-9.7,0-3-1.5-7.4-5.5-15.8-3-6.3-5.5-12.8-5.5-14.3s1.9-6.7,4.1-11.7c4.4-9.4,4.3-8.9,2.3-21.5-.5-3.3,0-6.4,2.6-14.5,1.8-5.6,3.7-11,4.1-11.9,1.1-2.2-2.5-5.1-9.4-7.5s-33.6-2.4-44.2-.1c-16.9,3.8-36.6,14-47.1,24.4-10.8,10.7-15.8,24-18.9,50-7.1,59.7-14.7,84.8-43.3,141.9-22.8,45.7-32.6,63.1-53.7,95-29,43.8-52.6,72-109.5,131-18.9,19.6-21.1,22.3-32.5,39.6-14.5,21.9-20.2,31.8-29.1,50.5-15.8,33.3-18.8,39.4-23.9,47.9-5.7,9.7-10.8,15.2-16.4,17.5-3.1,1.2-3.7,1.2-7.5-.9-7.3-3.8-9.3-9.8-7.6-22.7,3.4-24.8,14.6-53,28.8-72.1,3.2-4.3,24-26.3,46.3-48.8,22.2-22.6,45.3-46.7,51.4-53.5,6-6.9,15.9-17.9,21.9-24.5,27.1-29.7,59-72.7,80.3-108.5,16.4-27.4,38.1-69.9,46.4-90.7,5.4-13.3,18.7-58.3,21.9-73.8,4.8-22.9,8.4-61.4,7.7-82.3-.5-16.9-2.1-24-7-32.5-4.7-7.9-4.6-8-15,1.9Z"/>
    <path class="st0" d="M860.6,478.7c-.3.3-.6,3.1-.6,6,0,13.7-5.3,28.6-16,44.8-6,9.2-7,12.1-4.8,14.3s3.3,1.3,8.9-6c7.5-10,20.2-22.4,28.7-28.2,4-2.7,7.2-5.3,7.2-5.6,0-2-18-23.4-21-25-1-.5-2-.6-2.4-.3Z"/>
    <path class="st0" d="M597.6,601.8c-1.3,2.1-3.8,6.7-5.6,10.2-6.5,12.9-21.7,33.5-38.4,52-4.2,4.7-16,16.4-26.1,26-39.7,37.8-66.7,70.5-80.5,97.5-7.2,14-8.7,26.2-3.5,28.1,4.7,1.8,10.2-5.9,32-44.6,9.7-17.3,19.1-33.5,20.8-36,1.6-2.5,18.2-19.8,36.7-38.5s35.9-36.7,38.7-40c6.6-7.8,21.1-27.8,25.6-35.2,4.3-7.1,8-17.8,7.2-21-.9-3.6-4.1-2.9-6.9,1.5Z"/>
    <path class="st0" d="M902.5,608.7c-6,4.4-20.5,14.4-32,22.4-82.5,57.1-141.6,107.2-181,153.4-21.3,25-42.8,52.4-50.4,64-12.8,19.7-23.6,42.8-28.1,60.3-5.9,23.2-13.1,79.2-10.2,79.2.4,0,6.2-5.8,12.9-12.9l12-12.9,2.7-17.4c8.8-56.1,10.4-63.1,17.7-75.3,9.9-16.3,25.5-36.7,57.4-74.6,34.4-41,48.2-54.1,102.7-97.6,30.5-24.4,39.5-31,75.2-55.8,14.2-9.8,27-19,28.6-20.5,2.3-2.1,2.9-3.8,3.5-9.1,1.3-12.2,1.5-12.1-11-3.2Z"/>
    <path class="st0" d="M0,1535c0,.5.5,1,1,1,.6,0,1-.5,1-1,0-.6-.4-1-1-1-.5,0-1,.4-1,1Z"/>
  </g>
</svg>