<?xml version="1.0" encoding="utf-8"?>
<!-- Generator: Adobe Illustrator 30.1.0, SVG Export Plug-In . SVG Version: 9.03 Build 0)  -->
<svg version="1.0" id="Ebene_1" xmlns="http://www.w3.org/2000/svg" xmlns:xlink="http://www.w3.org/1999/xlink" x="0px" y="0px"
	 viewBox="0 0 1169 1536" style="enable-background:new 0 0 1169 1536;" xml:space="preserve">
<style type="text/css">
	.st0{opacity:0.7;}
</style>
<g transform="translate(0.000000,1536.000000) scale(0.100000,-0.100000)" class="st0">
	<path d="M8395,15353c-264-32-524-108-838-243c-533-230-1070-591-1500-1010c-354-343-660-753-731-980c-65-204-32-442,88-634
		c66-106,431-517,497-559c38-25,283-83,449-106c295-42,1265-138,1680-166c277-19,475-41,600-66c254-52,861-224,1144-324
		c213-76,338-130,587-257c295-151,289-150,410-61c46,35,170,121,274,192c325,221,476,365,558,534c57,118,72,184,71,332
		c-1,169-27,284-144,635c-130,391-222,607-397,935c-267,498-690,1097-955,1351c-131,125-232,188-383,237c-195,63-255,69-407,38
		c-51-11-120-25-153-31c-33-7-73-18-89-26c-25-13-31-13-53,1c-13,9-29,27-35,40c-19,41-244,135-388,161
		C8611,15358,8466,15362,8395,15353z M8272,15095c-327-160-662-391-1093-755c-608-512-936-978-1051-1497c-19-83-22-128-22-293
		c1-216,21-366,70-506c14-42,24-78,21-80c-16-16-215,258-267,367c-53,112-63,184-57,412c4,176,8,213,30,292c58,205,132,365,260,562
		c94,145,172,238,351,421c304,310,446,419,901,685c212,125,431,239,600,313c137,59,330,133,354,133
		C8377,15150,8333,15125,8272,15095z M9100,14810c-18-212-132-873-201-1170c-11-47-56-260-100-475c-145-707-236-1108-310-1359
		l-21-68l-79,4c-44,3-85,10-92,17c-16,16-15,566,2,716c50,439,153,990,246,1315c106,368,337,918,507,1205l53,90l3-70
		C9110,14977,9106,14884,9100,14810z M9446,14867c121-158,166-232,269-438c125-249,162-340,236-581c85-279,214-736,235-833
		c34-158,25-567-16-750c-22-98-132-333-302-648c-109-200-126-221-171-212c-17,4-36,10-40,15c-5,4,7,36,27,71c88,163,200,607,236,944
		c22,207,9,550-31,770c-12,70-117,435-184,645c-26,80-69,217-95,305c-27,88-65,203-85,255c-21,52-63,169-95,260s-75,208-95,260
		s-39,102-43,110C9280,15073,9348,14997,9446,14867z M8770,14995c0-2-93-120-206-262c-511-638-827-1094-989-1429
		c-258-532-336-827-339-1288l-1-188l-90,6c-65,5-95,12-106,24c-11,11-28,77-48,177c-47,247-54,322-48,510c6,193,18,245,110,480
		c189,480,413,807,861,1262c227,231,311,304,626,542C8770,15004,8770,15003,8770,14995z M10006,14653c103-115,369-471,522-700
		c299-447,624-1143,736-1575c50-193,61-267,60-423c0-168-14-218-98-359c-110-183-155-236-429-489c-133-123-151-134-191-118
		c-16,6,5,35,146,202c263,310,333,421,379,599c20,77,21,101,16,275c-7,251-20,303-177,695c-66,165-300,680-408,895
		c-127,254-302,569-407,730c-28,44-65,103-82,130c-16,28-46,76-67,108C9966,14685,9966,14696,10006,14653z"/>
	<path d="M5791,11854c-37-41-48-67-63-140c-8-42-5-81,18-225c35-220,36-344,6-452c-51-179-295-683-485-1002
		c-158-266-256-417-697-1085c-484-732-515-779-671-1032c-71-114-169-268-219-343s-159-242-242-373c-364-571-501-849-564-1143
		c-34-156-15-535,31-646c13-30,18-33,55-33c81,0,108,58,135,287c25,210,68,366,197,708c220,583,516,1131,1051,1950
		c173,265,685,1057,876,1355c234,368,437,744,535,995c74,189,137,330,193,430c56,102,158,245,174,245c15,0,10-39-16-145
		c-110-451-426-1047-1112-2097c-531-813-1154-1850-1343-2233c-327-664-485-1131-508-1510c-9-143,2-303,24-350c31-66,99-51,135,29
		c27,62,44,154,84,448c55,408,68,470,151,718c177,524,309,794,651,1330c83,129,179,287,215,350s95,169,133,235
		c37,66,140,233,230,370c644,992,1035,1644,1266,2113c72,145,103,196,147,244c102,110,247,190,405,222c168,35,297,5,380-89
		c28-31,95-173,113-240c22-81,30-362,14-509c-16-156-74-492-109-640c-145-606-569-1451-1044-2081c-300-398-514-648-850-995
		c-641-663-682-709-809-918c-128-210-204-412-228-604c-10-85-9-94,8-118c13-16,30-26,53-28c68-6,106,56,338,547
		c112,237,273,509,381,645c32,40,125,142,206,227c405,419,457,476,775,859c240,288,333,411,469,622c398,620,704,1261,820,1718
		c39,154,54,242,90,520c17,129,37,262,45,295c45,179,186,336,390,435c203,98,345,123,570,101c135-13,184-29,283-93
		c99-65,343-308,404-403c59-91,158-290,192-385c42-116,87-315,95-420c8-114-3-335-23-463c-56-344-228-668-587-1102
		c-147-179-1196-1215-1619-1600c-591-537-1060-1043-1293-1395c-119-178-329-638-411-898c-29-94-32-112-13-112c7,0,20-9,30-20
		c32-38,105-18,150,42c41,55,81,144,166,370c45,120,102,262,126,315c129,286,309,561,559,853c207,243,346,378,726,704
		c63,55,128,111,144,125l30,26l-20-30c-10-16-62-95-115-175c-316-475-548-983-660-1445c-20-85-43-395-37-520c3-67,4-70,30-73
		c42-5,96,50,139,143c50,107,70,179,123,441c52,256,93,421,136,555c57,176,293,623,450,853c191,281,381,489,1065,1171
		c331,330,655,659,720,730c390,427,627,765,819,1165c128,268,160,407,160,685c0,177-2,197-28,290c-65,231-69,278-28,299
		c45,23,101,31,107,14c3-8-6-61-20-119c-14-57-25-127-25-155c0-64,20-166,32-162c5,2,45,44,89,93c96,107,194,251,269,394
		c42,80,74,124,142,197c48,51,88,98,88,102c0,5-17,12-38,15c-24,3-74,27-128,62c-123,78-376,203-557,274c-249,97-444,154-878,255
		c-379,89-536,111-1029,141c-662,41-900,67-1275,139c-256,50-396,72-589,96c-210,25-213,26-229,58C5849,11897,5827,11896,5791,11854
		z M9532,10468c149-69,232-218,259-465c22-206-6-401-86-605c-79-199-232-470-393-697c-73-103-269-351-277-351c-2,0,20,46,49,103
		c104,197,173,399,210,617c23,133,31,364,17,480c-13,100-57,294-96,420c-34,107-56,249-58,365l-2,99l65,34c63,32,68,33,161,29
		C9456,10494,9488,10488,9532,10468z"/>
	<path d="M9646,9821c-65-73-159-170-209-216l-90-85l6-76c3-42,10-81,16-87c12-12,339,312,365,362c16,30,41,200,34,222
		C9766,9947,9711,9893,9646,9821z"/>
	<path d="M5690,11494c-55-280-334-770-1063-1864c-189-284-493-702-657-905c-129-159-489-687-616-902c-78-133-221-425-245-503
		c-11-36-23-105-25-155c-6-102,9-148,59-175c24-13,30-13,54,0c40,22,64,63,123,207c234,577,401,908,614,1223c51,74,201,286,335,470
		c342,471,712,1036,1121,1718c102,169,132,211,275,387c39,47,73,96,77,108c11,39,8,149-8,287C5715,11554,5706,11575,5690,11494z"/>
	<path d="M6584,11056c-66-15-144-51-144-66c0-5,5-12,10-15c22-14,78-143,95-217c9-43,20-78,24-78s28,20,54,44c40,38,50,57,73,133
		c14,48,35,110,47,136c13,31,17,51,10,58C6736,11068,6648,11070,6584,11056z"/>
	<path d="M6827,10874c-51-49-144-136-206-193c-121-112-151-150-151-193c0-32,42-85,71-90c21-3,21-3-1-31c-43-54-118-105-165-113
		c-68-10-126-52-177-130c-99-149-102-241-13-350c54-66,45-107-26-120c-83-16-126-69-136-168c-4-46-2-56,27-94c28-39,30-47,21-75
		c-6-18-17-76-26-129c-17-109-91-423-106-450c-6-10-39-31-75-48c-68-31-168-117-206-179c-15-24-24-61-30-125c-17-168-20-187-34-193
		c-7-2-45,2-84,11c-101,23-144,11-226-66c-87-82-106-125-116-267c-9-127-32-287-49-339c-9-26-29-45-92-86c-45-29-96-68-113-88
		c-28-32-35-51-64-166c-11-41-14-44-93-81c-45-21-93-50-107-65c-22-25-25-36-25-109c1-67,6-93,28-141l27-58l-20-28
		c-38-54-147-146-219-185c-41-22-89-57-107-79c-67-78-93-211-58-294l15-37l-37-30c-21-16-60-48-88-70c-27-22-62-60-76-85
		s-37-50-51-57c-13-6-67-32-120-57c-139-65-189-130-189-241c0-52,31-168,58-222c12-23,22-53,22-65c-1-40-35-101-99-172
		c-74-84-119-151-182-270l-47-91l-7-140c-13-262-20-309-60-382c-87-159-221-315-370-433c-221-175-265-256-220-407
		c26-88,163-213,233-213c26,0,28-14,7-63c-8-20-15-61-15-90c0-43,6-62,29-93c15-22,40-48,55-58c27-17,27-20,21-76
		c-8-66,13-163,46-217c22-35,65-63,97-63c10,0,26-6,36-13c18-13,17-17-8-103c-14-49-26-104-26-122c0-102,113-196,204-171
		c35,10,91,62,148,139c26,36,52,54,125,90c114,56,147,86,188,175c38,81,95,255,95,288c0,12-11,67-25,121s-25,102-25,107
		c0,4,18,28,39,53c43,49,46,63,55,216c3,47,21,157,41,245l37,160l-17,54c-23,73-21,134,10,279c21,102,37,145,93,259
		c64,130,67,140,68,212l1,76l107,74c59,41,152,116,207,167c161,151,252,208,422,264c115,38,226,157,248,269l11,56l71,17
		c92,23,157,55,232,115c77,62,117,116,206,277c40,72,91,160,114,196c64,98,87,149,149,330c31,91,86,224,121,295c36,72,65,137,65,146
		s-27,54-60,102l-60,86l22,14c13,8,63,31,111,53c127,56,198,133,290,311c57,112,81,147,158,230c50,54,107,121,125,149
		c55,81,62,191,18,276l-17,32l34,29c19,16,60,42,92,57c56,27,90,37,267,80c118,28,166,63,285,209c90,110,103,122,126,117
		c92-18,176,60,391,359c48,66,116,153,152,194c78,87,81,107,35,195c-31,59-32,60-14,93c20,37,59,70,124,102c96,49,115,113,66,219
		c-14,31-25,72-25,97c0,30-15,74-55,158c-30,63-55,128-55,143s19,67,41,117c44,94,43,89,23,215c-5,33,0,64,26,145
		c18,56,37,110,41,119c11,22-25,51-94,75s-336,24-442,1c-169-38-366-140-471-244c-108-107-158-240-189-500c-71-597-147-848-433-1419
		c-228-457-326-631-537-950c-290-438-526-720-1095-1310c-189-196-211-223-325-396c-145-219-202-318-291-505
		c-158-333-188-394-239-479c-57-97-108-152-164-175c-31-12-37-12-75,9c-73,38-93,98-76,227c34,248,146,530,288,721
		c32,43,240,263,463,488c222,226,453,467,514,535c60,69,159,179,219,245c271,297,590,727,803,1085c164,274,381,699,464,907
		c54,133,187,583,219,738c48,229,84,614,77,823c-5,169-21,240-70,325C6930,10972,6931,10973,6827,10874z"/>
	<path d="M8606,10573c-3-3-6-31-6-60c0-137-53-286-160-448c-60-92-70-121-48-143c21-21,33-13,89,60c75,100,202,224,287,282
		c40,27,72,53,72,56c0,20-180,234-210,250C8620,10575,8610,10576,8606,10573z"/>
	<path d="M5976,9342c-13-21-38-67-56-102c-65-129-217-335-384-520c-42-47-160-164-261-260c-397-378-667-705-805-975
		c-72-140-87-262-35-281c47-18,102,59,320,446c97,173,191,335,208,360c16,25,182,198,367,385s359,367,387,400c66,78,211,278,256,352
		c43,71,80,178,72,210C6036,9393,6004,9386,5976,9342z"/>
	<path d="M9025,9273c-60-44-205-144-320-224c-825-571-1416-1072-1810-1534c-213-250-428-524-504-640c-128-197-236-428-281-603
		c-59-232-131-792-102-792c4,0,62,58,129,129l120,129l27,174c88,561,104,631,177,753c99,163,255,367,574,746
		c344,410,482,541,1027,976c305,244,395,310,752,558c142,98,270,190,286,205c23,21,29,38,35,91C9148,9363,9150,9362,9025,9273z"/>
	<path d="M0,10C0,5,5,0,10,0c6,0,10,5,10,10c0,6-4,10-10,10C5,20,0,16,0,10z"/>
</g>
</svg>
