<?xml version="1.0" encoding="utf-8"?>
<!-- Generator: Adobe Illustrator 30.1.0, SVG Export Plug-In . SVG Version: 9.03 Build 0)  -->
<svg version="1.0" id="Ebene_1" xmlns="http://www.w3.org/2000/svg" xmlns:xlink="http://www.w3.org/1999/xlink" x="0px" y="0px"
	 viewBox="0 0 1870 1069" style="enable-background:new 0 0 1870 1069;" xml:space="preserve">
<style type="text/css">
	.st0{opacity:0.7;}
	.st1{fill:#FFFFFF;stroke:#000000;stroke-width:7;stroke-miterlimit:10;}
</style>
<g transform="translate(0.000000,1069.000000) scale(0.100000,-0.100000)" class="st0">
	<path class="st1" d="M6415,10652c-102-31-158-66-231-146c-90-97-137-175-138-228c-2-84,70-78,175,15c38,34,93,79,121,100l51,37h145
		c144,0,146,0,201-31c97-55,313-206,386-270c39-33,120-99,180-145c61-46,158-121,217-168c58-46,181-135,272-198
		c91-62,212-145,269-184c341-235,440-301,528-352c61-35,98-63,96-71c-1-8-25-26-52-40c-71-37-186-154-217-221c-32-69-58-182-58-253
		c0-79,43-212,97-299c19-31,23-51,23-118c0-91-15-138-70-220c-49-74-75-86-159-72c-48,8-110,33-231,93c-207,103-207,103-374,155
		c-138,44-556,133-717,154c-96,12-140,19-334,54c-77,13-205,32-285,41c-350,39-575,67-715,90c-82,13-213,34-290,45
		c-77,12-264,41-415,66c-524,84-634,99-885,124c-121,12-554,72-910,125c-294,44-544,72-765,85c-96,6-186,13-200,15
		c-14,3-128,12-255,20c-432,29-890,65-970,76c-44,6-186,12-315,14c-208,3-245,1-323-17c-100-24-131-43-148-96c-6-20-27-70-46-110
		c-30-63-34-80-29-120c4-26,8-76,10-113c2-36,8-75,15-86c6-13,8-40,5-66c-4-30-1-53,10-75c9-17,16-53,16-79c0-36,10-68,39-128
		c64-130,84-200,82-282c-2-80,10-119,59-187c30-41,31-46,20-85c-14-52-1-101,39-151c28-35,29-41,20-76c-14-47-6-94,22-148
		c28-53,59-176,59-233c0-47,18-90,56-136c18-21,24-41,24-75c0-56,24-112,73-170c25-30,38-57,43-90c4-26,12-63,20-82
		c7-19,14-65,17-102c5-70,33-133,76-172c12-11,21-31,21-45c0-30,35-111,48-111c20,0,50-41,56-78c7-45,40-78,117-117
		c37-19,50-33,59-61c15-46,61-98,114-129c63-37,102-84,127-150c29-80,72-136,169-224c83-76,123-131,135-191c18-88,74-151,168-190
		c41-17,57-30,62-48c11-44,39-75,90-98c27-13,58-24,67-24c10,0,21-14,28-35c17-50,69-91,150-115c46-14,73-28,81-41
		c14-26,84-58,127-59c18,0,45-6,60-14c18-9,75-16,170-19l144-4l23-49c14-27,25-63,25-79c0-17,4-45,10-64c9-31,6-37-30-78
		c-47-53-54-83-45-189c3-43,6-119,5-168c0-49,5-105,12-125s11-67,9-106c-2-61,1-75,22-106c30-44,43-86,52-163c6-48,13-65,44-100
		c21-22,45-62,55-88c9-25,28-53,41-62c15-10,27-30,31-52c8-41,44-88,85-109c19-10,32-27,39-53c10-39,32-64,83-95c19-12,27-26,27-45
		c0-59,53-110,132-126c18-4,32-18,45-43c10-21,34-48,53-61c19-12,40-36,46-51c7-16,24-37,39-47c15-11,46-38,68-61
		c39-42,85-63,138-63c20,0,33-11,57-49c42-68,89-91,184-91c40,0,78-4,84-8s23-29,39-55c15-26,52-69,83-95c30-26,81-70,112-99
		c70-65,112-83,194-83h65l10-38c18-66,66-101,176-128c66-16,106-31,128-50c54-45,87-54,211-54h115l30-44c17-24,44-55,61-70
		c35-29,116-56,169-56c43,0,56-8,65-37c10-32,61-71,109-83c23-6,58-18,77-26c19-9,60-18,90-21s67-12,82-19c15-8,40-14,55-14
		c18,0,49-15,80-39c65-49,132-66,223-57l69,7l53-55c71-73,131-91,265-82c92,7,94,7,126-20c51-43,83-52,226-59c132-8,133-8,192,20
		c32,16,60,27,62,24c1-2,15-23,31-47c37-58,81-77,161-68c175,20,159,21,210-15c38-27,57-34,109-37c67-4,108,10,154,52
		c19,17,41,22,110,26c109,7,167,34,231,108c136,157,143,162,271,188l25,6V703c0-237,2-261,19-290c21-34,53-53,90-53c18,0,24-8,35-50
		c7-27,17-52,22-56c5-3,9-28,9-55c0-40,5-55,26-76s32-24,61-20c31,5,39,2,68-28c42-45,102-49,140-10c14,13,25,30,25,37s9-2,20-19
		c21-35,63-52,89-36c9,5,23,23,32,40l15,30l28-23c45-39,114-26,142,28c9,18,23,28,37,28c12,0,36,9,54,20c34,20,53,66,53,127
		c0,34,24,96,50,127c10,12,17,52,22,125c10,160,18,211,34,211c10,0,14,16,14,59c0,44,4,60,15,65c10,3,18-1,21-12
		c14-41,80-164,99-182c11-10,58-30,105-43c47-14,98-30,113-36c37-14,88-14,124,0c15,7,57,13,93,15c36,1,76,3,90,4s64-3,113-8
		c70-8,93-15,118-36c57-48,119-47,198,4l48,30l212-3c117-2,252,0,300,4c52,4,102,3,127-4c29-7,53-7,83,1c33,8,50,7,77-4
		c48-20,97-17,167,10c66,26,182,36,263,21c43-8,88,8,129,45c21,19,29,20,305,40c146,11,171,15,220,39c49,25,63,27,127,23
		c65-4,79-1,139,27c45,21,81,31,114,31c65,0,88,10,202,86c53,35,102,64,110,64c31,1,98,41,155,94c33,31,70,56,80,56
		c61,0,186,79,250,157c21,25,53,52,72,60c18,8,54,34,80,57c53,50,108,80,176,97c26,7,66,27,90,44c23,18,58,36,76,40
		c43,9,84,34,167,102c37,31,90,70,119,89c29,18,89,69,135,113c46,43,106,97,134,119c79,62,140,168,160,278c5,28,22,55,59,94
		c28,30,64,78,80,105c16,28,55,92,87,144s63,113,70,135c6,23,28,68,47,100c34,57,36,63,34,144c-1,53,4,100,14,126
		c26,74,45,283,30,343l-8,32l66,20c44,14,95,21,147,21c62,0,94,6,146,26c175,69,266,136,337,250c45,72,60,84,99,84
		c68,1,159,68,200,148c8,16,32,42,53,58s55,45,76,65c20,20,49,40,64,44c33,8,99,54,138,95c17,18,53,49,80,70c68,51,368,352,482,482
		c51,59,113,139,140,179c48,75,114,151,311,362c122,130,150,177,162,270c6,50,23,91,87,212c44,83,97,179,119,215s48,85,59,110
		s38,70,62,100c43,56,64,104,77,172c4,20,29,83,55,140c27,57,52,118,56,137c4,18,22,54,41,78c39,51,64,126,64,192c0,25,7,66,16,91
		c8,24,26,114,39,200c13,85,28,166,33,180c32,86,18,171-43,256c-77,107-494,366-660,409c-33,9-116,18-185,21s-188,12-265,20
		c-109,12-215,15-475,11c-388-6-895-21-1160-36c-102-6-275-15-385-21s-564-15-1010-20c-975-11-1476-26-1665-50c-88-12-336-28-615-40
		c-581-27-759-44-977-94c-57-13-121-27-143-30c-78-13-291-79-375-116c-47-21-107-47-134-59s-71-37-97-56c-27-19-51-35-54-35
		c-12,0-75,70-75,83c0,22-49,109-76,134c-32,30-30,43,11,76c61,49,122,203,144,367c15,107,4,167-48,275c-50,106-110,179-182,223
		c-32,21-58,40-59,44c0,3,15,10,33,13c17,4,59,21,92,38c33,16,123,56,200,87c293,121,485,212,567,268c24,16,68,42,97,57
		c30,15,114,62,185,105c72,43,154,89,183,104c29,14,90,50,135,80c46,29,144,85,218,123c133,67,243,140,410,269
		c218,168,211,164,265,164c61,0,96-16,280-125c80-47,161-89,180-92c78-13,100,68,45,163c-56,98-212,205-327,225
		c-111,19-194,14-251-15c-28-14-53-30-57-36c-3-6-66-50-138-99c-73-48-175-117-227-153c-53-37-170-102-260-146
		c-91-44-188-96-216-115s-83-52-123-71c-40-20-120-65-179-100s-136-78-171-96c-36-18-101-55-145-83c-107-67-265-142-576-272
		c-74-31-146-63-158-72c-33-21-132-54-143-47c-5,3-9,17-9,33c0,31-55,124-87,146c-14,10-28,39-40,86c-22,87-48,119-98,119
		c-20,0-45-5-56-11c-16-8-26-5-50,15c-32,27-68,33-100,16c-15-9-26-6-48,10c-32,22-71,26-103,9c-16-8-31-8-60,0c-32,10-44,9-70-3
		c-17-9-52-16-78-16c-37,0-51-5-70-26c-28-29-50-27-106,11c-20,14-47,25-59,25c-26,0-75-36-75-55c0-8-12-20-27-27
		c-25-12-28-19-25-56c1-24-2-42-8-42c-5,0-10,4-10,10c0,5-9,14-21,20c-36,20-49-3-49-86c0-41-3-74-7-74c-25,0-342,205-618,400
		c-77,54-210,146-295,204c-154,106-302,214-396,292c-27,22-73,57-103,78s-95,73-145,114c-91,76-232,172-349,238c-34,19-87,53-117,75
		C6646,10662,6533,10687,6415,10652z M2324,8683c95-40,136-75,136-115c0-45-36-53-140-33c-131,25-213,52-253,82c-49,37-45,61,13,90
		C2140,8737,2214,8729,2324,8683z M1382,8665c76-16,181-60,225-95c14-11,34-20,44-20c26,0,35-24,43-107c5-65,4-74-16-96
		c-26-28-129-57-201-57c-60,0-139,25-164,52c-40,45-103,182-103,227c0,46,23,89,54,101C1293,8682,1300,8682,1382,8665z M3797,8498
		c12-11,35-18,58-18c27,0,69-17,149-59c61-33,147-74,191-91c88-35,306-148,317-164c14-20,8-27-39-47c-27-11-61-27-77-35
		s-37-14-47-14c-39,0-553,208-629,254c-30,19-93,53-140,76s-93,49-102,58c-21,18-24,48-5,56c6,3,78,4,158,3
		C3755,8515,3781,8512,3797,8498z M2986,8467c14-13,44-35,67-48c22-13,59-41,81-62s53-48,70-59c53-36,126-111,126-130
		c0-32-54-21-243,52c-100,39-212,82-249,96c-80,30-95,45-80,78c12,26,82,64,136,73c20,3,36,10,36,14C2930,8498,2961,8490,2986,8467z
		 M2128,8468c26-6,58-19,71-30c13-10,30-18,37-18c8,0,43-16,80-35c36-19,77-35,90-35c31,0,31-21-1-93c-14-34-32-58-45-62
		c-48-15-281,27-447,82c-92,30-100,42-62,94c22,32,168,108,207,109C2071,8480,2102,8475,2128,8468z M3570,8323c36-14,81-38,100-53
		s46-33,60-40c65-33,91-90,55-120c-21-17-84-6-148,27c-28,14-79,36-112,48c-34,13-89,40-123,60c-48,28-62,41-62,59
		C3340,8366,3444,8374,3570,8323z M2866,8225c53-10,81-11,90-4c31,26,124-41,124-89c0-24-1-24-77-18c-201,15-316,45-321,84
		C2676,8240,2738,8250,2866,8225z M1461,8109c25-30,27-41,27-114c0-44-5-88-10-98c-26-50-160-66-224-27c-22,13-66,31-98,40
		c-101,28-97,64,14,120c30,15,66,40,80,55c46,51,80,67,134,62C1425,8143,1438,8137,1461,8109z M2271,8110c45-13,75-45,83-90
		c17-89,17-96,4-106c-40-31-461-74-546-55c-29,6-66,11-81,11c-46,0-57,22-36,75c14,39,26,51,85,85c37,21,87,44,111,50s67,17,94,25
		C2043,8121,2219,8124,2271,8110z M16556,8062c12-8,74-119,74-133c0-26-347-149-463-165c-56-8-62,0-47,71c6,28,15,69,19,93
		c11,60,39,85,98,88c26,2,95,14,153,28C16503,8070,16539,8074,16556,8062z M2893,8029c64-11,128-17,142-13c46,12,77-43,36-65
		c-10-6-83-19-162-31c-79-11-186-29-237-41c-51-11-100-18-109-15c-12,5-14,20-11,81c2,41,8,79,15,86C2597,8061,2700,8061,2893,8029z
		 M15769,7974c22-28,18-46-16-75c-66-57-317-88-354-43c-46,56,128,140,298,143C15741,8000,15751,7996,15769,7974z M4245,7975
		c55-8,158-15,228-15c71,0,137-5,148-10c27-15,59-83,59-125c0-26-7-43-25-59c-27-25-33-67-12-84c6-5,35-13,62-17c28-4,58-11,68-16
		c21-12,22-42,2-73c-14-21-13-28,15-88c20-46,49-86,95-131c36-35,65-72,65-81c0-38-99-55-420-71c-69-3-165-12-215-20
		c-253-38-419-45-447-17c-21,21-11,69,25,129c21,33,37,69,37,79c0,11,9,33,20,49c11,17,20,40,20,53s7,37,16,54c27,52,1,195-55,302
		c-29,55-42,132-24,149C3919,7995,4143,7990,4245,7975z M15140,7961c55-5,65-9,68-26c3-23-21-35-276-130c-78-30-186-75-238-100
		l-96-46l-259-6c-161-3-259-2-259,4c0,22,48,45,295,143c143,57,296,117,340,135c77,32,85,33,220,33
		C15012,7968,15104,7965,15140,7961z M17363,7869c34-31,50-56,63-95c16-52,16-55-2-75c-10-12-38-30-60-39c-45-20-81-53-94-86
		c-11-28-65-37-105-17c-16,8-68,24-114,34c-150,34-168,68-78,151c68,64,82,73,190,125C17280,7922,17304,7922,17363,7869z M3668,7865
		c38-9,46-31,40-111c-6-66-31-97-99-119c-41-14-61-14-155-3c-83,9-109,9-112,0c-13-41-40-53-187-86c-179-40-308-61-470-76
		c-66-6-172-17-236-25c-63-8-124-12-135-9s-48,1-83-5c-50-8-70-7-98,4c-30,13-34,18-31,47c2,18-3,77-11,131c-13,94-13,100,5,118
		c27,27,95,38,294,49c260,15,760,54,837,66c41,6,42,6,63-36l22-42l46,6c39,5,53,13,81,47c19,22,44,45,55,50
		C3516,7880,3612,7877,3668,7865z M16678,7783c15-21,22-53,27-125l7-98l-48-20c-27-12-110-30-188-41c-241-33-262-28-301,69
		c-15,36-34,71-42,77c-19,14-9,35,17,35c11,0,79,20,152,45c122,42,283,83,335,84C16650,7810,16667,7799,16678,7783z M15918,7783
		c14-28,4-42-51-70c-114-57-284-104-504-138c-57-8-114-20-128-25c-15-6-38-10-51-10c-20,0-25,4-22,22c2,18,26,32,113,71
		c124,55,251,101,340,123c33,8,83,21,110,29c28,7,80,14,117,14C15896,7800,15911,7797,15918,7783z M1538,7710c56-5,101-15,110-23
		c10-8,34-20,54-26c50-16,60-31,65-104c7-79-21-143-65-152c-15-4-38-8-52-11s-43-17-65-31c-29-19-56-27-108-31c-68-5-210,11-274,30
		c-47,14-44,47,7,88l40,32v79c0,115,15,135,114,149C1435,7720,1434,7720,1538,7710z M15918,7568c2-27-1-39-15-46
		c-63-32-498-52-498-23c0,15,66,35,150,46c28,3,88,17,135,30c123,34,120,33,175,32l50-2L15918,7568z M14429,7513
		c106-11,168-22,177-31c18-18,18-56-2-93c-22-44-41-154-54-319c-18-238-37-343-68-367c-33-26-198-6-507,61c-163,36-273,50-472,62
		c-62,3-119,11-128,18c-24,17-9,43,44,73c178,101,199,118,310,247c112,131,165,233,159,306c-2,25,1,50,7,57
		C13909,7543,14211,7535,14429,7513z M3461,7483c35-56,41-80,40-162c-2-87-12-111-49-111c-30,0-148-20-437-74c-316-58-684-99-713-78
		c-16,11-41,118-42,174c0,37,26,106,45,120c6,4,51,8,100,8c160,1,348,18,435,38c154,37,537,115,587,121
		C3433,7519,3448,7503,3461,7483z M15959,7404c12-11,12-18,3-39c-7-14-12-39-12-55c0-20-8-34-22-44c-20-12-36-12-123,5
		c-110,20-212,43-384,85c-109,27-141,45-110,64c7,5,153,6,324,3C15874,7419,15948,7415,15959,7404z M16490,7390c41-5,107-9,145-10
		c76,0,129-12,159-35c18-13,18-16,2-56c-9-22-18-71-20-107c-5-93-13-97-147-77c-180,26-252,42-309,68c-30,14-72,29-92,32
		c-70,13-90,75-33,105c16,8,29,26,32,42C16239,7414,16268,7418,16490,7390z M17345,7396c26-8,41-18,43-31c2-11,17-37,34-59
		c17-21,40-61,50-89l20-51l-22-18c-13-10-39-18-61-18c-32,0-41-5-53-29c-19-36-38-43-95-35c-78,11-144,63-168,132
		c-17,50-16,69,6,100c10,15,20,36,22,47c3,12,23,27,59,41C17242,7411,17287,7414,17345,7396z M15043,7349c7-5,26-19,43-29
		c20-11,36-32,44-54c10-31,8-42-16-95c-20-43-36-63-56-72c-39-16-171-5-275,23c-71,19-83,26-83,44c0,16,11,26,48,39
		c26,10,85,44,132,75C15009,7367,15019,7371,15043,7349z M13485,7307c7-30,5-45-6-65l-15-27l-184-6c-201-7-385,2-404,21
		c-17,18,20,40,68,41c23,0,64,4,91,9c28,5,84,14,125,20s120,19,175,29C13469,7354,13473,7353,13485,7307z M1968,7299
		c12-5,22-15,22-22c0-8,25-21,60-32c96-29,120-48,120-93c0-20-7-47-15-59c-8-11-14-38-12-59l2-37l-75-13c-99-17-195-3-250,37
		c-50,36-139,148-140,174c0,44,69,102,139,116C1858,7318,1931,7313,1968,7299z M15600,7211c58-12,139-32,180-46
		c115-37,216-62,315-80c134-23,187-36,219-52c25-13,28-19,23-50c-4-20-17-52-30-72c-14-21-30-63-37-94c-9-39-19-58-31-62
		c-16-6-211,39-394,91c-33,9-89,22-125,30c-36,7-114,25-175,38c-60,14-166,35-234,47c-67,12-129,29-137,36c-18,18-12,29,66,128
		c34,41,58,80,55,85c-3,6-3,15,1,21C15306,7248,15473,7236,15600,7211z M5769,7159c36-6,76-13,89-15c63-12-18-95-122-125
		c-39-11-102-31-141-44c-38-13-108-32-155-43s-125-36-175-57c-101-41-169-59-190-51c-33,12-62,156-42,212c6,16,2,23-19,33
		c-15,6-24,14-22,17c13,12,242,62,353,77C5413,7172,5707,7169,5769,7159z M1570,7088c26-32,35-53,38-95c6-76-2-83-106-83
		c-116,0-207,17-240,45c-25,22-25,23-10,47c12,19,29,27,63,32c35,6,58,18,96,52c40,36,57,44,88,44C1531,7130,1541,7124,1570,7088z
		 M3355,7066c17-12,18-19,8-62c-6-27-11-60-11-73c-2-64-124-148-262-181c-73-18-189-61-321-120c-81-37-121-38-163-5
		c-17,14-44,36-59,48c-18,14-37,47-52,90c-28,76-32,124-12,151c18,24,98,38,172,30c53-5,91,2,305,55c134,34,254,61,266,61
		c13,0,26,5,29,10C3264,7085,3333,7082,3355,7066z M4265,7048c31-10,41-19,46-43c25-101,46-355,34-402c-4-16-19-29-43-39
		c-20-8-57-26-82-38c-25-13-61-27-80-31s-55-18-80-30s-63-28-85-35s-96-39-165-73c-69-33-152-70-185-84c-33-13-83-39-111-58
		c-60-41-154-66-177-47c-11,9-12,23-6,64c6,33,5,62-1,78c-11,27,1,227,20,335c26,141,43,156,259,229c69,24,150,55,179,70
		c67,34,271,113,309,119C4139,7071,4220,7063,4265,7048z M17028,6993c21-9,63-43,95-75s65-58,72-58c25,0,26-33,0-70
		c-17-24-25-49-25-78c0-55-37-131-67-139c-23-5-162,12-212,26c-16,5-29,19-35,39c-6,18-24,41-40,51c-32,21-80,106-72,127
		c3,7,32,27,66,44c57,29,60,32,60,68c0,20,4,42,8,48C16902,7012,16971,7020,17028,6993z M15235,6895c57-7,149-25,280-55
		c50-12,122-27,160-35c184-36,468-104,478-114c7-7,13-35,13-64c1-29,4-72,8-97c10-68,3-73-104-71c-61,1-116-4-160-16
		c-77-19-54-24-310,60c-74,25-162,51-195,59c-78,19-325,86-394,107c-30,9-59,24-65,34c-9,16-4,25,34,58c36,31,44,44,42,66
		c-2,19,6,37,22,55C15071,6910,15089,6912,15235,6895z M12700,6820c63-10,183-30,265-44c230-39,364-50,429-35c48,10,58,10,80-5
		c15-9,26-21,26-27s16-26,36-45c43-39,41-64-6-64c-35,0-34,2-14-39c22-44,6-61-56-61c-65,0-78-6-100-51c-38-74-76-74-245,3
		c-60,27-130,59-155,70s-97,51-161,89s-119,69-122,69s-41,21-86,46c-92,51-122,84-100,110c10,12,23,14,54,9
		C12567,6841,12637,6830,12700,6820z M2095,6779c22-11,51-22,65-22c24-2,25-6,31-77c6-88,0-105-59-153c-58-48-132-65-207-47
		s-92,38-76,90c7,24,25,51,46,67c29,23,35,35,35,65c0,52,9,68,44,84C2018,6805,2050,6803,2095,6779z M17420,6771c0-5,33-21,73-36
		c39-15,102-38,140-52c37-14,74-34,82-46c20-29,20-96-1-104c-8-3-64,11-122,32c-59,21-147,48-196,61c-117,30-132,52-71,101
		c19,15,35,34,35,41s13,12,30,12S17420,6776,17420,6771z M6294,6584c26-25,19-45-36-96c-103-95-250-179-351-200c-54-12-60-11-73,7
		c-18,25-18,88,0,124c30,56,81,89,199,125C6232,6606,6267,6612,6294,6584z M5228,6577c23-18,12-42-39-92c-73-71-266-185-346-204
		c-21-5-65-16-98-25c-85-23-190-13-212,20c-20,32-12,59,37,116c29,34,53,51,83,59c23,6,67,24,97,39C4890,6561,5181,6614,5228,6577z
		 M14453,6529c108-26,156-46,312-135c66-37,149-83,185-103c61-33,82-46,203-131c53-38,58-56,23-89c-14-13-26-35-28-50
		c-2-19-13-31-40-44c-44-21-46-27-18-52c26-24,27-75,2-82c-14-3-18-11-14-30c5-28-10-42-48-43c-32-1-49-14-89-72
		c-54-81-59-79-486,177c-169,101-216,126-310,165c-141,59-165,94-103,152c25,23,32,39,33,66c0,27,6,39,22,47c13,7,34,24,47,38
		c20,22,34,27,73,27h47l-34,28c-46,39-34,52,51,52c38,0,69,4,69,8c0,5-11,18-25,30c-14,13-23,27-19,33c5,9,37,26,53,28
		C14361,6550,14403,6540,14453,6529z M16790,6500c26-26,27-89,1-121c-10-13-27-42-37-64l-19-40h-125c-175,0-401,22-420,40
		c-17,18-8,28,36,43c17,5,50,22,72,36c34,21,41,31,44,63l3,38l199,7c109,4,201,10,204,13C16758,6524,16770,6520,16790,6500z
		 M15385,6459c147-26,428-88,547-120c20-5,44-17,53-25c14-14,13-19-10-47c-14-18-32-40-41-49c-10-11-17-36-18-65c-1-42-5-50-32-68
		c-17-11-35-29-40-40s-23-27-41-35s-33-24-35-35c-2-16-12-21-50-23c-51-3-119,26-273,118c-44,26-125,74-180,105
		c-102,59-185,134-185,168c0,27,19,57,35,57c18,0,18,8,0,40c-8,14-14,33-15,43c0,15,7,16,58,11C15189,6491,15292,6475,15385,6459z
		 M2928,6453c54-6,78-27,51-43c-11-7-9-13,7-32c30-33,33-48,18-87c-8-18-14-41-14-50c0-22-114-142-168-177c-25-15-49-41-57-60
		c-13-32-61-73-142-120c-53-32-190-38-238-11c-16,9-51,20-77,23c-67,9-74,21-51,91c16,53,23,61,73,90c30,18,61,37,68,43
		c22,19,13,55-23,90c-32,31-36,40-33,79c3,43,6,47,58,78c44,26,86,38,210,61C2772,6459,2839,6464,2928,6453z M17157,6358
		c23-24,74-76,113-115c39-40,84-80,100-88c29-15,42-45,19-45c-5,0-65,14-132,31s-157,37-199,44c-104,19-167,65-136,102
		c6,8,43,33,82,56s73,45,74,49C17086,6411,17118,6397,17157,6358z M4302,6333c16-3,35-15,43-27c17-23,20-92,6-129c-7-17-5-39,6-73
		c32-99,27-93,75-83c25,4,62,14,84,23c65,24,118,27,206,11c139-26,184-42,212-76c50-59,42-71-114-175c-30-21-67-47-82-60
		c-15-12-58-32-95-44c-37-13-86-36-108-52s-69-37-105-48s-80-31-99-44c-18-14-55-33-82-42c-27-10-69-35-94-55c-35-29-59-40-112-49
		c-97-17-135-11-151,23c-11,23-11,32,3,60c10,19,16,57,16,97c0,112,16,157,81,228c58,63,69,82,46,82c-26,0-187-30-297-54
		c-63-14-128-26-145-26c-38,0-76,25-76,49c0,10-11,35-25,55c-31,46-32,86-2,113c30,29,388,207,457,228c30,9,80,26,110,37
		c79,29,161,47,189,42C4262,6341,4285,6336,4302,6333z M5555,6325c32-33,32-55-2-105c-21-31-49-52-116-85c-135-70-255-90-377-64
		c-57,12-80,30-80,63c0,30,29,54,130,108c97,52,162,75,263,93C5489,6356,5525,6354,5555,6325z M13230,6217c47-13,146-41,220-61
		c251-69,252-70,278-124c34-68,61-178,53-210c-9-34-46-40-93-16c-82,41-276,161-308,189c-19,18-55,43-80,57c-55,32-146,90-181,117
		c-14,11-38,26-53,32c-15,7-26,20-26,32c0,18,5,19,53,14C13121,6244,13183,6230,13230,6217z M16559,6051c35-22,111-131,111-158
		c0-16-9-27-27-34c-50-20-58-26-56-45c5-37-8-64-37-79c-48-25-101-19-177,21c-133,71-149,91-127,159c7,22,16,52,19,66
		c8,43,76,83,154,90C16495,6077,16525,6073,16559,6051z M3378,5858c35-33,29-72-15-105c-21-15-44-36-51-46c-53-70-412-238-513-239
		c-49,0-103,22-112,46c-3,7,2,29,12,47c10,19,21,46,24,60c13,53,147,140,332,216l130,53l85-6C3337,5880,3360,5874,3378,5858z
		 M14221,5846c31-12,71-33,89-46s69-44,114-68c45-25,117-65,161-89c182-101,240-139,243-161c3-17-3-22-32-27c-37-7-53-37-41-76
		c14-43-39-62-101-38c-21,7-34,7-51-2c-19-10-40-9-117,9c-94,22-146,27-146,16c0-3,23-26,50-51c28-25,50-53,50-63c0-11,5-22,10-25
		c6-4,9-18,8-33s10-45,24-68c40-63,41-100,2-110c-25-6-26-9-20-58c4-28,12-66,19-84c9-27,8-35-6-49c-16-16-21-15-89,21
		c-62,33-229,137-455,282c-28,18-157,93-285,165c-256,145-327,188-346,211c-15,18-7,44,16,53c35,13,244,27,407,26
		c193-1,210,1,195,30c-16,28,3,55,47,69c75,24,133,53,133,66c0,7-4,24-10,38c-12,33-6,47,28,68C14154,5873,14156,5873,14221,5846z
		 M7028,5797c5-37-21-113-76-227c-50-103-135-199-202-232c-154-74-208-94-299-114c-72-15-84-9-77,36c3,14,7,42,11,62
		c10,65,99,156,289,297c290,215,284,211,326,208C7019,5825,7026,5819,7028,5797z M15935,5731c32-17,93-119,94-157c1-12-6-27-14-34
		c-9-7-14-15-11-17c7-8-33-110-70-177c-40-74-72-91-141-75c-21,4-54,6-74,3c-20-4-46-1-57,5c-29,16-122,106-122,119
		c0,17-70,95-103,115c-17,10-61,46-99,80c-49,44-72,73-80,101c-19,64-21,63,334,58C15860,5749,15909,5746,15935,5731z M11440,5553
		c105-61,167-100,334-213c54-36,105-79,209-175c48-45,49-80,5-121c-104-96-197-56-382,166c-39,47-127,146-197,220
		c-114,123-150,175-132,194C11288,5635,11321,5621,11440,5553z M3616,5540c36,1,49-12,58-56c6-25,2-37-19-62c-14-16-25-37-25-46
		s-13-30-30-48c-16-17-30-37-30-45s-24-26-52-40c-29-13-64-31-78-38c-41-22-265-40-341-28c-88,15-216,69-224,95
		c-13,37,120,132,231,163c32,10,77,27,99,38s74,33,115,49c69,26,82,28,170,23C3542,5542,3599,5540,3616,5540z M5340,5435
		c0-7-11-37-25-67c-14-29-27-69-31-88c-16-95-13-92-197-197c-95-54-244-133-332-177c-88-43-171-86-185-96c-14-9-70-41-125-70
		s-124-66-152-82c-91-51-110-25-78,109c8,34,12,69,9,78c-9,22,30,62,91,92c52,27,162,90,355,205c63,38,225,124,360,192
		c202,102,251,123,278,119C5325,5450,5340,5442,5340,5435z M15015,5230c44-10,140-26,212-35c160-19,251-48,273-88c14-25,13-30-6-65
		c-12-20-25-52-29-71c-4-18-16-49-28-68c-18-32-24-35-56-30c-46,6-323,153-418,221c-39,28-94,63-122,78c-39,21-51,34-51,51
		c0,13,3,27,7,30C14807,5264,14926,5251,15015,5230z M5558,5093c10-70-117-226-292-359c-219-166-281-215-336-267
		c-122-114-242-203-258-193c-5,3-12,35-14,71c-3,37-12,73-21,83c-8,9-24,36-36,59c-20,39-94,103-121,103c-6,0-10,12-8,28
		c2,22,8,27,28,26c14-1,50,15,80,36c57,38,365,193,410,205c14,4,49,21,79,37c30,17,83,41,118,54s100,43,146,65
		C5488,5120,5552,5134,5558,5093z M5967,5036c25-21,28-32,31-99c4-70,1-81-36-163c-55-122-72-186-72-266c0-61,4-74,28-106
		c16-20,37-58,46-84c11-29,28-54,46-65c16-10,41-36,55-57c48-70,38-88-143-265c-86-84-194-185-240-223c-46-39-118-105-160-147
		s-99-92-127-111c-27-18-81-59-120-90c-86-69-166-115-188-107c-30,11-41,78-27,161c7,41,10,94,7,118c-3,23-3,90,1,148
		c7,100,6,106-15,128c-20,20-32,22-113,22s-101-4-183-36c-110-43-187-65-200-57s-2,64,28,142c31,81,107,171,351,416
		c133,133,243,228,502,435C5860,5067,5902,5091,5967,5036z M14864,4924c159-40,427-141,442-165c3-5,1-15-4-22s-13-26-17-44
		c-16-79-209-131-310-84c-60,28-118,83-170,161c-53,79-66,115-54,148C14761,4944,14780,4946,14864,4924z M12794,4761
		c72-33,142-62,156-66s43-18,66-31s72-35,110-48c151-52,527-229,565-267c16-16,19-27,13-52c-8-39-77-170-114-217c-15-19-39-54-54-77
		c-14-24-31-43-37-43s-92,82-192,183c-275,275-608,595-645,617c-30,19-40,39-25,53C12648,4825,12659,4821,12794,4761z M12447,4751
		c117-95,791-791,998-1031c119-138,145-175,145-206c0-26-17-34-73-34c-48,0-57-5-165-82c-44-31-96-64-116-72c-78-33-150-91-218-177
		c-38-48-76-90-85-93c-22-9-35,1-228,170c-358,314-595,551-595,595c0,10,13,33,29,51c15,18,45,67,66,108c91,180,110,297,77,463
		c-14,69-17,108-11,129c16,59,100,218,113,218C12392,4790,12420,4772,12447,4751z M6770,4409c52-12,90-43,90-73c0-12-10-41-21-66
		c-12-25-32-74-44-110c-13-36-40-101-59-145c-20-44-36-86-36-93c0-14-126-324-167-409c-19-42-29-53-48-53c-27,0-45,26-45,64
		c0,34-47,86-109,120c-41,22-61,27-104,24c-81-5-76,12,62,220c66,100,149,241,185,314c86,176,99,195,138,207
		C6656,4422,6716,4422,6770,4409z M4223,4343c9-2,23-16,31-31s23-36,35-46c12-11,21-31,21-47c0-15,5-31,10-34c16-10,12-48-16-137
		c-46-151-110-258-154-258c-11,0-44,9-75,21c-43,16-67,19-109,14c-49-6-55-5-70,16c-21,31-20,67,4,124c11,26,20,64,20,86
		c0,44,37,148,73,206c13,21,41,54,62,72c35,31,40,32,94,26C4180,4351,4213,4346,4223,4343z M11585,4136c23-10,41-28,55-58
		c12-24,41-68,64-98c43-56,146-214,229-353c26-43,47-88,47-102c0-26-21-46-28-27c-2,7-19,12-38,12c-28,0-46-11-94-55
		c-33-30-64-55-70-55c-5,0-35-22-65-50c-33-30-60-47-69-44c-18,7-56,82-56,112c0,11-5,33-11,49c-6,15-19,66-29,113
		c-21,94-69,239-124,370c-55,132-51,148,51,180C11518,4153,11541,4154,11585,4136z M14143,3989c20-5,65-30,100-55c34-24,77-51,95-59
		c37-18,38-26,12-80c-13-27-19-62-20-108c0-95-10-110-68-105l-47,3v-57c0-45-5-62-21-78c-24-24-123-43-205-38c-50,3-54,5-54,28
		c0,14-15,47-33,75c-24,37-32,60-31,90c0,22-2,65-6,95l-7,55l53,50c63,58,78,80,79,117c0,15,4,38,10,52c8,23,15,26,57,26
		C14084,4000,14122,3995,14143,3989z M6988,3978c7-7,12-18,12-26s23-36,50-63c38-37,58-49,81-49c24,0,40-10,68-40c20-22,43-40,51-40
		c30,0,59-30,65-68c3-20,10-45,16-54c12-22,12-63-1-108c-5-19-11-57-13-85c-6-62-76-242-123-312l-34-53h-63c-52,0-71,5-108,28
		c-24,16-51,37-59,46c-18,23-104,78-161,104c-24,11-54,29-65,40c-36,34-66,91-59,110c3,9,11,53,16,97c9,68,22,105,91,250
		c44,94,87,178,96,189C6883,3983,6963,4003,6988,3978z M6116,3914c10-52-1-98-34-146c-16-24-46-76-67-115c-42-82-147-203-175-203
		c-15,0-24,15-40,66c-11,36-20,74-20,83c0,40,63,121,164,211c58,52,106,100,106,106c0,16,22,34,42,34C6104,3950,6111,3939,6116,3914
		z M12149,3632c201-204,311-332,311-364c0-10-10-20-23-23c-13-4-43-26-65-51c-31-33-50-44-72-44c-25,0-32,6-50,48
		c-12,26-28,63-35,82c-7,20-24,53-38,74c-15,21-30,54-33,74c-9,46-40,118-69,157c-12,17-27,44-34,61s-37,55-67,85
		c-55,54-72,99-37,99C11946,3830,12041,3741,12149,3632z M11309,3799c29-32,89-180,116-286c13-50,32-118,43-150c37-107,38-146,6-209
		c-16-31-39-64-52-72c-13-9-34-32-47-51c-17-28-38-43-89-64c-74-30-108-33-182-13c-195,52-316,179-301,318c11,98,37,189,67,232
		c16,24,36,62,45,84c12,29,31,51,63,72c51,33,66,36,102,15c49-28,66-20,119,59C11261,3826,11276,3834,11309,3799z M4311,3593
		c19-9,57-40,86-67c28-28,81-78,117-110c53-48,74-75,107-145c104-218,113-234,141-245c15-6,30-16,33-23c9-25-24-123-53-159
		c-34-41-155-132-186-140c-19-5-73,16-136,52c-14,7-58,23-97,34c-90,26-97,37-98,155c0,77-4,96-24,128c-15,25-33,40-52,44
		c-34,7-42,16-57,69c-21,72-15,100,59,259C4231,3617,4242,3627,4311,3593z M13963,3152c21-15,54-38,73-51c54-38,59-92,10-111
		c-26-9-38-51-35-120c3-57-32-182-57-205c-36-34-109-65-150-65c-72,0-79-6-91-70c-17-89-44-127-106-145c-72-21-97-19-148,14
		c-73,47-121,104-129,153c-4,24-17,78-29,120c-11,43-21,83-21,90c0,28,158,184,229,226c65,39,76,42,119,36c63-8,100,8,117,50
		c8,18,38,53,67,76C13873,3198,13898,3198,13963,3152z M5950,3068c101-32,128-45,134-66c4-10,18-24,31-30c14-6,25-15,25-19
		c0-5-11-39-25-78c-30-84-31-122-5-155c11-14,20-31,20-37c0-7,7-13,15-13c28,0,26-25-10-103c-19-42-49-115-66-162
		c-36-104-96-215-115-215c-8,0-26,13-40,29s-43,36-64,45c-68,27-120,109-120,189c0,52-23,78-88,101c-70,25-132,66-132,88
		c0,25,16,55,52,97c17,19,38,53,48,76s46,82,79,130c34,49,61,94,61,101c0,6,17,21,38,32C5829,3100,5851,3099,5950,3068z M5342,3044
		c3-2,18-25,33-50l27-47l-11-102c-15-133-63-256-153-387c-44-66-69-73-112-33c-29,27-29,26-30,145c-1,68-6,94-24,128
		c-12,24-27,67-33,95c-6,29-22,72-35,96s-24,52-24,61c0,25,52,55,130,76c36,10,67,22,69,27C5182,3061,5326,3053,5342,3044z
		 M6775,2778c15-14,20-32,20-73c0-64,9-76,88-113c63-31,143-115,182-193c25-48,25-49,15-209c-5-89-7-181-3-206c4-35,2-45-11-50
		c-19-7-117,19-261,70c-104,37-114,44-185,140c-19,26-50,65-67,85c-18,21-40,55-48,74c-26,62-77,59-203-10c-51-28-65-33-77-23
		c-20,17-19,60,4,144c11,39,29,115,41,169c20,91,24,99,58,122c20,14,41,25,46,25c6,0,38-14,72-32l62-32l64,66c36,37,74,68,88,70
		C6702,2809,6754,2798,6775,2778z M12305,2784c14-9,53-53,87-98c43-58,66-80,79-78c11,2,22-3,25-11c7-18-33-98-75-151
		c-17-21-31-42-31-45c0-4-16-24-35-44s-35-43-35-50s-11-29-26-50c-14-21-31-55-39-76c-7-22-29-62-48-89c-19-28-37-62-41-75
		c-6-27-30-40-55-32s-92,120-116,194c-13,37-48,118-79,179c-42,82-56,120-54,144c3,34,11,41,138,126c31,20,86,66,123,102
		c38,36,76,68,85,72C12231,2812,12275,2804,12305,2784z M13006,2653c32-20,75-45,94-55c78-41,89-89,33-148c-63-66-100-114-108-140
		c-4-14-22-41-40-61s-36-50-40-67c-8-39-28-56-58-48c-38,9-72,49-224,254c-59,80-56,120,8,135c14,4,45,29,68,57
		c49,58,132,110,177,110C12933,2690,12971,2675,13006,2653z M11583,2443c89-69,103-77,137-74c35,2,42-1,70-41c41-55,106-192,115-240
		c8-41-1-78-17-78c-6,0-19,7-29,16c-21,19-67,12-100-17c-28-24-71-24-150,1c-62,19-63,19-76,0c-18-25-56-25-112,0
		c-24,11-49,20-57,20c-7,0-31-26-53-57c-21-32-56-74-76-93c-21-19-46-54-56-77c-16-38-22-43-52-43s-117,37-141,60c-5,5-11,90-14,189
		l-4,179l40,26c22,14,43,30,46,35c4,5,32,19,64,31c31,12,69,32,83,46c35,34,73,42,157,36c70-5,71-4,78,22c3,14,3,42,0,62
		c-9,47,0,74,27,74C11475,2520,11529,2485,11583,2443z"/>
</g>
</svg>
