<?xml version="1.0" encoding="utf-8"?>
<!-- Generator: Adobe Illustrator 30.1.0, SVG Export Plug-In . SVG Version: 9.03 Build 0)  -->
<svg version="1.0" id="Ebene_1" xmlns="http://www.w3.org/2000/svg" xmlns:xlink="http://www.w3.org/1999/xlink" x="0px" y="0px"
	 viewBox="0 0 452 1536" style="enable-background:new 0 0 452 1536;" xml:space="preserve">
<style type="text/css">
	.st0{opacity:0.7;}
</style>
<g transform="translate(0.000000,1536.000000) scale(0.100000,-0.100000)" class="st0">
	<path d="M930,15323c-59-210,26-740,210-1309c83-254,185-484,320-719c77-134,130-241,130-262c0-10-36-90-80-178
		c-91-181-105-234-90-333c6-36,14-70,17-75c4-6,10-63,15-126c4-64,11-132,14-152c5-30,0-44-38-100c-40-58-48-64-83-67
		c-22-2-96,7-165,20c-165,30-427,33-535,5c-85-22-200-77-200-96c0-8,12-23,27-34l28-21l98,24c85,20,116,22,218,18
		c168-8,503-86,532-125c6-9,12-41,12-71v-54l-42,7c-24,4-88,19-143,33c-170,45-396,33-630-34c-95-27-245-91-245-105c0-5,9-13,20-19
		c16-8,36-7,83,6c126,34,166,36,412,24c132-6,272-15,310-20c39-5,78-9,88-10c31,0,67-45,67-83c0-55-19-59-345-77
		c-99-6-200-15-224-20c-51-12-268-104-386-162c-125-63-215-131-215-164c0-14,51,2,113,35c40,22,108,49,152,61s139,41,210,65
		c144,49,276,71,370,62c61-6,262-51,272-61c3-3-2-67-11-143s-21-178-26-227s-11-91-13-93c-3-2-117-15-255-28s-268-27-289-30
		c-86-15-161-47-219-93c-113-92-250-280-242-335c6-41,36-31,91,30c110,124,207,214,254,236c46,21,59,22,293,20c135-1,260-5,277-8
		c42-8,63-47,63-117c0-54-32-204-50-239c-24-44-107-62-360-79c-269-18-338-36-464-121C155,9898,0,9735,0,9688c0-31,23-21,112,50
		c47,38,127,95,178,126l92,57l322-3c291-3,325-5,350-21c25-17,27-22,21-60c-11-66-35-108-69-122c-17-7-84-20-148-29
		c-215-30-407-103-531-202c-67-53-266-277-303-340c-28-48-25-64,13-64c63,0,190,99,276,215l52,69l85,22c47,12,117,34,155,47
		c128,47,196,60,305,61c58,1,118-3,134-7c28-8,28-9,22-65c-7-66-27-136-51-182c-14-27-20-31-43-25c-15,3-64,9-108,12
		c-119,8-164-10-264-104c-163-154-296-363-320-504c-14-81-9-224,9-257c20-37,39-26,46,26c27,204,109,363,273,528
		c79,81,130,109,218,123c76,12,125,2,173-36c67-54,76-87,74-262c-1-85-5-166-8-181l-6-28l-122-4c-104-3-129-7-167-27
		c-88-46-252-233-324-371c-58-110-101-308-94-434c6-109,32-77,77,96c26,98,59,171,111,248c87,129,256,283,323,295
		c38,7,161-17,212-41c19-9,44-29,55-44c21-30,45-113,55-197l7-53h-59c-36,0-74-8-101-20c-93-42-249-226-333-392
		c-16-32-46-108-65-169c-20-61-63-174-95-251c-86-202-120-344-89-363c8-5,63,60,73,88c3,8,13,4,30-11c43-41,62-24,63,55
		c0,52,8,87,32,149c56,142,118,205,262,265c129,54,267,52,445-9c83-28,155-82,155-117c0-16-7-17-77-9c-118,13-269,9-348-11
		c-38-9-107-34-151-56c-66-31-95-52-152-114c-43-46-85-103-104-143c-32-65-33-69-31-192c2-194,49-385,94-385c12,0,14,35,17,214
		l2,214l49,66c131,175,219,208,528,199l143-4l77-40c131-67,125-93-22-94c-49-1-107-7-128-14c-100-36-185-144-242-309
		c-36-104-39-122-43-252c-3-104,0-163,12-230c25-132,83-349,117-434c16-40,40-117,53-170c29-116,39-143,61-165c17-16,19-16,43,6
		c15,14,23,17,20,8c-3-8-22-64-43-125c-35-102-38-122-46-270c-8-168-22-256-69-445c-64-257-71-334-40-423c13-36,20-82,20-128
		c0-52,3-70,12-67c7,3,45,67,83,144c83,165,209,360,262,404c45,38,199,114,265,131c36,10,55,10,87,0c48-14,234-136,292-190
		c38-37,39-39,39-109c0-39-5-74-10-77c-6-4-71-10-145-14c-123-7-140-11-200-40c-76-38-96-63-154-197c-52-120-77-206-111-385
		c-28-144-40-179-108-299c-45-81-70-165-92-312c-29-191-18-188,71,18c172,402,324,568,519,569c124,0,190-55,206-172
		c16-123-9-149-161-164c-118-12-180-32-283-94c-85-50-154-120-267-275c-128-176-206-435-205-688c1-67,2-75,14-59c8,10,34,101,59,203
		s57,209,72,239c54,111,191,269,325,378c123,99,180,114,305,82c82-22,121-48,136-93s5-555-12-617c-6-22-35-81-66-131
		c-55-93-93-192-93-244c0-15-16-83-35-149c-58-201-66-246-72-436c-12-413,90-763,293-1000c114-134,313-260,428-272c85-9,71,11-49,73
		c-126,66-189,121-265,236c-108,160-179,328-241,563c-22,83-24,109-24,345v255l33,78c49,118,80,175,131,247c26,36,60,86,74,112
		c50,87,62,77,70-55c3-51,13-112,22-137s31-106,50-181c80-315,190-529,456-885c101-135,185-222,248-254c64-32,150-44,238-31
		c43,6,94,15,113,21c40,11,78,35,70,44c-3,3-64,9-135,14c-166,12-203,28-307,133c-185,189-321,452-453,879l-58,185l17,140
		c9,77,16,157,16,178v38l88-7c85-6,88-6,120,21c74,62,124,220,192,602c16,89,34,181,40,204c16,60,63,103,135,124c33,9,92,32,131,51
		c45,22,86,34,112,34c84,0,253-99,347-203c104-114,147-220,175-428c13-93,21-116,40-104c20,12,6,297-19,415c-12,52-25,140-30,195
		c-6,68-19,126-39,180c-16,44-32,96-36,116c-11,62-189,353-278,453c-75,87-134,102-311,82c-107-12-117-3-117,108c0,82,14,233,25,267
		c7,20,123,113,208,166c66,42,202,91,271,99c74,9,166-20,331-104c126-64,135-71,271-204c77-76,144-138,149-138c16,0-6,93-39,164
		c-18,40-52,101-75,135c-39,57-55,92-131,276c-16,39-34,107-40,152c-13,96-34,161-83,258c-49,98-119,190-174,228
		c-25,18-107,77-182,132l-136,99l-155-2c-85-2-171-6-190-9c-47-8-99-35-129-67c-14-14-28-26-33-26c-4,0-8,22-8,50c0,27-9,92-21,144
		l-20,94l33,44c18,24,49,68,68,96c83,125,302,158,476,72c122-60,214-163,337-376c100-174,100-174,116-174c24,0,6,89-50,237
		c-79,212-152,357-207,412c-95,95-181,115-456,109c-196-4-238-14-308-73c-39-33-78-30-96,7c-18,39-2,70,87,168
		c96,105,140,162,190,249c67,114,113,148,249,181c181,43,272,36,477-40c255-94,284-76,83,54c-47,31-124,76-170,101
		c-78,42-87,45-163,45c-83,0-348-38-448-65c-118-31-167-71-228-186c-42-78-130-176-148-164c-19,11-7,96,20,153
		c53,108,251,269,454,368c177,86,278,114,409,114c112,0,151-14,250-85c55-40,86-45,86-15s-79,110-168,171c-115,79-160,118-195,168
		c-42,62-57,74-165,128l-93,47l-142,4c-208,6-376-11-452-47c-83-39-154-98-211-175c-27-36-50-64-51-62c-2,1-28,70-59,152
		c-70,189-77,245-40,329c32,71,51,93,93,111c30,13,256,54,295,54c13,0,35-35,76-122c85-178,112-192,112-57c0,43,4,79,8,79
		c13,0,122-68,177-110c85-65,175-100,175-69c0,14-227,238-331,325c-46,39-103,81-126,93c-23,11-45,30-48,42c-13,40-179,195-242,225
		c-55,28-65,29-219,32c-180,4-180,4-283-69c-29-21-57-36-61-34c-15,9-40,98-40,139c0,64,18,115,68,190c52,79,136,146,206,166
		c30,8,83,11,158,8c98-4,130-11,239-47c136-44,159-48,159-27c0,37-155,145-276,193c-60,24-82,27-174,27c-130-1-246-20-284-47
		c-15-11-63-64-107-118l-78-99l-28,37c-25,33-28,45-28,112c0,69,4,83,39,149c50,93,139,185,214,220c51,24,69,27,167,27
		c175,0,222-27,345-194c106-144,136-154,126-43c-5,59-7,59,67,0c27-21,53-38,58-38c20,0,7,36-29,84c-41,54-284,314-355,380
		c-71,65-185,146-275,194c-84,45-90,47-187,50c-65,3-130-1-185-12c-66-12-86-13-92-3c-12,19-9,105,5,140c31,74,208,200,307,219
		c30,5,129,8,220,6l165-3l86-42c47-23,133-73,192-112s107-69,107-66c0,2-9,29-20,59c-26,67-67,106-194,181c-205,120-289,144-524,146
		c-145,1-161-2-232-50c-79-54-108-37-94,56c13,94,47,134,194,225c133,83,218,102,450,102c166,0,181-1,294-32c66-18,171-53,234-78
		c62-25,116-43,119-40s0,19-7,36c-17,41-94,109-167,148c-80,42-252,99-339,112c-156,22-507,6-648-31c-89-23-106-20-106,15
		c0,54,81,246,118,279c24,22,289,57,438,57c251,0,442-77,653-264c41-36,78-66,83-66c25,0-18,98-80,183c-32,45-34,51-27,95
		c5,26,8,62,7,79c-3,123-221,317-531,471l-134,67h-153c-104,0-157,4-165,12c-29,29,19,153,60,153c9,0,57,21,107,46
		c106,54,135,54,248,0c89-43,287-173,386-253c114-92,216-203,226-247c13-54,29-44,29,17c-1,139-127,291-450,542
		c-214,167-321,198-455,134c-126-60-144-57-121,23c28,92,143,171,325,223c107,30,144,31,230,5c126-39,284-170,398-329
		c63-89,84-102,73-45c-27,144-232,403-375,472c-136,66-317,69-468,7c-47-19-87-33-90-31c-2,3,28,39,67,80c39,42,83,96,99,119
		c136,197,161,442,65,631c-51,100-170,195-211,169c-28-17-25-47,7-76c17-15,37-43,45-62c21-49,36-173,30-236c-9-86-51-204-56-158
		c-1,7-2,64-2,124c-1,129-13,159-82,208c-43,30-45,34-40,67c6,37,109,348,145,440c13,30,49,115,82,188c33,74,74,168,90,210
		c17,42,57,134,90,205c32,70,59,134,59,141c0,35,382,766,525,1006c82,138,95,164,95,195c0,79-118-26-243-215
		c-78-120-289-493-375-665c-27-55-80-176-117-270c-37-93-98-236-136-317s-69-151-69-156s-18-47-39-93s-60-145-86-219
		c-122-350-239-501-329-422c-29,26-46,73-34,95c5,11,44,35,86,54c82,38,92,46,92,79c0,52-121,60-219,14c-35-17-65-29-66-28
		c-27,34-90,137-106,174c-12,27-41,76-64,109s-58,92-78,130c-19,39-49,88-67,110c-42,52-103,175-151,301c-92,245-229,832-284,1218
		C983,15346,955,15411,930,15323z M2522,11056c211-54,361-118,446-192c38-32,102-140,102-171c0-22-26-15-152,38
		c-258,109-425,128-687,76c-167-34-174-34-166-4c19,62,86,186,117,215c36,34,128,70,180,71C2377,11090,2449,11075,2522,11056z
		 M2262,9156c62-14,226-81,217-90c-2-2-87-12-188-22l-184-18l-36-41c-88-99-122-128-132-118c-7,7-10,44-8,96c4,76,7,89,35,128
		c17,23,46,51,65,61C2072,9174,2167,9176,2262,9156z M2684,7947c102-54,132-81,108-96c-8-5-51-11-97-14c-112-6-162-31-229-113
		c-60-74-64-72-115,32c-37,75-35,93,15,131c39,29,193,112,209,112C2581,7999,2630,7976,2684,7947z M1268,7764c48-33,92-162,65-189
		c-15-16-18-15-128,12c-88,22-159,19-248-11c-92-31-90-31-78-8c36,67,156,170,229,197C1159,7784,1240,7784,1268,7764z M3610,7152
		c62-20,145-75,145-97c0-16-23-25-168-62c-92-23-209-59-260-79c-177-70-353-185-442-290c-56-65-68-61-86,24c-25,124,15,247,116,360
		c64,71,121,112,191,142c45,18,67,20,259,16C3485,7165,3590,7158,3610,7152z M1812,6631c27-31,52-107,46-137c-2-12-15-21-38-25
		c-19-4-60-11-90-17c-82-15-167-50-207-85s-70-94-174-335c-72-168-74-172-81-135c-26,146-17,406,19,520c19,62,86,151,146,194
		c41,30,44,31,122,25c54-4,98-2,135,8C1772,6665,1786,6663,1812,6631z M1909,6221c15-10,42-122,32-133c-3-4-35,0-71,8
		c-87,21-125,9-193-59c-60-61-110-135-199-296c-35-63-67-113-73-112c-26,4,36,267,89,376c37,75,120,176,171,206c24,15,50,19,130,19
		C1850,6230,1901,6226,1909,6221z M1970,5851c93-24,120-50,120-120v-49l-147-4c-198-6-229-20-332-145c-64-78-85-82-79-15
		c10,95,125,291,201,342c27,18,42,20,97,16C1866,5873,1929,5862,1970,5851z M1962,5461c163-75,315-270,256-329c-17-17-39-15-109,9
		c-52,18-77,21-163,17c-68-4-118-12-154-26c-70-27-189-102-284-179l-78-63v33c0,89,269,518,351,560C1825,5506,1881,5499,1962,5461z
		 M3581,5194c72-21,180-76,254-129c56-40,173-161,257-265c40-50,83-128,75-136c-3-3-72,29-154,70c-312,157-415,169-655,76
		c-73-29-97-22-128,32c-36,63-34,145,4,220c39,77,61,95,147,123C3469,5214,3508,5215,3581,5194z M2067,4917c65-32,126-57,135-57
		c40,0,84-112,76-192c-3-30-6-33-33-30c-16,2-69,17-118,34c-77,27-96,30-160,25c-77-6-207-47-297-92c-87-44-259-228-334-357
		c-15-27-32-48-37-48c-45,0,121,421,206,526c32,38,160,146,244,204C1844,4996,1905,4994,2067,4917z M3790,4645
		c178-40,268-79,314-137c16-21,26-41,22-45c-3-4-31,5-61,20c-126,64-348,80-491,34c-102-32-130-46-199-102c-30-25-59-45-65-45
		c-17,0-40,57-40,100c0,88,76,164,205,207C3528,4694,3599,4687,3790,4645z M2230,3921c69-21,70-24,52-132l-15-96l-121-6
		c-188-10-268-37-343-116c-24-24-43-41-43-38c0,16,83,216,107,257c76,131,111,153,238,146C2155,3934,2211,3927,2230,3921z
		 M3538,3518c36-9,61-25,108-72c81-82,294-406,310-474c6-22-6-13-67,49c-85,88-159,128-281,153c-98,20-257,20-344,1
		c-36-9-69-13-72-10s6,40,20,83c14,42,34,115,43,162c25,126,19,120,136,120C3446,3530,3512,3525,3538,3518z"/>
</g>
</svg>
