<?xml version="1.0" encoding="UTF-8"?>
<svg id="Ebene_1" xmlns="http://www.w3.org/2000/svg" version="1.1" viewBox="0 0 452 1536">
  <!-- Generator: Adobe Illustrator 30.1.0, SVG Export Plug-In . SVG Version: 2.1.1 Build 136)  -->
  <defs>
    <style>
      .st0 {
        fill: #fff;
        stroke: #010200;
        stroke-miterlimit: 10;
        stroke-width: 5px;
      }

      .st1 {
        opacity: .7;
      }
    </style>
  </defs>
  <g class="st1">
    <path class="st0" d="M93,3.7c-5.9,21,2.6,74,21,130.9,8.3,25.4,18.5,48.4,32,71.9,7.7,13.4,13,24.1,13,26.2,0,1-3.6,9-8,17.8-9.1,18.1-10.5,23.4-9,33.3.6,3.6,1.4,7,1.7,7.5.4.6,1,6.3,1.5,12.6.4,6.4,1.1,13.2,1.4,15.2.5,3,0,4.4-3.8,10-4,5.8-4.8,6.4-8.3,6.7-2.2.2-9.6-.7-16.5-2-16.5-3-42.7-3.3-53.5-.5-8.5,2.2-20,7.7-20,9.6,0,.8,1.2,2.3,2.7,3.4l2.8,2.1,9.8-2.4c8.5-2,11.6-2.2,21.8-1.8,16.8.8,50.3,8.6,53.2,12.5.6.9,1.2,4.1,1.2,7.1v5.4l-4.2-.7c-2.4-.4-8.8-1.9-14.3-3.3-17-4.5-39.6-3.3-63,3.4-9.5,2.7-24.5,9.1-24.5,10.5,0,.5.9,1.3,2,1.9,1.6.8,3.6.7,8.3-.6,12.6-3.4,16.6-3.6,41.2-2.4,13.2.6,27.2,1.5,31,2,3.9.5,7.8.9,8.8,1,3.1,0,6.7,4.5,6.7,8.3,0,5.5-1.9,5.9-34.5,7.7-9.9.6-20,1.5-22.4,2-5.1,1.2-26.8,10.4-38.6,16.2-12.5,6.3-21.5,13.1-21.5,16.4,0,1.4,5.1-.2,11.3-3.5,4-2.2,10.8-4.9,15.2-6.1s13.9-4.1,21-6.5c14.4-4.9,27.6-7.1,37-6.2,6.1.6,26.2,5.1,27.2,6.1.3.3-.2,6.7-1.1,14.3s-2.1,17.8-2.6,22.7-1.1,9.1-1.3,9.3c-.3.2-11.7,1.5-25.5,2.8s-26.8,2.7-28.9,3c-8.6,1.5-16.1,4.7-21.9,9.3-11.3,9.2-25,28-24.2,33.5.6,4.1,3.6,3.1,9.1-3,11-12.4,20.7-21.4,25.4-23.6,4.6-2.1,5.9-2.2,29.3-2,13.5.1,26,.5,27.7.8,4.2.8,6.3,4.7,6.3,11.7,0,5.4-3.2,20.4-5,23.9-2.4,4.4-10.7,6.2-36,7.9-26.9,1.8-33.8,3.6-46.4,12.1-12.1,8.1-27.6,24.4-27.6,29.1,0,3.1,2.3,2.1,11.2-5,4.7-3.8,12.7-9.5,17.8-12.6l9.2-5.7,32.2.3c29.1.3,32.5.5,35,2.1,2.5,1.7,2.7,2.2,2.1,6-1.1,6.6-3.5,10.8-6.9,12.2-1.7.7-8.4,2-14.8,2.9-21.5,3-40.7,10.3-53.1,20.2-6.7,5.3-26.6,27.7-30.3,34-2.8,4.8-2.5,6.4,1.3,6.4,6.3,0,19-9.9,27.6-21.5l5.2-6.9,8.5-2.2c4.7-1.2,11.7-3.4,15.5-4.7,12.8-4.7,19.6-6,30.5-6.1,5.8-.1,11.8.3,13.4.7,2.8.8,2.8.9,2.2,6.5-.7,6.6-2.7,13.6-5.1,18.2-1.4,2.7-2,3.1-4.3,2.5-1.5-.3-6.4-.9-10.8-1.2-11.9-.8-16.4,1-26.4,10.4-16.3,15.4-29.6,36.3-32,50.4-1.4,8.1-.9,22.4.9,25.7,2,3.7,3.9,2.6,4.6-2.6,2.7-20.4,10.9-36.3,27.3-52.8,7.9-8.1,13-10.9,21.8-12.3,7.6-1.2,12.5-.2,17.3,3.6,6.7,5.4,7.6,8.7,7.4,26.2-.1,8.5-.5,16.6-.8,18.1l-.6,2.8-12.2.4c-10.4.3-12.9.7-16.7,2.7-8.8,4.6-25.2,23.3-32.4,37.1-5.8,11-10.1,30.8-9.4,43.4.6,10.9,3.2,7.7,7.7-9.6,2.6-9.8,5.9-17.1,11.1-24.8,8.7-12.9,25.6-28.3,32.3-29.5,3.8-.7,16.1,1.7,21.2,4.1,1.9.9,4.4,2.9,5.5,4.4,2.1,3,4.5,11.3,5.5,19.7l.7,5.3h-5.9c-3.6,0-7.4.8-10.1,2-9.3,4.2-24.9,22.6-33.3,39.2-1.6,3.2-4.6,10.8-6.5,16.9-2,6.1-6.3,17.4-9.5,25.1-8.6,20.2-12,34.4-8.9,36.3.8.5,6.3-6,7.3-8.8.3-.8,1.3-.4,3,1.1,4.3,4.1,6.2,2.4,6.3-5.5,0-5.2.8-8.7,3.2-14.9,5.6-14.2,11.8-20.5,26.2-26.5,12.9-5.4,26.7-5.2,44.5.9,8.3,2.8,15.5,8.2,15.5,11.7,0,1.6-.7,1.7-7.7.9-11.8-1.3-26.9-.9-34.8,1.1-3.8.9-10.7,3.4-15.1,5.6-6.6,3.1-9.5,5.2-15.2,11.4-4.3,4.6-8.5,10.3-10.4,14.3-3.2,6.5-3.3,6.9-3.1,19.2.2,19.4,4.9,38.5,9.4,38.5,1.2,0,1.4-3.5,1.7-21.4l.2-21.4,4.9-6.6c13.1-17.5,21.9-20.8,52.8-19.9l14.3.4,7.7,4c13.1,6.7,12.5,9.3-2.2,9.4-4.9.1-10.7.7-12.8,1.4-10,3.6-18.5,14.4-24.2,30.9-3.6,10.4-3.9,12.2-4.3,25.2-.3,10.4,0,16.3,1.2,23,2.5,13.2,8.3,34.9,11.7,43.4,1.6,4,4,11.7,5.3,17,2.9,11.6,3.9,14.3,6.1,16.5,1.7,1.6,1.9,1.6,4.3-.6,1.5-1.4,2.3-1.7,2-.8-.3.8-2.2,6.4-4.3,12.5-3.5,10.2-3.8,12.2-4.6,27-.8,16.8-2.2,25.6-6.9,44.5-6.4,25.7-7.1,33.4-4,42.3,1.3,3.6,2,8.2,2,12.8,0,5.2.3,7,1.2,6.7.7-.3,4.5-6.7,8.3-14.4,8.3-16.5,20.9-36,26.2-40.4,4.5-3.8,19.9-11.4,26.5-13.1,3.6-1,5.5-1,8.7,0,4.8,1.4,23.4,13.6,29.2,19,3.8,3.7,3.9,3.9,3.9,10.9,0,3.9-.5,7.4-1,7.7-.6.4-7.1,1-14.5,1.4-12.3.7-14,1.1-20,4-7.6,3.8-9.6,6.3-15.4,19.7-5.2,12-7.7,20.6-11.1,38.5-2.8,14.4-4,17.9-10.8,29.9-4.5,8.1-7,16.5-9.2,31.2-2.9,19.1-1.8,18.8,7.1-1.8,17.2-40.2,32.4-56.8,51.9-56.9,12.4,0,19,5.5,20.6,17.2,1.6,12.3-.9,14.9-16.1,16.4-11.8,1.2-18,3.2-28.3,9.4-8.5,5-15.4,12-26.7,27.5-12.8,17.6-20.6,43.5-20.5,68.8.1,6.7.2,7.5,1.4,5.9.8-1,3.4-10.1,5.9-20.3s5.7-20.9,7.2-23.9c5.4-11.1,19.1-26.9,32.5-37.8,12.3-9.9,18-11.4,30.5-8.2,8.2,2.2,12.1,4.8,13.6,9.3s.5,55.5-1.2,61.7c-.6,2.2-3.5,8.1-6.6,13.1-5.5,9.3-9.3,19.2-9.3,24.4,0,1.5-1.6,8.3-3.5,14.9-5.8,20.1-6.6,24.6-7.2,43.6-1.2,41.3,9,76.3,29.3,100,11.4,13.4,31.3,26,42.8,27.2,8.5.9,7.1-1.1-4.9-7.3-12.6-6.6-18.9-12.1-26.5-23.6-10.8-16-17.9-32.8-24.1-56.3-2.2-8.3-2.4-10.9-2.4-34.5v-25.5l3.3-7.8c4.9-11.8,8-17.5,13.1-24.7,2.6-3.6,6-8.6,7.4-11.2,5-8.7,6.2-7.7,7,5.5.3,5.1,1.3,11.2,2.2,13.7s3.1,10.6,5,18.1c8,31.5,19,52.9,45.6,88.5,10.1,13.5,18.5,22.2,24.8,25.4,6.4,3.2,15,4.4,23.8,3.1,4.3-.6,9.4-1.5,11.3-2.1,4-1.1,7.8-3.5,7-4.4-.3-.3-6.4-.9-13.5-1.4-16.6-1.2-20.3-2.8-30.7-13.3-18.5-18.9-32.1-45.2-45.3-87.9l-5.8-18.5,1.7-14c.9-7.7,1.6-15.7,1.6-17.8v-3.8l8.8.7c8.5.6,8.8.6,12-2.1,7.4-6.2,12.4-22,19.2-60.2,1.6-8.9,3.4-18.1,4-20.4,1.6-6,6.3-10.3,13.5-12.4,3.3-.9,9.2-3.2,13.1-5.1,4.5-2.2,8.6-3.4,11.2-3.4,8.4,0,25.3,9.9,34.7,20.3,10.4,11.4,14.7,22,17.5,42.8,1.3,9.3,2.1,11.6,4,10.4,2-1.2.6-29.7-1.9-41.5-1.2-5.2-2.5-14-3-19.5-.6-6.8-1.9-12.6-3.9-18-1.6-4.4-3.2-9.6-3.6-11.6-1.1-6.2-18.9-35.3-27.8-45.3-7.5-8.7-13.4-10.2-31.1-8.2-10.7,1.2-11.7.3-11.7-10.8,0-8.2,1.4-23.3,2.5-26.7.7-2,12.3-11.3,20.8-16.6,6.6-4.2,20.2-9.1,27.1-9.9,7.4-.9,16.6,2,33.1,10.4,12.6,6.4,13.5,7.1,27.1,20.4,7.7,7.6,14.4,13.8,14.9,13.8,1.6,0-.6-9.3-3.9-16.4-1.8-4-5.2-10.1-7.5-13.5-3.9-5.7-5.5-9.2-13.1-27.6-1.6-3.9-3.4-10.7-4-15.2-1.3-9.6-3.4-16.1-8.3-25.8-4.9-9.8-11.9-19-17.4-22.8-2.5-1.8-10.7-7.7-18.2-13.2l-13.6-9.9-15.5.2c-8.5.2-17.1.6-19,.9-4.7.8-9.9,3.5-12.9,6.7-1.4,1.4-2.8,2.6-3.3,2.6-.4,0-.8-2.2-.8-5s-.9-9.2-2.1-14.4l-2-9.4,3.3-4.4c1.8-2.4,4.9-6.8,6.8-9.6,8.3-12.5,30.2-15.8,47.6-7.2,12.2,6,21.4,16.3,33.7,37.6q10,17.4,11.6,17.4c2.4,0,.6-8.9-5-23.7-7.9-21.2-15.2-35.7-20.7-41.2-9.5-9.5-18.1-11.5-45.6-10.9-19.6.4-23.8,1.4-30.8,7.3-3.9,3.3-7.8,3-9.6-.7-1.8-3.9-.2-7,8.7-16.8,9.6-10.5,14-16.2,19-24.9,6.7-11.4,11.3-14.8,24.9-18.1,18.1-4.3,27.2-3.6,47.7,4,25.5,9.4,28.4,7.6,8.3-5.4-4.7-3.1-12.4-7.6-17-10.1-7.8-4.2-8.7-4.5-16.3-4.5-8.3,0-34.8,3.8-44.8,6.5-11.8,3.1-16.7,7.1-22.8,18.6-4.2,7.8-13,17.6-14.8,16.4-1.9-1.1-.7-9.6,2-15.3,5.3-10.8,25.1-26.9,45.4-36.8,17.7-8.6,27.8-11.4,40.9-11.4,11.2,0,15.1,1.4,25,8.5,5.5,4,8.6,4.5,8.6,1.5s-7.9-11-16.8-17.1c-11.5-7.9-16-11.8-19.5-16.8-4.2-6.2-5.7-7.4-16.5-12.8l-9.3-4.7-14.2-.4c-20.8-.6-37.6,1.1-45.2,4.7-8.3,3.9-15.4,9.8-21.1,17.5-2.7,3.6-5,6.4-5.1,6.2-.2-.1-2.8-7-5.9-15.2-7-18.9-7.7-24.5-4-32.9,3.2-7.1,5.1-9.3,9.3-11.1,3-1.3,25.6-5.4,29.5-5.4,1.3,0,3.5,3.5,7.6,12.2,8.5,17.8,11.2,19.2,11.2,5.7,0-4.3.4-7.9.8-7.9,1.3,0,12.2,6.8,17.7,11,8.5,6.5,17.5,10,17.5,6.9,0-1.4-22.7-23.8-33.1-32.5-4.6-3.9-10.3-8.1-12.6-9.3-2.3-1.1-4.5-3-4.8-4.2-1.3-4-17.9-19.5-24.2-22.5-5.5-2.8-6.5-2.9-21.9-3.2q-18-.4-28.3,6.9c-2.9,2.1-5.7,3.6-6.1,3.4-1.5-.9-4-9.8-4-13.9,0-6.4,1.8-11.5,6.8-19,5.2-7.9,13.6-14.6,20.6-16.6,3-.8,8.3-1.1,15.8-.8,9.8.4,13,1.1,23.9,4.7,13.6,4.4,15.9,4.8,15.9,2.7,0-3.7-15.5-14.5-27.6-19.3-6-2.4-8.2-2.7-17.4-2.7-13,.1-24.6,2-28.4,4.7-1.5,1.1-6.3,6.4-10.7,11.8l-7.8,9.9-2.8-3.7c-2.5-3.3-2.8-4.5-2.8-11.2s.4-8.3,3.9-14.9c5-9.3,13.9-18.5,21.4-22,5.1-2.4,6.9-2.7,16.7-2.7,17.5,0,22.2,2.7,34.5,19.4,10.6,14.4,13.6,15.4,12.6,4.3-.5-5.9-.7-5.9,6.7,0,2.7,2.1,5.3,3.8,5.8,3.8,2,0,.7-3.6-2.9-8.4-4.1-5.4-28.4-31.4-35.5-38-7.1-6.5-18.5-14.6-27.5-19.4-8.4-4.5-9-4.7-18.7-5-6.5-.3-13,.1-18.5,1.2-6.6,1.2-8.6,1.3-9.2.3-1.2-1.9-.9-10.5.5-14,3.1-7.4,20.8-20,30.7-21.9,3-.5,12.9-.8,22-.6l16.5.3,8.6,4.2c4.7,2.3,13.3,7.3,19.2,11.2s10.7,6.9,10.7,6.6c0-.2-.9-2.9-2-5.9-2.6-6.7-6.7-10.6-19.4-18.1-20.5-12-28.9-14.4-52.4-14.6-14.5-.1-16.1.2-23.2,5-7.9,5.4-10.8,3.7-9.4-5.6,1.3-9.4,4.7-13.4,19.4-22.5,13.3-8.3,21.8-10.2,45-10.2,16.6,0,18.1.1,29.4,3.2,6.6,1.8,17.1,5.3,23.4,7.8,6.2,2.5,11.6,4.3,11.9,4s0-1.9-.7-3.6c-1.7-4.1-9.4-10.9-16.7-14.8-8-4.2-25.2-9.9-33.9-11.2-15.6-2.2-50.7-.6-64.8,3.1-8.9,2.3-10.6,2-10.6-1.5,0-5.4,8.1-24.6,11.8-27.9,2.4-2.2,28.9-5.7,43.8-5.7,25.1,0,44.2,7.7,65.3,26.4,4.1,3.6,7.8,6.6,8.3,6.6,2.5,0-1.8-9.8-8-18.3-3.2-4.5-3.4-5.1-2.7-9.5.5-2.6.8-6.2.7-7.9-.3-12.3-22.1-31.7-53.1-47.1l-13.4-6.7h-15.3c-10.4,0-15.7-.4-16.5-1.2-2.9-2.9,1.9-15.3,6-15.3.9,0,5.7-2.1,10.7-4.6,10.6-5.4,13.5-5.4,24.8,0,8.9,4.3,28.7,17.3,38.6,25.3,11.4,9.2,21.6,20.3,22.6,24.7,1.3,5.4,2.9,4.4,2.9-1.7-.1-13.9-12.7-29.1-45-54.2-21.4-16.7-32.1-19.8-45.5-13.4-12.6,6-14.4,5.7-12.1-2.3,2.8-9.2,14.3-17.1,32.5-22.3,10.7-3,14.4-3.1,23-.5,12.6,3.9,28.4,17,39.8,32.9,6.3,8.9,8.4,10.2,7.3,4.5-2.7-14.4-23.2-40.3-37.5-47.2-13.6-6.6-31.7-6.9-46.8-.7-4.7,1.9-8.7,3.3-9,3.1-.2-.3,2.8-3.9,6.7-8,3.9-4.2,8.3-9.6,9.9-11.9,13.6-19.7,16.1-44.2,6.5-63.1-5.1-10-17-19.5-21.1-16.9-2.8,1.7-2.5,4.7.7,7.6,1.7,1.5,3.7,4.3,4.5,6.2,2.1,4.9,3.6,17.3,3,23.6-.9,8.6-5.1,20.4-5.6,15.8-.1-.7-.2-6.4-.2-12.4-.1-12.9-1.3-15.9-8.2-20.8-4.3-3-4.5-3.4-4-6.7.6-3.7,10.9-34.8,14.5-44,1.3-3,4.9-11.5,8.2-18.8,3.3-7.4,7.4-16.8,9-21,1.7-4.2,5.7-13.4,9-20.5,3.2-7,5.9-13.4,5.9-14.1,0-3.5,38.2-76.6,52.5-100.6,8.2-13.8,9.5-16.4,9.5-19.5,0-7.9-11.8,2.6-24.3,21.5-7.8,12-28.9,49.3-37.5,66.5-2.7,5.5-8,17.6-11.7,27-3.7,9.3-9.8,23.6-13.6,31.7s-6.9,15.1-6.9,15.6-1.8,4.7-3.9,9.3-6,14.5-8.6,21.9c-12.2,35-23.9,50.1-32.9,42.2-2.9-2.6-4.6-7.3-3.4-9.5.5-1.1,4.4-3.5,8.6-5.4,8.2-3.8,9.2-4.6,9.2-7.9,0-5.2-12.1-6-21.9-1.4-3.5,1.7-6.5,2.9-6.6,2.8-2.7-3.4-9-13.7-10.6-17.4-1.2-2.7-4.1-7.6-6.4-10.9s-5.8-9.2-7.8-13c-1.9-3.9-4.9-8.8-6.7-11-4.2-5.2-10.3-17.5-15.1-30.1-9.2-24.5-22.9-83.2-28.4-121.8-3.2-22.2-6-28.7-8.5-19.9ZM252.2,430.4c21.1,5.4,36.1,11.8,44.6,19.2,3.8,3.2,10.2,14,10.2,17.1,0,2.2-2.6,1.5-15.2-3.8-25.8-10.9-42.5-12.8-68.7-7.6-16.7,3.4-17.4,3.4-16.6.4,1.9-6.2,8.6-18.6,11.7-21.5,3.6-3.4,12.8-7,18-7.1,1.5-.1,8.7,1.4,16,3.3ZM226.2,620.4c6.2,1.4,22.6,8.1,21.7,9-.2.2-8.7,1.2-18.8,2.2l-18.4,1.8-3.6,4.1c-8.8,9.9-12.2,12.8-13.2,11.8-.7-.7-1-4.4-.8-9.6.4-7.6.7-8.9,3.5-12.8,1.7-2.3,4.6-5.1,6.5-6.1,4.1-2.2,13.6-2.4,23.1-.4ZM268.4,741.3c10.2,5.4,13.2,8.1,10.8,9.6-.8.5-5.1,1.1-9.7,1.4-11.2.6-16.2,3.1-22.9,11.3-6,7.4-6.4,7.2-11.5-3.2-3.7-7.5-3.5-9.3,1.5-13.1,3.9-2.9,19.3-11.2,20.9-11.2.6,0,5.5,2.3,10.9,5.2ZM126.8,759.6c4.8,3.3,9.2,16.2,6.5,18.9-1.5,1.6-1.8,1.5-12.8-1.2-8.8-2.2-15.9-1.9-24.8,1.1-9.2,3.1-9,3.1-7.8.8,3.6-6.7,15.6-17,22.9-19.7,5.1-1.9,13.2-1.9,16,.1ZM361,820.8c6.2,2,14.5,7.5,14.5,9.7,0,1.6-2.3,2.5-16.8,6.2-9.2,2.3-20.9,5.9-26,7.9-17.7,7-35.3,18.5-44.2,29-5.6,6.5-6.8,6.1-8.6-2.4-2.5-12.4,1.5-24.7,11.6-36,6.4-7.1,12.1-11.2,19.1-14.2,4.5-1.8,6.7-2,25.9-1.6,12,.1,22.5.8,24.5,1.4ZM181.2,872.9c2.7,3.1,5.2,10.7,4.6,13.7-.2,1.2-1.5,2.1-3.8,2.5-1.9.4-6,1.1-9,1.7-8.2,1.5-16.7,5-20.7,8.5s-7,9.4-17.4,33.5c-7.2,16.8-7.4,17.2-8.1,13.5-2.6-14.6-1.7-40.6,1.9-52,1.9-6.2,8.6-15.1,14.6-19.4,4.1-3,4.4-3.1,12.2-2.5,5.4.4,9.8.2,13.5-.8,8.2-2.1,9.6-1.9,12.2,1.3ZM190.9,913.9c1.5,1,4.2,12.2,3.2,13.3-.3.4-3.5,0-7.1-.8-8.7-2.1-12.5-.9-19.3,5.9-6,6.1-11,13.5-19.9,29.6-3.5,6.3-6.7,11.3-7.3,11.2-2.6-.4,3.6-26.7,8.9-37.6,3.7-7.5,12-17.6,17.1-20.6,2.4-1.5,5-1.9,13-1.9,5.5,0,10.6.4,11.4.9ZM197,950.9c9.3,2.4,12,5,12,12v4.9l-14.7.4c-19.8.6-22.9,2-33.2,14.5-6.4,7.8-8.5,8.2-7.9,1.5,1-9.5,12.5-29.1,20.1-34.2,2.7-1.8,4.2-2,9.7-1.6,3.6.3,9.9,1.4,14,2.5ZM196.2,989.9c16.3,7.5,31.5,27,25.6,32.9-1.7,1.7-3.9,1.5-10.9-.9-5.2-1.8-7.7-2.1-16.3-1.7-6.8.4-11.8,1.2-15.4,2.6-7,2.7-18.9,10.2-28.4,17.9l-7.8,6.3v-3.3c0-8.9,26.9-51.8,35.1-56,4.4-2.3,10-1.6,18.1,2.2ZM358.1,1016.6c7.2,2.1,18,7.6,25.4,12.9,5.6,4,17.3,16.1,25.7,26.5,4,5,8.3,12.8,7.5,13.6-.3.3-7.2-2.9-15.4-7-31.2-15.7-41.5-16.9-65.5-7.6-7.3,2.9-9.7,2.2-12.8-3.2-3.6-6.3-3.4-14.5.4-22,3.9-7.7,6.1-9.5,14.7-12.3,8.8-2.9,12.7-3,20-.9ZM206.7,1044.3c6.5,3.2,12.6,5.7,13.5,5.7,4,0,8.4,11.2,7.6,19.2-.3,3-.6,3.3-3.3,3-1.6-.2-6.9-1.7-11.8-3.4-7.7-2.7-9.6-3-16-2.5-7.7.6-20.7,4.7-29.7,9.2-8.7,4.4-25.9,22.8-33.4,35.7-1.5,2.7-3.2,4.8-3.7,4.8-4.5,0,12.1-42.1,20.6-52.6,3.2-3.8,16-14.6,24.4-20.4,9.5-6.6,15.6-6.4,31.8,1.3ZM379,1071.5c17.8,4,26.8,7.9,31.4,13.7,1.6,2.1,2.6,4.1,2.2,4.5-.3.4-3.1-.5-6.1-2-12.6-6.4-34.8-8-49.1-3.4-10.2,3.2-13,4.6-19.9,10.2-3,2.5-5.9,4.5-6.5,4.5-1.7,0-4-5.7-4-10,0-8.8,7.6-16.4,20.5-20.7,5.3-1.7,12.4-1,31.5,3.2ZM223,1143.9c6.9,2.1,7,2.4,5.2,13.2l-1.5,9.6-12.1.6c-18.8,1-26.8,3.7-34.3,11.6-2.4,2.4-4.3,4.1-4.3,3.8,0-1.6,8.3-21.6,10.7-25.7,7.6-13.1,11.1-15.3,23.8-14.6,5,.2,10.6.9,12.5,1.5ZM353.8,1184.2c3.6.9,6.1,2.5,10.8,7.2,8.1,8.2,29.4,40.6,31,47.4.6,2.2-.6,1.3-6.7-4.9-8.5-8.8-15.9-12.8-28.1-15.3-9.8-2-25.7-2-34.4-.1-3.6.9-6.9,1.3-7.2,1s.6-4,2-8.3c1.4-4.2,3.4-11.5,4.3-16.2,2.5-12.6,1.9-12,13.6-12,5.5,0,12.1.5,14.7,1.2Z"/>
  </g>
</svg>