<?xml version="1.0" encoding="utf-8"?>
<!-- Generator: Adobe Illustrator 30.1.0, SVG Export Plug-In . SVG Version: 9.03 Build 0)  -->
<svg version="1.0" id="Ebene_1" xmlns="http://www.w3.org/2000/svg" xmlns:xlink="http://www.w3.org/1999/xlink" x="0px" y="0px"
	 viewBox="0 0 1181 1536" style="enable-background:new 0 0 1181 1536;" xml:space="preserve">
<style type="text/css">
	.st0{opacity:0.7;}
</style>
<g transform="translate(0.000000,1536.000000) scale(0.100000,-0.100000)" class="st0">
	<path d="M8740,13493c-14-3-44-23-66-45l-42-40l-75,7c-63,6-81,4-120-13c-44-20-45-20-76-1c-17,10-40,19-50,19c-48,0-437-96-530-131
		c-57-21-255-117-440-213s-357-185-383-197c-44-21-49-28-69-86c-22-67-59-102-90-82c-51,32-175-6-459-144c-170-82-255-134-465-282
		c-286-202-305-219-343-311c-29-69-41-85-94-126c-33-27-67-48-75-48c-17,0-128-55-166-84c-16-11-48-50-71-86s-84-119-136-185
		c-227-292-368-564-430-829c-24-105-64-187-100-208c-63-36-79-74-115-270c-47-258-57-356-58-578c-2-168,0-200,16-229
		c25-49,21-73-18-111c-44-43-57-72-94-208c-17-62-51-152-75-200c-54-108-81-193-107-341c-11-64-31-150-44-191c-58-181-64-222-70-473
		c-3-174-1-259,9-320c25-147,27-167,16-167c-5,0-10,9-10,19c0,40-50,205-65,213c-9,6-15,24-15,49c0,22-13,95-29,163
		c-39,162-52,291-52,504c0,98-4,278-9,402c-9,199-14,245-47,400c-35,167-39,177-74,212c-33,35-41,38-95,39c-189,3-196,2-414-54
		c-251-65-301-82-475-169c-71-36-143-68-159-72s-61-22-100-40c-39-19-105-41-146-50c-99-23-120-32-120-53c0-10-7-26-14-36
		c-28-37,2-93,196-370c263-375,387-556,428-627c24-41,65-108,93-148c27-41,47-75,45-76c-1-2-52-36-113-76c-147-98-351-251-455-342
		c-95-83-165-185-155-225c3-13,10-23,15-23c6,0,10-7,10-17c0-24,69-112,184-232c56-59,157-173,225-254s127-147,132-147s16-15,25-32
		c9-18,34-47,57-64s92-68,153-113c94-69,118-93,155-152c63-101,78-119,99-119c26,0,38-19,51-81c11-54,43-119,59-119c5,0,14-16,20-35
		c11-34,50-69,50-45c0,6,10,8,25,4c30-7,32,5,5,38c-21,27-18,38,12,38c24,0,23,3-14,70c-19,35-29,64-25,75c6,14,15,10,57-28
		c67-61,124-87,187-87h51l182-280c246-379,281-410,527-470c37-9,43-15,57-57c21-60,20-73-2-73c-10,0-23-5-29-11c-18-18-40-4-46,29
		c-5,25-18,35-84,66c-103,49-162,96-258,206c-102,117-149,186-176,261c-18,50-25,58-41,53c-10-3-41,0-68,7c-46,12-54,11-122-16
		c-192-74-239-112-304-243c-24-48-26-57-15-92c20-69,83-133,234-242c111-79,146-109,151-130c5-28,56-56,260-144c43-19,108-54,145-79
		c66-44,132-65,208-65c18,0,55-11,81-24s70-32,97-40c38-13,62-30,98-71l48-55h-32c-26,0-43,10-76,42l-43,42l-43-42
		c-58-57-116-75-183-58c-45,11-51,16-80,69c-42,79-52,87-130,103c-56,12-75,21-102,49c-18,19-37,35-42,35c-6,0-29,17-53,39
		c-23,21-60,44-82,51s-52,27-66,43c-21,26-36,32-79,37c-46,4-56,9-70,35c-11,20-32,36-61,46c-24,9-45,24-47,33c-3,16-40,29-126,45
		c-26,5-54,15-64,24s-47,18-86,22c-42,3-87,15-117,30c-51,26-92,31-132,16c-17-7-35-4-67,10c-112,50-256,48-444-7
		c-269-78-546-217-895-450c-179-119-201-140-201-193c0-28-9-54-27-82c-26-39-26-43-15-96c10-50,9-59-10-97c-34-66-32-79,52-426
		c39-163,129-354,257-548c64-97,121-148,398-356c106-80,244-194,307-252c273-257,466-397,672-488c74-32,106-40,168-44
		c86-5,97,3,79,51c-7,18-41,44-113,85c-139,81-217,139-382,284c-161,142-224,220-297,367l-53,106l-1,115c-1,89,4,140,23,225
		c29,133,27,274-7,425c-27,120-65,197-138,286c-77,91-132,126-264,169c-98,31-120,35-221,35h-113l44,20c24,11,64,20,90,20
		c57,1,144,23,149,38c2,8,39,12,113,12h108l84,45c97,52,154,74,216,83c41,7,50,14,113,91c37,47,85,113,105,148l38,64l60-5
		c88-9,207-42,218-61c18-32,71-86,98-101c15-7,48-14,73-14c33,0,52-6,74-25c17-14,35-25,40-25c6,0,19-11,30-24c11-14,35-27,57-32
		c26-4,51-20,76-45c21-22,47-39,57-39s36-13,58-30c21-16,55-34,75-40c21-6,40-19,46-33c7-16,26-26,62-36c29-7,56-21,61-31
		s22-21,37-25c15-3,40-15,55-27c42-29,167-45,204-25c26,14,32,13,76-9c53-27,58-38,27-63c-20-16-21-19-6-47c33-64,81-81,152-54
		c24,9,34,7,66-15c49-32,57-31,100,4c32,27,39,29,75,21c64-15,99-11,147,15c60,34,68,45,92,124l21,66l69,5c43,3,82,12,101,24
		c28,17,33,17,77,2c64-21,138-21,168,2c56,41,83,49,138,43c48-5,52-8,38-20c-21-17-22-40-2-47c12-5,132,23,189,45c13,5,34-1,62-16
		c39-22,43-28,49-74s12-54,64-95c47-37,63-44,101-44c68,0,120-18,129-44c16-41,35-49,76-31c52,21,85,19,147-10c29-14,58-24,63-24
		c6,0,25,19,44,41c34,39,34,40,18,68c-29,49-23,60,32,60c33,0,56-6,74-20c33-26,43-25,63,6c10,14,35,34,57,46c33,17,44,18,66,8
		s28-9,41,7c26,32,50,41,89,32c28-6,43-4,67,10c21,13,36,16,47,9c23-12,116,16,134,42c24,35,68,52,98,38c31-14,66,2,86,38
		c8,16,21,24,38,24c14,0,37,12,52,26c26,24,29,25,85,15c84-16,86-15,152,34c57,43,94,56,106,36c3-5-13-68-36-140l-42-132l11-90
		c7-50,16-96,21-102c32-39,60-105,55-130c-3-15-1-27,5-27c23,0,43-32,37-59c-4-20,0-32,16-47c11-10,41-59,65-109
		c24-49,66-126,94-170c27-44,55-96,61-115s34-77,62-129c48-89,49-95,32-107c-24-18-20-19-165,16c-164,39-285,48-367,27
		c-183-47-361-203-460-403l-45-90l-9-150c-12-207-29-276-88-366c-101-153-249-302-395-396c-95-62-393-204-496-238
		c-153-49-169-55-192-74c-34-27-14-40,94-61c130-25,165-23,313,15c255,66,360,114,820,371c160,89,346,192,414,230
		c368,202,503,333,761,735c74,116,76,120,96,213c9,45,11,74,5,86c-7,13-4,25,14,47c13,16,24,37,25,48c0,10,8,40,17,67
		c18,48,17,53-15,277c-18,125-32,266-32,315c0,61-11,140-35,261c-45,224-65,288-132,419c-132,259-263,407-359,407c-14,0-39,10-56,21
		l-29,21l-83-34c-66-28-88-32-111-25c-17,4-75,8-130,8c-168,1-352-48-485-127c-41-24-80-42-87-40c-6,3-14-2-17-10s-18-14-33-14
		c-14,0-36-8-47-19c-12-10-58-31-103-46c-78-26-104-28-159-10c-16,5-23,0-33-21c-25-57-71-103-112-114c-46-13-108-4-116,16
		c-3,8-13,14-22,14c-11,0-26,18-41,50c-13,28-27,50-32,50s-18-15-29-34c-33-57-96-69-156-30c-32,20-30,64,8,186c26,84,30,106,21,138
		c-12,47-4,61,92,170c36,41,66,78,66,81c0,4,16,24,36,45c38,41,175,255,232,363c18,36,44,77,57,92c35,43,83,131,105,194
		c16,46,60,121,60,102c0-3-22-87-49-187c-38-140-47-188-40-207c5-13,9-56,9-94c0-53,4-71,15-75c10-4,13-13,10-25c-5-14-1-19,11-19
		c14,0,14-3,4-15c-7-9-10-18-7-21c10-11,67,27,80,54c20,38,30,188,17,245c-9,41-6,55,26,144c128,351,206,593,214,668
		c5,46,30,146,59,235c59,185,67,232,51,290c-15,57-57,96-154,146c-42,22-76,42-76,47c0,4,29,44,64,88c36,45,97,133,138,196
		c40,63,106,160,147,216c140,192,150,214,106,243c-17,11-25,26-25,44c0,89-225,268-589,467c-75,41-139,78-143,81c-4,4,30,95,76,202
		s123,314,171,460c95,291,102,335,64,397c-44,70-120,101-402,159c-92,19-242,59-335,89c-355,115-379,119-553,89l-96-17l-27-54
		c-33-68-33-96,5-240c41-160,101-434,96-440c-3-2-33,51-67,119c-35,68-83,151-107,186c-49,69-68,109-83,176c-9,40-7,54,19,118
		c47,122,115,349,126,423c2,11,8,33,14,48c6,16,8,39,5,52c-3,12-1,26,5,30c7,4,8,13,2,23c-4,9-11,53-15,98c-12,150-80,320-144,357
		l-37,22l62,6c71,7,186,61,339,160c109,71,171,135,286,294c107,149,138,207,138,257c0,9,7,21,15,28c11,9,12,17,5,30
		c-6,10-10,32-10,48s-7,35-15,42c-10,8-15,31-15,70c0,84,6,87,180,93c161,5,212,19,375,99c233,116,502,288,526,338
		c33,70,40,105,39,198c-1,35,3,44,22,51c13,5,43,36,67,70c25,33,47,61,50,61s42-12,86-27c78-26,82-26,192-14c271,28,513,91,726,190
		c76,34,86,43,106,83c12,25,26,72,32,104c15,85,51,150,119,221c33,34,60,71,60,81c0,15,15,23,71,40l72,20l176-95
		c280-152,429-223,484-233c45-8,205-20,760-56l97-6l63-50c75-60,107-78,143-78c26,0,26-1,19-47c-8-54-18-75-68-150
		c-36-53-156-403-193-559c-21-93-15-247,14-327c48-132,174-276,285-327c86-39,275-85,310-76c39,10,27,21-51,46
		c-201,66-287,134-362,285c-47,95-55,170-20,205c33,33,69,11,107-64c29-57,34-53,48,39c10,71,18,81,88,116c208,105,352,276,393,469
		c10,47,17,126,17,210c0,152-13,202-78,295c-19,28-48,79-65,115c-33,69-41,77-80,86c-14,4-39,20-56,36c-18,17-46,31-70,35
		c-21,3-47,13-58,22c-33,29-96,145-90,167c8,30-25,64-71,71c-24,4-47,15-58,30c-11,13-29,23-44,23s-33,10-45,26c-14,18-28,24-43,22
		c-14-3-26,2-33,12c-6,10-27,20-47,23s-43,12-52,18c-8,7-35,20-61,29c-26,10-98,36-161,59c-172,63-514,160-621,176
		C9161,13499,8804,13504,8740,13493z M5932,9055c119-61,303-107,519-130c31-3,65-12,75-20c18-13,18-14-4-38c-21-22-88-164-142-302
		c-13-33-41-79-63-103c-48-54-89-141-95-204c-5-48-5-48-41-48c-32,0-94-15-142-35c-14-5-19,4-29,47c-19,77-103,322-154,446
		c-47,113-84,242-111,382c-9,47-19,93-21,103c-5,14,7,10,58-18C5817,9115,5884,9079,5932,9055z M3346,8963c-14-78-14-83,10-157
		c48-153,58-254,56-581c-3-367-3-372-45-381c-18-3-43-12-57-19s-65-20-113-28c-65-11-104-25-147-50l-58-35l-58,121
		c-31,66-76,148-99,181c-23,34-63,102-88,151c-26,50-87,140-135,202c-48,61-108,147-134,190l-47,78l27,6c40,9,560,208,613,235
		c26,13,82,50,125,82c66,49,152,96,161,88C3359,9045,3353,9007,3346,8963z M6402,7679c59-48,146-113,192-143c47-31,111-80,144-110
		c44-42,70-58,108-66c27-7,55-14,62-16c20-6-75-138-178-247c-121-130-140-155-140-186c0-15-9-36-19-45c-19-17-23-17-103,9
		c-89,30-192,86-207,113c-12,22-28,195-41,422l-10,175l32,97c19,57,36,94,42,90C6290,7769,6343,7727,6402,7679z M3255,7453
		c10-43,39-143,66-223c26-80,60-206,74-280s35-175,46-225c18-82,18-91,4-100c-9-5-69-50-133-98c-64-49-140-99-167-111
		c-32-15-66-41-93-74l-43-51l-67,42c-103,63-142,96-142,120c0,12-16,38-36,59c-21,20-53,62-73,92s-91,114-159,185l-123,129l53,30
		c29,16,88,48,130,71c91,49,197,124,327,230c51,42,102,82,112,90c17,12,25,7,81-43c35-31,71-56,81-56c20,0,22,11,5,28
		c-9,9-3,12,28,12l39,1l-33,27c-18,15-32,34-32,43c0,8-11,37-24,63l-23,46l41,35c22,19,42,35,43,35S3246,7495,3255,7453z M3941,6527
		c34-14,36-18,53-98c10-46,33-122,52-169c33-83,43-150,25-179c-16-25-41,42-50,134c-5,47-10,87-12,88c-105,68-132,110-154,241l-6,38
		l28-20C3892,6551,3921,6536,3941,6527z M6492,6456c85-38,229-79,269-78l36,2l-43-141c-24-77-59-169-78-204c-39-68-42-85-25-113
		c9-14,1-51-37-175c-26-86-49-156-50-154c-2,1,1,32,6,67c13,90,12,174-2,188c-21,21-109,13-208-18c-52-16-96-30-97-30
		c-2,0-3,58-3,128v129l50,84c64,105,67,120,41,164c-12,20-21,42-21,48c0,10,96,127,105,127C6436,6480,6462,6469,6492,6456z
		 M5960,5630c-7-4-20-25-30-46l-18-39l-1,36c-1,23,7,46,21,64c19,24,22,25,31,10C5969,5643,5969,5635,5960,5630z M3727,5034
		c19-14,72-77,118-139c47-62,102-128,122-146c43-39,201-123,251-134c18-4,32-13,32-21c0-38,31-73,73-84c110-30,210-66,214-78
		c14-35-17-32-103,11c-49,24-120,54-159,67c-38,12-101,41-140,64c-38,22-114,59-170,82c-81,33-103,47-114,70c-21,44-39,62-99,96
		c-51,29-153,111-160,129c-4,11,78,109,91,109C3689,5060,3708,5048,3727,5034z"/>
</g>
</svg>
