<?xml version="1.0" encoding="UTF-8"?>
<svg id="Ebene_1" xmlns="http://www.w3.org/2000/svg" version="1.1" viewBox="0 0 1181 1536">
  <!-- Generator: Adobe Illustrator 30.1.0, SVG Export Plug-In . SVG Version: 2.1.1 Build 136)  -->
  <defs>
    <style>
      .st0 {
        fill: #fff;
        stroke: #010200;
        stroke-miterlimit: 10;
        stroke-width: 6px;
      }

      .st1 {
        opacity: .7;
      }
    </style>
  </defs>
  <g class="st1">
    <path class="st0" d="M874,186.7c-1.4.3-4.4,2.3-6.6,4.5l-4.2,4-7.5-.7c-6.3-.6-8.1-.4-12,1.3-4.4,2-4.5,2-7.6.1-1.7-1-4-1.9-5-1.9-4.8,0-43.7,9.6-53,13.1-5.7,2.1-25.5,11.7-44,21.3s-35.7,18.5-38.3,19.7c-4.4,2.1-4.9,2.8-6.9,8.6-2.2,6.7-5.9,10.2-9,8.2-5.1-3.2-17.5.6-45.9,14.4-17,8.2-25.5,13.4-46.5,28.2-28.6,20.2-30.5,21.9-34.3,31.1-2.9,6.9-4.1,8.5-9.4,12.6-3.3,2.7-6.7,4.8-7.5,4.8-1.7,0-12.8,5.5-16.6,8.4-1.6,1.1-4.8,5-7.1,8.6s-8.4,11.9-13.6,18.5c-22.7,29.2-36.8,56.4-43,82.9-2.4,10.5-6.4,18.7-10,20.8-6.3,3.6-7.9,7.4-11.5,27-4.7,25.8-5.7,35.6-5.8,57.8-.2,16.8,0,20,1.6,22.9,2.5,4.9,2.1,7.3-1.8,11.1-4.4,4.3-5.7,7.2-9.4,20.8-1.7,6.2-5.1,15.2-7.5,20-5.4,10.8-8.1,19.3-10.7,34.1-1.1,6.4-3.1,15-4.4,19.1-5.8,18.1-6.4,22.2-7,47.3-.3,17.4-.1,25.9.9,32,2.5,14.7,2.7,16.7,1.6,16.7-.5,0-1-.9-1-1.9,0-4-5-20.5-6.5-21.3-.9-.6-1.5-2.4-1.5-4.9,0-2.2-1.3-9.5-2.9-16.3-3.9-16.2-5.2-29.1-5.2-50.4,0-9.8-.4-27.8-.9-40.2-.9-19.9-1.4-24.5-4.7-40-3.5-16.7-3.9-17.7-7.4-21.2-3.3-3.5-4.1-3.8-9.5-3.9-18.9-.3-19.6-.2-41.4,5.4-25.1,6.5-30.1,8.2-47.5,16.9-7.1,3.6-14.3,6.8-15.9,7.2s-6.1,2.2-10,4c-3.9,1.9-10.5,4.1-14.6,5-9.9,2.3-12,3.2-12,5.3,0,1-.7,2.6-1.4,3.6-2.8,3.7.2,9.3,19.6,37,26.3,37.5,38.7,55.6,42.8,62.7,2.4,4.1,6.5,10.8,9.3,14.8,2.7,4.1,4.7,7.5,4.5,7.6-.1.2-5.2,3.6-11.3,7.6-14.7,9.8-35.1,25.1-45.5,34.2-9.5,8.3-16.5,18.5-15.5,22.5.3,1.3,1,2.3,1.5,2.3.6,0,1,.7,1,1.7,0,2.4,6.9,11.2,18.4,23.2,5.6,5.9,15.7,17.3,22.5,25.4s12.7,14.7,13.2,14.7,1.6,1.5,2.5,3.2c.9,1.8,3.4,4.7,5.7,6.4s9.2,6.8,15.3,11.3c9.4,6.9,11.8,9.3,15.5,15.2,6.3,10.1,7.8,11.9,9.9,11.9,2.6,0,3.8,1.9,5.1,8.1,1.1,5.4,4.3,11.9,5.9,11.9.5,0,1.4,1.6,2,3.5,1.1,3.4,5,6.9,5,4.5,0-.6,1-.8,2.5-.4,3,.7,3.2-.5.5-3.8-2.1-2.7-1.8-3.8,1.2-3.8,2.4,0,2.3-.3-1.4-7-1.9-3.5-2.9-6.4-2.5-7.5.6-1.4,1.5-1,5.7,2.8,6.7,6.1,12.4,8.7,18.7,8.7h5.1l18.2,28c24.6,37.9,28.1,41,52.7,47,3.7.9,4.3,1.5,5.7,5.7,2.1,6,2,7.3-.2,7.3-1,0-2.3.5-2.9,1.1-1.8,1.8-4,.4-4.6-2.9-.5-2.5-1.8-3.5-8.4-6.6-10.3-4.9-16.2-9.6-25.8-20.6-10.2-11.7-14.9-18.6-17.6-26.1-1.8-5-2.5-5.8-4.1-5.3-1,.3-4.1,0-6.8-.7-4.6-1.2-5.4-1.1-12.2,1.6-19.2,7.4-23.9,11.2-30.4,24.3-2.4,4.8-2.6,5.7-1.5,9.2,2,6.9,8.3,13.3,23.4,24.2,11.1,7.9,14.6,10.9,15.1,13,.5,2.8,5.6,5.6,26,14.4,4.3,1.9,10.8,5.4,14.5,7.9,6.6,4.4,13.2,6.5,20.8,6.5,1.8,0,5.5,1.1,8.1,2.4s7,3.2,9.7,4c3.8,1.3,6.2,3,9.8,7.1l4.8,5.5h-3.2c-2.6,0-4.3-1-7.6-4.2l-4.3-4.2-4.3,4.2c-5.8,5.7-11.6,7.5-18.3,5.8-4.5-1.1-5.1-1.6-8-6.9-4.2-7.9-5.2-8.7-13-10.3-5.6-1.2-7.5-2.1-10.2-4.9-1.8-1.9-3.7-3.5-4.2-3.5-.6,0-2.9-1.7-5.3-3.9-2.3-2.1-6-4.4-8.2-5.1s-5.2-2.7-6.6-4.3c-2.1-2.6-3.6-3.2-7.9-3.7-4.6-.4-5.6-.9-7-3.5-1.1-2-3.2-3.6-6.1-4.6-2.4-.9-4.5-2.4-4.7-3.3-.3-1.6-4-2.9-12.6-4.5-2.6-.5-5.4-1.5-6.4-2.4s-4.7-1.8-8.6-2.2c-4.2-.3-8.7-1.5-11.7-3-5.1-2.6-9.2-3.1-13.2-1.6-1.7.7-3.5.4-6.7-1-11.2-5-25.6-4.8-44.4.7-26.9,7.8-54.6,21.7-89.5,45-17.9,11.9-20.1,14-20.1,19.3,0,2.8-.9,5.4-2.7,8.2-2.6,3.9-2.6,4.3-1.5,9.6,1,5,.9,5.9-1,9.7-3.4,6.6-3.2,7.9,5.2,42.6,3.9,16.3,12.9,35.4,25.7,54.8,6.4,9.7,12.1,14.8,39.8,35.6,10.6,8,24.4,19.4,30.7,25.2,27.3,25.7,46.6,39.7,67.2,48.8,7.4,3.2,10.6,4,16.8,4.4,8.6.5,9.7-.3,7.9-5.1-.7-1.8-4.1-4.4-11.3-8.5-13.9-8.1-21.7-13.9-38.2-28.4-16.1-14.2-22.4-22-29.7-36.7l-5.3-10.6-.1-11.5c-.1-8.9.4-14,2.3-22.5,2.9-13.3,2.7-27.4-.7-42.5-2.7-12-6.5-19.7-13.8-28.6-7.7-9.1-13.2-12.6-26.4-16.9-9.8-3.1-12-3.5-22.1-3.5h-11.3l4.4-2c2.4-1.1,6.4-2,9-2,5.7-.1,14.4-2.3,14.9-3.8.2-.8,3.9-1.2,11.3-1.2h10.8l8.4-4.5c9.7-5.2,15.4-7.4,21.6-8.3,4.1-.7,5-1.4,11.3-9.1,3.7-4.7,8.5-11.3,10.5-14.8l3.8-6.4,6,.5c8.8.9,20.7,4.2,21.8,6.1,1.8,3.2,7.1,8.6,9.8,10.1,1.5.7,4.8,1.4,7.3,1.4,3.3,0,5.2.6,7.4,2.5,1.7,1.4,3.5,2.5,4,2.5.6,0,1.9,1.1,3,2.4,1.1,1.4,3.5,2.7,5.7,3.2,2.6.4,5.1,2,7.6,4.5,2.1,2.2,4.7,3.9,5.7,3.9s3.6,1.3,5.8,3c2.1,1.6,5.5,3.4,7.5,4,2.1.6,4,1.9,4.6,3.3.7,1.6,2.6,2.6,6.2,3.6,2.9.7,5.6,2.1,6.1,3.1s2.2,2.1,3.7,2.5c1.5.3,4,1.5,5.5,2.7,4.2,2.9,16.7,4.5,20.4,2.5,2.6-1.4,3.2-1.3,7.6.9,5.3,2.7,5.8,3.8,2.7,6.3-2,1.6-2.1,1.9-.6,4.7,3.3,6.4,8.1,8.1,15.2,5.4,2.4-.9,3.4-.7,6.6,1.5,4.9,3.2,5.7,3.1,10-.4,3.2-2.7,3.9-2.9,7.5-2.1,6.4,1.5,9.9,1.1,14.7-1.5,6-3.4,6.8-4.5,9.2-12.4l2.1-6.6,6.9-.5c4.3-.3,8.2-1.2,10.1-2.4,2.8-1.7,3.3-1.7,7.7-.2,6.4,2.1,13.8,2.1,16.8-.2,5.6-4.1,8.3-4.9,13.8-4.3,4.8.5,5.2.8,3.8,2-2.1,1.7-2.2,4-.2,4.7,1.2.5,13.2-2.3,18.9-4.5,1.3-.5,3.4.1,6.2,1.6,3.9,2.2,4.3,2.8,4.9,7.4s1.2,5.4,6.4,9.5c4.7,3.7,6.3,4.4,10.1,4.4,6.8,0,12,1.8,12.9,4.4,1.6,4.1,3.5,4.9,7.6,3.1,5.2-2.1,8.5-1.9,14.7,1,2.9,1.4,5.8,2.4,6.3,2.4.6,0,2.5-1.9,4.4-4.1,3.4-3.9,3.4-4,1.8-6.8-2.9-4.9-2.3-6,3.2-6,3.3,0,5.6.6,7.4,2,3.3,2.6,4.3,2.5,6.3-.6,1-1.4,3.5-3.4,5.7-4.6,3.3-1.7,4.4-1.8,6.6-.8s2.8.9,4.1-.7c2.6-3.2,5-4.1,8.9-3.2,2.8.6,4.3.4,6.7-1,2.1-1.3,3.6-1.6,4.7-.9,2.3,1.2,11.6-1.6,13.4-4.2,2.4-3.5,6.8-5.2,9.8-3.8,3.1,1.4,6.6-.2,8.6-3.8.8-1.6,2.1-2.4,3.8-2.4,1.4,0,3.7-1.2,5.2-2.6,2.6-2.4,2.9-2.5,8.5-1.5,8.4,1.6,8.6,1.5,15.2-3.4,5.7-4.3,9.4-5.6,10.6-3.6.3.5-1.3,6.8-3.6,14l-4.2,13.2,1.1,9c.7,5,1.6,9.6,2.1,10.2,3.2,3.9,6,10.5,5.5,13-.3,1.5-.1,2.7.5,2.7,2.3,0,4.3,3.2,3.7,5.9-.4,2,0,3.2,1.6,4.7,1.1,1,4.1,5.9,6.5,10.9,2.4,4.9,6.6,12.6,9.4,17,2.7,4.4,5.5,9.6,6.1,11.5s3.4,7.7,6.2,12.9c4.8,8.9,4.9,9.5,3.2,10.7-2.4,1.8-2,1.9-16.5-1.6-16.4-3.9-28.5-4.8-36.7-2.7-18.3,4.7-36.1,20.3-46,40.3l-4.5,9-.9,15c-1.2,20.7-2.9,27.6-8.8,36.6-10.1,15.3-24.9,30.2-39.5,39.6-9.5,6.2-39.3,20.4-49.6,23.8-15.3,4.9-16.9,5.5-19.2,7.4-3.4,2.7-1.4,4,9.4,6.1,13,2.5,16.5,2.3,31.3-1.5,25.5-6.6,36-11.4,82-37.1,16-8.9,34.6-19.2,41.4-23,36.8-20.2,50.3-33.3,76.1-73.5,7.4-11.6,7.6-12,9.6-21.3.9-4.5,1.1-7.4.5-8.6-.7-1.3-.4-2.5,1.4-4.7,1.3-1.6,2.4-3.7,2.5-4.8,0-1,.8-4,1.7-6.7,1.8-4.8,1.7-5.3-1.5-27.7-1.8-12.5-3.2-26.6-3.2-31.5,0-6.1-1.1-14-3.5-26.1-4.5-22.4-6.5-28.8-13.2-41.9-13.2-25.9-26.3-40.7-35.9-40.7-1.4,0-3.9-1-5.6-2.1l-2.9-2.1-8.3,3.4c-6.6,2.8-8.8,3.2-11.1,2.5-1.7-.4-7.5-.8-13-.8-16.8-.1-35.2,4.8-48.5,12.7-4.1,2.4-8,4.2-8.7,4-.6-.3-1.4.2-1.7,1s-1.8,1.4-3.3,1.4c-1.4,0-3.6.8-4.7,1.9-1.2,1-5.8,3.1-10.3,4.6-7.8,2.6-10.4,2.8-15.9,1-1.6-.5-2.3,0-3.3,2.1-2.5,5.7-7.1,10.3-11.2,11.4-4.6,1.3-10.8.4-11.6-1.6-.3-.8-1.3-1.4-2.2-1.4-1.1,0-2.6-1.8-4.1-5-1.3-2.8-2.7-5-3.2-5s-1.8,1.5-2.9,3.4c-3.3,5.7-9.6,6.9-15.6,3-3.2-2-3-6.4.8-18.6,2.6-8.4,3-10.6,2.1-13.8-1.2-4.7-.4-6.1,9.2-17,3.6-4.1,6.6-7.8,6.6-8.1,0-.4,1.6-2.4,3.6-4.5,3.8-4.1,17.5-25.5,23.2-36.3,1.8-3.6,4.4-7.7,5.7-9.2,3.5-4.3,8.3-13.1,10.5-19.4,1.6-4.6,6-12.1,6-10.2,0,.3-2.2,8.7-4.9,18.7-3.8,14-4.7,18.8-4,20.7.5,1.3.9,5.6.9,9.4,0,5.3.4,7.1,1.5,7.5,1,.4,1.3,1.3,1,2.5-.5,1.4-.1,1.9,1.1,1.9,1.4,0,1.4.3.4,1.5-.7.9-1,1.8-.7,2.1,1,1.1,6.7-2.7,8-5.4,2-3.8,3-18.8,1.7-24.5-.9-4.1-.6-5.5,2.6-14.4,12.8-35.1,20.6-59.3,21.4-66.8.5-4.6,3-14.6,5.9-23.5,5.9-18.5,6.7-23.2,5.1-29-1.5-5.7-5.7-9.6-15.4-14.6-4.2-2.2-7.6-4.2-7.6-4.7,0-.4,2.9-4.4,6.4-8.8,3.6-4.5,9.7-13.3,13.8-19.6,4-6.3,10.6-16,14.7-21.6,14-19.2,15-21.4,10.6-24.3-1.7-1.1-2.5-2.6-2.5-4.4,0-8.9-22.5-26.8-58.9-46.7-7.5-4.1-13.9-7.8-14.3-8.1-.4-.4,3-9.5,7.6-20.2s12.3-31.4,17.1-46c9.5-29.1,10.2-33.5,6.4-39.7-4.4-7-12-10.1-40.2-15.9-9.2-1.9-24.2-5.9-33.5-8.9-35.5-11.5-37.9-11.9-55.3-8.9l-9.6,1.7-2.7,5.4c-3.3,6.8-3.3,9.6.5,24,4.1,16,10.1,43.4,9.6,44-.3.2-3.3-5.1-6.7-11.9-3.5-6.8-8.3-15.1-10.7-18.6-4.9-6.9-6.8-10.9-8.3-17.6-.9-4-.7-5.4,1.9-11.8,4.7-12.2,11.5-34.9,12.6-42.3.2-1.1.8-3.3,1.4-4.8.6-1.6.8-3.9.5-5.2-.3-1.2-.1-2.6.5-3,.7-.4.8-1.3.2-2.3-.4-.9-1.1-5.3-1.5-9.8-1.2-15-8-32-14.4-35.7l-3.7-2.2,6.2-.6c7.1-.7,18.6-6.1,33.9-16,10.9-7.1,17.1-13.5,28.6-29.4,10.7-14.9,13.8-20.7,13.8-25.7,0-.9.7-2.1,1.5-2.8,1.1-.9,1.2-1.7.5-3-.6-1-1-3.2-1-4.8s-.7-3.5-1.5-4.2c-1-.8-1.5-3.1-1.5-7,0-8.4.6-8.7,18-9.3,16.1-.5,21.2-1.9,37.5-9.9,23.3-11.6,50.2-28.8,52.6-33.8,3.3-7,4-10.5,3.9-19.8-.1-3.5.3-4.4,2.2-5.1,1.3-.5,4.3-3.6,6.7-7,2.5-3.3,4.7-6.1,5-6.1s4.2,1.2,8.6,2.7c7.8,2.6,8.2,2.6,19.2,1.4,27.1-2.8,51.3-9.1,72.6-19,7.6-3.4,8.6-4.3,10.6-8.3,1.2-2.5,2.6-7.2,3.2-10.4,1.5-8.5,5.1-15,11.9-22.1,3.3-3.4,6-7.1,6-8.1,0-1.5,1.5-2.3,7.1-4l7.2-2,17.6,9.5c28,15.2,42.9,22.3,48.4,23.3,4.5.8,20.5,2,76,5.6l9.7.6,6.3,5c7.5,6,10.7,7.8,14.3,7.8,2.6,0,2.6.1,1.9,4.7-.8,5.4-1.8,7.5-6.8,15-3.6,5.3-15.6,40.3-19.3,55.9-2.1,9.3-1.5,24.7,1.4,32.7,4.8,13.2,17.4,27.6,28.5,32.7,8.6,3.9,27.5,8.5,31,7.6,3.9-1,2.7-2.1-5.1-4.6-20.1-6.6-28.7-13.4-36.2-28.5-4.7-9.5-5.5-17-2-20.5,3.3-3.3,6.9-1.1,10.7,6.4,2.9,5.7,3.4,5.3,4.8-3.9,1-7.1,1.8-8.1,8.8-11.6,20.8-10.5,35.2-27.6,39.3-46.9,1-4.7,1.7-12.6,1.7-21,0-15.2-1.3-20.2-7.8-29.5-1.9-2.8-4.8-7.9-6.5-11.5-3.3-6.9-4.1-7.7-8-8.6-1.4-.4-3.9-2-5.6-3.6-1.8-1.7-4.6-3.1-7-3.5-2.1-.3-4.7-1.3-5.8-2.2-3.3-2.9-9.6-14.5-9-16.7.8-3-2.5-6.4-7.1-7.1-2.4-.4-4.7-1.5-5.8-3-1.1-1.3-2.9-2.3-4.4-2.3s-3.3-1-4.5-2.6c-1.4-1.8-2.8-2.4-4.3-2.2-1.4.3-2.6-.2-3.3-1.2-.6-1-2.7-2-4.7-2.3s-4.3-1.2-5.2-1.8c-.8-.7-3.5-2-6.1-2.9-2.6-1-9.8-3.6-16.1-5.9-17.2-6.3-51.4-16-62.1-17.6-8.9-1.4-44.6-1.9-51-.8ZM593.2,630.5c11.9,6.1,30.3,10.7,51.9,13,3.1.3,6.5,1.2,7.5,2,1.8,1.3,1.8,1.4-.4,3.8-2.1,2.2-8.8,16.4-14.2,30.2-1.3,3.3-4.1,7.9-6.3,10.3-4.8,5.4-8.9,14.1-9.5,20.4q-.5,4.8-4.1,4.8c-3.2,0-9.4,1.5-14.2,3.5-1.4.5-1.9-.4-2.9-4.7-1.9-7.7-10.3-32.2-15.4-44.6-4.7-11.3-8.4-24.2-11.1-38.2-.9-4.7-1.9-9.3-2.1-10.3-.5-1.4.7-1,5.8,1.8,3.5,2,10.2,5.6,15,8ZM334.6,639.7c-1.4,7.8-1.4,8.3,1,15.7,4.8,15.3,5.8,25.4,5.6,58.1-.3,36.7-.3,37.2-4.5,38.1-1.8.3-4.3,1.2-5.7,1.9s-6.5,2-11.3,2.8c-6.5,1.1-10.4,2.5-14.7,5l-5.8,3.5-5.8-12.1c-3.1-6.6-7.6-14.8-9.9-18.1-2.3-3.4-6.3-10.2-8.8-15.1-2.6-5-8.7-14-13.5-20.2-4.8-6.1-10.8-14.7-13.4-19l-4.7-7.8,2.7-.6c4-.9,56-20.8,61.3-23.5,2.6-1.3,8.2-5,12.5-8.2,6.6-4.9,15.2-9.6,16.1-8.8.2.1-.4,3.9-1.1,8.3ZM640.2,768.1c5.9,4.8,14.6,11.3,19.2,14.3,4.7,3.1,11.1,8,14.4,11,4.4,4.2,7,5.8,10.8,6.6,2.7.7,5.5,1.4,6.2,1.6,2,.6-7.5,13.8-17.8,24.7-12.1,13-14,15.5-14,18.6,0,1.5-.9,3.6-1.9,4.5-1.9,1.7-2.3,1.7-10.3-.9-8.9-3-19.2-8.6-20.7-11.3-1.2-2.2-2.8-19.5-4.1-42.2l-1-17.5,3.2-9.7c1.9-5.7,3.6-9.4,4.2-9,.6.3,5.9,4.5,11.8,9.3ZM325.5,790.7c1,4.3,3.9,14.3,6.6,22.3,2.6,8,6,20.6,7.4,28s3.5,17.5,4.6,22.5c1.8,8.2,1.8,9.1.4,10-.9.5-6.9,5-13.3,9.8-6.4,4.9-14,9.9-16.7,11.1-3.2,1.5-6.6,4.1-9.3,7.4l-4.3,5.1-6.7-4.2c-10.3-6.3-14.2-9.6-14.2-12,0-1.2-1.6-3.8-3.6-5.9-2.1-2-5.3-6.2-7.3-9.2s-9.1-11.4-15.9-18.5l-12.3-12.9,5.3-3c2.9-1.6,8.8-4.8,13-7.1,9.1-4.9,19.7-12.4,32.7-23,5.1-4.2,10.2-8.2,11.2-9,1.7-1.2,2.5-.7,8.1,4.3,3.5,3.1,7.1,5.6,8.1,5.6,2,0,2.2-1.1.5-2.8-.9-.9-.3-1.2,2.8-1.2l3.9-.1-3.3-2.7c-1.8-1.5-3.2-3.4-3.2-4.3,0-.8-1.1-3.7-2.4-6.3l-2.3-4.6,4.1-3.5c2.2-1.9,4.2-3.5,4.3-3.5s.9,3.5,1.8,7.7ZM394.1,883.3c3.4,1.4,3.6,1.8,5.3,9.8,1,4.6,3.3,12.2,5.2,16.9,3.3,8.3,4.3,15,2.5,17.9-1.6,2.5-4.1-4.2-5-13.4-.5-4.7-1-8.7-1.2-8.8-10.5-6.8-13.2-11-15.4-24.1l-.6-3.8,2.8,2c1.5,1.1,4.4,2.6,6.4,3.5ZM649.2,890.4c8.5,3.8,22.9,7.9,26.9,7.8l3.6-.2-4.3,14.1c-2.4,7.7-5.9,16.9-7.8,20.4-3.9,6.8-4.2,8.5-2.5,11.3.9,1.4.1,5.1-3.7,17.5-2.6,8.6-4.9,15.6-5,15.4-.2-.1.1-3.2.6-6.7,1.3-9,1.2-17.4-.2-18.8-2.1-2.1-10.9-1.3-20.8,1.8-5.2,1.6-9.6,3-9.7,3-.2,0-.3-5.8-.3-12.8v-12.9l5-8.4c6.4-10.5,6.7-12,4.1-16.4-1.2-2-2.1-4.2-2.1-4.8,0-1,9.6-12.7,10.5-12.7.1,0,2.7,1.1,5.7,2.4ZM596,973c-.7.4-2,2.5-3,4.6l-1.8,3.9-.1-3.6c-.1-2.3.7-4.6,2.1-6.4,1.9-2.4,2.2-2.5,3.1-1,.6,1.2.6,2-.3,2.5ZM372.7,1032.6c1.9,1.4,7.2,7.7,11.8,13.9,4.7,6.2,10.2,12.8,12.2,14.6,4.3,3.9,20.1,12.3,25.1,13.4,1.8.4,3.2,1.3,3.2,2.1,0,3.8,3.1,7.3,7.3,8.4,11,3,21,6.6,21.4,7.8,1.4,3.5-1.7,3.2-10.3-1.1-4.9-2.4-12-5.4-15.9-6.7-3.8-1.2-10.1-4.1-14-6.4-3.8-2.2-11.4-5.9-17-8.2-8.1-3.3-10.3-4.7-11.4-7-2.1-4.4-3.9-6.2-9.9-9.6-5.1-2.9-15.3-11.1-16-12.9-.4-1.1,7.8-10.9,9.1-10.9.6,0,2.5,1.2,4.4,2.6Z"/>
  </g>
</svg>