<?xml version="1.0" encoding="UTF-8"?>
<svg version="1.1" xmlns="http://www.w3.org/2000/svg" width="217" height="253">
<path d="M0 0 C1.37478516 0.01740234 1.37478516 0.01740234 2.77734375 0.03515625 C3.69644531 0.04417969 4.61554687 0.05320313 5.5625 0.0625 C6.27277344 0.07410156 6.98304687 0.08570313 7.71484375 0.09765625 C8.20984375 1.58265625 8.20984375 1.58265625 8.71484375 3.09765625 C10.69484375 3.42765625 12.67484375 3.75765625 14.71484375 4.09765625 C14.71484375 4.75765625 14.71484375 5.41765625 14.71484375 6.09765625 C15.70484375 6.42765625 16.69484375 6.75765625 17.71484375 7.09765625 C20.43509423 9.98536839 21.09808703 12.01744705 21.19140625 15.94140625 C21.22234375 16.85792969 21.25328125 17.77445313 21.28515625 18.71875 C21.30320313 19.66878906 21.32125 20.61882813 21.33984375 21.59765625 C21.39101106 23.48317173 21.44557044 25.36859894 21.50390625 27.25390625 C21.52146973 28.08728516 21.5390332 28.92066406 21.55712891 29.77929688 C21.70839674 32.00288716 22.1016962 33.95994221 22.71484375 36.09765625 C25.68484375 36.59265625 25.68484375 36.59265625 28.71484375 37.09765625 C28.38484375 38.08765625 28.05484375 39.07765625 27.71484375 40.09765625 C22.59243784 39.12855243 19.72287703 38.41954247 16.33984375 34.34765625 C14.29896621 31.93297587 12.29368876 29.68629556 10.02734375 27.47265625 C7.46387705 24.83990667 5.66430386 22.20235199 3.71484375 19.09765625 C2.58000323 23.65517576 2.52345328 28.0565235 2.52734375 32.72265625 C2.52669922 33.52082764 2.52605469 34.31899902 2.52539062 35.14135742 C2.57325772 40.51824617 3.05906793 45.58212304 4.27734375 50.8359375 C4.71484375 53.09765625 4.71484375 53.09765625 4.65625 55.6484375 C4.72135443 58.36980266 5.29604381 59.64619158 6.65234375 61.97265625 C8.25032452 64.89954199 8.72265229 66.2089279 8.96484375 69.66015625 C10.10428794 74.8826088 13.65873667 76.88533787 17.71484375 80.09765625 C21.17798971 83.19080799 23.63870964 85.50553223 24.71484375 90.09765625 C25.31296875 90.67515625 25.91109375 91.25265625 26.52734375 91.84765625 C30.07410851 95.49575715 32.71484375 99.94619834 32.71484375 105.09765625 C34.4881314 106.49492942 34.4881314 106.49492942 36.71484375 107.66015625 C38.96484375 108.9140625 38.96484375 108.9140625 40.71484375 110.09765625 C40.71484375 110.75765625 40.71484375 111.41765625 40.71484375 112.09765625 C41.70484375 111.76765625 42.69484375 111.43765625 43.71484375 111.09765625 C44.04484375 110.43765625 44.37484375 109.77765625 44.71484375 109.09765625 C45.37484375 109.09765625 46.03484375 109.09765625 46.71484375 109.09765625 C46.71484375 108.10765625 46.71484375 107.11765625 46.71484375 106.09765625 C49.71484375 104.09765625 49.71484375 104.09765625 52.40234375 104.22265625 C62.36864126 106.85526314 69.59111043 112.65398207 75.12109375 121.2578125 C76.38885472 123.51678853 77.52285408 125.75233365 78.62109375 128.09375 C78.95761963 128.80354004 79.29414551 129.51333008 79.64086914 130.24462891 C80.30108615 131.65812756 80.94192444 133.08088711 81.56030273 134.51318359 C83.98920084 139.75278197 86.48728713 141.65058101 91.71484375 144.09765625 C91.20243268 138.06864938 90.64505875 132.07760982 89.71484375 126.09765625 C87.73484375 126.42765625 85.75484375 126.75765625 83.71484375 127.09765625 C81.2421272 123.38858143 81.69579794 122.31167448 82.46484375 118.03515625 C82.73554688 116.43994141 82.73554688 116.43994141 83.01171875 114.8125 C83.71484375 112.09765625 83.71484375 112.09765625 85.71484375 110.09765625 C88.08984375 110.09765625 88.08984375 110.09765625 90.71484375 111.09765625 C92.83984375 113.84765625 92.83984375 113.84765625 94.71484375 117.09765625 C95.25109375 117.90203125 95.78734375 118.70640625 96.33984375 119.53515625 C99.63339126 125.67313115 100.20649217 132.20845683 100.83984375 139.03515625 C100.92621094 139.90978516 101.01257813 140.78441406 101.1015625 141.68554688 C101.31174072 143.82235879 101.51409893 145.95993747 101.71484375 148.09765625 C102.69759963 145.14938862 102.848991 143.17113121 102.83984375 140.09765625 C102.84242187 139.23140625 102.845 138.36515625 102.84765625 137.47265625 C102.8107858 134.9475393 102.8107858 134.9475393 101.71484375 132.09765625 C102.37484375 132.09765625 103.03484375 132.09765625 103.71484375 132.09765625 C103.78832031 130.95876953 103.78832031 130.95876953 103.86328125 129.796875 C103.93804687 128.80300781 104.0128125 127.80914062 104.08984375 126.78515625 C104.15945312 125.79902344 104.2290625 124.81289062 104.30078125 123.796875 C104.71484375 121.09765625 104.71484375 121.09765625 106.71484375 118.09765625 C111.58984375 118.97265625 111.58984375 118.97265625 112.71484375 120.09765625 C112.87170624 121.65714167 112.96561014 123.22308293 113.03125 124.7890625 C113.0940918 126.20541992 113.0940918 126.20541992 113.15820312 127.65039062 C113.19751953 128.64361328 113.23683594 129.63683594 113.27734375 130.66015625 C113.32052734 131.65724609 113.36371094 132.65433594 113.40820312 133.68164062 C113.51464673 136.15349775 113.61666303 138.62545935 113.71484375 141.09765625 C114.70484375 139.11765625 115.69484375 137.13765625 116.71484375 135.09765625 C117.37484375 135.09765625 118.03484375 135.09765625 118.71484375 135.09765625 C118.79734375 134.52015625 118.87984375 133.94265625 118.96484375 133.34765625 C119.98332711 130.29220616 121.11830411 129.01089598 123.71484375 127.09765625 C127.46484375 126.84765625 127.46484375 126.84765625 130.71484375 127.09765625 C133.14909613 132.06758819 134.06100373 135.44370994 133.71484375 141.09765625 C134.70484375 141.42765625 135.69484375 141.75765625 136.71484375 142.09765625 C136.38484375 143.08765625 136.05484375 144.07765625 135.71484375 145.09765625 C133.40234375 145.72265625 133.40234375 145.72265625 130.71484375 146.09765625 C127.71484375 144.09765625 127.71484375 144.09765625 127.02734375 141.47265625 C126.92421875 140.68890625 126.82109375 139.90515625 126.71484375 139.09765625 C124.3370208 139.99336135 124.3370208 139.99336135 123.64453125 143.2578125 C123.28492438 144.55639286 122.93370159 145.8573171 122.58984375 147.16015625 C122.40808594 147.82337891 122.22632813 148.48660156 122.0390625 149.16992188 C121.59053971 150.81057104 121.15176989 152.45388074 120.71484375 154.09765625 C121.25109375 153.49953125 121.78734375 152.90140625 122.33984375 152.28515625 C127.50544742 147.52736339 132.26699611 146.54433054 139.02734375 146.59765625 C139.78281494 146.59757568 140.53828613 146.59749512 141.31665039 146.59741211 C146.78850158 146.73953046 150.15749973 147.95090243 154.69921875 151.0625 C157.87161337 152.69173367 160.46361731 151.88430109 163.875 151.296875 C169.59921718 150.89531368 175.20085874 152.69135172 180.71484375 154.09765625 C180.71484375 154.75765625 180.71484375 155.41765625 180.71484375 156.09765625 C181.70484375 156.09765625 182.69484375 156.09765625 183.71484375 156.09765625 C186.86233861 159.25303956 187.6705647 162.86769908 188.77734375 167.09765625 C189.90646211 171.71961679 189.90646211 171.71961679 191.81640625 176.03125 C193.23894978 179.30310012 193.04312176 182.65428299 193.02734375 186.16015625 C193.04345703 186.88009766 193.05957031 187.60003906 193.07617188 188.34179688 C193.08100674 193.54894866 193.08100674 193.54894866 191.3828125 196.09375 C189.71484375 197.09765625 189.71484375 197.09765625 186.71484375 197.09765625 C186.38484375 196.10765625 186.05484375 195.11765625 185.71484375 194.09765625 C184.72484375 194.09765625 183.73484375 194.09765625 182.71484375 194.09765625 C179.88491239 189.85275921 179.18377867 185.27747076 178.0078125 180.34765625 C176.46958484 176.48117465 175.45578569 175.75733235 171.71484375 174.09765625 C168.71645769 172.8257345 165.69020009 171.65063198 162.65234375 170.4765625 C159.71484375 169.09765625 159.71484375 169.09765625 157.39453125 167.1015625 C153.75631507 164.38085565 150.21636645 163.50031265 145.83984375 162.47265625 C145.06253906 162.24964844 144.28523437 162.02664062 143.484375 161.796875 C138.94838943 160.70507175 138.94838943 160.70507175 134.734375 162.30419922 C132.90205771 163.88315893 132.90205771 163.88315893 131.34033203 165.60253906 C127.90909828 168.75857323 123.24008636 169.09765625 118.71484375 169.09765625 C118.34359375 170.05671875 118.34359375 170.05671875 117.96484375 171.03515625 C116.71484375 173.09765625 116.71484375 173.09765625 114.58984375 173.84765625 C113.97109375 173.93015625 113.35234375 174.01265625 112.71484375 174.09765625 C112.92109375 175.00515625 113.12734375 175.91265625 113.33984375 176.84765625 C113.72756825 180.20793522 113.51896342 181.3384144 111.71484375 184.09765625 C110.91046875 183.76765625 110.10609375 183.43765625 109.27734375 183.09765625 C107.0180325 182.03706584 107.0180325 182.03706584 105.71484375 182.09765625 C105.90046875 182.90203125 106.08609375 183.70640625 106.27734375 184.53515625 C106.42171875 185.38078125 106.56609375 186.22640625 106.71484375 187.09765625 C105.17408188 188.63841812 103.73039525 188.34122324 101.58984375 188.41015625 C96.58129572 188.38611522 93.80840022 186.88475853 89.71484375 184.09765625 C89.29525391 184.83822266 89.29525391 184.83822266 88.8671875 185.59375 C86.43538096 189.47994887 85.54317265 190.89396882 80.90234375 192.03515625 C79.32453125 192.06609375 79.32453125 192.06609375 77.71484375 192.09765625 C77.39966797 193.23267578 77.39966797 193.23267578 77.078125 194.390625 C75.28762295 197.9459772 73.4614109 198.71180978 69.90234375 200.41015625 C68.86464844 200.92191406 67.82695313 201.43367187 66.7578125 201.9609375 C63.80290914 203.06475891 61.82861962 203.34514675 58.71484375 203.09765625 C59.04484375 205.07765625 59.37484375 207.05765625 59.71484375 209.09765625 C60.35421875 208.93265625 60.99359375 208.76765625 61.65234375 208.59765625 C71.2062553 207.03783396 80.24430849 208.31940559 88.71484375 213.09765625 C88.71484375 213.75765625 88.71484375 214.41765625 88.71484375 215.09765625 C89.70484375 215.09765625 90.69484375 215.09765625 91.71484375 215.09765625 C92.35421875 215.79890625 92.99359375 216.50015625 93.65234375 217.22265625 C98.503851 222.38289578 106.12090931 225.79415631 113.02734375 227.03515625 C117.83790536 228.42125027 120.81558918 231.02963969 123.71484375 235.09765625 C123.71484375 236.08765625 123.71484375 237.07765625 123.71484375 238.09765625 C122.64105469 238.01386719 121.56726563 237.93007812 120.4609375 237.84375 C119.02476753 237.74049595 117.58856794 237.63765331 116.15234375 237.53515625 C115.44787109 237.47908203 114.74339844 237.42300781 114.01757812 237.36523438 C109.4050876 237.04639862 105.30557056 237.41307418 100.71484375 238.09765625 C97.56766591 238.21641118 94.42617089 238.19314155 91.27734375 238.16015625 C90.45041016 238.15564453 89.62347656 238.15113281 88.77148438 238.14648438 C86.75257229 238.13481436 84.73369801 238.11688343 82.71484375 238.09765625 C83.46634398 241.37539129 83.46634398 241.37539129 86.71484375 243.09765625 C93.37856311 245.13834157 100.24322496 245.27820892 107.15234375 245.28515625 C107.93359619 245.28596191 108.71484863 245.28676758 109.51977539 245.28759766 C113.07943819 245.25289181 116.2901179 245.05360437 119.71484375 244.09765625 C119.48828125 245.9609375 119.48828125 245.9609375 118.71484375 248.09765625 C116.75390625 249.328125 116.75390625 249.328125 114.33984375 250.28515625 C113.15261719 250.77048828 113.15261719 250.77048828 111.94140625 251.265625 C101.68259058 255.09918243 87.00132527 254.84204688 76.9921875 250.3671875 C73.82033871 248.59900421 70.79491142 246.71077277 67.84375 244.59375 C65.77888675 243.14266261 63.66931166 241.94644498 61.46484375 240.72265625 C57.18551801 238.04060379 54.60012587 234.78583567 52.71484375 230.09765625 C52.33830589 227.69242461 52.1526772 225.41405442 52.1484375 222.98046875 C52.00535156 222.35914063 51.86226563 221.7378125 51.71484375 221.09765625 C50.39207972 220.41025714 49.05747435 219.74539486 47.71484375 219.09765625 C44.2206429 213.58674071 42.89124663 207.17345107 43.12890625 200.7109375 C44.62312272 194.04673204 50.60861912 190.11031982 55.71484375 186.09765625 C48.99216628 182.18875397 48.99216628 182.18875397 41.640625 181.5859375 C39.94343772 182.63873186 39.94343772 182.63873186 38.3671875 183.8984375 C34.44311422 186.74640558 29.43384139 187.09765625 24.71484375 187.09765625 C24.69421875 188.02578125 24.67359375 188.95390625 24.65234375 189.91015625 C23.37889445 198.97194765 15.81305669 206.97945075 8.83984375 212.28515625 C5.41373903 214.27229699 2.54438837 215.17856554 -1.28515625 216.09765625 C-1.16015625 213.28515625 -1.16015625 213.28515625 -0.28515625 210.09765625 C1.12636719 209.46150391 1.12636719 209.46150391 2.56640625 208.8125 C6.59551862 206.61798346 7.2702581 204.67187674 8.96484375 200.47265625 C11.54817708 194.18098958 11.54817708 194.18098958 13.71484375 193.09765625 C14.8065095 190.55190939 15.70029573 187.9609834 16.6171875 185.34765625 C16.97941406 184.60515625 17.34164062 183.86265625 17.71484375 183.09765625 C18.70484375 182.76765625 19.69484375 182.43765625 20.71484375 182.09765625 C20.85792969 181.47375 21.00101563 180.84984375 21.1484375 180.20703125 C21.71484375 178.09765625 21.71484375 178.09765625 23.5625 176.61328125 C24.29339844 176.195625 25.02429687 175.77796875 25.77734375 175.34765625 C26.51082031 174.9196875 27.24429688 174.49171875 28 174.05078125 C28.56589844 173.73625 29.13179687 173.42171875 29.71484375 173.09765625 C29.05484375 172.76765625 28.39484375 172.43765625 27.71484375 172.09765625 C26.72484375 172.42765625 25.73484375 172.75765625 24.71484375 173.09765625 C22.73587262 173.14775678 20.75665261 173.18840369 18.77734375 173.22265625 C15.57393974 173.39601253 15.57393974 173.39601253 12.71484375 174.09765625 C10.43924585 176.83895233 10.43924585 176.83895233 9.6328125 179.046875 C8.5040526 181.56857265 7.01321954 183.38020644 5.21484375 185.47265625 C4.64765625 186.14039063 4.08046875 186.808125 3.49609375 187.49609375 C0.18741311 190.47100398 -3.24573832 190.21659596 -7.53515625 190.16015625 C-8.4271875 190.15113281 -9.31921875 190.14210937 -10.23828125 190.1328125 C-11.25148438 190.11541016 -11.25148438 190.11541016 -12.28515625 190.09765625 C-11.41015625 186.22265625 -11.41015625 186.22265625 -10.28515625 185.09765625 C-7.95218192 185.05672688 -5.618104 185.05523902 -3.28515625 185.09765625 C-3.16140625 184.52015625 -3.03765625 183.94265625 -2.91015625 183.34765625 C-2.27866801 181.07429858 -1.39657434 179.17230335 -0.28515625 177.09765625 C0.37484375 177.09765625 1.03484375 177.09765625 1.71484375 177.09765625 C1.98941406 176.36933594 2.26398437 175.64101562 2.546875 174.890625 C4.51683311 170.1798556 6.97250307 164.5375225 11.6640625 162.07421875 C13.58984375 161.53515625 13.58984375 161.53515625 16.71484375 161.09765625 C14.86091167 159.24372417 11.83921509 159.45076832 9.33984375 159.09765625 C5.97538357 158.62021623 2.93990078 158.17267526 -0.28515625 157.09765625 C-0.40503906 157.68675781 -0.52492188 158.27585938 -0.6484375 158.8828125 C-2.38071933 164.90860266 -7.23296074 169.66216331 -12.28515625 173.09765625 C-16.61059229 174.16004405 -19.99010356 174.26903426 -24.28515625 173.09765625 C-23.66015625 171.22265625 -23.66015625 171.22265625 -22.28515625 169.09765625 C-21.33640625 168.85015625 -20.38765625 168.60265625 -19.41015625 168.34765625 C-15.29437622 166.70134424 -14.66612917 164.69971633 -12.94921875 160.77734375 C-12.73007813 160.22304687 -12.5109375 159.66875 -12.28515625 159.09765625 C-11.29515625 159.09765625 -10.30515625 159.09765625 -9.28515625 159.09765625 C-9.18203125 158.54078125 -9.07890625 157.98390625 -8.97265625 157.41015625 C-8.14337217 154.62074615 -6.94216569 152.48374985 -5.28515625 150.09765625 C-4.62515625 150.09765625 -3.96515625 150.09765625 -3.28515625 150.09765625 C-2.95515625 149.10765625 -2.62515625 148.11765625 -2.28515625 147.09765625 C2.33484375 147.09765625 6.95484375 147.09765625 11.71484375 147.09765625 C11.71484375 146.10765625 11.71484375 145.11765625 11.71484375 144.09765625 C10.72484375 143.76765625 9.73484375 143.43765625 8.71484375 143.09765625 C8.02734375 141.03515625 8.02734375 141.03515625 7.71484375 139.09765625 C6.62171875 138.80890625 5.52859375 138.52015625 4.40234375 138.22265625 C0.71484375 137.09765625 0.71484375 137.09765625 -2.28515625 135.09765625 C-2.51203125 135.65453125 -2.73890625 136.21140625 -2.97265625 136.78515625 C-4.722279 139.8678249 -6.50598054 141.8869483 -9.28515625 144.09765625 C-13.23836549 144.01859207 -14.9816124 143.30001882 -18.28515625 141.09765625 C-18.28515625 140.43765625 -18.28515625 139.77765625 -18.28515625 139.09765625 C-16.30515625 138.76765625 -14.32515625 138.43765625 -12.28515625 138.09765625 C-12.28515625 137.10765625 -12.28515625 136.11765625 -12.28515625 135.09765625 C-11.62515625 135.09765625 -10.96515625 135.09765625 -10.28515625 135.09765625 C-10.05828125 134.37578125 -9.83140625 133.65390625 -9.59765625 132.91015625 C-7.74380471 128.93761725 -5.24263841 126.07639733 -1.28515625 124.09765625 C1.64658053 124.09765625 3.35671119 125.46006419 5.71484375 127.09765625 C5.38484375 126.54078125 5.05484375 125.98390625 4.71484375 125.41015625 C3.58388365 122.79481103 3.55821401 120.91699165 3.71484375 118.09765625 C3.10769531 117.83082031 2.50054688 117.56398438 1.875 117.2890625 C-1.94781727 115.18063706 -3.64062543 111.98571919 -5.28515625 108.09765625 C-7.87890385 98.62567426 -8.91446964 90.41272792 -6.53515625 80.734375 C-6.21325057 77.33927602 -7.24905674 76.72118789 -9.28515625 74.09765625 C-9.7265625 70.93359375 -9.7265625 70.93359375 -9.84765625 67.47265625 C-9.76418816 62.74367214 -9.76418816 62.74367214 -12.28515625 59.09765625 C-12.6017753 56.34068096 -12.80143152 53.67665991 -12.91015625 50.91015625 C-12.94737793 50.10513672 -12.98459961 49.30011719 -13.02294922 48.47070312 C-14.49685327 13.99357432 -14.49685327 13.99357432 -6.9453125 4.39453125 C-5.59765625 3.03515625 -5.59765625 3.03515625 -3.28515625 1.09765625 C-2.28515625 0.09765625 -2.28515625 0.09765625 0 0 Z M49.71484375 115.09765625 C49.71484375 116.08765625 49.71484375 117.07765625 49.71484375 118.09765625 C51.34419616 119.47633906 53.01233982 120.81039718 54.71484375 122.09765625 C55.04484375 122.75765625 55.37484375 123.41765625 55.71484375 124.09765625 C56.37484375 124.09765625 57.03484375 124.09765625 57.71484375 124.09765625 C57.71484375 124.75765625 57.71484375 125.41765625 57.71484375 126.09765625 C58.80796875 126.40703125 59.90109375 126.71640625 61.02734375 127.03515625 C63.26892369 127.68103522 65.50177885 128.35996795 67.71484375 129.09765625 C65.95841255 123.82836265 63.57608563 118.55302842 58.45703125 115.94921875 C54.0583127 114.16842819 54.0583127 114.16842819 49.71484375 115.09765625 Z M67.71484375 129.09765625 C68.04484375 130.08765625 68.37484375 131.07765625 68.71484375 132.09765625 C68.71484375 131.10765625 68.71484375 130.11765625 68.71484375 129.09765625 C68.38484375 129.09765625 68.05484375 129.09765625 67.71484375 129.09765625 Z M111.71484375 144.09765625 C111.38484375 146.07765625 111.05484375 148.05765625 110.71484375 150.09765625 C111.37484375 149.76765625 112.03484375 149.43765625 112.71484375 149.09765625 C112.71484375 147.44765625 112.71484375 145.79765625 112.71484375 144.09765625 C112.38484375 144.09765625 112.05484375 144.09765625 111.71484375 144.09765625 Z M23.71484375 145.09765625 C24.37484375 145.75765625 25.03484375 146.41765625 25.71484375 147.09765625 C25.71484375 146.43765625 25.71484375 145.77765625 25.71484375 145.09765625 C25.05484375 145.09765625 24.39484375 145.09765625 23.71484375 145.09765625 Z M25.71484375 147.09765625 C26.71484375 149.09765625 26.71484375 149.09765625 26.71484375 149.09765625 Z M109.71484375 150.09765625 C110.71484375 153.09765625 110.71484375 153.09765625 110.71484375 153.09765625 Z M29.71484375 153.09765625 C31.93174213 157.531453 34.49212594 159.56402557 38.71484375 162.09765625 C37.36849918 157.69143765 35.52110001 155.66687923 31.71484375 153.09765625 C31.05484375 153.09765625 30.39484375 153.09765625 29.71484375 153.09765625 Z M108.71484375 154.09765625 C109.71484375 156.09765625 109.71484375 156.09765625 109.71484375 156.09765625 Z M106.71484375 156.09765625 C107.04484375 156.75765625 107.37484375 157.41765625 107.71484375 158.09765625 C108.04484375 157.43765625 108.37484375 156.77765625 108.71484375 156.09765625 C108.05484375 156.09765625 107.39484375 156.09765625 106.71484375 156.09765625 Z " fill="#484848" transform="translate(24.28515625,-0.09765625)"/>
</svg>
