<?xml version="1.0" encoding="utf-8"?>
<!-- Generator: Adobe Illustrator 30.1.0, SVG Export Plug-In . SVG Version: 9.03 Build 0)  -->
<svg version="1.0" id="Ebene_1" xmlns="http://www.w3.org/2000/svg" xmlns:xlink="http://www.w3.org/1999/xlink" x="0px" y="0px"
	 viewBox="0 0 1513 1536" style="enable-background:new 0 0 1513 1536;" xml:space="preserve">
<style type="text/css">
	.st0{opacity:0.7;}
</style>
<g transform="translate(0.000000,1536.000000) scale(0.100000,-0.100000)" class="st0">
	<path d="M3227,15349c-100-24-208-113-251-208c-42-94-59-235-53-446c7-255,44-402,157-630c91-183,249-382,363-458
		c53-36,141-67,186-67c26,0,26-1,27-78c2-112,26-165,135-297c391-472,750-1053,980-1585c43-100,64-135,104-176c27-28,58-56,69-61
		c18-10,18-13-10-69s-29-67-32-214c-6-251,25-913,58-1260c26-263,77-475,151-622c34-68,126-214,166-263c61-75,207-213,296-281
		c54-41,92-74,85-74c-39,1-149,35-201,63c-91,48-151,109-277,283c-245,338-420,525-675,724c-164,127-380,260-481,294
		c-60,20-156,21-220,1l-49-15l-20,27c-108,145-164,167-579,228c-319,46-513,59-896,59c-400,0-462-6-555-58l-59-32l-60,30
		c-89,44-192,48-301,11c-116-39-288-46-405-16c-93,23-186,64-252,109c-70,48-122,70-191,83c-162,30-332-61-405-219
		c-23-48-27-70-26-147c0-196,84-296,372-440c125-63,245-105,392-136c139-30,408-32,545-5c122,24,265,71,310,102l38,26l36-20
		c79-43,97-45,550-47c480-2,557-8,941-71c222-36,277-38,348-8c32,13,33,13,56-24c38-58,83-95,206-167c158-93,324-219,445-339
		c111-110,174-187,325-395c188-260,309-378,504-489c202-116,471-180,720-170l104,3l14-67c13-62,13-68-1-64c-9,3-47,14-86,25
		c-389,111-833,145-1250,96c-329-39-725-147-848-232c-45-31-101-101-119-151c-10-26-17-32-33-27c-177,51-200,48-450-54
		c-379-156-801-349-866-397c-51-37-111-119-128-175l-11-36l-55,10c-65,12-154-1-218-32c-55-26-662-516-710-572c-67-78-98-201-77-305
		c24-116,104-220,210-272c49-24,66-27,160-27c129,0,160,13,305,130c55,44,201,162,325,262s235,194,246,210c28,37,64,109,64,125
		c0,10,26,13,107,13h108l115,53c213,99,574,259,705,312c234,95,280,127,336,234l33,63l54-19c92-32,169-26,330,26
		c500,161,1019,169,1506,24c121-36,256-87,255-96c0-4-46-36-101-72c-442-286-843-739-1084-1225c-79-160-90-220-55-333
		c11-38,21-72,21-75s-16-11-35-17c-48-16-130-79-166-128c-29-40-205-458-605-1440c-177-433-206-512-211-570c-6-70,13-163,42-208
		c13-20,11-22-28-34c-59-17-132-65-171-114c-112-137-423-774-591-1211c-114-296-287-842-316-999c-25-139,45-296,169-374
		c148-94,333-77,462,44c62,58,90,116,130,264c162,603,414,1227,711,1758c102,181,120,279,74,402c-28,77-29,80-10,80
		c29,0,118,49,159,88c57,55,75,89,155,287c140,345,340,833,522,1270l183,440v90c1,64-4,102-16,133c-10,23-18,45-18,47
		c0,3,24,16,53,29c91,41,134,89,221,247c152,276,265,429,455,619c195,194,393,336,652,465c74,37,146,76,161,87l28,19l97-65
		c54-35,115-72,136-82c20-10,37-21,37-24c0-4-28-29-62-56c-206-160-617-646-818-965c-85-136-226-417-273-547
		c-119-326-165-606-154-937c9-254,46-473,123-717c231-731,693-1318,1246-1583c614-294,1282-185,1845,299c603,519,992,1436,924,2176
		c-49,535-253,972-746,1600c-251,320-345,428-499,577l-135,132l85,45l85,46l62-31c374-187,754-544,968-909c31-52,80-139,110-194
		c60-110,113-165,197-202c28-13,52-26,52-29c0-2-8-24-17-47c-13-31-18-69-17-133v-90l228-550c126-302,298-721,383-930
		c179-440,181-446,236-503c42-43,141-102,173-102c18,0,17-3-11-80c-46-123-28-221,73-401c298-533,550-1156,712-1759
		c40-148,68-206,130-264c176-165,456-129,578,74c77,129,76,201-11,500c-112,384-231,720-376,1060c-126,298-394,816-467,906
		c-39,49-112,97-171,114c-39,12-41,14-28,34c7,11,21,48,31,80c33,116,24,148-155,588c-419,1032-622,1513-656,1557
		c-40,51-112,105-161,121c-19,7-34,14-34,17s10,37,21,75c35,113,24,173-55,333c-240,484-625,921-1068,1213c-64,42-117,80-117,84
		c-1,9,134,60,255,96c487,145,1006,137,1506-24c162-53,238-58,332-25l56,20l27-56c16-32,50-76,84-107c50-47,80-62,280-145
		c123-52,345-149,494-218c148-68,289-129,313-135s78-8,123-5c65,4,79,2,79-9c0-25,46-107,82-146c53-58,642-526,700-556
		c48-24,63-27,158-27c94,0,111,3,160,27c151,74,243,249,211,405c-16,80-52,150-103,200c-75,73-641,523-685,544c-64,31-153,44-217,32
		l-55-9l-15,43c-21,60-79,137-131,173c-102,71-970,450-1080,472c-63,12-164,0-216-28c-28-14-28-14-47,28c-28,63-73,119-119,151
		c-123,85-508,190-853,233c-187,24-567,23-750,0c-74-10-154-20-176-23c-40-5-41-4-37,19c4,21,13,26,72,36c310,53,611,243,812,512
		c31,41,109,147,175,235c197,266,384,436,667,607c141,85,185,121,223,180c23,37,24,37,56,24c71-30,126-28,348,8
		c384,63,461,69,941,71c453,2,471,4,550,47l36,20l38-26c21-14,79-39,129-55c399-128,824-78,1211,142c209,119,279,216,280,392
		c0,82-3,96-33,157c-65,133-187,211-332,212c-94,0-138-13-220-64c-104-65-199-108-289-131c-118-30-290-23-406,16
		c-110,37-212,33-302-12l-62-31l-33,23c-61,42-126,56-298,67c-319,20-806-4-1176-58c-414-59-471-82-579-227l-20-27l-49,15
		c-65,20-160,19-222-2c-95-32-365-201-525-329c-98-78-211-184-322-303c-92-99-146-167-350-443c-102-137-155-186-251-233
		c-135-65-179-43-73,37c59,45,219,200,270,263c40,49,132,195,166,263c74,147,125,359,151,622c33,348,65,1027,58,1270
		c-3,135-5,149-32,204c-28,56-28,59-10,69c11,5,42,33,69,61c40,41,61,76,104,176c230,532,589,1113,980,1585c109,132,133,185,135,297
		c1,77,1,78,27,78c45,0,133,31,186,67c62,41,155,138,234,246c212,285,320,663,289,1012c-19,213-50,303-137,387
		c-168,164-446,133-573-64c-52-80-65-139-54-252c5-50,8-145,8-211c-1-102-5-132-27-200c-39-118-98-215-188-311
		c-102-108-131-168-139-284l-5-85l-53-6c-69-9-147-48-201-101c-92-91-349-422-503-648c-254-372-499-811-668-1200l-55-125v-105
		c0-103,7-132,52-211c2-3-16-19-40-37c-56-40-112-122-131-192c-11-40-18-155-26-420c-17-574-51-1024-90-1174c-11-43-34-104-51-136
		c-36-67-127-182-165-207c-25-16-26-16-52,18c-15,18-57,70-94,114l-66,79l58,62c199,213,290,442,290,728c0,172-33,311-110,467
		c-78,159-162,259-254,304l-52,26l23,67c16,47,23,91,23,147c2,342,105,669,309,978c96,145,106,172,106,282c0,77-4,98-27,147
		c-37,80-107,152-187,191c-59,29-74,32-156,32c-77,0-98-4-148-27c-95-44-133-82-229-227c-155-234-277-505-343-766
		c-54-210-69-326-70-540c0-185,1-191,27-247c35-76,96-140,166-174c31-16,59-30,60-31c2-1-6-28-18-60c-26-68-31-185-11-248
		c7-22,35-75,63-117c77-118,93-194,63-294c-13-43-71-131-81-121c-2,2-15,80-28,174c-28,198-56,285-120,381c-144,218-322,309-502,258
		c-70-20-152-72-190-119l-27-35l-31,42c-58,76-203,126-320,112c-109-14-226-92-320-215c-89-116-117-196-151-430
		c-37-248-29-236-98-162c-113,123-116,244-9,409c28,42,56,95,63,117c20,63,15,180-11,248c-12,32-20,59-18,60c1,1,29,15,60,31
		c70,34,131,98,166,174c26,56,27,61,26,252c-1,214-18,344-73,556c-65,245-189,519-339,745c-101,151-127,178-222,223
		c-58,28-75,31-155,31c-76,0-99-5-147-27c-80-37-151-107-191-187c-29-59-32-74-32-156c0-110,10-136,106-282c204-309,308-640,309-980
		c0-55,7-98,24-146l23-68l-51-24c-92-43-177-144-256-304c-47-94-73-171-95-279c-24-115-17-344,13-455c71-262,269-524,445-589
		c31-11,57-23,57-25c0-3-20-30-43-61c-24-31-66-90-92-129c-26-40-50-73-52-73s-39,23-81,52c-213,142-311,276-351,474
		c-36,183-65,585-81,1134c-8,265-15,380-26,420c-19,70-75,152-131,192c-24,18-42,34-40,37c45,79,52,108,52,211v105l-55,125
		c-264,603-658,1240-1079,1744c-124,149-186,191-295,205l-51,6l-5,85c-8,117-36,175-143,289c-93,100-150,196-188,321
		c-26,84-31,215-15,391c11,119-1,176-54,259C3545,15320,3381,15385,3227,15349z"/>
</g>
</svg>
