<?xml version="1.0" encoding="UTF-8"?>
<svg version="1.1" xmlns="http://www.w3.org/2000/svg" width="229" height="205">
<path d="M0 0 C2.15625 -0.328125 2.15625 -0.328125 5 0 C7.04442083 1.70368403 8.72856214 3.29992975 10.5 5.25 C13.08540546 8.00921423 15.59850769 10.68692078 18.58984375 13.01953125 C21.29732008 15.24431326 23.06051398 17.56785403 25.0625 20.4375 C27.60530614 24.05785171 30.22347856 27.55570758 33 31 C37.63671816 37.86234288 39.45263702 44.95826767 40.25 53.0625 C40.38535156 54.2081543 40.38535156 54.2081543 40.5234375 55.37695312 C41.42257547 63.85350385 40.55916629 73.09293162 35.421875 80.17578125 C33.67739106 82.1895225 31.87102792 84.10391367 30 86 C29.21625 86.86625 28.4325 87.7325 27.625 88.625 C22.3348772 93.41130158 16.39139522 96.88224624 10 100 C9.34 100.66 8.68 101.32 8 102 C8.66 102.66 9.32 103.32 10 104 C13.71780365 103.64562741 16.38927999 102.33845707 19.625 100.5625 C25.04014673 97.94702097 29.79773185 97.58276168 35.6875 97.25 C42.13218666 96.85196573 42.13218666 96.85196573 47.82421875 94.05859375 C49.77913877 91.79833384 51.40315986 89.5217858 53 87 C55.15666029 84.53692896 57.21100707 82.38322514 60.1875 80.9375 C62.53801104 79.72171843 62.87248269 78.33020244 64 76 C64.99 75.67 65.98 75.34 67 75 C67.28875 74.2575 67.5775 73.515 67.875 72.75 C69.52202662 68.72393492 72.14994781 65.79287951 76.1875 64.0625 C78.99082821 62.41916967 79.08044067 60.04604027 80 57 C80.98150361 55.25862263 81.96431905 53.51753572 82.98828125 51.80078125 C84.00671328 49.98805087 84.82886218 48.16962164 85.625 46.25 C87 43 87 43 89 40 C89.52404358 38.11014782 89.52404358 38.11014782 89.81640625 36.05859375 C90.00299805 34.93614258 90.00299805 34.93614258 90.19335938 33.79101562 C90.31517578 33.01435547 90.43699219 32.23769531 90.5625 31.4375 C91.88367844 23.23264312 91.88367844 23.23264312 93 21 C93.99 21 94.98 21 96 21 C96.57161981 34.31662438 93.88489348 43.91837982 87.73828125 55.59375 C86.23962845 58.53043593 85.01536184 61.43653165 83.8125 64.5 C80.71403759 71.42836514 75.59380715 76.65845405 70.55664062 82.22705078 C69.0610295 83.93048993 67.65500306 85.67421412 66.265625 87.46484375 C59.87477855 95.63059773 53.06511717 100.98433038 44 106 C43.08734375 106.50917969 42.1746875 107.01835938 41.234375 107.54296875 C36.79360146 109.54346215 32.24172133 110.85947993 27.5625 112.1875 C26.64662109 112.46013672 25.73074219 112.73277344 24.78710938 113.01367188 C19.6843065 114.47527873 15.30717591 115.3285047 10 115 C10 116.32 10 117.64 10 119 C10.721875 119.226875 11.44375 119.45375 12.1875 119.6875 C16.44012375 121.67205775 19.04322423 124.7561915 21.875 128.4375 C25.46884825 132.77125819 28.65312914 136.5129136 34.3125 137.6875 C38.56670751 136.89434267 41.66754893 135.27728009 45.44921875 133.234375 C48.57461475 131.72193222 51.54460037 131.08730948 54.9375 130.45703125 C57.41295018 129.90849399 59.55490467 128.85791008 61.84375 127.7890625 C66.01960216 126.26094269 70.43553762 125.5817008 74.79296875 124.74609375 C77.5533137 124.10391849 79.51132221 123.26382519 82 122 C84.75 122.375 84.75 122.375 87 123 C86 126 86 126 84.07421875 127.16796875 C83.28660156 127.50441406 82.49898437 127.84085937 81.6875 128.1875 C80.51767578 128.70376953 80.51767578 128.70376953 79.32421875 129.23046875 C77 130 77 130 73 130 C73 130.66 73 131.32 73 132 C72.10539063 132.29132813 71.21078125 132.58265625 70.2890625 132.8828125 C63.35311101 135.23423316 57.37060437 137.77034284 51.15625 141.71484375 C48.17998472 143.48874099 45.38448947 144.2874759 42 145 C41.13246094 145.22945312 40.26492187 145.45890625 39.37109375 145.6953125 C31.17195999 147.63633192 31.17195999 147.63633192 26.8125 145.125 C25.884375 144.42375 24.95625 143.7225 24 143 C24.47953125 143.63550781 24.9590625 144.27101562 25.453125 144.92578125 C27.52532189 149.04401092 27.60584489 152.63371124 27.75 157.1875 C27.80075684 158.46016724 27.80075684 158.46016724 27.85253906 159.75854492 C28.38625472 175.75314437 28.38625472 175.75314437 24 183 C23.34 183 22.68 183 22 183 C21.9175 183.7425 21.835 184.485 21.75 185.25 C21 188 21 188 19.1875 189.6875 C16.33018799 192.70808698 15.32134902 195.88186266 13.9296875 199.7578125 C13 202 13 202 11 204 C10.01 204 9.02 204 8 204 C8.61343093 199.73154313 9.60626418 195.82872687 11 191.75 C11.350625 190.71359375 11.70125 189.6771875 12.0625 188.609375 C13 186 13 186 14 184 C14.66 184 15.32 184 16 184 C16.12375 183.05125 16.2475 182.1025 16.375 181.125 C17 178 17 178 19 176 C19.57298783 172.78392625 19.60682422 169.51071292 19.75 166.25 C19.80542969 165.35539063 19.86085937 164.46078125 19.91796875 163.5390625 C20.15790468 158.60946972 20.15350595 154.57251263 18 150 C17.34 149.67 16.68 149.34 16 149 C16.06960937 150.23234375 16.13921875 151.4646875 16.2109375 152.734375 C16.68582107 164.67534054 15.7167211 173.03044315 7.87890625 182.5859375 C0.8176327 190.14896532 -6.62877471 194.01807545 -17 194.4375 C-25.88927892 194.3180472 -32.24187447 191.3178002 -38.8671875 185.46875 C-47.6151957 176.4418198 -49.77166319 168.38288058 -50 156 C-49.5625 152.25 -49.5625 152.25 -49 150 C-52.09067664 151.60020461 -52.09067664 151.60020461 -52.546875 153.8203125 C-53.03541123 159.36331968 -53.01489813 164.82349203 -52.75 170.375 C-52.72389648 171.06480957 -52.69779297 171.75461914 -52.67089844 172.46533203 C-52.41406919 176.59785611 -51.73209622 178.90068655 -49 182 C-49 182.66 -49 183.32 -49 184 C-48.34 184 -47.68 184 -47 184 C-46.65066406 184.84304687 -46.30132812 185.68609375 -45.94140625 186.5546875 C-45.48636719 187.65039062 -45.03132813 188.74609375 -44.5625 189.875 C-44.11003906 190.96554688 -43.65757813 192.05609375 -43.19140625 193.1796875 C-42.50456537 194.80558624 -41.78934113 196.42131774 -41 198 C-40.95977609 200.3329866 -40.95679753 202.66706666 -41 205 C-42.875 204.80078125 -42.875 204.80078125 -45 204 C-46.125 201.85546875 -46.125 201.85546875 -47 199.1875 C-48.36188462 195.07144692 -49.88192476 192.98276254 -53 190 C-54.09596398 188.41111442 -55.13800344 186.78377432 -56.125 185.125 C-56.62257813 184.30257812 -57.12015625 183.48015625 -57.6328125 182.6328125 C-61.13344996 175.89158493 -61.33609229 169.96460183 -61.3125 162.5 C-61.32861328 161.48035156 -61.34472656 160.46070313 -61.36132812 159.41015625 C-61.3650016 153.76035625 -61.10439574 149.78355439 -58 145 C-58.66 145.33 -59.32 145.66 -60 146 C-63.42232972 147.14077657 -66.08673217 147.09815117 -69.6875 147.0625 C-70.86699219 147.05347656 -72.04648438 147.04445312 -73.26171875 147.03515625 C-74.16535156 147.02355469 -75.06898437 147.01195312 -76 147 C-76 146.34 -76 145.68 -76 145 C-77.0209375 144.814375 -77.0209375 144.814375 -78.0625 144.625 C-86.72808634 142.78125823 -86.72808634 142.78125823 -90.359375 140.55078125 C-93.12361929 138.9274011 -95.69159184 138.00510463 -98.75 137.0625 C-106.67648365 134.50462859 -113.85105482 131.25894606 -121 127 C-121 126.01 -121 125.02 -121 124 C-116.13619577 124.60331076 -111.57916199 125.56760667 -106.875 126.9375 C-105.10769531 127.44603516 -105.10769531 127.44603516 -103.3046875 127.96484375 C-100 129 -100 129 -97.40234375 130.07421875 C-94.81059024 131.07299206 -92.43364803 131.48553183 -89.6875 131.875 C-86.06320018 132.4855104 -83.15930623 133.23193561 -79.9375 135 C-75.53630796 137.38171504 -71.05768063 139.0087807 -66 139 C-63.14691542 137.06531289 -63.14691542 137.06531289 -61 134 C-59.77077924 132.91352746 -58.51971611 131.85135863 -57.25 130.8125 C-54.71665957 128.73884543 -54.71665957 128.73884543 -53 126 C-52.34 126 -51.68 126 -51 126 C-51 125.34 -51 124.68 -51 124 C-49.01739574 122.31267723 -47.0167658 120.64633943 -45 119 C-44.67 118.34 -44.34 117.68 -44 117 C-46.9043529 116.03188237 -49.46195163 115.784688 -52.49511719 115.55810547 C-67.38447662 114.31456209 -81.04672327 107.90355373 -93 99 C-93 98.34 -93 97.68 -93 97 C-93.59039062 96.74863281 -94.18078125 96.49726562 -94.7890625 96.23828125 C-97.27650807 94.84513594 -98.58070723 93.39035239 -100.375 91.1875 C-102.51015169 88.64803235 -104.37654438 86.70190237 -107 84.625 C-114.87435648 77.73493808 -119.31590193 67.95067365 -124.05224609 58.79248047 C-125.42445175 56.19723732 -126.90903237 53.66815065 -128.375 51.125 C-133.20447251 42.2009747 -133.27890844 34.02520898 -133 24 C-132.01 24 -131.02 24 -130 24 C-128.1757319 27.9877596 -127.58751635 31.59079018 -127.125 35.9375 C-126.39231066 41.40711111 -125.47858613 44.62692029 -122 49 C-121.11618231 50.67216125 -120.26436247 52.36145462 -119.4375 54.0625 C-118.11055908 56.79010077 -116.78263908 59.35227459 -115.1875 61.9375 C-114 64 -114 64 -114 67 C-113.42330566 67.25595947 -112.84661133 67.51191895 -112.25244141 67.77563477 C-109.77349858 69.12311995 -108.01086414 70.65407237 -105.9609375 72.58984375 C-105.21585938 73.29173828 -104.47078125 73.99363281 -103.703125 74.71679688 C-102.93484375 75.44962891 -102.1665625 76.18246094 -101.375 76.9375 C-100.59898438 77.66646484 -99.82296875 78.39542969 -99.0234375 79.14648438 C-93.26951285 84.59573072 -93.26951285 84.59573072 -91 88 C-90.1028125 88.37125 -90.1028125 88.37125 -89.1875 88.75 C-86.28142816 90.41061248 -85.07597537 92.62654002 -83.34375 95.44140625 C-81.60299101 97.46048427 -80.6297504 97.6505926 -78 98 C-75.91711535 98.07599714 -73.83364951 98.13662019 -71.75 98.1875 C-65.05434209 98.5867181 -59.62560983 100.30425377 -53.50683594 103.00463867 C-49.23383592 104.82649843 -46.50076636 105.20853912 -42 104 C-42.33 102.68 -42.66 101.36 -43 100 C-43.72316406 99.89171875 -44.44632812 99.7834375 -45.19140625 99.671875 C-52.22564415 97.98913659 -58.80435605 92.922189 -64 88 C-64 87.34 -64 86.68 -64 86 C-64.59554687 85.74863281 -65.19109375 85.49726562 -65.8046875 85.23828125 C-68.28674204 83.83826116 -69.4519342 82.47811103 -71.125 80.1875 C-71.62257812 79.52105469 -72.12015625 78.85460937 -72.6328125 78.16796875 C-76.21505247 72.48755966 -76.35095339 67.56620834 -76.3125 61 C-76.30839111 59.60128662 -76.30839111 59.60128662 -76.30419922 58.17431641 C-76.17884412 49.84468599 -75.73950135 41.10925203 -71 34 C-70.34 34 -69.68 34 -69 34 C-68.74605469 33.28457031 -68.49210937 32.56914063 -68.23046875 31.83203125 C-64.79499453 23.92498741 -58.26290489 15.92994033 -52 10 C-51.01 9.67 -50.02 9.34 -49 9 C-49 8.34 -49 7.68 -49 7 C-47.35546875 5.4921875 -47.35546875 5.4921875 -45.1875 3.875 C-44.47980469 3.33617187 -43.77210937 2.79734375 -43.04296875 2.2421875 C-41 1 -41 1 -38 1 C-38.47304682 5.25742137 -40.8863822 7.25705098 -44 10 C-44.99 10.33 -45.98 10.66 -47 11 C-48.16666667 12.91666667 -48.16666667 12.91666667 -49 15 C-49.33 15.66 -49.66 16.32 -50 17 C-50.66 17 -51.32 17 -52 17 C-52.37125 18.3303125 -52.37125 18.3303125 -52.75 19.6875 C-54.07794512 23.20655457 -55.65882781 25.07353476 -58 28 C-64.20427975 36.71204637 -65.48187136 45.64792314 -66.72924805 56.00170898 C-67 58 -67 58 -67.6328125 60.77734375 C-68.06139884 63.37165892 -67.72080613 65.15323653 -67.0625 67.6875 C-66 71.87417219 -66 71.87417219 -66 74 C-65.071875 74.165 -64.14375 74.33 -63.1875 74.5 C-55.49644536 76.66164061 -49.1078583 83.08284332 -43 88 C-42.87044922 86.20755859 -42.87044922 86.20755859 -42.73828125 84.37890625 C-41.35827938 67.99439522 -41.35827938 67.99439522 -36 61 C-35.01 61 -34.02 61 -33 61 C-33.88395904 68.57679181 -33.88395904 68.57679181 -34.53125 70.9375 C-35.09657963 73.42495036 -35.0960279 75.70187988 -35.0625 78.25 C-35.05347656 79.14203125 -35.04445313 80.0340625 -35.03515625 80.953125 C-35.02355469 81.62859375 -35.01195313 82.3040625 -35 83 C-34.7215625 81.39125 -34.7215625 81.39125 -34.4375 79.75 C-33.53987725 76.62423567 -32.49116764 75.19838253 -29.75 73.4375 C-26.80206588 71.98809906 -26.13824554 71.97075575 -22.75 72.6875 C-21.8425 73.120625 -20.935 73.55375 -20 74 C-18.515 74.495 -18.515 74.495 -17 75 C-16.01 74.34 -15.02 73.68 -14 73 C-9.20418656 72.46713184 -5.92277785 73.14707065 -2 76 C-0.88352108 78.6954991 -0.47750674 81.08720887 0 84 C0.33 83.67 0.66 83.34 1 83 C0.76720113 80.4392124 0.4743579 77.92032181 0.125 75.375 C0.03347656 74.67503906 -0.05804688 73.97507812 -0.15234375 73.25390625 C-0.7349284 68.83118618 -1.36264709 64.41511743 -2 60 C-0.1875 60.0625 -0.1875 60.0625 2 61 C3.26602777 63.38013221 4.14972522 65.46755998 5 68 C5.40412109 69.17369141 5.40412109 69.17369141 5.81640625 70.37109375 C7.61085935 75.92783017 8.53088114 81.18292619 9 87 C9.66 86.13375 10.32 85.2675 11 84.375 C15.60190893 78.87356779 20.99186399 74.79277898 28 73 C28.99 72.67 29.98 72.34 31 72 C32.58880516 60.94744239 31.15548207 52.53685708 28 42 C27.69191406 40.78957031 27.38382813 39.57914063 27.06640625 38.33203125 C26.00882256 35.02756647 24.81375787 32.88597337 22.75 30.125 C22.13382813 29.28066406 21.51765625 28.43632812 20.8828125 27.56640625 C20.26148438 26.71949219 19.64015625 25.87257813 19 25 C17.86404883 23.36170598 16.73827909 21.71628415 15.625 20.0625 C14.90183594 18.99708984 14.90183594 18.99708984 14.1640625 17.91015625 C13 16 13 16 12 13 C11.34 13 10.68 13 10 13 C10 12.34 10 11.68 10 11 C9.46375 10.79375 8.9275 10.5875 8.375 10.375 C5.09177059 8.47418297 2.30808253 6.02358811 0 3 C0 2.01 0 1.02 0 0 Z M3 125 C3.99 125.495 3.99 125.495 5 126 C5.28875 126.825 5.5775 127.65 5.875 128.5 C6.72882071 131.18259554 6.72882071 131.18259554 9.125 131.8125 C10.053125 131.9053125 10.053125 131.9053125 11 132 C9.85916824 128.96707046 9.85916824 128.96707046 8 126 C5.41585574 125.03093173 5.41585574 125.03093173 3 125 Z M-41 126 C-41.99 127.98 -42.98 129.96 -44 132 C-40.31197956 130.77065985 -39.27643027 129.06140622 -37 126 C-38.32 126 -39.64 126 -41 126 Z " fill="#4A4A4A" transform="translate(133,0)"/>
<path d="" fill="#555555" transform="translate(0,0)"/>
</svg>
