<?xml version="1.0" encoding="UTF-8"?>
<svg id="Ebene_1" xmlns="http://www.w3.org/2000/svg" version="1.1" viewBox="0 0 1513 1536">
  <!-- Generator: Adobe Illustrator 30.1.0, SVG Export Plug-In . SVG Version: 2.1.1 Build 136)  -->
  <defs>
    <style>
      .st0 {
        fill: #fff;
        stroke: #010200;
        stroke-miterlimit: 10;
        stroke-width: 4px;
      }

      .st1 {
        opacity: .7;
      }
    </style>
  </defs>
  <g class="st1">
    <path class="st0" d="M322.7,1.1c-10,2.4-20.8,11.3-25.1,20.8-4.2,9.4-5.9,23.5-5.3,44.6.7,25.5,4.4,40.2,15.7,63,9.1,18.3,24.9,38.2,36.3,45.8,5.3,3.6,14.1,6.7,18.6,6.7,2.6,0,2.6.1,2.7,7.8.2,11.2,2.6,16.5,13.5,29.7,39.1,47.2,75,105.3,98,158.5,4.3,10,6.4,13.5,10.4,17.6,2.7,2.8,5.8,5.6,6.9,6.1,1.8,1,1.8,1.3-1,6.9s-2.9,6.7-3.2,21.4c-.6,25.1,2.5,91.3,5.8,126,2.6,26.3,7.7,47.5,15.1,62.2,3.4,6.8,12.6,21.4,16.6,26.3,6.1,7.5,20.7,21.3,29.6,28.1,5.4,4.1,9.2,7.4,8.5,7.4-3.9-.1-14.9-3.5-20.1-6.3-9.1-4.8-15.1-10.9-27.7-28.3-24.5-33.8-42-52.5-67.5-72.4-16.4-12.7-38-26-48.1-29.4-6-2-15.6-2.1-22-.1l-4.9,1.5-2-2.7c-10.8-14.5-16.4-16.7-57.9-22.8-31.9-4.6-51.3-5.9-89.6-5.9s-46.2.6-55.5,5.8l-5.9,3.2-6-3c-8.9-4.4-19.2-4.8-30.1-1.1-11.6,3.9-28.8,4.6-40.5,1.6-9.3-2.3-18.6-6.4-25.2-10.9-7-4.8-12.2-7-19.1-8.3-16.2-3-33.2,6.1-40.5,21.9-2.3,4.8-2.7,7-2.6,14.7,0,19.6,8.4,29.6,37.2,44,12.5,6.3,24.5,10.5,39.2,13.6,13.9,3,40.8,3.2,54.5.5,12.2-2.4,26.5-7.1,31-10.2l3.8-2.6,3.6,2c7.9,4.3,9.7,4.5,55,4.7,48,.2,55.7.8,94.1,7.1,22.2,3.6,27.7,3.8,34.8.8,3.2-1.3,3.3-1.3,5.6,2.4,3.8,5.8,8.3,9.5,20.6,16.7,15.8,9.3,32.4,21.9,44.5,33.9,11.1,11,17.4,18.7,32.5,39.5,18.8,26,30.9,37.8,50.4,48.9,20.2,11.6,47.1,18,72,17l10.4-.3,1.4,6.7c1.3,6.2,1.3,6.8-.1,6.4-.9-.3-4.7-1.4-8.6-2.5-38.9-11.1-83.3-14.5-125-9.6-32.9,3.9-72.5,14.7-84.8,23.2-4.5,3.1-10.1,10.1-11.9,15.1-1,2.6-1.7,3.2-3.3,2.7-17.7-5.1-20-4.8-45,5.4-37.9,15.6-80.1,34.9-86.6,39.7-5.1,3.7-11.1,11.9-12.8,17.5l-1.1,3.6-5.5-1c-6.5-1.2-15.4.1-21.8,3.2-5.5,2.6-66.2,51.6-71,57.2-6.7,7.8-9.8,20.1-7.7,30.5,2.4,11.6,10.4,22,21,27.2,4.9,2.4,6.6,2.7,16,2.7,12.9,0,16-1.3,30.5-13,5.5-4.4,20.1-16.2,32.5-26.2s23.5-19.4,24.6-21c2.8-3.7,6.4-10.9,6.4-12.5,0-1,2.6-1.3,10.7-1.3h10.8l11.5-5.3c21.3-9.9,57.4-25.9,70.5-31.2,23.4-9.5,28-12.7,33.6-23.4l3.3-6.3,5.4,1.9c9.2,3.2,16.9,2.6,33-2.6,50-16.1,101.9-16.9,150.6-2.4,12.1,3.6,25.6,8.7,25.5,9.6,0,.4-4.6,3.6-10.1,7.2-44.2,28.6-84.3,73.9-108.4,122.5-7.9,16-9,22-5.5,33.3,1.1,3.8,2.1,7.2,2.1,7.5s-1.6,1.1-3.5,1.7c-4.8,1.6-13,7.9-16.6,12.8-2.9,4-20.5,45.8-60.5,144-17.7,43.3-20.6,51.2-21.1,57-.6,7,1.3,16.3,4.2,20.8,1.3,2,1.1,2.2-2.8,3.4-5.9,1.7-13.2,6.5-17.1,11.4-11.2,13.7-42.3,77.4-59.1,121.1-11.4,29.6-28.7,84.2-31.6,99.9-2.5,13.9,4.5,29.6,16.9,37.4,14.8,9.4,33.3,7.7,46.2-4.4,6.2-5.8,9-11.6,13-26.4,16.2-60.3,41.4-122.7,71.1-175.8,10.2-18.1,12-27.9,7.4-40.2-2.8-7.7-2.9-8-1-8,2.9,0,11.8-4.9,15.9-8.8,5.7-5.5,7.5-8.9,15.5-28.7,14-34.5,34-83.3,52.2-127l18.3-44v-9c.1-6.4-.4-10.2-1.6-13.3-1-2.3-1.8-4.5-1.8-4.7,0-.3,2.4-1.6,5.3-2.9,9.1-4.1,13.4-8.9,22.1-24.7,15.2-27.6,26.5-42.9,45.5-61.9,19.5-19.4,39.3-33.6,65.2-46.5,7.4-3.7,14.6-7.6,16.1-8.7l2.8-1.9,9.7,6.5c5.4,3.5,11.5,7.2,13.6,8.2,2,1,3.7,2.1,3.7,2.4,0,.4-2.8,2.9-6.2,5.6-20.6,16-61.7,64.6-81.8,96.5-8.5,13.6-22.6,41.7-27.3,54.7-11.9,32.6-16.5,60.6-15.4,93.7.9,25.4,4.6,47.3,12.3,71.7,23.1,73.1,69.3,131.8,124.6,158.3,61.4,29.4,128.2,18.5,184.5-29.9,60.3-51.9,99.2-143.6,92.4-217.6-4.9-53.5-25.3-97.2-74.6-160-25.1-32-34.5-42.8-49.9-57.7l-13.5-13.2,8.5-4.5,8.5-4.6,6.2,3.1c37.4,18.7,75.4,54.4,96.8,90.9,3.1,5.2,8,13.9,11,19.4,6,11,11.3,16.5,19.7,20.2,2.8,1.3,5.2,2.6,5.2,2.9,0,.2-.8,2.4-1.7,4.7-1.3,3.1-1.8,6.9-1.7,13.3v9l22.8,55c12.6,30.2,29.8,72.1,38.3,93,17.9,44,18.1,44.6,23.6,50.3,4.2,4.3,14.1,10.2,17.3,10.2,1.8,0,1.7.3-1.1,8-4.6,12.3-2.8,22.1,7.3,40.1,29.8,53.3,55,115.6,71.2,175.9,4,14.8,6.8,20.6,13,26.4,17.6,16.5,45.6,12.9,57.8-7.4,7.7-12.9,7.6-20.1-1.1-50-11.2-38.4-23.1-72-37.6-106-12.6-29.8-39.4-81.6-46.7-90.6-3.9-4.9-11.2-9.7-17.1-11.4-3.9-1.2-4.1-1.4-2.8-3.4.7-1.1,2.1-4.8,3.1-8,3.3-11.6,2.4-14.8-15.5-58.8-41.9-103.2-62.2-151.3-65.6-155.7-4-5.1-11.2-10.5-16.1-12.1-1.9-.7-3.4-1.4-3.4-1.7s1-3.7,2.1-7.5c3.5-11.3,2.4-17.3-5.5-33.3-24-48.4-62.5-92.1-106.8-121.3-6.4-4.2-11.7-8-11.7-8.4-.1-.9,13.4-6,25.5-9.6,48.7-14.5,100.6-13.7,150.6,2.4,16.2,5.3,23.8,5.8,33.2,2.5l5.6-2,2.7,5.6c1.6,3.2,5,7.6,8.4,10.7,5,4.7,8,6.2,28,14.5,12.3,5.2,34.5,14.9,49.4,21.8,14.8,6.8,28.9,12.9,31.3,13.5s7.8.8,12.3.5c6.5-.4,7.9-.2,7.9.9,0,2.5,4.6,10.7,8.2,14.6,5.3,5.8,64.2,52.6,70,55.6,4.8,2.4,6.3,2.7,15.8,2.7s11.1-.3,16-2.7c15.1-7.4,24.3-24.9,21.1-40.5-1.6-8-5.2-15-10.3-20-7.5-7.3-64.1-52.3-68.5-54.4-6.4-3.1-15.3-4.4-21.7-3.2l-5.5.9-1.5-4.3c-2.1-6-7.9-13.7-13.1-17.3-10.2-7.1-97-45-108-47.2-6.3-1.2-16.4,0-21.6,2.8q-2.8,1.4-4.7-2.8c-2.8-6.3-7.3-11.9-11.9-15.1-12.3-8.5-50.8-19-85.3-23.3-18.7-2.4-56.7-2.3-75,0-7.4,1-15.4,2-17.6,2.3-4,.5-4.1.4-3.7-1.9.4-2.1,1.3-2.6,7.2-3.6,31-5.3,61.1-24.3,81.2-51.2,3.1-4.1,10.9-14.7,17.5-23.5,19.7-26.6,38.4-43.6,66.7-60.7,14.1-8.5,18.5-12.1,22.3-18,2.3-3.7,2.4-3.7,5.6-2.4,7.1,3,12.6,2.8,34.8-.8,38.4-6.3,46.1-6.9,94.1-7.1,45.3-.2,47.1-.4,55-4.7l3.6-2,3.8,2.6c2.1,1.4,7.9,3.9,12.9,5.5,39.9,12.8,82.4,7.8,121.1-14.2,20.9-11.9,27.9-21.6,28-39.2,0-8.2-.3-9.6-3.3-15.7-6.5-13.3-18.7-21.1-33.2-21.2-9.4,0-13.8,1.3-22,6.4-10.4,6.5-19.9,10.8-28.9,13.1-11.8,3-29,2.3-40.6-1.6-11-3.7-21.2-3.3-30.2,1.2l-6.2,3.1-3.3-2.3c-6.1-4.2-12.6-5.6-29.8-6.7-31.9-2-80.6.4-117.6,5.8-41.4,5.9-47.1,8.2-57.9,22.7l-2,2.7-4.9-1.5c-6.5-2-16-1.9-22.2.2-9.5,3.2-36.5,20.1-52.5,32.9-9.8,7.8-21.1,18.4-32.2,30.3-9.2,9.9-14.6,16.7-35,44.3-10.2,13.7-15.5,18.6-25.1,23.3-13.5,6.5-17.9,4.3-7.3-3.7,5.9-4.5,21.9-20,27-26.3,4-4.9,13.2-19.5,16.6-26.3,7.4-14.7,12.5-35.9,15.1-62.2,3.3-34.8,6.5-102.7,5.8-127-.3-13.5-.5-14.9-3.2-20.4-2.8-5.6-2.8-5.9-1-6.9,1.1-.5,4.2-3.3,6.9-6.1,4-4.1,6.1-7.6,10.4-17.6,23-53.2,58.9-111.3,98-158.5,10.9-13.2,13.3-18.5,13.5-29.7.1-7.7.1-7.8,2.7-7.8,4.5,0,13.3-3.1,18.6-6.7,6.2-4.1,15.5-13.8,23.4-24.6,21.2-28.5,32-66.3,28.9-101.2-1.9-21.3-5-30.3-13.7-38.7-16.8-16.4-44.6-13.3-57.3,6.4-5.2,8-6.5,13.9-5.4,25.2.5,5,.8,14.5.8,21.1-.1,10.2-.5,13.2-2.7,20-3.9,11.8-9.8,21.5-18.8,31.1-10.2,10.8-13.1,16.8-13.9,28.4l-.5,8.5-5.3.6c-6.9.9-14.7,4.8-20.1,10.1-9.2,9.1-34.9,42.2-50.3,64.8-25.4,37.2-49.9,81.1-66.8,120l-5.5,12.5v10.5c0,10.3.7,13.2,5.2,21.1.2.3-1.6,1.9-4,3.7-5.6,4-11.2,12.2-13.1,19.2-1.1,4-1.8,15.5-2.6,42-1.7,57.4-5.1,102.4-9,117.4-1.1,4.3-3.4,10.4-5.1,13.6-3.6,6.7-12.7,18.2-16.5,20.7-2.5,1.6-2.6,1.6-5.2-1.8-1.5-1.8-5.7-7-9.4-11.4l-6.6-7.9,5.8-6.2c19.9-21.3,29-44.2,29-72.8,0-17.2-3.3-31.1-11-46.7-7.8-15.9-16.2-25.9-25.4-30.4l-5.2-2.6,2.3-6.7c1.6-4.7,2.3-9.1,2.3-14.7.2-34.2,10.5-66.9,30.9-97.8,9.6-14.5,10.6-17.2,10.6-28.2,0-7.7-.4-9.8-2.7-14.7-3.7-8-10.7-15.2-18.7-19.1-5.9-2.9-7.4-3.2-15.6-3.2-7.7,0-9.8.4-14.8,2.7-9.5,4.4-13.3,8.2-22.9,22.7-15.5,23.4-27.7,50.5-34.3,76.6-5.4,21-6.9,32.6-7,54,0,18.5.1,19.1,2.7,24.7,3.5,7.6,9.6,14,16.6,17.4,3.1,1.6,5.9,3,6,3.1.2.1-.6,2.8-1.8,6-2.6,6.8-3.1,18.5-1.1,24.8.7,2.2,3.5,7.5,6.3,11.7,7.7,11.8,9.3,19.4,6.3,29.4-1.3,4.3-7.1,13.1-8.1,12.1-.2-.2-1.5-8-2.8-17.4-2.8-19.8-5.6-28.5-12-38.1-14.4-21.8-32.2-30.9-50.2-25.8-7,2-15.2,7.2-19,11.9l-2.7,3.5-3.1-4.2c-5.8-7.6-20.3-12.6-32-11.2-10.9,1.4-22.6,9.2-32,21.5-8.9,11.6-11.7,19.6-15.1,43-3.7,24.8-2.9,23.6-9.8,16.2-11.3-12.3-11.6-24.4-.9-40.9,2.8-4.2,5.6-9.5,6.3-11.7,2-6.3,1.5-18-1.1-24.8-1.2-3.2-2-5.9-1.8-6,.1-.1,2.9-1.5,6-3.1,7-3.4,13.1-9.8,16.6-17.4,2.6-5.6,2.7-6.1,2.6-25.2-.1-21.4-1.8-34.4-7.3-55.6-6.5-24.5-18.9-51.9-33.9-74.5-10.1-15.1-12.7-17.8-22.2-22.3-5.8-2.8-7.5-3.1-15.5-3.1s-9.9.5-14.7,2.7c-8,3.7-15.1,10.7-19.1,18.7-2.9,5.9-3.2,7.4-3.2,15.6,0,11,1,13.6,10.6,28.2,20.4,30.9,30.8,64,30.9,98,0,5.5.7,9.8,2.4,14.6l2.3,6.8-5.1,2.4c-9.2,4.3-17.7,14.4-25.6,30.4-4.7,9.4-7.3,17.1-9.5,27.9-2.4,11.5-1.7,34.4,1.3,45.5,7.1,26.2,26.9,52.4,44.5,58.9,3.1,1.1,5.7,2.3,5.7,2.5,0,.3-2,3-4.3,6.1-2.4,3.1-6.6,9-9.2,12.9-2.6,4-5,7.3-5.2,7.3s-3.9-2.3-8.1-5.2c-21.3-14.2-31.1-27.6-35.1-47.4-3.6-18.3-6.5-58.5-8.1-113.4-.8-26.5-1.5-38-2.6-42-1.9-7-7.5-15.2-13.1-19.2-2.4-1.8-4.2-3.4-4-3.7,4.5-7.9,5.2-10.8,5.2-21.1v-10.5l-5.5-12.5c-26.4-60.3-65.8-124-107.9-174.4-12.4-14.9-18.6-19.1-29.5-20.5l-5.1-.6-.5-8.5c-.8-11.7-3.6-17.5-14.3-28.9-9.3-10-15-19.6-18.8-32.1-2.6-8.4-3.1-21.5-1.5-39.1,1.1-11.9-.1-17.6-5.4-25.9-8.5-13-24.9-19.5-40.3-15.9Z"/>
  </g>
</svg>