<?xml version="1.0" encoding="UTF-8"?>
<svg id="Ebene_1" xmlns="http://www.w3.org/2000/svg" version="1.1" viewBox="0 0 1272 997">
  <!-- Generator: Adobe Illustrator 30.1.0, SVG Export Plug-In . SVG Version: 2.1.1 Build 136)  -->
  <defs>
    <style>
      .st0 {
        fill: #fff;
        stroke: #010200;
        stroke-miterlimit: 10;
        stroke-width: 5px;
      }

      .st1 {
        opacity: .7;
      }
    </style>
  </defs>
  <g class="st1">
    <path class="st0" d="M415.3,1.1c-5.9,1-14.4,4-19.1,6.9-7.4,4.5-9.9,16.6-6.6,31.3,1.5,6.2,1.6,10.1.8,27.2-1.3,29.7-1.1,32,2.6,40.6,5.8,13.4,7.1,17.2,11.5,32.9,3.4,12.6,6.7,21,17.1,43.9l12.9,28.5,12.5,10.9c6.9,6,19.2,15.5,27.5,21,19,12.7,24.1,17.8,28.3,27.9,6.8,16.3,11.2,38.1,11.2,55.2,0,25.1-4.9,48.6-11.8,56.8-6.4,7.5-21.6,14.6-40.3,18.7-19.5,4.2-37.9,5.6-102.9,8.1-39.5,1.5-46.2,2.4-75.5,10.6-38,10.6-81.7,26.1-121,42.9-53.4,22.8-77.3,36.1-92.6,51.4-16.4,16.5-42.4,61.4-53.7,92.6-5.3,14.8-10.8,34-12.8,45-2.2,12-3.1,62.9-1.4,77.7,2,17.6,7.4,37.6,16.7,61.3,10.6,27.3,16.1,35.5,39.2,58.5,16.5,16.3,32.4,29.6,44.2,36.8,15.6,9.5,56.4,24.8,77.4,29.1,23.5,4.7,67.5,4.8,85.7.2,15.9-4.1,44.9-16.4,64.5-27.4,19.2-10.8,48.2-33.5,67.3-52.6,12.4-12.5,22.7-27.3,45.5-65.6,8.2-13.8,17.3-28.8,20.3-33.5s10.6-17.7,16.9-28.9c20.8-37.3,33.2-52.9,44.5-56.1,4.9-1.5,22.3-1.2,29.9.4,12.5,2.7,19.3,8,31.9,25,14.7,20.1,19.8,30.7,34.5,72.1,10.1,28.5,14.1,37.9,29.1,67.5,21.6,42.9,31.1,58,45.8,72.5,33.3,33,109.8,83.7,149.4,99,13.4,5.1,22.4,6.6,43.2,7.2,42.4,1.2,88.9-4.8,131.5-17.1,70.9-20.4,124.5-44.8,149.1-67.9,27.5-25.7,61.8-97.7,86.9-182.3,10.6-35.7,15.9-82.9,15.9-141.4.1-52.4-2.3-64.2-19.2-94-10.8-19.2-27.3-43-39.6-57.3-8.6-9.9-28.6-26.2-49.1-39.7-25.4-16.7-66.2-33.9-90-38-16.8-2.8-36.7-4.3-48.5-3.7-23.9,1.4-73.8,17.6-110.5,35.9-35.2,17.6-47.4,25.3-84.5,52.8-31,23-42,30.4-60,40.2-34.3,18.7-47,24.9-62.6,30.4-18,6.4-27.7,10.9-32.9,15.5l-3.6,3.2-3.2-2.4c-16-12-25.2-16-46.8-20.3-23.8-4.8-37.2-5.9-62.4-5.3-23.2.5-38.3,2.2-60.2,6.7-5.3,1.1-9.8,1.9-9.9,1.7-.2-.2,4.9-2.5,11.4-5.2,17.4-7.2,50.8-22.5,58.3-26.7,10.9-6.1,18.2-12.3,26.3-22,14.7-17.7,22.5-30.6,29.1-47.8,8-21.1,9.9-32.6,8.5-51.8-1.4-18.3-3.3-28.7-8.1-44.5-9.4-30.6-17.4-48.5-39.7-88.8l-9.2-16.7v-18.3c0-13.3-.5-21.6-1.9-30l-1.9-11.6-13.7-23.6c-12.6-21.8-14.4-24.4-24.6-35.4-19-20.3-23.6-26.6-26.5-36.1-3.2-10.5-5.8-13.3-14.6-16.2-7.6-2.4-13.2-6.7-23-17.4-10.2-11.2-16.9-16.3-24.6-18.5-8.8-2.5-12.6-2.9-18.9-2ZM1029.7,472.5c5.5.8,12.3,2,15,2.6,14.9,3.6,42.6,20.9,60.7,37.9,14.6,13.7,30,43.8,35.1,68.5,5.1,24.9,6.8,53.8,4.1,67.5-3.1,15.5-14.7,46.4-25.5,67.8-7.1,14.1-33.2,51.4-46.8,66.8-10,11.4-35.1,32.8-45.4,38.8-10.7,6.2-32.4,12.4-54.2,15.7-24.5,3.6-58.4,1.7-83.2-4.6-12.1-3-23.4-9.5-44.9-25.6-32-24-34.7-28.1-55.4-82.9-16.6-44.1-49.2-111.3-66.3-136.6l-4.8-7.1,8.2-.6c15.5-1.1,36.5-8,78.2-25.5,13.2-5.5,35.5-14,49.5-18.8,44.9-15.3,50.1-17.7,79-37.9,27.7-19.4,39.9-25.8,51.5-27.4,8.8-1.2,31.9-.5,45.2,1.4ZM405.1,539.5c-13.6,7.1-20.4,15-38.5,44.8-5.3,8.7-11.3,18.4-13.4,21.5-10.4,15.5-44.3,71.1-54.7,89.7-22.3,40.1-29,48-49.2,58.2l-11.5,5.8h-10.6c-7-.1-12.6-.7-16.3-1.8-6.9-2.1-18.2-9.9-27.2-18.9-8.3-8.3-11.6-14.8-15.8-31.4-2.6-10.2-3.2-14.3-3.6-28.4-.5-15.1-.3-17,1.7-23,6.7-20.1,29.4-52.1,43.9-61.9,17.5-11.9,60-28.4,95.3-37,29-7.1,99.3-21.5,107.3-22,.6,0-2.8,1.9-7.4,4.4Z"/>
  </g>
</svg>