<?xml version="1.0" encoding="utf-8"?>
<!-- Generator: Adobe Illustrator 30.1.0, SVG Export Plug-In . SVG Version: 9.03 Build 0)  -->
<svg version="1.0" id="Ebene_1" xmlns="http://www.w3.org/2000/svg" xmlns:xlink="http://www.w3.org/1999/xlink" x="0px" y="0px"
	 viewBox="0 0 1272 997" style="enable-background:new 0 0 1272 997;" xml:space="preserve">
<style type="text/css">
	.st0{opacity:0.7;}
</style>
<g transform="translate(0.000000,997.000000) scale(0.100000,-0.100000)" class="st0">
	<path d="M4153,9959c-59-10-144-40-191-69c-74-45-99-166-66-313c15-62,16-101,8-272c-13-297-11-320,26-406c58-134,71-172,115-329
		c34-126,67-210,171-439l129-285l125-109c69-60,192-155,275-210c190-127,241-178,283-279c68-163,112-381,112-552
		c0-251-49-486-118-568c-64-75-216-146-403-187c-195-42-379-56-1029-81c-395-15-462-24-755-106c-380-106-817-261-1210-429
		c-534-228-773-361-926-514c-164-165-424-614-537-926c-53-148-108-340-128-450c-22-120-31-629-14-777c20-176,74-376,167-613
		c106-273,161-355,392-585c165-163,324-296,442-368c156-95,564-248,774-291c235-47,675-48,857-2c159,41,449,164,645,274
		c192,108,482,335,673,526c124,125,227,273,455,656c82,138,173,288,203,335s106,177,169,289c208,373,332,529,445,561
		c49,15,223,12,299-4c125-27,193-80,319-250c147-201,198-307,345-721c101-285,141-379,291-675c216-429,311-580,458-725
		c333-330,1098-837,1494-990c134-51,224-66,432-72c424-12,889,48,1315,171c709,204,1245,448,1491,679c275,257,618,977,869,1823
		c106,357,159,829,159,1414c1,524-23,642-192,940c-108,192-273,430-396,573c-86,99-286,262-491,397c-254,167-662,339-900,380
		c-168,28-367,43-485,37c-239-14-738-176-1105-359c-352-176-474-253-845-528c-310-230-420-304-600-402c-343-187-470-249-626-304
		c-180-64-277-109-329-155l-36-32l-32,24c-160,120-252,160-468,203c-238,48-372,59-624,53c-232-5-383-22-602-67c-53-11-98-19-99-17
		c-2,2,49,25,114,52c174,72,508,225,583,267c109,61,182,123,263,220c147,177,225,306,291,478c80,211,99,326,85,518
		c-14,183-33,287-81,445c-94,306-174,485-397,888l-92,167v183c0,133-5,216-19,300l-19,116l-137,236c-126,218-144,244-246,354
		c-190,203-236,266-265,361c-32,105-58,133-146,162c-76,24-132,67-230,174c-102,112-169,163-246,185C4254,9964,4216,9968,4153,9959z
		 M10297,5245c55-8,123-20,150-26c149-36,426-209,607-379c146-137,300-438,351-685c51-249,68-538,41-675c-31-155-147-464-255-678
		c-71-141-332-514-468-668c-100-114-351-328-454-388c-107-62-324-124-542-157c-245-36-584-17-832,46c-121,30-234,95-449,256
		c-320,240-347,281-554,829c-166,441-492,1113-663,1366l-48,71l82,6c155,11,365,80,782,255c132,55,355,140,495,188
		c449,153,501,177,790,379c277,194,399,258,515,274C9933,5271,10164,5264,10297,5245z M4051,4575c-136-71-204-150-385-448
		c-53-87-113-184-134-215c-104-155-443-711-547-897c-223-401-290-480-492-582l-115-58h-106c-70,1-126,7-163,18
		c-69,21-182,99-272,189c-83,83-116,148-158,314c-26,102-32,143-36,284c-5,151-3,170,17,230c67,201,294,521,439,619
		c175,119,600,284,953,370c290,71,993,215,1073,220C4131,4619,4097,4600,4051,4575z"/>
</g>
</svg>
