<?xml version="1.0" encoding="utf-8" standalone="no"?>
<!DOCTYPE svg PUBLIC "-//W3C//DTD SVG 1.1//EN"
  "http://www.w3.org/Graphics/SVG/1.1/DTD/svg11.dtd">
<svg xmlns:xlink="http://www.w3.org/1999/xlink" width="712.564375pt" height="496.400312pt" viewBox="0 0 712.564375 496.400312" xmlns="http://www.w3.org/2000/svg" version="1.1">
 <metadata>
  <rdf:RDF xmlns:dc="http://purl.org/dc/elements/1.1/" xmlns:cc="http://creativecommons.org/ns#" xmlns:rdf="http://www.w3.org/1999/02/22-rdf-syntax-ns#">
   <cc:Work>
    <dc:type rdf:resource="http://purl.org/dc/dcmitype/StillImage"/>
    <dc:date>2026-01-27T11:18:42.747657</dc:date>
    <dc:format>image/svg+xml</dc:format>
    <dc:creator>
     <cc:Agent>
      <dc:title>Matplotlib v3.10.3, https://matplotlib.org/</dc:title>
     </cc:Agent>
    </dc:creator>
   </cc:Work>
  </rdf:RDF>
 </metadata>
 <defs>
  <style type="text/css">*{stroke-linejoin: round; stroke-linecap: butt}</style>
 </defs>
 <g id="figure_1">
  <g id="patch_1">
   <path d="M 0 496.400312 
L 712.564375 496.400312 
L 712.564375 0 
L 0 0 
z
" style="fill: #ffffff"/>
  </g>
  <g id="axes_1">
   <g id="patch_2">
    <path d="M 62.289375 453.037187 
L 705.364375 453.037187 
L 705.364375 26.877187 
L 62.289375 26.877187 
z
" style="fill: #ffffff"/>
   </g>
   <g id="FillBetweenPolyCollection_1">
    <path d="M 91.520057 415.22998 
L 91.520057 453.037187 
L 120.750739 453.037187 
L 149.98142 453.037187 
L 179.212102 453.037187 
L 208.442784 453.037187 
L 237.673466 453.037187 
L 266.904148 453.037187 
L 296.13483 453.037187 
L 325.365511 453.037187 
L 354.596193 453.037187 
L 383.826875 453.037187 
L 413.057557 453.037187 
L 442.288239 453.037187 
L 471.51892 453.037187 
L 500.749602 453.037187 
L 529.980284 453.037187 
L 559.210966 453.037187 
L 588.441648 453.037187 
L 617.67233 453.037187 
L 646.903011 453.037187 
L 676.133693 453.037187 
L 676.133693 319.535615 
L 676.133693 319.535615 
L 646.903011 319.973325 
L 617.67233 320.246894 
L 588.441648 321.997734 
L 559.210966 323.420292 
L 529.980284 323.803288 
L 500.749602 325.225846 
L 471.51892 325.937125 
L 442.288239 326.538976 
L 413.057557 327.0314 
L 383.826875 329.110523 
L 354.596193 333.980047 
L 325.365511 342.679535 
L 296.13483 355.646696 
L 266.904148 363.251908 
L 237.673466 366.097024 
L 208.442784 377.313345 
L 179.212102 388.365524 
L 149.98142 413.752708 
L 120.750739 416.871393 
L 91.520057 415.22998 
z
" clip-path="url(#pa5e410f6dd)" style="fill: #1f77b4; fill-opacity: 0.85"/>
   </g>
   <g id="FillBetweenPolyCollection_2">
    <path d="M 91.520057 402.645815 
L 91.520057 415.22998 
L 120.750739 416.871393 
L 149.98142 413.752708 
L 179.212102 388.365524 
L 208.442784 377.313345 
L 237.673466 366.097024 
L 266.904148 363.251908 
L 296.13483 355.646696 
L 325.365511 342.679535 
L 354.596193 333.980047 
L 383.826875 329.110523 
L 413.057557 327.0314 
L 442.288239 326.538976 
L 471.51892 325.937125 
L 500.749602 325.225846 
L 529.980284 323.803288 
L 559.210966 323.420292 
L 588.441648 321.997734 
L 617.67233 320.246894 
L 646.903011 319.973325 
L 676.133693 319.535615 
L 676.133693 234.018009 
L 676.133693 234.018009 
L 646.903011 235.549994 
L 617.67233 236.042418 
L 588.441648 238.340396 
L 559.210966 240.091236 
L 529.980284 241.404366 
L 500.749602 243.592917 
L 471.51892 244.79662 
L 442.288239 247.039884 
L 413.057557 247.915304 
L 383.826875 250.815133 
L 354.596193 259.842903 
L 325.365511 272.31764 
L 296.13483 285.99608 
L 266.904148 295.023851 
L 237.673466 340.764553 
L 208.442784 356.686257 
L 179.212102 368.723284 
L 149.98142 397.393294 
L 120.750739 404.232514 
L 91.520057 402.645815 
z
" clip-path="url(#pa5e410f6dd)" style="fill: #ff7f0e; fill-opacity: 0.85"/>
   </g>
   <g id="FillBetweenPolyCollection_3">
    <path d="M 91.520057 394.055755 
L 91.520057 402.645815 
L 120.750739 404.232514 
L 149.98142 397.393294 
L 179.212102 368.723284 
L 208.442784 356.686257 
L 237.673466 340.764553 
L 266.904148 295.023851 
L 296.13483 285.99608 
L 325.365511 272.31764 
L 354.596193 259.842903 
L 383.826875 250.815133 
L 413.057557 247.915304 
L 442.288239 247.039884 
L 471.51892 244.79662 
L 500.749602 243.592917 
L 529.980284 241.404366 
L 559.210966 240.091236 
L 588.441648 238.340396 
L 617.67233 236.042418 
L 646.903011 235.549994 
L 676.133693 234.018009 
L 676.133693 152.932218 
L 676.133693 152.932218 
L 646.903011 154.464203 
L 617.67233 155.777333 
L 588.441648 159.826151 
L 559.210966 164.75039 
L 529.980284 170.714189 
L 500.749602 173.997015 
L 471.51892 179.468391 
L 442.288239 185.924614 
L 413.057557 186.854748 
L 383.826875 191.286563 
L 354.596193 200.587902 
L 325.365511 214.704052 
L 296.13483 231.55589 
L 266.904148 257.435498 
L 237.673466 310.343703 
L 208.442784 329.876515 
L 179.212102 344.868085 
L 149.98142 378.243479 
L 120.750739 391.867205 
L 91.520057 394.055755 
z
" clip-path="url(#pa5e410f6dd)" style="fill: #2ca02c; fill-opacity: 0.85"/>
   </g>
   <g id="FillBetweenPolyCollection_4">
    <path d="M 91.520057 375.288936 
L 91.520057 394.055755 
L 120.750739 391.867205 
L 149.98142 378.243479 
L 179.212102 344.868085 
L 208.442784 329.876515 
L 237.673466 310.343703 
L 266.904148 257.435498 
L 296.13483 231.55589 
L 325.365511 214.704052 
L 354.596193 200.587902 
L 383.826875 191.286563 
L 413.057557 186.854748 
L 442.288239 185.924614 
L 471.51892 179.468391 
L 500.749602 173.997015 
L 529.980284 170.714189 
L 559.210966 164.75039 
L 588.441648 159.826151 
L 617.67233 155.777333 
L 646.903011 154.464203 
L 676.133693 152.932218 
L 676.133693 88.698264 
L 676.133693 88.698264 
L 646.903011 94.005499 
L 617.67233 96.303477 
L 588.441648 103.19741 
L 559.210966 109.380065 
L 529.980284 116.164571 
L 500.749602 120.869955 
L 471.51892 126.450758 
L 442.288239 133.946543 
L 413.057557 135.314387 
L 383.826875 141.770611 
L 354.596193 154.464203 
L 325.365511 170.331193 
L 296.13483 189.535723 
L 266.904148 217.275599 
L 237.673466 278.71915 
L 208.442784 299.346238 
L 179.212102 316.581072 
L 149.98142 351.105454 
L 120.750739 371.623114 
L 91.520057 375.288936 
z
" clip-path="url(#pa5e410f6dd)" style="fill: #d62728; fill-opacity: 0.85"/>
   </g>
   <g id="FillBetweenPolyCollection_5">
    <path d="M 91.520057 372.115537 
L 91.520057 375.288936 
L 120.750739 371.623114 
L 149.98142 351.105454 
L 179.212102 316.581072 
L 208.442784 299.346238 
L 237.673466 278.71915 
L 266.904148 217.275599 
L 296.13483 189.535723 
L 325.365511 170.331193 
L 354.596193 154.464203 
L 383.826875 141.770611 
L 413.057557 135.314387 
L 442.288239 133.946543 
L 471.51892 126.450758 
L 500.749602 120.869955 
L 529.980284 116.164571 
L 559.210966 109.380065 
L 588.441648 103.19741 
L 617.67233 96.303477 
L 646.903011 94.005499 
L 676.133693 88.698264 
L 676.133693 63.74879 
L 676.133693 63.74879 
L 646.903011 70.697437 
L 617.67233 75.621676 
L 588.441648 82.843892 
L 559.210966 91.269811 
L 529.980284 98.327886 
L 500.749602 106.151953 
L 471.51892 112.170467 
L 442.288239 119.830393 
L 413.057557 121.909516 
L 383.826875 128.420453 
L 354.596193 141.715897 
L 325.365511 158.239452 
L 296.13483 177.443982 
L 266.904148 205.621568 
L 237.673466 268.870674 
L 208.442784 289.880757 
L 179.212102 307.225019 
L 149.98142 345.907647 
L 120.750739 368.121433 
L 91.520057 372.115537 
z
" clip-path="url(#pa5e410f6dd)" style="fill: #9467bd; fill-opacity: 0.85"/>
   </g>
   <g id="FillBetweenPolyCollection_6">
    <path d="M 91.520057 367.410154 
L 91.520057 372.115537 
L 120.750739 368.121433 
L 149.98142 345.907647 
L 179.212102 307.225019 
L 208.442784 289.880757 
L 237.673466 268.870674 
L 266.904148 205.621568 
L 296.13483 177.443982 
L 325.365511 158.239452 
L 354.596193 141.715897 
L 383.826875 128.420453 
L 413.057557 121.909516 
L 442.288239 119.830393 
L 471.51892 112.170467 
L 500.749602 106.151953 
L 529.980284 98.327886 
L 559.210966 91.269811 
L 588.441648 82.843892 
L 617.67233 75.621676 
L 646.903011 70.697437 
L 676.133693 63.74879 
L 676.133693 47.170521 
L 676.133693 47.170521 
L 646.903011 54.830447 
L 617.67233 59.918827 
L 588.441648 67.359898 
L 559.210966 78.466791 
L 529.980284 85.634294 
L 500.749602 101.610711 
L 471.51892 107.683939 
L 442.288239 115.56272 
L 413.057557 117.641843 
L 383.826875 124.098066 
L 354.596193 138.761354 
L 325.365511 155.339623 
L 296.13483 174.763008 
L 266.904148 202.940594 
L 237.673466 266.244413 
L 208.442784 287.254497 
L 179.212102 306.130744 
L 149.98142 344.868085 
L 120.750739 367.300727 
L 91.520057 367.410154 
z
" clip-path="url(#pa5e410f6dd)" style="fill: #c0c0c0; fill-opacity: 0.85"/>
   </g>
   <g id="matplotlib.axis_1">
    <g id="xtick_1">
     <g id="line2d_1">
      <defs>
       <path id="m9403779f31" d="M 0 0 
L 0 3.5 
" style="stroke: #000000; stroke-width: 0.8"/>
      </defs>
      <g>
       <use xlink:href="#m9403779f31" x="91.520057" y="453.037187" style="stroke: #000000; stroke-width: 0.8"/>
      </g>
     </g>
     <g id="text_1">
      <!-- 2005 -->
      <g transform="translate(76.250057 469.155312) scale(0.12 -0.12)">
       <defs>
        <path id="DejaVuSans-32" d="M 1228 531 
L 3431 531 
L 3431 0 
L 469 0 
L 469 531 
Q 828 903 1448 1529 
Q 2069 2156 2228 2338 
Q 2531 2678 2651 2914 
Q 2772 3150 2772 3378 
Q 2772 3750 2511 3984 
Q 2250 4219 1831 4219 
Q 1534 4219 1204 4116 
Q 875 4013 500 3803 
L 500 4441 
Q 881 4594 1212 4672 
Q 1544 4750 1819 4750 
Q 2544 4750 2975 4387 
Q 3406 4025 3406 3419 
Q 3406 3131 3298 2873 
Q 3191 2616 2906 2266 
Q 2828 2175 2409 1742 
Q 1991 1309 1228 531 
z
" transform="scale(0.015625)"/>
        <path id="DejaVuSans-30" d="M 2034 4250 
Q 1547 4250 1301 3770 
Q 1056 3291 1056 2328 
Q 1056 1369 1301 889 
Q 1547 409 2034 409 
Q 2525 409 2770 889 
Q 3016 1369 3016 2328 
Q 3016 3291 2770 3770 
Q 2525 4250 2034 4250 
z
M 2034 4750 
Q 2819 4750 3233 4129 
Q 3647 3509 3647 2328 
Q 3647 1150 3233 529 
Q 2819 -91 2034 -91 
Q 1250 -91 836 529 
Q 422 1150 422 2328 
Q 422 3509 836 4129 
Q 1250 4750 2034 4750 
z
" transform="scale(0.015625)"/>
        <path id="DejaVuSans-35" d="M 691 4666 
L 3169 4666 
L 3169 4134 
L 1269 4134 
L 1269 2991 
Q 1406 3038 1543 3061 
Q 1681 3084 1819 3084 
Q 2600 3084 3056 2656 
Q 3513 2228 3513 1497 
Q 3513 744 3044 326 
Q 2575 -91 1722 -91 
Q 1428 -91 1123 -41 
Q 819 9 494 109 
L 494 744 
Q 775 591 1075 516 
Q 1375 441 1709 441 
Q 2250 441 2565 725 
Q 2881 1009 2881 1497 
Q 2881 1984 2565 2268 
Q 2250 2553 1709 2553 
Q 1456 2553 1204 2497 
Q 953 2441 691 2322 
L 691 4666 
z
" transform="scale(0.015625)"/>
       </defs>
       <use xlink:href="#DejaVuSans-32"/>
       <use xlink:href="#DejaVuSans-30" transform="translate(63.623047 0)"/>
       <use xlink:href="#DejaVuSans-30" transform="translate(127.246094 0)"/>
       <use xlink:href="#DejaVuSans-35" transform="translate(190.869141 0)"/>
      </g>
     </g>
    </g>
    <g id="xtick_2">
     <g id="line2d_2">
      <g>
       <use xlink:href="#m9403779f31" x="149.98142" y="453.037187" style="stroke: #000000; stroke-width: 0.8"/>
      </g>
     </g>
     <g id="text_2">
      <!-- 2007 -->
      <g transform="translate(134.71142 469.155312) scale(0.12 -0.12)">
       <defs>
        <path id="DejaVuSans-37" d="M 525 4666 
L 3525 4666 
L 3525 4397 
L 1831 0 
L 1172 0 
L 2766 4134 
L 525 4134 
L 525 4666 
z
" transform="scale(0.015625)"/>
       </defs>
       <use xlink:href="#DejaVuSans-32"/>
       <use xlink:href="#DejaVuSans-30" transform="translate(63.623047 0)"/>
       <use xlink:href="#DejaVuSans-30" transform="translate(127.246094 0)"/>
       <use xlink:href="#DejaVuSans-37" transform="translate(190.869141 0)"/>
      </g>
     </g>
    </g>
    <g id="xtick_3">
     <g id="line2d_3">
      <g>
       <use xlink:href="#m9403779f31" x="208.442784" y="453.037187" style="stroke: #000000; stroke-width: 0.8"/>
      </g>
     </g>
     <g id="text_3">
      <!-- 2009 -->
      <g transform="translate(193.172784 469.155312) scale(0.12 -0.12)">
       <defs>
        <path id="DejaVuSans-39" d="M 703 97 
L 703 672 
Q 941 559 1184 500 
Q 1428 441 1663 441 
Q 2288 441 2617 861 
Q 2947 1281 2994 2138 
Q 2813 1869 2534 1725 
Q 2256 1581 1919 1581 
Q 1219 1581 811 2004 
Q 403 2428 403 3163 
Q 403 3881 828 4315 
Q 1253 4750 1959 4750 
Q 2769 4750 3195 4129 
Q 3622 3509 3622 2328 
Q 3622 1225 3098 567 
Q 2575 -91 1691 -91 
Q 1453 -91 1209 -44 
Q 966 3 703 97 
z
M 1959 2075 
Q 2384 2075 2632 2365 
Q 2881 2656 2881 3163 
Q 2881 3666 2632 3958 
Q 2384 4250 1959 4250 
Q 1534 4250 1286 3958 
Q 1038 3666 1038 3163 
Q 1038 2656 1286 2365 
Q 1534 2075 1959 2075 
z
" transform="scale(0.015625)"/>
       </defs>
       <use xlink:href="#DejaVuSans-32"/>
       <use xlink:href="#DejaVuSans-30" transform="translate(63.623047 0)"/>
       <use xlink:href="#DejaVuSans-30" transform="translate(127.246094 0)"/>
       <use xlink:href="#DejaVuSans-39" transform="translate(190.869141 0)"/>
      </g>
     </g>
    </g>
    <g id="xtick_4">
     <g id="line2d_4">
      <g>
       <use xlink:href="#m9403779f31" x="266.904148" y="453.037187" style="stroke: #000000; stroke-width: 0.8"/>
      </g>
     </g>
     <g id="text_4">
      <!-- 2011 -->
      <g transform="translate(251.634148 469.155312) scale(0.12 -0.12)">
       <defs>
        <path id="DejaVuSans-31" d="M 794 531 
L 1825 531 
L 1825 4091 
L 703 3866 
L 703 4441 
L 1819 4666 
L 2450 4666 
L 2450 531 
L 3481 531 
L 3481 0 
L 794 0 
L 794 531 
z
" transform="scale(0.015625)"/>
       </defs>
       <use xlink:href="#DejaVuSans-32"/>
       <use xlink:href="#DejaVuSans-30" transform="translate(63.623047 0)"/>
       <use xlink:href="#DejaVuSans-31" transform="translate(127.246094 0)"/>
       <use xlink:href="#DejaVuSans-31" transform="translate(190.869141 0)"/>
      </g>
     </g>
    </g>
    <g id="xtick_5">
     <g id="line2d_5">
      <g>
       <use xlink:href="#m9403779f31" x="325.365511" y="453.037187" style="stroke: #000000; stroke-width: 0.8"/>
      </g>
     </g>
     <g id="text_5">
      <!-- 2013 -->
      <g transform="translate(310.095511 469.155312) scale(0.12 -0.12)">
       <defs>
        <path id="DejaVuSans-33" d="M 2597 2516 
Q 3050 2419 3304 2112 
Q 3559 1806 3559 1356 
Q 3559 666 3084 287 
Q 2609 -91 1734 -91 
Q 1441 -91 1130 -33 
Q 819 25 488 141 
L 488 750 
Q 750 597 1062 519 
Q 1375 441 1716 441 
Q 2309 441 2620 675 
Q 2931 909 2931 1356 
Q 2931 1769 2642 2001 
Q 2353 2234 1838 2234 
L 1294 2234 
L 1294 2753 
L 1863 2753 
Q 2328 2753 2575 2939 
Q 2822 3125 2822 3475 
Q 2822 3834 2567 4026 
Q 2313 4219 1838 4219 
Q 1578 4219 1281 4162 
Q 984 4106 628 3988 
L 628 4550 
Q 988 4650 1302 4700 
Q 1616 4750 1894 4750 
Q 2613 4750 3031 4423 
Q 3450 4097 3450 3541 
Q 3450 3153 3228 2886 
Q 3006 2619 2597 2516 
z
" transform="scale(0.015625)"/>
       </defs>
       <use xlink:href="#DejaVuSans-32"/>
       <use xlink:href="#DejaVuSans-30" transform="translate(63.623047 0)"/>
       <use xlink:href="#DejaVuSans-31" transform="translate(127.246094 0)"/>
       <use xlink:href="#DejaVuSans-33" transform="translate(190.869141 0)"/>
      </g>
     </g>
    </g>
    <g id="xtick_6">
     <g id="line2d_6">
      <g>
       <use xlink:href="#m9403779f31" x="383.826875" y="453.037187" style="stroke: #000000; stroke-width: 0.8"/>
      </g>
     </g>
     <g id="text_6">
      <!-- 2015 -->
      <g transform="translate(368.556875 469.155312) scale(0.12 -0.12)">
       <use xlink:href="#DejaVuSans-32"/>
       <use xlink:href="#DejaVuSans-30" transform="translate(63.623047 0)"/>
       <use xlink:href="#DejaVuSans-31" transform="translate(127.246094 0)"/>
       <use xlink:href="#DejaVuSans-35" transform="translate(190.869141 0)"/>
      </g>
     </g>
    </g>
    <g id="xtick_7">
     <g id="line2d_7">
      <g>
       <use xlink:href="#m9403779f31" x="442.288239" y="453.037187" style="stroke: #000000; stroke-width: 0.8"/>
      </g>
     </g>
     <g id="text_7">
      <!-- 2017 -->
      <g transform="translate(427.018239 469.155312) scale(0.12 -0.12)">
       <use xlink:href="#DejaVuSans-32"/>
       <use xlink:href="#DejaVuSans-30" transform="translate(63.623047 0)"/>
       <use xlink:href="#DejaVuSans-31" transform="translate(127.246094 0)"/>
       <use xlink:href="#DejaVuSans-37" transform="translate(190.869141 0)"/>
      </g>
     </g>
    </g>
    <g id="xtick_8">
     <g id="line2d_8">
      <g>
       <use xlink:href="#m9403779f31" x="500.749602" y="453.037187" style="stroke: #000000; stroke-width: 0.8"/>
      </g>
     </g>
     <g id="text_8">
      <!-- 2019 -->
      <g transform="translate(485.479602 469.155312) scale(0.12 -0.12)">
       <use xlink:href="#DejaVuSans-32"/>
       <use xlink:href="#DejaVuSans-30" transform="translate(63.623047 0)"/>
       <use xlink:href="#DejaVuSans-31" transform="translate(127.246094 0)"/>
       <use xlink:href="#DejaVuSans-39" transform="translate(190.869141 0)"/>
      </g>
     </g>
    </g>
    <g id="xtick_9">
     <g id="line2d_9">
      <g>
       <use xlink:href="#m9403779f31" x="559.210966" y="453.037187" style="stroke: #000000; stroke-width: 0.8"/>
      </g>
     </g>
     <g id="text_9">
      <!-- 2021 -->
      <g transform="translate(543.940966 469.155312) scale(0.12 -0.12)">
       <use xlink:href="#DejaVuSans-32"/>
       <use xlink:href="#DejaVuSans-30" transform="translate(63.623047 0)"/>
       <use xlink:href="#DejaVuSans-32" transform="translate(127.246094 0)"/>
       <use xlink:href="#DejaVuSans-31" transform="translate(190.869141 0)"/>
      </g>
     </g>
    </g>
    <g id="xtick_10">
     <g id="line2d_10">
      <g>
       <use xlink:href="#m9403779f31" x="617.67233" y="453.037187" style="stroke: #000000; stroke-width: 0.8"/>
      </g>
     </g>
     <g id="text_10">
      <!-- 2023 -->
      <g transform="translate(602.40233 469.155312) scale(0.12 -0.12)">
       <use xlink:href="#DejaVuSans-32"/>
       <use xlink:href="#DejaVuSans-30" transform="translate(63.623047 0)"/>
       <use xlink:href="#DejaVuSans-32" transform="translate(127.246094 0)"/>
       <use xlink:href="#DejaVuSans-33" transform="translate(190.869141 0)"/>
      </g>
     </g>
    </g>
    <g id="xtick_11">
     <g id="line2d_11">
      <g>
       <use xlink:href="#m9403779f31" x="676.133693" y="453.037187" style="stroke: #000000; stroke-width: 0.8"/>
      </g>
     </g>
     <g id="text_11">
      <!-- 2025 -->
      <g transform="translate(660.863693 469.155312) scale(0.12 -0.12)">
       <use xlink:href="#DejaVuSans-32"/>
       <use xlink:href="#DejaVuSans-30" transform="translate(63.623047 0)"/>
       <use xlink:href="#DejaVuSans-32" transform="translate(127.246094 0)"/>
       <use xlink:href="#DejaVuSans-35" transform="translate(190.869141 0)"/>
      </g>
     </g>
    </g>
    <g id="text_12">
     <!-- Year -->
     <g transform="translate(369.004375 486.28875) scale(0.14 -0.14)">
      <defs>
       <path id="DejaVuSans-59" d="M -13 4666 
L 666 4666 
L 1959 2747 
L 3244 4666 
L 3922 4666 
L 2272 2222 
L 2272 0 
L 1638 0 
L 1638 2222 
L -13 4666 
z
" transform="scale(0.015625)"/>
       <path id="DejaVuSans-65" d="M 3597 1894 
L 3597 1613 
L 953 1613 
Q 991 1019 1311 708 
Q 1631 397 2203 397 
Q 2534 397 2845 478 
Q 3156 559 3463 722 
L 3463 178 
Q 3153 47 2828 -22 
Q 2503 -91 2169 -91 
Q 1331 -91 842 396 
Q 353 884 353 1716 
Q 353 2575 817 3079 
Q 1281 3584 2069 3584 
Q 2775 3584 3186 3129 
Q 3597 2675 3597 1894 
z
M 3022 2063 
Q 3016 2534 2758 2815 
Q 2500 3097 2075 3097 
Q 1594 3097 1305 2825 
Q 1016 2553 972 2059 
L 3022 2063 
z
" transform="scale(0.015625)"/>
       <path id="DejaVuSans-61" d="M 2194 1759 
Q 1497 1759 1228 1600 
Q 959 1441 959 1056 
Q 959 750 1161 570 
Q 1363 391 1709 391 
Q 2188 391 2477 730 
Q 2766 1069 2766 1631 
L 2766 1759 
L 2194 1759 
z
M 3341 1997 
L 3341 0 
L 2766 0 
L 2766 531 
Q 2569 213 2275 61 
Q 1981 -91 1556 -91 
Q 1019 -91 701 211 
Q 384 513 384 1019 
Q 384 1609 779 1909 
Q 1175 2209 1959 2209 
L 2766 2209 
L 2766 2266 
Q 2766 2663 2505 2880 
Q 2244 3097 1772 3097 
Q 1472 3097 1187 3025 
Q 903 2953 641 2809 
L 641 3341 
Q 956 3463 1253 3523 
Q 1550 3584 1831 3584 
Q 2591 3584 2966 3190 
Q 3341 2797 3341 1997 
z
" transform="scale(0.015625)"/>
       <path id="DejaVuSans-72" d="M 2631 2963 
Q 2534 3019 2420 3045 
Q 2306 3072 2169 3072 
Q 1681 3072 1420 2755 
Q 1159 2438 1159 1844 
L 1159 0 
L 581 0 
L 581 3500 
L 1159 3500 
L 1159 2956 
Q 1341 3275 1631 3429 
Q 1922 3584 2338 3584 
Q 2397 3584 2469 3576 
Q 2541 3569 2628 3553 
L 2631 2963 
z
" transform="scale(0.015625)"/>
      </defs>
      <use xlink:href="#DejaVuSans-59"/>
      <use xlink:href="#DejaVuSans-65" transform="translate(47.833984 0)"/>
      <use xlink:href="#DejaVuSans-61" transform="translate(109.357422 0)"/>
      <use xlink:href="#DejaVuSans-72" transform="translate(170.636719 0)"/>
     </g>
    </g>
   </g>
   <g id="matplotlib.axis_2">
    <g id="ytick_1">
     <g id="line2d_12">
      <path d="M 62.289375 453.037187 
L 705.364375 453.037187 
" clip-path="url(#pa5e410f6dd)" style="fill: none; stroke-dasharray: 2.96,1.28; stroke-dashoffset: 0; stroke: #b0b0b0; stroke-opacity: 0.7; stroke-width: 0.8"/>
     </g>
     <g id="line2d_13">
      <defs>
       <path id="m08ac554d39" d="M 0 0 
L -3.5 0 
" style="stroke: #000000; stroke-width: 0.8"/>
      </defs>
      <g>
       <use xlink:href="#m08ac554d39" x="62.289375" y="453.037187" style="stroke: #000000; stroke-width: 0.8"/>
      </g>
     </g>
     <g id="text_13">
      <!-- 0 -->
      <g transform="translate(47.654375 457.59625) scale(0.12 -0.12)">
       <use xlink:href="#DejaVuSans-30"/>
      </g>
     </g>
    </g>
    <g id="ytick_2">
     <g id="line2d_14">
      <path d="M 62.289375 398.323428 
L 705.364375 398.323428 
" clip-path="url(#pa5e410f6dd)" style="fill: none; stroke-dasharray: 2.96,1.28; stroke-dashoffset: 0; stroke: #b0b0b0; stroke-opacity: 0.7; stroke-width: 0.8"/>
     </g>
     <g id="line2d_15">
      <g>
       <use xlink:href="#m08ac554d39" x="62.289375" y="398.323428" style="stroke: #000000; stroke-width: 0.8"/>
      </g>
     </g>
     <g id="text_14">
      <!-- 1000 -->
      <g transform="translate(24.749375 402.882491) scale(0.12 -0.12)">
       <use xlink:href="#DejaVuSans-31"/>
       <use xlink:href="#DejaVuSans-30" transform="translate(63.623047 0)"/>
       <use xlink:href="#DejaVuSans-30" transform="translate(127.246094 0)"/>
       <use xlink:href="#DejaVuSans-30" transform="translate(190.869141 0)"/>
      </g>
     </g>
    </g>
    <g id="ytick_3">
     <g id="line2d_16">
      <path d="M 62.289375 343.609669 
L 705.364375 343.609669 
" clip-path="url(#pa5e410f6dd)" style="fill: none; stroke-dasharray: 2.96,1.28; stroke-dashoffset: 0; stroke: #b0b0b0; stroke-opacity: 0.7; stroke-width: 0.8"/>
     </g>
     <g id="line2d_17">
      <g>
       <use xlink:href="#m08ac554d39" x="62.289375" y="343.609669" style="stroke: #000000; stroke-width: 0.8"/>
      </g>
     </g>
     <g id="text_15">
      <!-- 2000 -->
      <g transform="translate(24.749375 348.168731) scale(0.12 -0.12)">
       <use xlink:href="#DejaVuSans-32"/>
       <use xlink:href="#DejaVuSans-30" transform="translate(63.623047 0)"/>
       <use xlink:href="#DejaVuSans-30" transform="translate(127.246094 0)"/>
       <use xlink:href="#DejaVuSans-30" transform="translate(190.869141 0)"/>
      </g>
     </g>
    </g>
    <g id="ytick_4">
     <g id="line2d_18">
      <path d="M 62.289375 288.89591 
L 705.364375 288.89591 
" clip-path="url(#pa5e410f6dd)" style="fill: none; stroke-dasharray: 2.96,1.28; stroke-dashoffset: 0; stroke: #b0b0b0; stroke-opacity: 0.7; stroke-width: 0.8"/>
     </g>
     <g id="line2d_19">
      <g>
       <use xlink:href="#m08ac554d39" x="62.289375" y="288.89591" style="stroke: #000000; stroke-width: 0.8"/>
      </g>
     </g>
     <g id="text_16">
      <!-- 3000 -->
      <g transform="translate(24.749375 293.454972) scale(0.12 -0.12)">
       <use xlink:href="#DejaVuSans-33"/>
       <use xlink:href="#DejaVuSans-30" transform="translate(63.623047 0)"/>
       <use xlink:href="#DejaVuSans-30" transform="translate(127.246094 0)"/>
       <use xlink:href="#DejaVuSans-30" transform="translate(190.869141 0)"/>
      </g>
     </g>
    </g>
    <g id="ytick_5">
     <g id="line2d_20">
      <path d="M 62.289375 234.18215 
L 705.364375 234.18215 
" clip-path="url(#pa5e410f6dd)" style="fill: none; stroke-dasharray: 2.96,1.28; stroke-dashoffset: 0; stroke: #b0b0b0; stroke-opacity: 0.7; stroke-width: 0.8"/>
     </g>
     <g id="line2d_21">
      <g>
       <use xlink:href="#m08ac554d39" x="62.289375" y="234.18215" style="stroke: #000000; stroke-width: 0.8"/>
      </g>
     </g>
     <g id="text_17">
      <!-- 4000 -->
      <g transform="translate(24.749375 238.741213) scale(0.12 -0.12)">
       <defs>
        <path id="DejaVuSans-34" d="M 2419 4116 
L 825 1625 
L 2419 1625 
L 2419 4116 
z
M 2253 4666 
L 3047 4666 
L 3047 1625 
L 3713 1625 
L 3713 1100 
L 3047 1100 
L 3047 0 
L 2419 0 
L 2419 1100 
L 313 1100 
L 313 1709 
L 2253 4666 
z
" transform="scale(0.015625)"/>
       </defs>
       <use xlink:href="#DejaVuSans-34"/>
       <use xlink:href="#DejaVuSans-30" transform="translate(63.623047 0)"/>
       <use xlink:href="#DejaVuSans-30" transform="translate(127.246094 0)"/>
       <use xlink:href="#DejaVuSans-30" transform="translate(190.869141 0)"/>
      </g>
     </g>
    </g>
    <g id="ytick_6">
     <g id="line2d_22">
      <path d="M 62.289375 179.468391 
L 705.364375 179.468391 
" clip-path="url(#pa5e410f6dd)" style="fill: none; stroke-dasharray: 2.96,1.28; stroke-dashoffset: 0; stroke: #b0b0b0; stroke-opacity: 0.7; stroke-width: 0.8"/>
     </g>
     <g id="line2d_23">
      <g>
       <use xlink:href="#m08ac554d39" x="62.289375" y="179.468391" style="stroke: #000000; stroke-width: 0.8"/>
      </g>
     </g>
     <g id="text_18">
      <!-- 5000 -->
      <g transform="translate(24.749375 184.027453) scale(0.12 -0.12)">
       <use xlink:href="#DejaVuSans-35"/>
       <use xlink:href="#DejaVuSans-30" transform="translate(63.623047 0)"/>
       <use xlink:href="#DejaVuSans-30" transform="translate(127.246094 0)"/>
       <use xlink:href="#DejaVuSans-30" transform="translate(190.869141 0)"/>
      </g>
     </g>
    </g>
    <g id="ytick_7">
     <g id="line2d_24">
      <path d="M 62.289375 124.754632 
L 705.364375 124.754632 
" clip-path="url(#pa5e410f6dd)" style="fill: none; stroke-dasharray: 2.96,1.28; stroke-dashoffset: 0; stroke: #b0b0b0; stroke-opacity: 0.7; stroke-width: 0.8"/>
     </g>
     <g id="line2d_25">
      <g>
       <use xlink:href="#m08ac554d39" x="62.289375" y="124.754632" style="stroke: #000000; stroke-width: 0.8"/>
      </g>
     </g>
     <g id="text_19">
      <!-- 6000 -->
      <g transform="translate(24.749375 129.313694) scale(0.12 -0.12)">
       <defs>
        <path id="DejaVuSans-36" d="M 2113 2584 
Q 1688 2584 1439 2293 
Q 1191 2003 1191 1497 
Q 1191 994 1439 701 
Q 1688 409 2113 409 
Q 2538 409 2786 701 
Q 3034 994 3034 1497 
Q 3034 2003 2786 2293 
Q 2538 2584 2113 2584 
z
M 3366 4563 
L 3366 3988 
Q 3128 4100 2886 4159 
Q 2644 4219 2406 4219 
Q 1781 4219 1451 3797 
Q 1122 3375 1075 2522 
Q 1259 2794 1537 2939 
Q 1816 3084 2150 3084 
Q 2853 3084 3261 2657 
Q 3669 2231 3669 1497 
Q 3669 778 3244 343 
Q 2819 -91 2113 -91 
Q 1303 -91 875 529 
Q 447 1150 447 2328 
Q 447 3434 972 4092 
Q 1497 4750 2381 4750 
Q 2619 4750 2861 4703 
Q 3103 4656 3366 4563 
z
" transform="scale(0.015625)"/>
       </defs>
       <use xlink:href="#DejaVuSans-36"/>
       <use xlink:href="#DejaVuSans-30" transform="translate(63.623047 0)"/>
       <use xlink:href="#DejaVuSans-30" transform="translate(127.246094 0)"/>
       <use xlink:href="#DejaVuSans-30" transform="translate(190.869141 0)"/>
      </g>
     </g>
    </g>
    <g id="ytick_8">
     <g id="line2d_26">
      <path d="M 62.289375 70.040872 
L 705.364375 70.040872 
" clip-path="url(#pa5e410f6dd)" style="fill: none; stroke-dasharray: 2.96,1.28; stroke-dashoffset: 0; stroke: #b0b0b0; stroke-opacity: 0.7; stroke-width: 0.8"/>
     </g>
     <g id="line2d_27">
      <g>
       <use xlink:href="#m08ac554d39" x="62.289375" y="70.040872" style="stroke: #000000; stroke-width: 0.8"/>
      </g>
     </g>
     <g id="text_20">
      <!-- 7000 -->
      <g transform="translate(24.749375 74.599935) scale(0.12 -0.12)">
       <use xlink:href="#DejaVuSans-37"/>
       <use xlink:href="#DejaVuSans-30" transform="translate(63.623047 0)"/>
       <use xlink:href="#DejaVuSans-30" transform="translate(127.246094 0)"/>
       <use xlink:href="#DejaVuSans-30" transform="translate(190.869141 0)"/>
      </g>
     </g>
    </g>
    <g id="text_21">
     <!-- Number of Entries -->
     <g transform="translate(17.837813 303.653906) rotate(-90) scale(0.14 -0.14)">
      <defs>
       <path id="DejaVuSans-4e" d="M 628 4666 
L 1478 4666 
L 3547 763 
L 3547 4666 
L 4159 4666 
L 4159 0 
L 3309 0 
L 1241 3903 
L 1241 0 
L 628 0 
L 628 4666 
z
" transform="scale(0.015625)"/>
       <path id="DejaVuSans-75" d="M 544 1381 
L 544 3500 
L 1119 3500 
L 1119 1403 
Q 1119 906 1312 657 
Q 1506 409 1894 409 
Q 2359 409 2629 706 
Q 2900 1003 2900 1516 
L 2900 3500 
L 3475 3500 
L 3475 0 
L 2900 0 
L 2900 538 
Q 2691 219 2414 64 
Q 2138 -91 1772 -91 
Q 1169 -91 856 284 
Q 544 659 544 1381 
z
M 1991 3584 
L 1991 3584 
z
" transform="scale(0.015625)"/>
       <path id="DejaVuSans-6d" d="M 3328 2828 
Q 3544 3216 3844 3400 
Q 4144 3584 4550 3584 
Q 5097 3584 5394 3201 
Q 5691 2819 5691 2113 
L 5691 0 
L 5113 0 
L 5113 2094 
Q 5113 2597 4934 2840 
Q 4756 3084 4391 3084 
Q 3944 3084 3684 2787 
Q 3425 2491 3425 1978 
L 3425 0 
L 2847 0 
L 2847 2094 
Q 2847 2600 2669 2842 
Q 2491 3084 2119 3084 
Q 1678 3084 1418 2786 
Q 1159 2488 1159 1978 
L 1159 0 
L 581 0 
L 581 3500 
L 1159 3500 
L 1159 2956 
Q 1356 3278 1631 3431 
Q 1906 3584 2284 3584 
Q 2666 3584 2933 3390 
Q 3200 3197 3328 2828 
z
" transform="scale(0.015625)"/>
       <path id="DejaVuSans-62" d="M 3116 1747 
Q 3116 2381 2855 2742 
Q 2594 3103 2138 3103 
Q 1681 3103 1420 2742 
Q 1159 2381 1159 1747 
Q 1159 1113 1420 752 
Q 1681 391 2138 391 
Q 2594 391 2855 752 
Q 3116 1113 3116 1747 
z
M 1159 2969 
Q 1341 3281 1617 3432 
Q 1894 3584 2278 3584 
Q 2916 3584 3314 3078 
Q 3713 2572 3713 1747 
Q 3713 922 3314 415 
Q 2916 -91 2278 -91 
Q 1894 -91 1617 61 
Q 1341 213 1159 525 
L 1159 0 
L 581 0 
L 581 4863 
L 1159 4863 
L 1159 2969 
z
" transform="scale(0.015625)"/>
       <path id="DejaVuSans-20" transform="scale(0.015625)"/>
       <path id="DejaVuSans-6f" d="M 1959 3097 
Q 1497 3097 1228 2736 
Q 959 2375 959 1747 
Q 959 1119 1226 758 
Q 1494 397 1959 397 
Q 2419 397 2687 759 
Q 2956 1122 2956 1747 
Q 2956 2369 2687 2733 
Q 2419 3097 1959 3097 
z
M 1959 3584 
Q 2709 3584 3137 3096 
Q 3566 2609 3566 1747 
Q 3566 888 3137 398 
Q 2709 -91 1959 -91 
Q 1206 -91 779 398 
Q 353 888 353 1747 
Q 353 2609 779 3096 
Q 1206 3584 1959 3584 
z
" transform="scale(0.015625)"/>
       <path id="DejaVuSans-66" d="M 2375 4863 
L 2375 4384 
L 1825 4384 
Q 1516 4384 1395 4259 
Q 1275 4134 1275 3809 
L 1275 3500 
L 2222 3500 
L 2222 3053 
L 1275 3053 
L 1275 0 
L 697 0 
L 697 3053 
L 147 3053 
L 147 3500 
L 697 3500 
L 697 3744 
Q 697 4328 969 4595 
Q 1241 4863 1831 4863 
L 2375 4863 
z
" transform="scale(0.015625)"/>
       <path id="DejaVuSans-45" d="M 628 4666 
L 3578 4666 
L 3578 4134 
L 1259 4134 
L 1259 2753 
L 3481 2753 
L 3481 2222 
L 1259 2222 
L 1259 531 
L 3634 531 
L 3634 0 
L 628 0 
L 628 4666 
z
" transform="scale(0.015625)"/>
       <path id="DejaVuSans-6e" d="M 3513 2113 
L 3513 0 
L 2938 0 
L 2938 2094 
Q 2938 2591 2744 2837 
Q 2550 3084 2163 3084 
Q 1697 3084 1428 2787 
Q 1159 2491 1159 1978 
L 1159 0 
L 581 0 
L 581 3500 
L 1159 3500 
L 1159 2956 
Q 1366 3272 1645 3428 
Q 1925 3584 2291 3584 
Q 2894 3584 3203 3211 
Q 3513 2838 3513 2113 
z
" transform="scale(0.015625)"/>
       <path id="DejaVuSans-74" d="M 1172 4494 
L 1172 3500 
L 2356 3500 
L 2356 3053 
L 1172 3053 
L 1172 1153 
Q 1172 725 1289 603 
Q 1406 481 1766 481 
L 2356 481 
L 2356 0 
L 1766 0 
Q 1100 0 847 248 
Q 594 497 594 1153 
L 594 3053 
L 172 3053 
L 172 3500 
L 594 3500 
L 594 4494 
L 1172 4494 
z
" transform="scale(0.015625)"/>
       <path id="DejaVuSans-69" d="M 603 3500 
L 1178 3500 
L 1178 0 
L 603 0 
L 603 3500 
z
M 603 4863 
L 1178 4863 
L 1178 4134 
L 603 4134 
L 603 4863 
z
" transform="scale(0.015625)"/>
       <path id="DejaVuSans-73" d="M 2834 3397 
L 2834 2853 
Q 2591 2978 2328 3040 
Q 2066 3103 1784 3103 
Q 1356 3103 1142 2972 
Q 928 2841 928 2578 
Q 928 2378 1081 2264 
Q 1234 2150 1697 2047 
L 1894 2003 
Q 2506 1872 2764 1633 
Q 3022 1394 3022 966 
Q 3022 478 2636 193 
Q 2250 -91 1575 -91 
Q 1294 -91 989 -36 
Q 684 19 347 128 
L 347 722 
Q 666 556 975 473 
Q 1284 391 1588 391 
Q 1994 391 2212 530 
Q 2431 669 2431 922 
Q 2431 1156 2273 1281 
Q 2116 1406 1581 1522 
L 1381 1569 
Q 847 1681 609 1914 
Q 372 2147 372 2553 
Q 372 3047 722 3315 
Q 1072 3584 1716 3584 
Q 2034 3584 2315 3537 
Q 2597 3491 2834 3397 
z
" transform="scale(0.015625)"/>
      </defs>
      <use xlink:href="#DejaVuSans-4e"/>
      <use xlink:href="#DejaVuSans-75" transform="translate(74.804688 0)"/>
      <use xlink:href="#DejaVuSans-6d" transform="translate(138.183594 0)"/>
      <use xlink:href="#DejaVuSans-62" transform="translate(235.595703 0)"/>
      <use xlink:href="#DejaVuSans-65" transform="translate(299.072266 0)"/>
      <use xlink:href="#DejaVuSans-72" transform="translate(360.595703 0)"/>
      <use xlink:href="#DejaVuSans-20" transform="translate(401.708984 0)"/>
      <use xlink:href="#DejaVuSans-6f" transform="translate(433.496094 0)"/>
      <use xlink:href="#DejaVuSans-66" transform="translate(494.677734 0)"/>
      <use xlink:href="#DejaVuSans-20" transform="translate(529.882812 0)"/>
      <use xlink:href="#DejaVuSans-45" transform="translate(561.669922 0)"/>
      <use xlink:href="#DejaVuSans-6e" transform="translate(624.853516 0)"/>
      <use xlink:href="#DejaVuSans-74" transform="translate(688.232422 0)"/>
      <use xlink:href="#DejaVuSans-72" transform="translate(727.441406 0)"/>
      <use xlink:href="#DejaVuSans-69" transform="translate(768.554688 0)"/>
      <use xlink:href="#DejaVuSans-65" transform="translate(796.337891 0)"/>
      <use xlink:href="#DejaVuSans-73" transform="translate(857.861328 0)"/>
     </g>
    </g>
   </g>
   <g id="patch_3">
    <path d="M 62.289375 453.037187 
L 62.289375 26.877187 
" style="fill: none; stroke: #000000; stroke-width: 0.8; stroke-linejoin: miter; stroke-linecap: square"/>
   </g>
   <g id="patch_4">
    <path d="M 705.364375 453.037187 
L 705.364375 26.877187 
" style="fill: none; stroke: #000000; stroke-width: 0.8; stroke-linejoin: miter; stroke-linecap: square"/>
   </g>
   <g id="patch_5">
    <path d="M 62.289375 453.037187 
L 705.364375 453.037187 
" style="fill: none; stroke: #000000; stroke-width: 0.8; stroke-linejoin: miter; stroke-linecap: square"/>
   </g>
   <g id="patch_6">
    <path d="M 62.289375 26.877187 
L 705.364375 26.877187 
" style="fill: none; stroke: #000000; stroke-width: 0.8; stroke-linejoin: miter; stroke-linecap: square"/>
   </g>
   <g id="text_22">
    <!-- ToxProt Database Growth by Taxa Order -->
    <g transform="translate(204.701563 20.877187) scale(0.18 -0.18)">
     <defs>
      <path id="DejaVuSans-54" d="M -19 4666 
L 3928 4666 
L 3928 4134 
L 2272 4134 
L 2272 0 
L 1638 0 
L 1638 4134 
L -19 4134 
L -19 4666 
z
" transform="scale(0.015625)"/>
      <path id="DejaVuSans-78" d="M 3513 3500 
L 2247 1797 
L 3578 0 
L 2900 0 
L 1881 1375 
L 863 0 
L 184 0 
L 1544 1831 
L 300 3500 
L 978 3500 
L 1906 2253 
L 2834 3500 
L 3513 3500 
z
" transform="scale(0.015625)"/>
      <path id="DejaVuSans-50" d="M 1259 4147 
L 1259 2394 
L 2053 2394 
Q 2494 2394 2734 2622 
Q 2975 2850 2975 3272 
Q 2975 3691 2734 3919 
Q 2494 4147 2053 4147 
L 1259 4147 
z
M 628 4666 
L 2053 4666 
Q 2838 4666 3239 4311 
Q 3641 3956 3641 3272 
Q 3641 2581 3239 2228 
Q 2838 1875 2053 1875 
L 1259 1875 
L 1259 0 
L 628 0 
L 628 4666 
z
" transform="scale(0.015625)"/>
      <path id="DejaVuSans-44" d="M 1259 4147 
L 1259 519 
L 2022 519 
Q 2988 519 3436 956 
Q 3884 1394 3884 2338 
Q 3884 3275 3436 3711 
Q 2988 4147 2022 4147 
L 1259 4147 
z
M 628 4666 
L 1925 4666 
Q 3281 4666 3915 4102 
Q 4550 3538 4550 2338 
Q 4550 1131 3912 565 
Q 3275 0 1925 0 
L 628 0 
L 628 4666 
z
" transform="scale(0.015625)"/>
      <path id="DejaVuSans-47" d="M 3809 666 
L 3809 1919 
L 2778 1919 
L 2778 2438 
L 4434 2438 
L 4434 434 
Q 4069 175 3628 42 
Q 3188 -91 2688 -91 
Q 1594 -91 976 548 
Q 359 1188 359 2328 
Q 359 3472 976 4111 
Q 1594 4750 2688 4750 
Q 3144 4750 3555 4637 
Q 3966 4525 4313 4306 
L 4313 3634 
Q 3963 3931 3569 4081 
Q 3175 4231 2741 4231 
Q 1884 4231 1454 3753 
Q 1025 3275 1025 2328 
Q 1025 1384 1454 906 
Q 1884 428 2741 428 
Q 3075 428 3337 486 
Q 3600 544 3809 666 
z
" transform="scale(0.015625)"/>
      <path id="DejaVuSans-77" d="M 269 3500 
L 844 3500 
L 1563 769 
L 2278 3500 
L 2956 3500 
L 3675 769 
L 4391 3500 
L 4966 3500 
L 4050 0 
L 3372 0 
L 2619 2869 
L 1863 0 
L 1184 0 
L 269 3500 
z
" transform="scale(0.015625)"/>
      <path id="DejaVuSans-68" d="M 3513 2113 
L 3513 0 
L 2938 0 
L 2938 2094 
Q 2938 2591 2744 2837 
Q 2550 3084 2163 3084 
Q 1697 3084 1428 2787 
Q 1159 2491 1159 1978 
L 1159 0 
L 581 0 
L 581 4863 
L 1159 4863 
L 1159 2956 
Q 1366 3272 1645 3428 
Q 1925 3584 2291 3584 
Q 2894 3584 3203 3211 
Q 3513 2838 3513 2113 
z
" transform="scale(0.015625)"/>
      <path id="DejaVuSans-79" d="M 2059 -325 
Q 1816 -950 1584 -1140 
Q 1353 -1331 966 -1331 
L 506 -1331 
L 506 -850 
L 844 -850 
Q 1081 -850 1212 -737 
Q 1344 -625 1503 -206 
L 1606 56 
L 191 3500 
L 800 3500 
L 1894 763 
L 2988 3500 
L 3597 3500 
L 2059 -325 
z
" transform="scale(0.015625)"/>
      <path id="DejaVuSans-4f" d="M 2522 4238 
Q 1834 4238 1429 3725 
Q 1025 3213 1025 2328 
Q 1025 1447 1429 934 
Q 1834 422 2522 422 
Q 3209 422 3611 934 
Q 4013 1447 4013 2328 
Q 4013 3213 3611 3725 
Q 3209 4238 2522 4238 
z
M 2522 4750 
Q 3503 4750 4090 4092 
Q 4678 3434 4678 2328 
Q 4678 1225 4090 567 
Q 3503 -91 2522 -91 
Q 1538 -91 948 565 
Q 359 1222 359 2328 
Q 359 3434 948 4092 
Q 1538 4750 2522 4750 
z
" transform="scale(0.015625)"/>
      <path id="DejaVuSans-64" d="M 2906 2969 
L 2906 4863 
L 3481 4863 
L 3481 0 
L 2906 0 
L 2906 525 
Q 2725 213 2448 61 
Q 2172 -91 1784 -91 
Q 1150 -91 751 415 
Q 353 922 353 1747 
Q 353 2572 751 3078 
Q 1150 3584 1784 3584 
Q 2172 3584 2448 3432 
Q 2725 3281 2906 2969 
z
M 947 1747 
Q 947 1113 1208 752 
Q 1469 391 1925 391 
Q 2381 391 2643 752 
Q 2906 1113 2906 1747 
Q 2906 2381 2643 2742 
Q 2381 3103 1925 3103 
Q 1469 3103 1208 2742 
Q 947 2381 947 1747 
z
" transform="scale(0.015625)"/>
     </defs>
     <use xlink:href="#DejaVuSans-54"/>
     <use xlink:href="#DejaVuSans-6f" transform="translate(44.083984 0)"/>
     <use xlink:href="#DejaVuSans-78" transform="translate(102.140625 0)"/>
     <use xlink:href="#DejaVuSans-50" transform="translate(161.320312 0)"/>
     <use xlink:href="#DejaVuSans-72" transform="translate(219.873047 0)"/>
     <use xlink:href="#DejaVuSans-6f" transform="translate(258.736328 0)"/>
     <use xlink:href="#DejaVuSans-74" transform="translate(319.917969 0)"/>
     <use xlink:href="#DejaVuSans-20" transform="translate(359.126953 0)"/>
     <use xlink:href="#DejaVuSans-44" transform="translate(390.914062 0)"/>
     <use xlink:href="#DejaVuSans-61" transform="translate(467.916016 0)"/>
     <use xlink:href="#DejaVuSans-74" transform="translate(529.195312 0)"/>
     <use xlink:href="#DejaVuSans-61" transform="translate(568.404297 0)"/>
     <use xlink:href="#DejaVuSans-62" transform="translate(629.683594 0)"/>
     <use xlink:href="#DejaVuSans-61" transform="translate(693.160156 0)"/>
     <use xlink:href="#DejaVuSans-73" transform="translate(754.439453 0)"/>
     <use xlink:href="#DejaVuSans-65" transform="translate(806.539062 0)"/>
     <use xlink:href="#DejaVuSans-20" transform="translate(868.0625 0)"/>
     <use xlink:href="#DejaVuSans-47" transform="translate(899.849609 0)"/>
     <use xlink:href="#DejaVuSans-72" transform="translate(977.339844 0)"/>
     <use xlink:href="#DejaVuSans-6f" transform="translate(1016.203125 0)"/>
     <use xlink:href="#DejaVuSans-77" transform="translate(1077.384766 0)"/>
     <use xlink:href="#DejaVuSans-74" transform="translate(1159.171875 0)"/>
     <use xlink:href="#DejaVuSans-68" transform="translate(1198.380859 0)"/>
     <use xlink:href="#DejaVuSans-20" transform="translate(1261.759766 0)"/>
     <use xlink:href="#DejaVuSans-62" transform="translate(1293.546875 0)"/>
     <use xlink:href="#DejaVuSans-79" transform="translate(1357.023438 0)"/>
     <use xlink:href="#DejaVuSans-20" transform="translate(1416.203125 0)"/>
     <use xlink:href="#DejaVuSans-54" transform="translate(1447.990234 0)"/>
     <use xlink:href="#DejaVuSans-61" transform="translate(1492.574219 0)"/>
     <use xlink:href="#DejaVuSans-78" transform="translate(1553.853516 0)"/>
     <use xlink:href="#DejaVuSans-61" transform="translate(1613.033203 0)"/>
     <use xlink:href="#DejaVuSans-20" transform="translate(1674.3125 0)"/>
     <use xlink:href="#DejaVuSans-4f" transform="translate(1706.099609 0)"/>
     <use xlink:href="#DejaVuSans-72" transform="translate(1784.810547 0)"/>
     <use xlink:href="#DejaVuSans-64" transform="translate(1824.173828 0)"/>
     <use xlink:href="#DejaVuSans-65" transform="translate(1887.650391 0)"/>
     <use xlink:href="#DejaVuSans-72" transform="translate(1949.173828 0)"/>
    </g>
   </g>
   <g id="legend_1">
    <g id="patch_7">
     <path d="M 69.989375 150.634375 
L 189.127969 150.634375 
Q 191.327969 150.634375 191.327969 148.434375 
L 191.327969 34.577187 
Q 191.327969 32.377187 189.127969 32.377187 
L 69.989375 32.377187 
Q 67.789375 32.377187 67.789375 34.577187 
L 67.789375 148.434375 
Q 67.789375 150.634375 69.989375 150.634375 
z
" style="fill: #ffffff; opacity: 0.8; stroke: #cccccc; stroke-linejoin: miter"/>
    </g>
    <g id="text_23">
     <!-- Order -->
     <g transform="translate(111.085469 46.655156) scale(0.13 -0.13)">
      <use xlink:href="#DejaVuSans-4f"/>
      <use xlink:href="#DejaVuSans-72" transform="translate(78.710938 0)"/>
      <use xlink:href="#DejaVuSans-64" transform="translate(118.074219 0)"/>
      <use xlink:href="#DejaVuSans-65" transform="translate(181.550781 0)"/>
      <use xlink:href="#DejaVuSans-72" transform="translate(243.074219 0)"/>
     </g>
    </g>
    <g id="patch_8">
     <path d="M 72.189375 63.217031 
L 94.189375 63.217031 
L 94.189375 55.517031 
L 72.189375 55.517031 
z
" style="fill: #1f77b4; fill-opacity: 0.85"/>
    </g>
    <g id="text_24">
     <!-- Squamata -->
     <g transform="translate(102.989375 63.217031) scale(0.11 -0.11)">
      <defs>
       <path id="DejaVuSans-53" d="M 3425 4513 
L 3425 3897 
Q 3066 4069 2747 4153 
Q 2428 4238 2131 4238 
Q 1616 4238 1336 4038 
Q 1056 3838 1056 3469 
Q 1056 3159 1242 3001 
Q 1428 2844 1947 2747 
L 2328 2669 
Q 3034 2534 3370 2195 
Q 3706 1856 3706 1288 
Q 3706 609 3251 259 
Q 2797 -91 1919 -91 
Q 1588 -91 1214 -16 
Q 841 59 441 206 
L 441 856 
Q 825 641 1194 531 
Q 1563 422 1919 422 
Q 2459 422 2753 634 
Q 3047 847 3047 1241 
Q 3047 1584 2836 1778 
Q 2625 1972 2144 2069 
L 1759 2144 
Q 1053 2284 737 2584 
Q 422 2884 422 3419 
Q 422 4038 858 4394 
Q 1294 4750 2059 4750 
Q 2388 4750 2728 4690 
Q 3069 4631 3425 4513 
z
" transform="scale(0.015625)"/>
       <path id="DejaVuSans-71" d="M 947 1747 
Q 947 1113 1208 752 
Q 1469 391 1925 391 
Q 2381 391 2643 752 
Q 2906 1113 2906 1747 
Q 2906 2381 2643 2742 
Q 2381 3103 1925 3103 
Q 1469 3103 1208 2742 
Q 947 2381 947 1747 
z
M 2906 525 
Q 2725 213 2448 61 
Q 2172 -91 1784 -91 
Q 1150 -91 751 415 
Q 353 922 353 1747 
Q 353 2572 751 3078 
Q 1150 3584 1784 3584 
Q 2172 3584 2448 3432 
Q 2725 3281 2906 2969 
L 2906 3500 
L 3481 3500 
L 3481 -1331 
L 2906 -1331 
L 2906 525 
z
" transform="scale(0.015625)"/>
      </defs>
      <use xlink:href="#DejaVuSans-53"/>
      <use xlink:href="#DejaVuSans-71" transform="translate(63.476562 0)"/>
      <use xlink:href="#DejaVuSans-75" transform="translate(126.953125 0)"/>
      <use xlink:href="#DejaVuSans-61" transform="translate(190.332031 0)"/>
      <use xlink:href="#DejaVuSans-6d" transform="translate(251.611328 0)"/>
      <use xlink:href="#DejaVuSans-61" transform="translate(349.023438 0)"/>
      <use xlink:href="#DejaVuSans-74" transform="translate(410.302734 0)"/>
      <use xlink:href="#DejaVuSans-61" transform="translate(449.511719 0)"/>
     </g>
    </g>
    <g id="patch_9">
     <path d="M 72.189375 79.362969 
L 94.189375 79.362969 
L 94.189375 71.662969 
L 72.189375 71.662969 
z
" style="fill: #ff7f0e; fill-opacity: 0.85"/>
    </g>
    <g id="text_25">
     <!-- Araneae -->
     <g transform="translate(102.989375 79.362969) scale(0.11 -0.11)">
      <defs>
       <path id="DejaVuSans-41" d="M 2188 4044 
L 1331 1722 
L 3047 1722 
L 2188 4044 
z
M 1831 4666 
L 2547 4666 
L 4325 0 
L 3669 0 
L 3244 1197 
L 1141 1197 
L 716 0 
L 50 0 
L 1831 4666 
z
" transform="scale(0.015625)"/>
      </defs>
      <use xlink:href="#DejaVuSans-41"/>
      <use xlink:href="#DejaVuSans-72" transform="translate(68.408203 0)"/>
      <use xlink:href="#DejaVuSans-61" transform="translate(109.521484 0)"/>
      <use xlink:href="#DejaVuSans-6e" transform="translate(170.800781 0)"/>
      <use xlink:href="#DejaVuSans-65" transform="translate(234.179688 0)"/>
      <use xlink:href="#DejaVuSans-61" transform="translate(295.703125 0)"/>
      <use xlink:href="#DejaVuSans-65" transform="translate(356.982422 0)"/>
     </g>
    </g>
    <g id="patch_10">
     <path d="M 72.189375 95.508906 
L 94.189375 95.508906 
L 94.189375 87.808906 
L 72.189375 87.808906 
z
" style="fill: #2ca02c; fill-opacity: 0.85"/>
    </g>
    <g id="text_26">
     <!-- Neogastropoda -->
     <g transform="translate(102.989375 95.508906) scale(0.11 -0.11)">
      <defs>
       <path id="DejaVuSans-67" d="M 2906 1791 
Q 2906 2416 2648 2759 
Q 2391 3103 1925 3103 
Q 1463 3103 1205 2759 
Q 947 2416 947 1791 
Q 947 1169 1205 825 
Q 1463 481 1925 481 
Q 2391 481 2648 825 
Q 2906 1169 2906 1791 
z
M 3481 434 
Q 3481 -459 3084 -895 
Q 2688 -1331 1869 -1331 
Q 1566 -1331 1297 -1286 
Q 1028 -1241 775 -1147 
L 775 -588 
Q 1028 -725 1275 -790 
Q 1522 -856 1778 -856 
Q 2344 -856 2625 -561 
Q 2906 -266 2906 331 
L 2906 616 
Q 2728 306 2450 153 
Q 2172 0 1784 0 
Q 1141 0 747 490 
Q 353 981 353 1791 
Q 353 2603 747 3093 
Q 1141 3584 1784 3584 
Q 2172 3584 2450 3431 
Q 2728 3278 2906 2969 
L 2906 3500 
L 3481 3500 
L 3481 434 
z
" transform="scale(0.015625)"/>
       <path id="DejaVuSans-70" d="M 1159 525 
L 1159 -1331 
L 581 -1331 
L 581 3500 
L 1159 3500 
L 1159 2969 
Q 1341 3281 1617 3432 
Q 1894 3584 2278 3584 
Q 2916 3584 3314 3078 
Q 3713 2572 3713 1747 
Q 3713 922 3314 415 
Q 2916 -91 2278 -91 
Q 1894 -91 1617 61 
Q 1341 213 1159 525 
z
M 3116 1747 
Q 3116 2381 2855 2742 
Q 2594 3103 2138 3103 
Q 1681 3103 1420 2742 
Q 1159 2381 1159 1747 
Q 1159 1113 1420 752 
Q 1681 391 2138 391 
Q 2594 391 2855 752 
Q 3116 1113 3116 1747 
z
" transform="scale(0.015625)"/>
      </defs>
      <use xlink:href="#DejaVuSans-4e"/>
      <use xlink:href="#DejaVuSans-65" transform="translate(74.804688 0)"/>
      <use xlink:href="#DejaVuSans-6f" transform="translate(136.328125 0)"/>
      <use xlink:href="#DejaVuSans-67" transform="translate(197.509766 0)"/>
      <use xlink:href="#DejaVuSans-61" transform="translate(260.986328 0)"/>
      <use xlink:href="#DejaVuSans-73" transform="translate(322.265625 0)"/>
      <use xlink:href="#DejaVuSans-74" transform="translate(374.365234 0)"/>
      <use xlink:href="#DejaVuSans-72" transform="translate(413.574219 0)"/>
      <use xlink:href="#DejaVuSans-6f" transform="translate(452.4375 0)"/>
      <use xlink:href="#DejaVuSans-70" transform="translate(513.619141 0)"/>
      <use xlink:href="#DejaVuSans-6f" transform="translate(577.095703 0)"/>
      <use xlink:href="#DejaVuSans-64" transform="translate(638.277344 0)"/>
      <use xlink:href="#DejaVuSans-61" transform="translate(701.753906 0)"/>
     </g>
    </g>
    <g id="patch_11">
     <path d="M 72.189375 111.654844 
L 94.189375 111.654844 
L 94.189375 103.954844 
L 72.189375 103.954844 
z
" style="fill: #d62728; fill-opacity: 0.85"/>
    </g>
    <g id="text_27">
     <!-- Scorpiones -->
     <g transform="translate(102.989375 111.654844) scale(0.11 -0.11)">
      <defs>
       <path id="DejaVuSans-63" d="M 3122 3366 
L 3122 2828 
Q 2878 2963 2633 3030 
Q 2388 3097 2138 3097 
Q 1578 3097 1268 2742 
Q 959 2388 959 1747 
Q 959 1106 1268 751 
Q 1578 397 2138 397 
Q 2388 397 2633 464 
Q 2878 531 3122 666 
L 3122 134 
Q 2881 22 2623 -34 
Q 2366 -91 2075 -91 
Q 1284 -91 818 406 
Q 353 903 353 1747 
Q 353 2603 823 3093 
Q 1294 3584 2113 3584 
Q 2378 3584 2631 3529 
Q 2884 3475 3122 3366 
z
" transform="scale(0.015625)"/>
      </defs>
      <use xlink:href="#DejaVuSans-53"/>
      <use xlink:href="#DejaVuSans-63" transform="translate(63.476562 0)"/>
      <use xlink:href="#DejaVuSans-6f" transform="translate(118.457031 0)"/>
      <use xlink:href="#DejaVuSans-72" transform="translate(179.638672 0)"/>
      <use xlink:href="#DejaVuSans-70" transform="translate(220.751953 0)"/>
      <use xlink:href="#DejaVuSans-69" transform="translate(284.228516 0)"/>
      <use xlink:href="#DejaVuSans-6f" transform="translate(312.011719 0)"/>
      <use xlink:href="#DejaVuSans-6e" transform="translate(373.193359 0)"/>
      <use xlink:href="#DejaVuSans-65" transform="translate(436.572266 0)"/>
      <use xlink:href="#DejaVuSans-73" transform="translate(498.095703 0)"/>
     </g>
    </g>
    <g id="patch_12">
     <path d="M 72.189375 127.800781 
L 94.189375 127.800781 
L 94.189375 120.100781 
L 72.189375 120.100781 
z
" style="fill: #9467bd; fill-opacity: 0.85"/>
    </g>
    <g id="text_28">
     <!-- Hymenoptera -->
     <g transform="translate(102.989375 127.800781) scale(0.11 -0.11)">
      <defs>
       <path id="DejaVuSans-48" d="M 628 4666 
L 1259 4666 
L 1259 2753 
L 3553 2753 
L 3553 4666 
L 4184 4666 
L 4184 0 
L 3553 0 
L 3553 2222 
L 1259 2222 
L 1259 0 
L 628 0 
L 628 4666 
z
" transform="scale(0.015625)"/>
      </defs>
      <use xlink:href="#DejaVuSans-48"/>
      <use xlink:href="#DejaVuSans-79" transform="translate(75.195312 0)"/>
      <use xlink:href="#DejaVuSans-6d" transform="translate(134.375 0)"/>
      <use xlink:href="#DejaVuSans-65" transform="translate(231.787109 0)"/>
      <use xlink:href="#DejaVuSans-6e" transform="translate(293.310547 0)"/>
      <use xlink:href="#DejaVuSans-6f" transform="translate(356.689453 0)"/>
      <use xlink:href="#DejaVuSans-70" transform="translate(417.871094 0)"/>
      <use xlink:href="#DejaVuSans-74" transform="translate(481.347656 0)"/>
      <use xlink:href="#DejaVuSans-65" transform="translate(520.556641 0)"/>
      <use xlink:href="#DejaVuSans-72" transform="translate(582.080078 0)"/>
      <use xlink:href="#DejaVuSans-61" transform="translate(623.193359 0)"/>
     </g>
    </g>
    <g id="patch_13">
     <path d="M 72.189375 143.946719 
L 94.189375 143.946719 
L 94.189375 136.246719 
L 72.189375 136.246719 
z
" style="fill: #c0c0c0; fill-opacity: 0.85"/>
    </g>
    <g id="text_29">
     <!-- Others -->
     <g transform="translate(102.989375 143.946719) scale(0.11 -0.11)">
      <use xlink:href="#DejaVuSans-4f"/>
      <use xlink:href="#DejaVuSans-74" transform="translate(78.710938 0)"/>
      <use xlink:href="#DejaVuSans-68" transform="translate(117.919922 0)"/>
      <use xlink:href="#DejaVuSans-65" transform="translate(181.298828 0)"/>
      <use xlink:href="#DejaVuSans-72" transform="translate(242.822266 0)"/>
      <use xlink:href="#DejaVuSans-73" transform="translate(283.935547 0)"/>
     </g>
    </g>
   </g>
  </g>
 </g>
 <defs>
  <clipPath id="pa5e410f6dd">
   <rect x="62.289375" y="26.877187" width="643.075" height="426.16"/>
  </clipPath>
 </defs>
</svg>
