<?xml version="1.0" encoding="utf-8" standalone="no"?>
<!DOCTYPE svg PUBLIC "-//W3C//DTD SVG 1.1//EN"
  "http://www.w3.org/Graphics/SVG/1.1/DTD/svg11.dtd">
<svg xmlns:xlink="http://www.w3.org/1999/xlink" width="644.124219pt" height="458.320312pt" viewBox="0 0 644.124219 458.320312" xmlns="http://www.w3.org/2000/svg" version="1.1">
 <metadata>
  <rdf:RDF xmlns:dc="http://purl.org/dc/elements/1.1/" xmlns:cc="http://creativecommons.org/ns#" xmlns:rdf="http://www.w3.org/1999/02/22-rdf-syntax-ns#">
   <cc:Work>
    <dc:type rdf:resource="http://purl.org/dc/dcmitype/StillImage"/>
    <dc:date>2026-01-27T11:18:42.574272</dc:date>
    <dc:format>image/svg+xml</dc:format>
    <dc:creator>
     <cc:Agent>
      <dc:title>Matplotlib v3.10.3, https://matplotlib.org/</dc:title>
     </cc:Agent>
    </dc:creator>
   </cc:Work>
  </rdf:RDF>
 </metadata>
 <defs>
  <style type="text/css">*{stroke-linejoin: round; stroke-linecap: butt}</style>
 </defs>
 <g id="figure_1">
  <g id="patch_1">
   <path d="M 0 458.320312 
L 644.124219 458.320312 
L 644.124219 0 
L 0 0 
z
" style="fill: #ffffff"/>
  </g>
  <g id="axes_1">
   <g id="patch_2">
    <path d="M 62.289375 414.957187 
L 533.889375 414.957187 
L 533.889375 26.877187 
L 62.289375 26.877187 
z
" style="fill: #ffffff"/>
   </g>
   <g id="matplotlib.axis_1">
    <g id="xtick_1">
     <g id="line2d_1">
      <defs>
       <path id="ma123d94cb6" d="M 0 0 
L 0 3.5 
" style="stroke: #000000; stroke-width: 0.8"/>
      </defs>
      <g>
       <use xlink:href="#ma123d94cb6" x="83.725739" y="414.957187" style="stroke: #000000; stroke-width: 0.8"/>
      </g>
     </g>
     <g id="text_1">
      <!-- 2005 -->
      <g transform="translate(68.455739 431.075312) scale(0.12 -0.12)">
       <defs>
        <path id="DejaVuSans-32" d="M 1228 531 
L 3431 531 
L 3431 0 
L 469 0 
L 469 531 
Q 828 903 1448 1529 
Q 2069 2156 2228 2338 
Q 2531 2678 2651 2914 
Q 2772 3150 2772 3378 
Q 2772 3750 2511 3984 
Q 2250 4219 1831 4219 
Q 1534 4219 1204 4116 
Q 875 4013 500 3803 
L 500 4441 
Q 881 4594 1212 4672 
Q 1544 4750 1819 4750 
Q 2544 4750 2975 4387 
Q 3406 4025 3406 3419 
Q 3406 3131 3298 2873 
Q 3191 2616 2906 2266 
Q 2828 2175 2409 1742 
Q 1991 1309 1228 531 
z
" transform="scale(0.015625)"/>
        <path id="DejaVuSans-30" d="M 2034 4250 
Q 1547 4250 1301 3770 
Q 1056 3291 1056 2328 
Q 1056 1369 1301 889 
Q 1547 409 2034 409 
Q 2525 409 2770 889 
Q 3016 1369 3016 2328 
Q 3016 3291 2770 3770 
Q 2525 4250 2034 4250 
z
M 2034 4750 
Q 2819 4750 3233 4129 
Q 3647 3509 3647 2328 
Q 3647 1150 3233 529 
Q 2819 -91 2034 -91 
Q 1250 -91 836 529 
Q 422 1150 422 2328 
Q 422 3509 836 4129 
Q 1250 4750 2034 4750 
z
" transform="scale(0.015625)"/>
        <path id="DejaVuSans-35" d="M 691 4666 
L 3169 4666 
L 3169 4134 
L 1269 4134 
L 1269 2991 
Q 1406 3038 1543 3061 
Q 1681 3084 1819 3084 
Q 2600 3084 3056 2656 
Q 3513 2228 3513 1497 
Q 3513 744 3044 326 
Q 2575 -91 1722 -91 
Q 1428 -91 1123 -41 
Q 819 9 494 109 
L 494 744 
Q 775 591 1075 516 
Q 1375 441 1709 441 
Q 2250 441 2565 725 
Q 2881 1009 2881 1497 
Q 2881 1984 2565 2268 
Q 2250 2553 1709 2553 
Q 1456 2553 1204 2497 
Q 953 2441 691 2322 
L 691 4666 
z
" transform="scale(0.015625)"/>
       </defs>
       <use xlink:href="#DejaVuSans-32"/>
       <use xlink:href="#DejaVuSans-30" transform="translate(63.623047 0)"/>
       <use xlink:href="#DejaVuSans-30" transform="translate(127.246094 0)"/>
       <use xlink:href="#DejaVuSans-35" transform="translate(190.869141 0)"/>
      </g>
     </g>
    </g>
    <g id="xtick_2">
     <g id="line2d_2">
      <g>
       <use xlink:href="#ma123d94cb6" x="126.598466" y="414.957187" style="stroke: #000000; stroke-width: 0.8"/>
      </g>
     </g>
     <g id="text_2">
      <!-- 2007 -->
      <g transform="translate(111.328466 431.075312) scale(0.12 -0.12)">
       <defs>
        <path id="DejaVuSans-37" d="M 525 4666 
L 3525 4666 
L 3525 4397 
L 1831 0 
L 1172 0 
L 2766 4134 
L 525 4134 
L 525 4666 
z
" transform="scale(0.015625)"/>
       </defs>
       <use xlink:href="#DejaVuSans-32"/>
       <use xlink:href="#DejaVuSans-30" transform="translate(63.623047 0)"/>
       <use xlink:href="#DejaVuSans-30" transform="translate(127.246094 0)"/>
       <use xlink:href="#DejaVuSans-37" transform="translate(190.869141 0)"/>
      </g>
     </g>
    </g>
    <g id="xtick_3">
     <g id="line2d_3">
      <g>
       <use xlink:href="#ma123d94cb6" x="169.471193" y="414.957187" style="stroke: #000000; stroke-width: 0.8"/>
      </g>
     </g>
     <g id="text_3">
      <!-- 2009 -->
      <g transform="translate(154.201193 431.075312) scale(0.12 -0.12)">
       <defs>
        <path id="DejaVuSans-39" d="M 703 97 
L 703 672 
Q 941 559 1184 500 
Q 1428 441 1663 441 
Q 2288 441 2617 861 
Q 2947 1281 2994 2138 
Q 2813 1869 2534 1725 
Q 2256 1581 1919 1581 
Q 1219 1581 811 2004 
Q 403 2428 403 3163 
Q 403 3881 828 4315 
Q 1253 4750 1959 4750 
Q 2769 4750 3195 4129 
Q 3622 3509 3622 2328 
Q 3622 1225 3098 567 
Q 2575 -91 1691 -91 
Q 1453 -91 1209 -44 
Q 966 3 703 97 
z
M 1959 2075 
Q 2384 2075 2632 2365 
Q 2881 2656 2881 3163 
Q 2881 3666 2632 3958 
Q 2384 4250 1959 4250 
Q 1534 4250 1286 3958 
Q 1038 3666 1038 3163 
Q 1038 2656 1286 2365 
Q 1534 2075 1959 2075 
z
" transform="scale(0.015625)"/>
       </defs>
       <use xlink:href="#DejaVuSans-32"/>
       <use xlink:href="#DejaVuSans-30" transform="translate(63.623047 0)"/>
       <use xlink:href="#DejaVuSans-30" transform="translate(127.246094 0)"/>
       <use xlink:href="#DejaVuSans-39" transform="translate(190.869141 0)"/>
      </g>
     </g>
    </g>
    <g id="xtick_4">
     <g id="line2d_4">
      <g>
       <use xlink:href="#ma123d94cb6" x="212.34392" y="414.957187" style="stroke: #000000; stroke-width: 0.8"/>
      </g>
     </g>
     <g id="text_4">
      <!-- 2011 -->
      <g transform="translate(197.07392 431.075312) scale(0.12 -0.12)">
       <defs>
        <path id="DejaVuSans-31" d="M 794 531 
L 1825 531 
L 1825 4091 
L 703 3866 
L 703 4441 
L 1819 4666 
L 2450 4666 
L 2450 531 
L 3481 531 
L 3481 0 
L 794 0 
L 794 531 
z
" transform="scale(0.015625)"/>
       </defs>
       <use xlink:href="#DejaVuSans-32"/>
       <use xlink:href="#DejaVuSans-30" transform="translate(63.623047 0)"/>
       <use xlink:href="#DejaVuSans-31" transform="translate(127.246094 0)"/>
       <use xlink:href="#DejaVuSans-31" transform="translate(190.869141 0)"/>
      </g>
     </g>
    </g>
    <g id="xtick_5">
     <g id="line2d_5">
      <g>
       <use xlink:href="#ma123d94cb6" x="255.216648" y="414.957187" style="stroke: #000000; stroke-width: 0.8"/>
      </g>
     </g>
     <g id="text_5">
      <!-- 2013 -->
      <g transform="translate(239.946648 431.075312) scale(0.12 -0.12)">
       <defs>
        <path id="DejaVuSans-33" d="M 2597 2516 
Q 3050 2419 3304 2112 
Q 3559 1806 3559 1356 
Q 3559 666 3084 287 
Q 2609 -91 1734 -91 
Q 1441 -91 1130 -33 
Q 819 25 488 141 
L 488 750 
Q 750 597 1062 519 
Q 1375 441 1716 441 
Q 2309 441 2620 675 
Q 2931 909 2931 1356 
Q 2931 1769 2642 2001 
Q 2353 2234 1838 2234 
L 1294 2234 
L 1294 2753 
L 1863 2753 
Q 2328 2753 2575 2939 
Q 2822 3125 2822 3475 
Q 2822 3834 2567 4026 
Q 2313 4219 1838 4219 
Q 1578 4219 1281 4162 
Q 984 4106 628 3988 
L 628 4550 
Q 988 4650 1302 4700 
Q 1616 4750 1894 4750 
Q 2613 4750 3031 4423 
Q 3450 4097 3450 3541 
Q 3450 3153 3228 2886 
Q 3006 2619 2597 2516 
z
" transform="scale(0.015625)"/>
       </defs>
       <use xlink:href="#DejaVuSans-32"/>
       <use xlink:href="#DejaVuSans-30" transform="translate(63.623047 0)"/>
       <use xlink:href="#DejaVuSans-31" transform="translate(127.246094 0)"/>
       <use xlink:href="#DejaVuSans-33" transform="translate(190.869141 0)"/>
      </g>
     </g>
    </g>
    <g id="xtick_6">
     <g id="line2d_6">
      <g>
       <use xlink:href="#ma123d94cb6" x="298.089375" y="414.957187" style="stroke: #000000; stroke-width: 0.8"/>
      </g>
     </g>
     <g id="text_6">
      <!-- 2015 -->
      <g transform="translate(282.819375 431.075312) scale(0.12 -0.12)">
       <use xlink:href="#DejaVuSans-32"/>
       <use xlink:href="#DejaVuSans-30" transform="translate(63.623047 0)"/>
       <use xlink:href="#DejaVuSans-31" transform="translate(127.246094 0)"/>
       <use xlink:href="#DejaVuSans-35" transform="translate(190.869141 0)"/>
      </g>
     </g>
    </g>
    <g id="xtick_7">
     <g id="line2d_7">
      <g>
       <use xlink:href="#ma123d94cb6" x="340.962102" y="414.957187" style="stroke: #000000; stroke-width: 0.8"/>
      </g>
     </g>
     <g id="text_7">
      <!-- 2017 -->
      <g transform="translate(325.692102 431.075312) scale(0.12 -0.12)">
       <use xlink:href="#DejaVuSans-32"/>
       <use xlink:href="#DejaVuSans-30" transform="translate(63.623047 0)"/>
       <use xlink:href="#DejaVuSans-31" transform="translate(127.246094 0)"/>
       <use xlink:href="#DejaVuSans-37" transform="translate(190.869141 0)"/>
      </g>
     </g>
    </g>
    <g id="xtick_8">
     <g id="line2d_8">
      <g>
       <use xlink:href="#ma123d94cb6" x="383.83483" y="414.957187" style="stroke: #000000; stroke-width: 0.8"/>
      </g>
     </g>
     <g id="text_8">
      <!-- 2019 -->
      <g transform="translate(368.56483 431.075312) scale(0.12 -0.12)">
       <use xlink:href="#DejaVuSans-32"/>
       <use xlink:href="#DejaVuSans-30" transform="translate(63.623047 0)"/>
       <use xlink:href="#DejaVuSans-31" transform="translate(127.246094 0)"/>
       <use xlink:href="#DejaVuSans-39" transform="translate(190.869141 0)"/>
      </g>
     </g>
    </g>
    <g id="xtick_9">
     <g id="line2d_9">
      <g>
       <use xlink:href="#ma123d94cb6" x="426.707557" y="414.957187" style="stroke: #000000; stroke-width: 0.8"/>
      </g>
     </g>
     <g id="text_9">
      <!-- 2021 -->
      <g transform="translate(411.437557 431.075312) scale(0.12 -0.12)">
       <use xlink:href="#DejaVuSans-32"/>
       <use xlink:href="#DejaVuSans-30" transform="translate(63.623047 0)"/>
       <use xlink:href="#DejaVuSans-32" transform="translate(127.246094 0)"/>
       <use xlink:href="#DejaVuSans-31" transform="translate(190.869141 0)"/>
      </g>
     </g>
    </g>
    <g id="xtick_10">
     <g id="line2d_10">
      <g>
       <use xlink:href="#ma123d94cb6" x="469.580284" y="414.957187" style="stroke: #000000; stroke-width: 0.8"/>
      </g>
     </g>
     <g id="text_10">
      <!-- 2023 -->
      <g transform="translate(454.310284 431.075312) scale(0.12 -0.12)">
       <use xlink:href="#DejaVuSans-32"/>
       <use xlink:href="#DejaVuSans-30" transform="translate(63.623047 0)"/>
       <use xlink:href="#DejaVuSans-32" transform="translate(127.246094 0)"/>
       <use xlink:href="#DejaVuSans-33" transform="translate(190.869141 0)"/>
      </g>
     </g>
    </g>
    <g id="xtick_11">
     <g id="line2d_11">
      <g>
       <use xlink:href="#ma123d94cb6" x="512.453011" y="414.957187" style="stroke: #000000; stroke-width: 0.8"/>
      </g>
     </g>
     <g id="text_11">
      <!-- 2025 -->
      <g transform="translate(497.183011 431.075312) scale(0.12 -0.12)">
       <use xlink:href="#DejaVuSans-32"/>
       <use xlink:href="#DejaVuSans-30" transform="translate(63.623047 0)"/>
       <use xlink:href="#DejaVuSans-32" transform="translate(127.246094 0)"/>
       <use xlink:href="#DejaVuSans-35" transform="translate(190.869141 0)"/>
      </g>
     </g>
    </g>
    <g id="text_12">
     <!-- Year -->
     <g transform="translate(283.266875 448.20875) scale(0.14 -0.14)">
      <defs>
       <path id="DejaVuSans-59" d="M -13 4666 
L 666 4666 
L 1959 2747 
L 3244 4666 
L 3922 4666 
L 2272 2222 
L 2272 0 
L 1638 0 
L 1638 2222 
L -13 4666 
z
" transform="scale(0.015625)"/>
       <path id="DejaVuSans-65" d="M 3597 1894 
L 3597 1613 
L 953 1613 
Q 991 1019 1311 708 
Q 1631 397 2203 397 
Q 2534 397 2845 478 
Q 3156 559 3463 722 
L 3463 178 
Q 3153 47 2828 -22 
Q 2503 -91 2169 -91 
Q 1331 -91 842 396 
Q 353 884 353 1716 
Q 353 2575 817 3079 
Q 1281 3584 2069 3584 
Q 2775 3584 3186 3129 
Q 3597 2675 3597 1894 
z
M 3022 2063 
Q 3016 2534 2758 2815 
Q 2500 3097 2075 3097 
Q 1594 3097 1305 2825 
Q 1016 2553 972 2059 
L 3022 2063 
z
" transform="scale(0.015625)"/>
       <path id="DejaVuSans-61" d="M 2194 1759 
Q 1497 1759 1228 1600 
Q 959 1441 959 1056 
Q 959 750 1161 570 
Q 1363 391 1709 391 
Q 2188 391 2477 730 
Q 2766 1069 2766 1631 
L 2766 1759 
L 2194 1759 
z
M 3341 1997 
L 3341 0 
L 2766 0 
L 2766 531 
Q 2569 213 2275 61 
Q 1981 -91 1556 -91 
Q 1019 -91 701 211 
Q 384 513 384 1019 
Q 384 1609 779 1909 
Q 1175 2209 1959 2209 
L 2766 2209 
L 2766 2266 
Q 2766 2663 2505 2880 
Q 2244 3097 1772 3097 
Q 1472 3097 1187 3025 
Q 903 2953 641 2809 
L 641 3341 
Q 956 3463 1253 3523 
Q 1550 3584 1831 3584 
Q 2591 3584 2966 3190 
Q 3341 2797 3341 1997 
z
" transform="scale(0.015625)"/>
       <path id="DejaVuSans-72" d="M 2631 2963 
Q 2534 3019 2420 3045 
Q 2306 3072 2169 3072 
Q 1681 3072 1420 2755 
Q 1159 2438 1159 1844 
L 1159 0 
L 581 0 
L 581 3500 
L 1159 3500 
L 1159 2956 
Q 1341 3275 1631 3429 
Q 1922 3584 2338 3584 
Q 2397 3584 2469 3576 
Q 2541 3569 2628 3553 
L 2631 2963 
z
" transform="scale(0.015625)"/>
      </defs>
      <use xlink:href="#DejaVuSans-59"/>
      <use xlink:href="#DejaVuSans-65" transform="translate(47.833984 0)"/>
      <use xlink:href="#DejaVuSans-61" transform="translate(109.357422 0)"/>
      <use xlink:href="#DejaVuSans-72" transform="translate(170.636719 0)"/>
     </g>
    </g>
   </g>
   <g id="matplotlib.axis_2">
    <g id="ytick_1">
     <g id="line2d_12">
      <path d="M 62.289375 414.957187 
L 533.889375 414.957187 
" clip-path="url(#pb2de358211)" style="fill: none; stroke-dasharray: 2.96,1.28; stroke-dashoffset: 0; stroke: #b0b0b0; stroke-opacity: 0.7; stroke-width: 0.8"/>
     </g>
     <g id="line2d_13">
      <defs>
       <path id="mf1b7a431ce" d="M 0 0 
L -3.5 0 
" style="stroke: #000000; stroke-width: 0.8"/>
      </defs>
      <g>
       <use xlink:href="#mf1b7a431ce" x="62.289375" y="414.957187" style="stroke: #000000; stroke-width: 0.8"/>
      </g>
     </g>
     <g id="text_13">
      <!-- 0 -->
      <g transform="translate(47.654375 419.51625) scale(0.12 -0.12)">
       <use xlink:href="#DejaVuSans-30"/>
      </g>
     </g>
    </g>
    <g id="ytick_2">
     <g id="line2d_14">
      <path d="M 62.289375 339.197305 
L 533.889375 339.197305 
" clip-path="url(#pb2de358211)" style="fill: none; stroke-dasharray: 2.96,1.28; stroke-dashoffset: 0; stroke: #b0b0b0; stroke-opacity: 0.7; stroke-width: 0.8"/>
     </g>
     <g id="line2d_15">
      <g>
       <use xlink:href="#mf1b7a431ce" x="62.289375" y="339.197305" style="stroke: #000000; stroke-width: 0.8"/>
      </g>
     </g>
     <g id="text_14">
      <!-- 500 -->
      <g transform="translate(32.384375 343.756367) scale(0.12 -0.12)">
       <use xlink:href="#DejaVuSans-35"/>
       <use xlink:href="#DejaVuSans-30" transform="translate(63.623047 0)"/>
       <use xlink:href="#DejaVuSans-30" transform="translate(127.246094 0)"/>
      </g>
     </g>
    </g>
    <g id="ytick_3">
     <g id="line2d_16">
      <path d="M 62.289375 263.437422 
L 533.889375 263.437422 
" clip-path="url(#pb2de358211)" style="fill: none; stroke-dasharray: 2.96,1.28; stroke-dashoffset: 0; stroke: #b0b0b0; stroke-opacity: 0.7; stroke-width: 0.8"/>
     </g>
     <g id="line2d_17">
      <g>
       <use xlink:href="#mf1b7a431ce" x="62.289375" y="263.437422" style="stroke: #000000; stroke-width: 0.8"/>
      </g>
     </g>
     <g id="text_15">
      <!-- 1000 -->
      <g transform="translate(24.749375 267.996484) scale(0.12 -0.12)">
       <use xlink:href="#DejaVuSans-31"/>
       <use xlink:href="#DejaVuSans-30" transform="translate(63.623047 0)"/>
       <use xlink:href="#DejaVuSans-30" transform="translate(127.246094 0)"/>
       <use xlink:href="#DejaVuSans-30" transform="translate(190.869141 0)"/>
      </g>
     </g>
    </g>
    <g id="ytick_4">
     <g id="line2d_18">
      <path d="M 62.289375 187.677539 
L 533.889375 187.677539 
" clip-path="url(#pb2de358211)" style="fill: none; stroke-dasharray: 2.96,1.28; stroke-dashoffset: 0; stroke: #b0b0b0; stroke-opacity: 0.7; stroke-width: 0.8"/>
     </g>
     <g id="line2d_19">
      <g>
       <use xlink:href="#mf1b7a431ce" x="62.289375" y="187.677539" style="stroke: #000000; stroke-width: 0.8"/>
      </g>
     </g>
     <g id="text_16">
      <!-- 1500 -->
      <g transform="translate(24.749375 192.236601) scale(0.12 -0.12)">
       <use xlink:href="#DejaVuSans-31"/>
       <use xlink:href="#DejaVuSans-35" transform="translate(63.623047 0)"/>
       <use xlink:href="#DejaVuSans-30" transform="translate(127.246094 0)"/>
       <use xlink:href="#DejaVuSans-30" transform="translate(190.869141 0)"/>
      </g>
     </g>
    </g>
    <g id="ytick_5">
     <g id="line2d_20">
      <path d="M 62.289375 111.917656 
L 533.889375 111.917656 
" clip-path="url(#pb2de358211)" style="fill: none; stroke-dasharray: 2.96,1.28; stroke-dashoffset: 0; stroke: #b0b0b0; stroke-opacity: 0.7; stroke-width: 0.8"/>
     </g>
     <g id="line2d_21">
      <g>
       <use xlink:href="#mf1b7a431ce" x="62.289375" y="111.917656" style="stroke: #000000; stroke-width: 0.8"/>
      </g>
     </g>
     <g id="text_17">
      <!-- 2000 -->
      <g transform="translate(24.749375 116.476719) scale(0.12 -0.12)">
       <use xlink:href="#DejaVuSans-32"/>
       <use xlink:href="#DejaVuSans-30" transform="translate(63.623047 0)"/>
       <use xlink:href="#DejaVuSans-30" transform="translate(127.246094 0)"/>
       <use xlink:href="#DejaVuSans-30" transform="translate(190.869141 0)"/>
      </g>
     </g>
    </g>
    <g id="ytick_6">
     <g id="line2d_22">
      <path d="M 62.289375 36.157773 
L 533.889375 36.157773 
" clip-path="url(#pb2de358211)" style="fill: none; stroke-dasharray: 2.96,1.28; stroke-dashoffset: 0; stroke: #b0b0b0; stroke-opacity: 0.7; stroke-width: 0.8"/>
     </g>
     <g id="line2d_23">
      <g>
       <use xlink:href="#mf1b7a431ce" x="62.289375" y="36.157773" style="stroke: #000000; stroke-width: 0.8"/>
      </g>
     </g>
     <g id="text_18">
      <!-- 2500 -->
      <g transform="translate(24.749375 40.716836) scale(0.12 -0.12)">
       <use xlink:href="#DejaVuSans-32"/>
       <use xlink:href="#DejaVuSans-35" transform="translate(63.623047 0)"/>
       <use xlink:href="#DejaVuSans-30" transform="translate(127.246094 0)"/>
       <use xlink:href="#DejaVuSans-30" transform="translate(190.869141 0)"/>
      </g>
     </g>
    </g>
    <g id="text_19">
     <!-- Number of Entries -->
     <g transform="translate(17.837813 284.613906) rotate(-90) scale(0.14 -0.14)">
      <defs>
       <path id="DejaVuSans-4e" d="M 628 4666 
L 1478 4666 
L 3547 763 
L 3547 4666 
L 4159 4666 
L 4159 0 
L 3309 0 
L 1241 3903 
L 1241 0 
L 628 0 
L 628 4666 
z
" transform="scale(0.015625)"/>
       <path id="DejaVuSans-75" d="M 544 1381 
L 544 3500 
L 1119 3500 
L 1119 1403 
Q 1119 906 1312 657 
Q 1506 409 1894 409 
Q 2359 409 2629 706 
Q 2900 1003 2900 1516 
L 2900 3500 
L 3475 3500 
L 3475 0 
L 2900 0 
L 2900 538 
Q 2691 219 2414 64 
Q 2138 -91 1772 -91 
Q 1169 -91 856 284 
Q 544 659 544 1381 
z
M 1991 3584 
L 1991 3584 
z
" transform="scale(0.015625)"/>
       <path id="DejaVuSans-6d" d="M 3328 2828 
Q 3544 3216 3844 3400 
Q 4144 3584 4550 3584 
Q 5097 3584 5394 3201 
Q 5691 2819 5691 2113 
L 5691 0 
L 5113 0 
L 5113 2094 
Q 5113 2597 4934 2840 
Q 4756 3084 4391 3084 
Q 3944 3084 3684 2787 
Q 3425 2491 3425 1978 
L 3425 0 
L 2847 0 
L 2847 2094 
Q 2847 2600 2669 2842 
Q 2491 3084 2119 3084 
Q 1678 3084 1418 2786 
Q 1159 2488 1159 1978 
L 1159 0 
L 581 0 
L 581 3500 
L 1159 3500 
L 1159 2956 
Q 1356 3278 1631 3431 
Q 1906 3584 2284 3584 
Q 2666 3584 2933 3390 
Q 3200 3197 3328 2828 
z
" transform="scale(0.015625)"/>
       <path id="DejaVuSans-62" d="M 3116 1747 
Q 3116 2381 2855 2742 
Q 2594 3103 2138 3103 
Q 1681 3103 1420 2742 
Q 1159 2381 1159 1747 
Q 1159 1113 1420 752 
Q 1681 391 2138 391 
Q 2594 391 2855 752 
Q 3116 1113 3116 1747 
z
M 1159 2969 
Q 1341 3281 1617 3432 
Q 1894 3584 2278 3584 
Q 2916 3584 3314 3078 
Q 3713 2572 3713 1747 
Q 3713 922 3314 415 
Q 2916 -91 2278 -91 
Q 1894 -91 1617 61 
Q 1341 213 1159 525 
L 1159 0 
L 581 0 
L 581 4863 
L 1159 4863 
L 1159 2969 
z
" transform="scale(0.015625)"/>
       <path id="DejaVuSans-20" transform="scale(0.015625)"/>
       <path id="DejaVuSans-6f" d="M 1959 3097 
Q 1497 3097 1228 2736 
Q 959 2375 959 1747 
Q 959 1119 1226 758 
Q 1494 397 1959 397 
Q 2419 397 2687 759 
Q 2956 1122 2956 1747 
Q 2956 2369 2687 2733 
Q 2419 3097 1959 3097 
z
M 1959 3584 
Q 2709 3584 3137 3096 
Q 3566 2609 3566 1747 
Q 3566 888 3137 398 
Q 2709 -91 1959 -91 
Q 1206 -91 779 398 
Q 353 888 353 1747 
Q 353 2609 779 3096 
Q 1206 3584 1959 3584 
z
" transform="scale(0.015625)"/>
       <path id="DejaVuSans-66" d="M 2375 4863 
L 2375 4384 
L 1825 4384 
Q 1516 4384 1395 4259 
Q 1275 4134 1275 3809 
L 1275 3500 
L 2222 3500 
L 2222 3053 
L 1275 3053 
L 1275 0 
L 697 0 
L 697 3053 
L 147 3053 
L 147 3500 
L 697 3500 
L 697 3744 
Q 697 4328 969 4595 
Q 1241 4863 1831 4863 
L 2375 4863 
z
" transform="scale(0.015625)"/>
       <path id="DejaVuSans-45" d="M 628 4666 
L 3578 4666 
L 3578 4134 
L 1259 4134 
L 1259 2753 
L 3481 2753 
L 3481 2222 
L 1259 2222 
L 1259 531 
L 3634 531 
L 3634 0 
L 628 0 
L 628 4666 
z
" transform="scale(0.015625)"/>
       <path id="DejaVuSans-6e" d="M 3513 2113 
L 3513 0 
L 2938 0 
L 2938 2094 
Q 2938 2591 2744 2837 
Q 2550 3084 2163 3084 
Q 1697 3084 1428 2787 
Q 1159 2491 1159 1978 
L 1159 0 
L 581 0 
L 581 3500 
L 1159 3500 
L 1159 2956 
Q 1366 3272 1645 3428 
Q 1925 3584 2291 3584 
Q 2894 3584 3203 3211 
Q 3513 2838 3513 2113 
z
" transform="scale(0.015625)"/>
       <path id="DejaVuSans-74" d="M 1172 4494 
L 1172 3500 
L 2356 3500 
L 2356 3053 
L 1172 3053 
L 1172 1153 
Q 1172 725 1289 603 
Q 1406 481 1766 481 
L 2356 481 
L 2356 0 
L 1766 0 
Q 1100 0 847 248 
Q 594 497 594 1153 
L 594 3053 
L 172 3053 
L 172 3500 
L 594 3500 
L 594 4494 
L 1172 4494 
z
" transform="scale(0.015625)"/>
       <path id="DejaVuSans-69" d="M 603 3500 
L 1178 3500 
L 1178 0 
L 603 0 
L 603 3500 
z
M 603 4863 
L 1178 4863 
L 1178 4134 
L 603 4134 
L 603 4863 
z
" transform="scale(0.015625)"/>
       <path id="DejaVuSans-73" d="M 2834 3397 
L 2834 2853 
Q 2591 2978 2328 3040 
Q 2066 3103 1784 3103 
Q 1356 3103 1142 2972 
Q 928 2841 928 2578 
Q 928 2378 1081 2264 
Q 1234 2150 1697 2047 
L 1894 2003 
Q 2506 1872 2764 1633 
Q 3022 1394 3022 966 
Q 3022 478 2636 193 
Q 2250 -91 1575 -91 
Q 1294 -91 989 -36 
Q 684 19 347 128 
L 347 722 
Q 666 556 975 473 
Q 1284 391 1588 391 
Q 1994 391 2212 530 
Q 2431 669 2431 922 
Q 2431 1156 2273 1281 
Q 2116 1406 1581 1522 
L 1381 1569 
Q 847 1681 609 1914 
Q 372 2147 372 2553 
Q 372 3047 722 3315 
Q 1072 3584 1716 3584 
Q 2034 3584 2315 3537 
Q 2597 3491 2834 3397 
z
" transform="scale(0.015625)"/>
      </defs>
      <use xlink:href="#DejaVuSans-4e"/>
      <use xlink:href="#DejaVuSans-75" transform="translate(74.804688 0)"/>
      <use xlink:href="#DejaVuSans-6d" transform="translate(138.183594 0)"/>
      <use xlink:href="#DejaVuSans-62" transform="translate(235.595703 0)"/>
      <use xlink:href="#DejaVuSans-65" transform="translate(299.072266 0)"/>
      <use xlink:href="#DejaVuSans-72" transform="translate(360.595703 0)"/>
      <use xlink:href="#DejaVuSans-20" transform="translate(401.708984 0)"/>
      <use xlink:href="#DejaVuSans-6f" transform="translate(433.496094 0)"/>
      <use xlink:href="#DejaVuSans-66" transform="translate(494.677734 0)"/>
      <use xlink:href="#DejaVuSans-20" transform="translate(529.882812 0)"/>
      <use xlink:href="#DejaVuSans-45" transform="translate(561.669922 0)"/>
      <use xlink:href="#DejaVuSans-6e" transform="translate(624.853516 0)"/>
      <use xlink:href="#DejaVuSans-74" transform="translate(688.232422 0)"/>
      <use xlink:href="#DejaVuSans-72" transform="translate(727.441406 0)"/>
      <use xlink:href="#DejaVuSans-69" transform="translate(768.554688 0)"/>
      <use xlink:href="#DejaVuSans-65" transform="translate(796.337891 0)"/>
      <use xlink:href="#DejaVuSans-73" transform="translate(857.861328 0)"/>
     </g>
    </g>
   </g>
   <g id="line2d_24">
    <path d="M 83.725739 310.257029 
L 105.162102 314.802622 
L 126.598466 306.165996 
L 148.03483 235.860824 
L 169.471193 205.253832 
L 190.907557 174.19228 
L 212.34392 166.313252 
L 233.780284 145.252004 
L 255.216648 109.34182 
L 276.653011 85.250177 
L 298.089375 71.764918 
L 319.525739 66.007167 
L 340.962102 64.643489 
L 362.398466 62.976772 
L 383.83483 61.007015 
L 405.271193 57.067501 
L 426.707557 56.006862 
L 448.14392 52.067349 
L 469.580284 47.218716 
L 491.016648 46.461117 
L 512.453011 45.248959 
" clip-path="url(#pb2de358211)" style="fill: none; stroke: #1f77b4; stroke-width: 2.5; stroke-linecap: square"/>
    <defs>
     <path id="mc3f8ebebf4" d="M 0 4 
C 1.060812 4 2.078319 3.578535 2.828427 2.828427 
C 3.578535 2.078319 4 1.060812 4 0 
C 4 -1.060812 3.578535 -2.078319 2.828427 -2.828427 
C 2.078319 -3.578535 1.060812 -4 0 -4 
C -1.060812 -4 -2.078319 -3.578535 -2.828427 -2.828427 
C -3.578535 -2.078319 -4 -1.060812 -4 0 
C -4 1.060812 -3.578535 2.078319 -2.828427 2.828427 
C -2.078319 3.578535 -1.060812 4 0 4 
z
" style="stroke: #1f77b4"/>
    </defs>
    <g clip-path="url(#pb2de358211)">
     <use xlink:href="#mc3f8ebebf4" x="83.725739" y="310.257029" style="fill: #1f77b4; stroke: #1f77b4"/>
     <use xlink:href="#mc3f8ebebf4" x="105.162102" y="314.802622" style="fill: #1f77b4; stroke: #1f77b4"/>
     <use xlink:href="#mc3f8ebebf4" x="126.598466" y="306.165996" style="fill: #1f77b4; stroke: #1f77b4"/>
     <use xlink:href="#mc3f8ebebf4" x="148.03483" y="235.860824" style="fill: #1f77b4; stroke: #1f77b4"/>
     <use xlink:href="#mc3f8ebebf4" x="169.471193" y="205.253832" style="fill: #1f77b4; stroke: #1f77b4"/>
     <use xlink:href="#mc3f8ebebf4" x="190.907557" y="174.19228" style="fill: #1f77b4; stroke: #1f77b4"/>
     <use xlink:href="#mc3f8ebebf4" x="212.34392" y="166.313252" style="fill: #1f77b4; stroke: #1f77b4"/>
     <use xlink:href="#mc3f8ebebf4" x="233.780284" y="145.252004" style="fill: #1f77b4; stroke: #1f77b4"/>
     <use xlink:href="#mc3f8ebebf4" x="255.216648" y="109.34182" style="fill: #1f77b4; stroke: #1f77b4"/>
     <use xlink:href="#mc3f8ebebf4" x="276.653011" y="85.250177" style="fill: #1f77b4; stroke: #1f77b4"/>
     <use xlink:href="#mc3f8ebebf4" x="298.089375" y="71.764918" style="fill: #1f77b4; stroke: #1f77b4"/>
     <use xlink:href="#mc3f8ebebf4" x="319.525739" y="66.007167" style="fill: #1f77b4; stroke: #1f77b4"/>
     <use xlink:href="#mc3f8ebebf4" x="340.962102" y="64.643489" style="fill: #1f77b4; stroke: #1f77b4"/>
     <use xlink:href="#mc3f8ebebf4" x="362.398466" y="62.976772" style="fill: #1f77b4; stroke: #1f77b4"/>
     <use xlink:href="#mc3f8ebebf4" x="383.83483" y="61.007015" style="fill: #1f77b4; stroke: #1f77b4"/>
     <use xlink:href="#mc3f8ebebf4" x="405.271193" y="57.067501" style="fill: #1f77b4; stroke: #1f77b4"/>
     <use xlink:href="#mc3f8ebebf4" x="426.707557" y="56.006862" style="fill: #1f77b4; stroke: #1f77b4"/>
     <use xlink:href="#mc3f8ebebf4" x="448.14392" y="52.067349" style="fill: #1f77b4; stroke: #1f77b4"/>
     <use xlink:href="#mc3f8ebebf4" x="469.580284" y="47.218716" style="fill: #1f77b4; stroke: #1f77b4"/>
     <use xlink:href="#mc3f8ebebf4" x="491.016648" y="46.461117" style="fill: #1f77b4; stroke: #1f77b4"/>
     <use xlink:href="#mc3f8ebebf4" x="512.453011" y="45.248959" style="fill: #1f77b4; stroke: #1f77b4"/>
    </g>
   </g>
   <g id="line2d_25">
    <path d="M 83.725739 380.107641 
L 105.162102 379.956122 
L 126.598466 369.652778 
L 148.03483 360.561592 
L 169.471193 357.834236 
L 190.907557 344.803536 
L 212.34392 226.01204 
L 233.780284 222.072526 
L 255.216648 220.102769 
L 276.653011 209.647905 
L 298.089375 198.132403 
L 319.525739 195.859606 
L 340.962102 194.798968 
L 362.398466 190.253375 
L 383.83483 188.889697 
L 405.271193 186.76842 
L 426.707557 184.192584 
L 448.14392 183.283466 
L 469.580284 181.768268 
L 491.016648 181.162189 
L 512.453011 178.131794 
" clip-path="url(#pb2de358211)" style="fill: none; stroke: #ff7f0e; stroke-width: 2.5; stroke-linecap: square"/>
    <defs>
     <path id="m2ff0a37b6a" d="M 0 4 
C 1.060812 4 2.078319 3.578535 2.828427 2.828427 
C 3.578535 2.078319 4 1.060812 4 0 
C 4 -1.060812 3.578535 -2.078319 2.828427 -2.828427 
C 2.078319 -3.578535 1.060812 -4 0 -4 
C -1.060812 -4 -2.078319 -3.578535 -2.828427 -2.828427 
C -3.578535 -2.078319 -4 -1.060812 -4 0 
C -4 1.060812 -3.578535 2.078319 -2.828427 2.828427 
C -2.078319 3.578535 -1.060812 4 0 4 
z
" style="stroke: #ff7f0e"/>
    </defs>
    <g clip-path="url(#pb2de358211)">
     <use xlink:href="#m2ff0a37b6a" x="83.725739" y="380.107641" style="fill: #ff7f0e; stroke: #ff7f0e"/>
     <use xlink:href="#m2ff0a37b6a" x="105.162102" y="379.956122" style="fill: #ff7f0e; stroke: #ff7f0e"/>
     <use xlink:href="#m2ff0a37b6a" x="126.598466" y="369.652778" style="fill: #ff7f0e; stroke: #ff7f0e"/>
     <use xlink:href="#m2ff0a37b6a" x="148.03483" y="360.561592" style="fill: #ff7f0e; stroke: #ff7f0e"/>
     <use xlink:href="#m2ff0a37b6a" x="169.471193" y="357.834236" style="fill: #ff7f0e; stroke: #ff7f0e"/>
     <use xlink:href="#m2ff0a37b6a" x="190.907557" y="344.803536" style="fill: #ff7f0e; stroke: #ff7f0e"/>
     <use xlink:href="#m2ff0a37b6a" x="212.34392" y="226.01204" style="fill: #ff7f0e; stroke: #ff7f0e"/>
     <use xlink:href="#m2ff0a37b6a" x="233.780284" y="222.072526" style="fill: #ff7f0e; stroke: #ff7f0e"/>
     <use xlink:href="#m2ff0a37b6a" x="255.216648" y="220.102769" style="fill: #ff7f0e; stroke: #ff7f0e"/>
     <use xlink:href="#m2ff0a37b6a" x="276.653011" y="209.647905" style="fill: #ff7f0e; stroke: #ff7f0e"/>
     <use xlink:href="#m2ff0a37b6a" x="298.089375" y="198.132403" style="fill: #ff7f0e; stroke: #ff7f0e"/>
     <use xlink:href="#m2ff0a37b6a" x="319.525739" y="195.859606" style="fill: #ff7f0e; stroke: #ff7f0e"/>
     <use xlink:href="#m2ff0a37b6a" x="340.962102" y="194.798968" style="fill: #ff7f0e; stroke: #ff7f0e"/>
     <use xlink:href="#m2ff0a37b6a" x="362.398466" y="190.253375" style="fill: #ff7f0e; stroke: #ff7f0e"/>
     <use xlink:href="#m2ff0a37b6a" x="383.83483" y="188.889697" style="fill: #ff7f0e; stroke: #ff7f0e"/>
     <use xlink:href="#m2ff0a37b6a" x="405.271193" y="186.76842" style="fill: #ff7f0e; stroke: #ff7f0e"/>
     <use xlink:href="#m2ff0a37b6a" x="426.707557" y="184.192584" style="fill: #ff7f0e; stroke: #ff7f0e"/>
     <use xlink:href="#m2ff0a37b6a" x="448.14392" y="183.283466" style="fill: #ff7f0e; stroke: #ff7f0e"/>
     <use xlink:href="#m2ff0a37b6a" x="469.580284" y="181.768268" style="fill: #ff7f0e; stroke: #ff7f0e"/>
     <use xlink:href="#m2ff0a37b6a" x="491.016648" y="181.162189" style="fill: #ff7f0e; stroke: #ff7f0e"/>
     <use xlink:href="#m2ff0a37b6a" x="512.453011" y="178.131794" style="fill: #ff7f0e; stroke: #ff7f0e"/>
    </g>
   </g>
   <g id="line2d_26">
    <path d="M 83.725739 391.168584 
L 105.162102 380.71372 
L 126.598466 361.925269 
L 148.03483 348.89457 
L 169.471193 340.712502 
L 190.907557 330.712198 
L 212.34392 310.863108 
L 233.780284 264.195021 
L 255.216648 255.406874 
L 276.653011 250.861281 
L 298.089375 250.103682 
L 319.525739 245.861129 
L 340.962102 245.709609 
L 362.398466 234.042587 
L 383.83483 222.224045 
L 405.271193 219.19365 
L 426.707557 206.31447 
L 448.14392 197.526324 
L 469.580284 192.677691 
L 491.016648 190.404895 
L 512.453011 190.404895 
" clip-path="url(#pb2de358211)" style="fill: none; stroke: #2ca02c; stroke-width: 2.5; stroke-linecap: square"/>
    <defs>
     <path id="m9cfc30b95d" d="M 0 4 
C 1.060812 4 2.078319 3.578535 2.828427 2.828427 
C 3.578535 2.078319 4 1.060812 4 0 
C 4 -1.060812 3.578535 -2.078319 2.828427 -2.828427 
C 2.078319 -3.578535 1.060812 -4 0 -4 
C -1.060812 -4 -2.078319 -3.578535 -2.828427 -2.828427 
C -3.578535 -2.078319 -4 -1.060812 -4 0 
C -4 1.060812 -3.578535 2.078319 -2.828427 2.828427 
C -2.078319 3.578535 -1.060812 4 0 4 
z
" style="stroke: #2ca02c"/>
    </defs>
    <g clip-path="url(#pb2de358211)">
     <use xlink:href="#m9cfc30b95d" x="83.725739" y="391.168584" style="fill: #2ca02c; stroke: #2ca02c"/>
     <use xlink:href="#m9cfc30b95d" x="105.162102" y="380.71372" style="fill: #2ca02c; stroke: #2ca02c"/>
     <use xlink:href="#m9cfc30b95d" x="126.598466" y="361.925269" style="fill: #2ca02c; stroke: #2ca02c"/>
     <use xlink:href="#m9cfc30b95d" x="148.03483" y="348.89457" style="fill: #2ca02c; stroke: #2ca02c"/>
     <use xlink:href="#m9cfc30b95d" x="169.471193" y="340.712502" style="fill: #2ca02c; stroke: #2ca02c"/>
     <use xlink:href="#m9cfc30b95d" x="190.907557" y="330.712198" style="fill: #2ca02c; stroke: #2ca02c"/>
     <use xlink:href="#m9cfc30b95d" x="212.34392" y="310.863108" style="fill: #2ca02c; stroke: #2ca02c"/>
     <use xlink:href="#m9cfc30b95d" x="233.780284" y="264.195021" style="fill: #2ca02c; stroke: #2ca02c"/>
     <use xlink:href="#m9cfc30b95d" x="255.216648" y="255.406874" style="fill: #2ca02c; stroke: #2ca02c"/>
     <use xlink:href="#m9cfc30b95d" x="276.653011" y="250.861281" style="fill: #2ca02c; stroke: #2ca02c"/>
     <use xlink:href="#m9cfc30b95d" x="298.089375" y="250.103682" style="fill: #2ca02c; stroke: #2ca02c"/>
     <use xlink:href="#m9cfc30b95d" x="319.525739" y="245.861129" style="fill: #2ca02c; stroke: #2ca02c"/>
     <use xlink:href="#m9cfc30b95d" x="340.962102" y="245.709609" style="fill: #2ca02c; stroke: #2ca02c"/>
     <use xlink:href="#m9cfc30b95d" x="362.398466" y="234.042587" style="fill: #2ca02c; stroke: #2ca02c"/>
     <use xlink:href="#m9cfc30b95d" x="383.83483" y="222.224045" style="fill: #2ca02c; stroke: #2ca02c"/>
     <use xlink:href="#m9cfc30b95d" x="405.271193" y="219.19365" style="fill: #2ca02c; stroke: #2ca02c"/>
     <use xlink:href="#m9cfc30b95d" x="426.707557" y="206.31447" style="fill: #2ca02c; stroke: #2ca02c"/>
     <use xlink:href="#m9cfc30b95d" x="448.14392" y="197.526324" style="fill: #2ca02c; stroke: #2ca02c"/>
     <use xlink:href="#m9cfc30b95d" x="469.580284" y="192.677691" style="fill: #2ca02c; stroke: #2ca02c"/>
     <use xlink:href="#m9cfc30b95d" x="491.016648" y="190.404895" style="fill: #2ca02c; stroke: #2ca02c"/>
     <use xlink:href="#m9cfc30b95d" x="512.453011" y="190.404895" style="fill: #2ca02c; stroke: #2ca02c"/>
    </g>
   </g>
   <g id="line2d_27">
    <path d="M 83.725739 362.985908 
L 105.162102 358.894874 
L 126.598466 339.803384 
L 148.03483 336.621469 
L 169.471193 330.409158 
L 190.907557 327.378763 
L 212.34392 303.741679 
L 233.780284 298.590007 
L 255.216648 292.074657 
L 276.653011 287.226025 
L 298.089375 277.8318 
L 319.525739 272.225568 
L 340.962102 271.01341 
L 362.398466 268.134534 
L 383.83483 267.831495 
L 405.271193 263.891981 
L 426.707557 261.619185 
L 448.14392 258.13423 
L 469.580284 250.255202 
L 491.016648 247.527846 
L 512.453011 237.072983 
" clip-path="url(#pb2de358211)" style="fill: none; stroke: #d62728; stroke-width: 2.5; stroke-linecap: square"/>
    <defs>
     <path id="m72e44ecf95" d="M 0 4 
C 1.060812 4 2.078319 3.578535 2.828427 2.828427 
C 3.578535 2.078319 4 1.060812 4 0 
C 4 -1.060812 3.578535 -2.078319 2.828427 -2.828427 
C 2.078319 -3.578535 1.060812 -4 0 -4 
C -1.060812 -4 -2.078319 -3.578535 -2.828427 -2.828427 
C -3.578535 -2.078319 -4 -1.060812 -4 0 
C -4 1.060812 -3.578535 2.078319 -2.828427 2.828427 
C -2.078319 3.578535 -1.060812 4 0 4 
z
" style="stroke: #d62728"/>
    </defs>
    <g clip-path="url(#pb2de358211)">
     <use xlink:href="#m72e44ecf95" x="83.725739" y="362.985908" style="fill: #d62728; stroke: #d62728"/>
     <use xlink:href="#m72e44ecf95" x="105.162102" y="358.894874" style="fill: #d62728; stroke: #d62728"/>
     <use xlink:href="#m72e44ecf95" x="126.598466" y="339.803384" style="fill: #d62728; stroke: #d62728"/>
     <use xlink:href="#m72e44ecf95" x="148.03483" y="336.621469" style="fill: #d62728; stroke: #d62728"/>
     <use xlink:href="#m72e44ecf95" x="169.471193" y="330.409158" style="fill: #d62728; stroke: #d62728"/>
     <use xlink:href="#m72e44ecf95" x="190.907557" y="327.378763" style="fill: #d62728; stroke: #d62728"/>
     <use xlink:href="#m72e44ecf95" x="212.34392" y="303.741679" style="fill: #d62728; stroke: #d62728"/>
     <use xlink:href="#m72e44ecf95" x="233.780284" y="298.590007" style="fill: #d62728; stroke: #d62728"/>
     <use xlink:href="#m72e44ecf95" x="255.216648" y="292.074657" style="fill: #d62728; stroke: #d62728"/>
     <use xlink:href="#m72e44ecf95" x="276.653011" y="287.226025" style="fill: #d62728; stroke: #d62728"/>
     <use xlink:href="#m72e44ecf95" x="298.089375" y="277.8318" style="fill: #d62728; stroke: #d62728"/>
     <use xlink:href="#m72e44ecf95" x="319.525739" y="272.225568" style="fill: #d62728; stroke: #d62728"/>
     <use xlink:href="#m72e44ecf95" x="340.962102" y="271.01341" style="fill: #d62728; stroke: #d62728"/>
     <use xlink:href="#m72e44ecf95" x="362.398466" y="268.134534" style="fill: #d62728; stroke: #d62728"/>
     <use xlink:href="#m72e44ecf95" x="383.83483" y="267.831495" style="fill: #d62728; stroke: #d62728"/>
     <use xlink:href="#m72e44ecf95" x="405.271193" y="263.891981" style="fill: #d62728; stroke: #d62728"/>
     <use xlink:href="#m72e44ecf95" x="426.707557" y="261.619185" style="fill: #d62728; stroke: #d62728"/>
     <use xlink:href="#m72e44ecf95" x="448.14392" y="258.13423" style="fill: #d62728; stroke: #d62728"/>
     <use xlink:href="#m72e44ecf95" x="469.580284" y="250.255202" style="fill: #d62728; stroke: #d62728"/>
     <use xlink:href="#m72e44ecf95" x="491.016648" y="247.527846" style="fill: #d62728; stroke: #d62728"/>
     <use xlink:href="#m72e44ecf95" x="512.453011" y="237.072983" style="fill: #d62728; stroke: #d62728"/>
    </g>
   </g>
   <g id="line2d_28">
    <path d="M 83.725739 406.169041 
L 105.162102 405.259922 
L 126.598466 400.56281 
L 148.03483 389.047308 
L 169.471193 388.744268 
L 190.907557 387.68363 
L 212.34392 382.683477 
L 233.780284 381.471319 
L 255.216648 381.471319 
L 276.653011 379.653082 
L 298.089375 377.986365 
L 319.525739 377.834845 
L 340.962102 375.865088 
L 362.398466 375.410529 
L 383.83483 374.198371 
L 405.271193 365.561744 
L 426.707557 364.804145 
L 448.14392 358.591835 
L 469.580284 357.682716 
L 491.016648 350.409767 
L 512.453011 345.864174 
" clip-path="url(#pb2de358211)" style="fill: none; stroke: #9467bd; stroke-width: 2.5; stroke-linecap: square"/>
    <defs>
     <path id="m63ee38b4bf" d="M 0 4 
C 1.060812 4 2.078319 3.578535 2.828427 2.828427 
C 3.578535 2.078319 4 1.060812 4 0 
C 4 -1.060812 3.578535 -2.078319 2.828427 -2.828427 
C 2.078319 -3.578535 1.060812 -4 0 -4 
C -1.060812 -4 -2.078319 -3.578535 -2.828427 -2.828427 
C -3.578535 -2.078319 -4 -1.060812 -4 0 
C -4 1.060812 -3.578535 2.078319 -2.828427 2.828427 
C -2.078319 3.578535 -1.060812 4 0 4 
z
" style="stroke: #9467bd"/>
    </defs>
    <g clip-path="url(#pb2de358211)">
     <use xlink:href="#m63ee38b4bf" x="83.725739" y="406.169041" style="fill: #9467bd; stroke: #9467bd"/>
     <use xlink:href="#m63ee38b4bf" x="105.162102" y="405.259922" style="fill: #9467bd; stroke: #9467bd"/>
     <use xlink:href="#m63ee38b4bf" x="126.598466" y="400.56281" style="fill: #9467bd; stroke: #9467bd"/>
     <use xlink:href="#m63ee38b4bf" x="148.03483" y="389.047308" style="fill: #9467bd; stroke: #9467bd"/>
     <use xlink:href="#m63ee38b4bf" x="169.471193" y="388.744268" style="fill: #9467bd; stroke: #9467bd"/>
     <use xlink:href="#m63ee38b4bf" x="190.907557" y="387.68363" style="fill: #9467bd; stroke: #9467bd"/>
     <use xlink:href="#m63ee38b4bf" x="212.34392" y="382.683477" style="fill: #9467bd; stroke: #9467bd"/>
     <use xlink:href="#m63ee38b4bf" x="233.780284" y="381.471319" style="fill: #9467bd; stroke: #9467bd"/>
     <use xlink:href="#m63ee38b4bf" x="255.216648" y="381.471319" style="fill: #9467bd; stroke: #9467bd"/>
     <use xlink:href="#m63ee38b4bf" x="276.653011" y="379.653082" style="fill: #9467bd; stroke: #9467bd"/>
     <use xlink:href="#m63ee38b4bf" x="298.089375" y="377.986365" style="fill: #9467bd; stroke: #9467bd"/>
     <use xlink:href="#m63ee38b4bf" x="319.525739" y="377.834845" style="fill: #9467bd; stroke: #9467bd"/>
     <use xlink:href="#m63ee38b4bf" x="340.962102" y="375.865088" style="fill: #9467bd; stroke: #9467bd"/>
     <use xlink:href="#m63ee38b4bf" x="362.398466" y="375.410529" style="fill: #9467bd; stroke: #9467bd"/>
     <use xlink:href="#m63ee38b4bf" x="383.83483" y="374.198371" style="fill: #9467bd; stroke: #9467bd"/>
     <use xlink:href="#m63ee38b4bf" x="405.271193" y="365.561744" style="fill: #9467bd; stroke: #9467bd"/>
     <use xlink:href="#m63ee38b4bf" x="426.707557" y="364.804145" style="fill: #9467bd; stroke: #9467bd"/>
     <use xlink:href="#m63ee38b4bf" x="448.14392" y="358.591835" style="fill: #9467bd; stroke: #9467bd"/>
     <use xlink:href="#m63ee38b4bf" x="469.580284" y="357.682716" style="fill: #9467bd; stroke: #9467bd"/>
     <use xlink:href="#m63ee38b4bf" x="491.016648" y="350.409767" style="fill: #9467bd; stroke: #9467bd"/>
     <use xlink:href="#m63ee38b4bf" x="512.453011" y="345.864174" style="fill: #9467bd; stroke: #9467bd"/>
    </g>
   </g>
   <g id="line2d_29">
    <path d="M 83.725739 401.926488 
L 105.162102 412.684391 
L 126.598466 412.078312 
L 148.03483 411.926792 
L 169.471193 407.684239 
L 190.907557 407.684239 
L 212.34392 407.532719 
L 233.780284 407.532719 
L 255.216648 406.92664 
L 276.653011 406.77512 
L 298.089375 402.987126 
L 319.525739 403.138646 
L 340.962102 403.138646 
L 362.398466 402.532567 
L 383.83483 402.381047 
L 405.271193 379.804602 
L 426.707557 379.501562 
L 448.14392 372.077094 
L 469.580284 371.471015 
L 491.016648 371.016455 
L 512.453011 369.046698 
" clip-path="url(#pb2de358211)" style="fill: none; stroke: #c0c0c0; stroke-width: 2.5; stroke-linecap: square"/>
    <defs>
     <path id="m5b60273bb9" d="M 0 4 
C 1.060812 4 2.078319 3.578535 2.828427 2.828427 
C 3.578535 2.078319 4 1.060812 4 0 
C 4 -1.060812 3.578535 -2.078319 2.828427 -2.828427 
C 2.078319 -3.578535 1.060812 -4 0 -4 
C -1.060812 -4 -2.078319 -3.578535 -2.828427 -2.828427 
C -3.578535 -2.078319 -4 -1.060812 -4 0 
C -4 1.060812 -3.578535 2.078319 -2.828427 2.828427 
C -2.078319 3.578535 -1.060812 4 0 4 
z
" style="stroke: #c0c0c0"/>
    </defs>
    <g clip-path="url(#pb2de358211)">
     <use xlink:href="#m5b60273bb9" x="83.725739" y="401.926488" style="fill: #c0c0c0; stroke: #c0c0c0"/>
     <use xlink:href="#m5b60273bb9" x="105.162102" y="412.684391" style="fill: #c0c0c0; stroke: #c0c0c0"/>
     <use xlink:href="#m5b60273bb9" x="126.598466" y="412.078312" style="fill: #c0c0c0; stroke: #c0c0c0"/>
     <use xlink:href="#m5b60273bb9" x="148.03483" y="411.926792" style="fill: #c0c0c0; stroke: #c0c0c0"/>
     <use xlink:href="#m5b60273bb9" x="169.471193" y="407.684239" style="fill: #c0c0c0; stroke: #c0c0c0"/>
     <use xlink:href="#m5b60273bb9" x="190.907557" y="407.684239" style="fill: #c0c0c0; stroke: #c0c0c0"/>
     <use xlink:href="#m5b60273bb9" x="212.34392" y="407.532719" style="fill: #c0c0c0; stroke: #c0c0c0"/>
     <use xlink:href="#m5b60273bb9" x="233.780284" y="407.532719" style="fill: #c0c0c0; stroke: #c0c0c0"/>
     <use xlink:href="#m5b60273bb9" x="255.216648" y="406.92664" style="fill: #c0c0c0; stroke: #c0c0c0"/>
     <use xlink:href="#m5b60273bb9" x="276.653011" y="406.77512" style="fill: #c0c0c0; stroke: #c0c0c0"/>
     <use xlink:href="#m5b60273bb9" x="298.089375" y="402.987126" style="fill: #c0c0c0; stroke: #c0c0c0"/>
     <use xlink:href="#m5b60273bb9" x="319.525739" y="403.138646" style="fill: #c0c0c0; stroke: #c0c0c0"/>
     <use xlink:href="#m5b60273bb9" x="340.962102" y="403.138646" style="fill: #c0c0c0; stroke: #c0c0c0"/>
     <use xlink:href="#m5b60273bb9" x="362.398466" y="402.532567" style="fill: #c0c0c0; stroke: #c0c0c0"/>
     <use xlink:href="#m5b60273bb9" x="383.83483" y="402.381047" style="fill: #c0c0c0; stroke: #c0c0c0"/>
     <use xlink:href="#m5b60273bb9" x="405.271193" y="379.804602" style="fill: #c0c0c0; stroke: #c0c0c0"/>
     <use xlink:href="#m5b60273bb9" x="426.707557" y="379.501562" style="fill: #c0c0c0; stroke: #c0c0c0"/>
     <use xlink:href="#m5b60273bb9" x="448.14392" y="372.077094" style="fill: #c0c0c0; stroke: #c0c0c0"/>
     <use xlink:href="#m5b60273bb9" x="469.580284" y="371.471015" style="fill: #c0c0c0; stroke: #c0c0c0"/>
     <use xlink:href="#m5b60273bb9" x="491.016648" y="371.016455" style="fill: #c0c0c0; stroke: #c0c0c0"/>
     <use xlink:href="#m5b60273bb9" x="512.453011" y="369.046698" style="fill: #c0c0c0; stroke: #c0c0c0"/>
    </g>
   </g>
   <g id="patch_3">
    <path d="M 62.289375 414.957187 
L 62.289375 26.877187 
" style="fill: none; stroke: #000000; stroke-width: 0.8; stroke-linejoin: miter; stroke-linecap: square"/>
   </g>
   <g id="patch_4">
    <path d="M 533.889375 414.957187 
L 533.889375 26.877187 
" style="fill: none; stroke: #000000; stroke-width: 0.8; stroke-linejoin: miter; stroke-linecap: square"/>
   </g>
   <g id="patch_5">
    <path d="M 62.289375 414.957187 
L 533.889375 414.957187 
" style="fill: none; stroke: #000000; stroke-width: 0.8; stroke-linejoin: miter; stroke-linecap: square"/>
   </g>
   <g id="patch_6">
    <path d="M 62.289375 26.877187 
L 533.889375 26.877187 
" style="fill: none; stroke: #000000; stroke-width: 0.8; stroke-linejoin: miter; stroke-linecap: square"/>
   </g>
   <g id="text_20">
    <!-- Squamata -->
    <g style="fill: #1f77b4" transform="translate(541.889375 48.284272) scale(0.11 -0.11)">
     <defs>
      <path id="DejaVuSans-Bold-53" d="M 3834 4519 
L 3834 3531 
Q 3450 3703 3084 3790 
Q 2719 3878 2394 3878 
Q 1963 3878 1756 3759 
Q 1550 3641 1550 3391 
Q 1550 3203 1689 3098 
Q 1828 2994 2194 2919 
L 2706 2816 
Q 3484 2659 3812 2340 
Q 4141 2022 4141 1434 
Q 4141 663 3683 286 
Q 3225 -91 2284 -91 
Q 1841 -91 1394 -6 
Q 947 78 500 244 
L 500 1259 
Q 947 1022 1364 901 
Q 1781 781 2169 781 
Q 2563 781 2772 912 
Q 2981 1044 2981 1288 
Q 2981 1506 2839 1625 
Q 2697 1744 2272 1838 
L 1806 1941 
Q 1106 2091 782 2419 
Q 459 2747 459 3303 
Q 459 4000 909 4375 
Q 1359 4750 2203 4750 
Q 2588 4750 2994 4692 
Q 3400 4634 3834 4519 
z
" transform="scale(0.015625)"/>
      <path id="DejaVuSans-Bold-71" d="M 2181 2772 
Q 1825 2772 1636 2509 
Q 1447 2247 1447 1747 
Q 1447 1247 1636 984 
Q 1825 722 2181 722 
Q 2541 722 2730 984 
Q 2919 1247 2919 1747 
Q 2919 2247 2730 2509 
Q 2541 2772 2181 2772 
z
M 2919 506 
Q 2688 197 2409 53 
Q 2131 -91 1766 -91 
Q 1119 -91 703 423 
Q 288 938 288 1747 
Q 288 2556 703 3067 
Q 1119 3578 1766 3578 
Q 2131 3578 2409 3434 
Q 2688 3291 2919 2981 
L 2919 3500 
L 4044 3500 
L 4044 -1331 
L 2919 -1331 
L 2919 506 
z
" transform="scale(0.015625)"/>
      <path id="DejaVuSans-Bold-75" d="M 500 1363 
L 500 3500 
L 1625 3500 
L 1625 3150 
Q 1625 2866 1622 2436 
Q 1619 2006 1619 1863 
Q 1619 1441 1641 1255 
Q 1663 1069 1716 984 
Q 1784 875 1895 815 
Q 2006 756 2150 756 
Q 2500 756 2700 1025 
Q 2900 1294 2900 1772 
L 2900 3500 
L 4019 3500 
L 4019 0 
L 2900 0 
L 2900 506 
Q 2647 200 2364 54 
Q 2081 -91 1741 -91 
Q 1134 -91 817 281 
Q 500 653 500 1363 
z
" transform="scale(0.015625)"/>
      <path id="DejaVuSans-Bold-61" d="M 2106 1575 
Q 1756 1575 1579 1456 
Q 1403 1338 1403 1106 
Q 1403 894 1545 773 
Q 1688 653 1941 653 
Q 2256 653 2472 879 
Q 2688 1106 2688 1447 
L 2688 1575 
L 2106 1575 
z
M 3816 1997 
L 3816 0 
L 2688 0 
L 2688 519 
Q 2463 200 2181 54 
Q 1900 -91 1497 -91 
Q 953 -91 614 226 
Q 275 544 275 1050 
Q 275 1666 698 1953 
Q 1122 2241 2028 2241 
L 2688 2241 
L 2688 2328 
Q 2688 2594 2478 2717 
Q 2269 2841 1825 2841 
Q 1466 2841 1156 2769 
Q 847 2697 581 2553 
L 581 3406 
Q 941 3494 1303 3539 
Q 1666 3584 2028 3584 
Q 2975 3584 3395 3211 
Q 3816 2838 3816 1997 
z
" transform="scale(0.015625)"/>
      <path id="DejaVuSans-Bold-6d" d="M 3781 2919 
Q 3994 3244 4286 3414 
Q 4578 3584 4928 3584 
Q 5531 3584 5847 3212 
Q 6163 2841 6163 2131 
L 6163 0 
L 5038 0 
L 5038 1825 
Q 5041 1866 5042 1909 
Q 5044 1953 5044 2034 
Q 5044 2406 4934 2573 
Q 4825 2741 4581 2741 
Q 4263 2741 4089 2478 
Q 3916 2216 3909 1719 
L 3909 0 
L 2784 0 
L 2784 1825 
Q 2784 2406 2684 2573 
Q 2584 2741 2328 2741 
Q 2006 2741 1831 2477 
Q 1656 2213 1656 1722 
L 1656 0 
L 531 0 
L 531 3500 
L 1656 3500 
L 1656 2988 
Q 1863 3284 2130 3434 
Q 2397 3584 2719 3584 
Q 3081 3584 3359 3409 
Q 3638 3234 3781 2919 
z
" transform="scale(0.015625)"/>
      <path id="DejaVuSans-Bold-74" d="M 1759 4494 
L 1759 3500 
L 2913 3500 
L 2913 2700 
L 1759 2700 
L 1759 1216 
Q 1759 972 1856 886 
Q 1953 800 2241 800 
L 2816 800 
L 2816 0 
L 1856 0 
Q 1194 0 917 276 
Q 641 553 641 1216 
L 641 2700 
L 84 2700 
L 84 3500 
L 641 3500 
L 641 4494 
L 1759 4494 
z
" transform="scale(0.015625)"/>
     </defs>
     <use xlink:href="#DejaVuSans-Bold-53"/>
     <use xlink:href="#DejaVuSans-Bold-71" transform="translate(72.021484 0)"/>
     <use xlink:href="#DejaVuSans-Bold-75" transform="translate(143.603516 0)"/>
     <use xlink:href="#DejaVuSans-Bold-61" transform="translate(214.794922 0)"/>
     <use xlink:href="#DejaVuSans-Bold-6d" transform="translate(282.275391 0)"/>
     <use xlink:href="#DejaVuSans-Bold-61" transform="translate(386.474609 0)"/>
     <use xlink:href="#DejaVuSans-Bold-74" transform="translate(453.955078 0)"/>
     <use xlink:href="#DejaVuSans-Bold-61" transform="translate(501.757812 0)"/>
    </g>
   </g>
   <g id="text_21">
    <!-- Araneae -->
    <g style="fill: #ff7f0e" transform="translate(541.889375 181.167106) scale(0.11 -0.11)">
     <defs>
      <path id="DejaVuSans-Bold-41" d="M 3419 850 
L 1538 850 
L 1241 0 
L 31 0 
L 1759 4666 
L 3194 4666 
L 4922 0 
L 3713 0 
L 3419 850 
z
M 1838 1716 
L 3116 1716 
L 2478 3572 
L 1838 1716 
z
" transform="scale(0.015625)"/>
      <path id="DejaVuSans-Bold-72" d="M 3138 2547 
Q 2991 2616 2845 2648 
Q 2700 2681 2553 2681 
Q 2122 2681 1889 2404 
Q 1656 2128 1656 1613 
L 1656 0 
L 538 0 
L 538 3500 
L 1656 3500 
L 1656 2925 
Q 1872 3269 2151 3426 
Q 2431 3584 2822 3584 
Q 2878 3584 2943 3579 
Q 3009 3575 3134 3559 
L 3138 2547 
z
" transform="scale(0.015625)"/>
      <path id="DejaVuSans-Bold-6e" d="M 4056 2131 
L 4056 0 
L 2931 0 
L 2931 347 
L 2931 1631 
Q 2931 2084 2911 2256 
Q 2891 2428 2841 2509 
Q 2775 2619 2662 2680 
Q 2550 2741 2406 2741 
Q 2056 2741 1856 2470 
Q 1656 2200 1656 1722 
L 1656 0 
L 538 0 
L 538 3500 
L 1656 3500 
L 1656 2988 
Q 1909 3294 2193 3439 
Q 2478 3584 2822 3584 
Q 3428 3584 3742 3212 
Q 4056 2841 4056 2131 
z
" transform="scale(0.015625)"/>
      <path id="DejaVuSans-Bold-65" d="M 4031 1759 
L 4031 1441 
L 1416 1441 
Q 1456 1047 1700 850 
Q 1944 653 2381 653 
Q 2734 653 3104 758 
Q 3475 863 3866 1075 
L 3866 213 
Q 3469 63 3072 -14 
Q 2675 -91 2278 -91 
Q 1328 -91 801 392 
Q 275 875 275 1747 
Q 275 2603 792 3093 
Q 1309 3584 2216 3584 
Q 3041 3584 3536 3087 
Q 4031 2591 4031 1759 
z
M 2881 2131 
Q 2881 2450 2695 2645 
Q 2509 2841 2209 2841 
Q 1884 2841 1681 2658 
Q 1478 2475 1428 2131 
L 2881 2131 
z
" transform="scale(0.015625)"/>
     </defs>
     <use xlink:href="#DejaVuSans-Bold-41"/>
     <use xlink:href="#DejaVuSans-Bold-72" transform="translate(77.392578 0)"/>
     <use xlink:href="#DejaVuSans-Bold-61" transform="translate(126.708984 0)"/>
     <use xlink:href="#DejaVuSans-Bold-6e" transform="translate(194.189453 0)"/>
     <use xlink:href="#DejaVuSans-Bold-65" transform="translate(265.380859 0)"/>
     <use xlink:href="#DejaVuSans-Bold-61" transform="translate(333.203125 0)"/>
     <use xlink:href="#DejaVuSans-Bold-65" transform="translate(400.683594 0)"/>
    </g>
   </g>
   <g id="text_22">
    <!-- Neogastropoda -->
    <g style="fill: #2ca02c" transform="translate(541.889375 193.397238) scale(0.11 -0.11)">
     <defs>
      <path id="DejaVuSans-Bold-4e" d="M 588 4666 
L 1931 4666 
L 3628 1466 
L 3628 4666 
L 4769 4666 
L 4769 0 
L 3425 0 
L 1728 3200 
L 1728 0 
L 588 0 
L 588 4666 
z
" transform="scale(0.015625)"/>
      <path id="DejaVuSans-Bold-6f" d="M 2203 2784 
Q 1831 2784 1636 2517 
Q 1441 2250 1441 1747 
Q 1441 1244 1636 976 
Q 1831 709 2203 709 
Q 2569 709 2762 976 
Q 2956 1244 2956 1747 
Q 2956 2250 2762 2517 
Q 2569 2784 2203 2784 
z
M 2203 3584 
Q 3106 3584 3614 3096 
Q 4122 2609 4122 1747 
Q 4122 884 3614 396 
Q 3106 -91 2203 -91 
Q 1297 -91 786 396 
Q 275 884 275 1747 
Q 275 2609 786 3096 
Q 1297 3584 2203 3584 
z
" transform="scale(0.015625)"/>
      <path id="DejaVuSans-Bold-67" d="M 2919 594 
Q 2688 288 2409 144 
Q 2131 0 1766 0 
Q 1125 0 706 504 
Q 288 1009 288 1791 
Q 288 2575 706 3076 
Q 1125 3578 1766 3578 
Q 2131 3578 2409 3434 
Q 2688 3291 2919 2981 
L 2919 3500 
L 4044 3500 
L 4044 353 
Q 4044 -491 3511 -936 
Q 2978 -1381 1966 -1381 
Q 1638 -1381 1331 -1331 
Q 1025 -1281 716 -1178 
L 716 -306 
Q 1009 -475 1290 -558 
Q 1572 -641 1856 -641 
Q 2406 -641 2662 -400 
Q 2919 -159 2919 353 
L 2919 594 
z
M 2181 2772 
Q 1834 2772 1640 2515 
Q 1447 2259 1447 1791 
Q 1447 1309 1634 1061 
Q 1822 813 2181 813 
Q 2531 813 2725 1069 
Q 2919 1325 2919 1791 
Q 2919 2259 2725 2515 
Q 2531 2772 2181 2772 
z
" transform="scale(0.015625)"/>
      <path id="DejaVuSans-Bold-73" d="M 3272 3391 
L 3272 2541 
Q 2913 2691 2578 2766 
Q 2244 2841 1947 2841 
Q 1628 2841 1473 2761 
Q 1319 2681 1319 2516 
Q 1319 2381 1436 2309 
Q 1553 2238 1856 2203 
L 2053 2175 
Q 2913 2066 3209 1816 
Q 3506 1566 3506 1031 
Q 3506 472 3093 190 
Q 2681 -91 1863 -91 
Q 1516 -91 1145 -36 
Q 775 19 384 128 
L 384 978 
Q 719 816 1070 734 
Q 1422 653 1784 653 
Q 2113 653 2278 743 
Q 2444 834 2444 1013 
Q 2444 1163 2330 1236 
Q 2216 1309 1875 1350 
L 1678 1375 
Q 931 1469 631 1722 
Q 331 1975 331 2491 
Q 331 3047 712 3315 
Q 1094 3584 1881 3584 
Q 2191 3584 2531 3537 
Q 2872 3491 3272 3391 
z
" transform="scale(0.015625)"/>
      <path id="DejaVuSans-Bold-70" d="M 1656 506 
L 1656 -1331 
L 538 -1331 
L 538 3500 
L 1656 3500 
L 1656 2988 
Q 1888 3294 2169 3439 
Q 2450 3584 2816 3584 
Q 3463 3584 3878 3070 
Q 4294 2556 4294 1747 
Q 4294 938 3878 423 
Q 3463 -91 2816 -91 
Q 2450 -91 2169 54 
Q 1888 200 1656 506 
z
M 2400 2772 
Q 2041 2772 1848 2508 
Q 1656 2244 1656 1747 
Q 1656 1250 1848 986 
Q 2041 722 2400 722 
Q 2759 722 2948 984 
Q 3138 1247 3138 1747 
Q 3138 2247 2948 2509 
Q 2759 2772 2400 2772 
z
" transform="scale(0.015625)"/>
      <path id="DejaVuSans-Bold-64" d="M 2919 2988 
L 2919 4863 
L 4044 4863 
L 4044 0 
L 2919 0 
L 2919 506 
Q 2688 197 2409 53 
Q 2131 -91 1766 -91 
Q 1119 -91 703 423 
Q 288 938 288 1747 
Q 288 2556 703 3070 
Q 1119 3584 1766 3584 
Q 2128 3584 2408 3439 
Q 2688 3294 2919 2988 
z
M 2181 722 
Q 2541 722 2730 984 
Q 2919 1247 2919 1747 
Q 2919 2247 2730 2509 
Q 2541 2772 2181 2772 
Q 1825 2772 1636 2509 
Q 1447 2247 1447 1747 
Q 1447 1247 1636 984 
Q 1825 722 2181 722 
z
" transform="scale(0.015625)"/>
     </defs>
     <use xlink:href="#DejaVuSans-Bold-4e"/>
     <use xlink:href="#DejaVuSans-Bold-65" transform="translate(83.691406 0)"/>
     <use xlink:href="#DejaVuSans-Bold-6f" transform="translate(151.513672 0)"/>
     <use xlink:href="#DejaVuSans-Bold-67" transform="translate(220.214844 0)"/>
     <use xlink:href="#DejaVuSans-Bold-61" transform="translate(291.796875 0)"/>
     <use xlink:href="#DejaVuSans-Bold-73" transform="translate(359.277344 0)"/>
     <use xlink:href="#DejaVuSans-Bold-74" transform="translate(418.798828 0)"/>
     <use xlink:href="#DejaVuSans-Bold-72" transform="translate(466.601562 0)"/>
     <use xlink:href="#DejaVuSans-Bold-6f" transform="translate(515.917969 0)"/>
     <use xlink:href="#DejaVuSans-Bold-70" transform="translate(584.619141 0)"/>
     <use xlink:href="#DejaVuSans-Bold-6f" transform="translate(656.201172 0)"/>
     <use xlink:href="#DejaVuSans-Bold-64" transform="translate(724.902344 0)"/>
     <use xlink:href="#DejaVuSans-Bold-61" transform="translate(796.484375 0)"/>
    </g>
   </g>
   <g id="text_23">
    <!-- Scorpiones -->
    <g style="fill: #d62728" transform="translate(541.889375 240.108295) scale(0.11 -0.11)">
     <defs>
      <path id="DejaVuSans-Bold-63" d="M 3366 3391 
L 3366 2478 
Q 3138 2634 2908 2709 
Q 2678 2784 2431 2784 
Q 1963 2784 1702 2511 
Q 1441 2238 1441 1747 
Q 1441 1256 1702 982 
Q 1963 709 2431 709 
Q 2694 709 2930 787 
Q 3166 866 3366 1019 
L 3366 103 
Q 3103 6 2833 -42 
Q 2563 -91 2291 -91 
Q 1344 -91 809 395 
Q 275 881 275 1747 
Q 275 2613 809 3098 
Q 1344 3584 2291 3584 
Q 2566 3584 2833 3536 
Q 3100 3488 3366 3391 
z
" transform="scale(0.015625)"/>
      <path id="DejaVuSans-Bold-69" d="M 538 3500 
L 1656 3500 
L 1656 0 
L 538 0 
L 538 3500 
z
M 538 4863 
L 1656 4863 
L 1656 3950 
L 538 3950 
L 538 4863 
z
" transform="scale(0.015625)"/>
     </defs>
     <use xlink:href="#DejaVuSans-Bold-53"/>
     <use xlink:href="#DejaVuSans-Bold-63" transform="translate(72.021484 0)"/>
     <use xlink:href="#DejaVuSans-Bold-6f" transform="translate(131.298828 0)"/>
     <use xlink:href="#DejaVuSans-Bold-72" transform="translate(200 0)"/>
     <use xlink:href="#DejaVuSans-Bold-70" transform="translate(249.316406 0)"/>
     <use xlink:href="#DejaVuSans-Bold-69" transform="translate(320.898438 0)"/>
     <use xlink:href="#DejaVuSans-Bold-6f" transform="translate(355.175781 0)"/>
     <use xlink:href="#DejaVuSans-Bold-6e" transform="translate(423.876953 0)"/>
     <use xlink:href="#DejaVuSans-Bold-65" transform="translate(495.068359 0)"/>
     <use xlink:href="#DejaVuSans-Bold-73" transform="translate(562.890625 0)"/>
    </g>
   </g>
   <g id="text_24">
    <!-- Hymenoptera -->
    <g style="fill: #9467bd" transform="translate(541.889375 348.813549) scale(0.11 -0.11)">
     <defs>
      <path id="DejaVuSans-Bold-48" d="M 588 4666 
L 1791 4666 
L 1791 2888 
L 3566 2888 
L 3566 4666 
L 4769 4666 
L 4769 0 
L 3566 0 
L 3566 1978 
L 1791 1978 
L 1791 0 
L 588 0 
L 588 4666 
z
" transform="scale(0.015625)"/>
      <path id="DejaVuSans-Bold-79" d="M 78 3500 
L 1197 3500 
L 2138 1125 
L 2938 3500 
L 4056 3500 
L 2584 -331 
Q 2363 -916 2067 -1148 
Q 1772 -1381 1288 -1381 
L 641 -1381 
L 641 -647 
L 991 -647 
Q 1275 -647 1404 -556 
Q 1534 -466 1606 -231 
L 1638 -134 
L 78 3500 
z
" transform="scale(0.015625)"/>
     </defs>
     <use xlink:href="#DejaVuSans-Bold-48"/>
     <use xlink:href="#DejaVuSans-Bold-79" transform="translate(83.691406 0)"/>
     <use xlink:href="#DejaVuSans-Bold-6d" transform="translate(148.876953 0)"/>
     <use xlink:href="#DejaVuSans-Bold-65" transform="translate(253.076172 0)"/>
     <use xlink:href="#DejaVuSans-Bold-6e" transform="translate(320.898438 0)"/>
     <use xlink:href="#DejaVuSans-Bold-6f" transform="translate(392.089844 0)"/>
     <use xlink:href="#DejaVuSans-Bold-70" transform="translate(460.791016 0)"/>
     <use xlink:href="#DejaVuSans-Bold-74" transform="translate(532.373047 0)"/>
     <use xlink:href="#DejaVuSans-Bold-65" transform="translate(580.175781 0)"/>
     <use xlink:href="#DejaVuSans-Bold-72" transform="translate(647.998047 0)"/>
     <use xlink:href="#DejaVuSans-Bold-61" transform="translate(697.314453 0)"/>
    </g>
   </g>
   <g id="text_25">
    <!-- Others -->
    <g style="fill: #c0c0c0" transform="translate(541.889375 372.082011) scale(0.11 -0.11)">
     <defs>
      <path id="DejaVuSans-Bold-4f" d="M 2719 3878 
Q 2169 3878 1866 3472 
Q 1563 3066 1563 2328 
Q 1563 1594 1866 1187 
Q 2169 781 2719 781 
Q 3272 781 3575 1187 
Q 3878 1594 3878 2328 
Q 3878 3066 3575 3472 
Q 3272 3878 2719 3878 
z
M 2719 4750 
Q 3844 4750 4481 4106 
Q 5119 3463 5119 2328 
Q 5119 1197 4481 553 
Q 3844 -91 2719 -91 
Q 1597 -91 958 553 
Q 319 1197 319 2328 
Q 319 3463 958 4106 
Q 1597 4750 2719 4750 
z
" transform="scale(0.015625)"/>
      <path id="DejaVuSans-Bold-68" d="M 4056 2131 
L 4056 0 
L 2931 0 
L 2931 347 
L 2931 1625 
Q 2931 2084 2911 2256 
Q 2891 2428 2841 2509 
Q 2775 2619 2662 2680 
Q 2550 2741 2406 2741 
Q 2056 2741 1856 2470 
Q 1656 2200 1656 1722 
L 1656 0 
L 538 0 
L 538 4863 
L 1656 4863 
L 1656 2988 
Q 1909 3294 2193 3439 
Q 2478 3584 2822 3584 
Q 3428 3584 3742 3212 
Q 4056 2841 4056 2131 
z
" transform="scale(0.015625)"/>
     </defs>
     <use xlink:href="#DejaVuSans-Bold-4f"/>
     <use xlink:href="#DejaVuSans-Bold-74" transform="translate(85.009766 0)"/>
     <use xlink:href="#DejaVuSans-Bold-68" transform="translate(132.8125 0)"/>
     <use xlink:href="#DejaVuSans-Bold-65" transform="translate(204.003906 0)"/>
     <use xlink:href="#DejaVuSans-Bold-72" transform="translate(271.826172 0)"/>
     <use xlink:href="#DejaVuSans-Bold-73" transform="translate(321.142578 0)"/>
    </g>
   </g>
   <g id="text_26">
    <!-- Growth of Top Taxa Orders in ToxProt Over Time -->
    <g transform="translate(83.942813 20.877187) scale(0.18 -0.18)">
     <defs>
      <path id="DejaVuSans-47" d="M 3809 666 
L 3809 1919 
L 2778 1919 
L 2778 2438 
L 4434 2438 
L 4434 434 
Q 4069 175 3628 42 
Q 3188 -91 2688 -91 
Q 1594 -91 976 548 
Q 359 1188 359 2328 
Q 359 3472 976 4111 
Q 1594 4750 2688 4750 
Q 3144 4750 3555 4637 
Q 3966 4525 4313 4306 
L 4313 3634 
Q 3963 3931 3569 4081 
Q 3175 4231 2741 4231 
Q 1884 4231 1454 3753 
Q 1025 3275 1025 2328 
Q 1025 1384 1454 906 
Q 1884 428 2741 428 
Q 3075 428 3337 486 
Q 3600 544 3809 666 
z
" transform="scale(0.015625)"/>
      <path id="DejaVuSans-77" d="M 269 3500 
L 844 3500 
L 1563 769 
L 2278 3500 
L 2956 3500 
L 3675 769 
L 4391 3500 
L 4966 3500 
L 4050 0 
L 3372 0 
L 2619 2869 
L 1863 0 
L 1184 0 
L 269 3500 
z
" transform="scale(0.015625)"/>
      <path id="DejaVuSans-68" d="M 3513 2113 
L 3513 0 
L 2938 0 
L 2938 2094 
Q 2938 2591 2744 2837 
Q 2550 3084 2163 3084 
Q 1697 3084 1428 2787 
Q 1159 2491 1159 1978 
L 1159 0 
L 581 0 
L 581 4863 
L 1159 4863 
L 1159 2956 
Q 1366 3272 1645 3428 
Q 1925 3584 2291 3584 
Q 2894 3584 3203 3211 
Q 3513 2838 3513 2113 
z
" transform="scale(0.015625)"/>
      <path id="DejaVuSans-54" d="M -19 4666 
L 3928 4666 
L 3928 4134 
L 2272 4134 
L 2272 0 
L 1638 0 
L 1638 4134 
L -19 4134 
L -19 4666 
z
" transform="scale(0.015625)"/>
      <path id="DejaVuSans-70" d="M 1159 525 
L 1159 -1331 
L 581 -1331 
L 581 3500 
L 1159 3500 
L 1159 2969 
Q 1341 3281 1617 3432 
Q 1894 3584 2278 3584 
Q 2916 3584 3314 3078 
Q 3713 2572 3713 1747 
Q 3713 922 3314 415 
Q 2916 -91 2278 -91 
Q 1894 -91 1617 61 
Q 1341 213 1159 525 
z
M 3116 1747 
Q 3116 2381 2855 2742 
Q 2594 3103 2138 3103 
Q 1681 3103 1420 2742 
Q 1159 2381 1159 1747 
Q 1159 1113 1420 752 
Q 1681 391 2138 391 
Q 2594 391 2855 752 
Q 3116 1113 3116 1747 
z
" transform="scale(0.015625)"/>
      <path id="DejaVuSans-78" d="M 3513 3500 
L 2247 1797 
L 3578 0 
L 2900 0 
L 1881 1375 
L 863 0 
L 184 0 
L 1544 1831 
L 300 3500 
L 978 3500 
L 1906 2253 
L 2834 3500 
L 3513 3500 
z
" transform="scale(0.015625)"/>
      <path id="DejaVuSans-4f" d="M 2522 4238 
Q 1834 4238 1429 3725 
Q 1025 3213 1025 2328 
Q 1025 1447 1429 934 
Q 1834 422 2522 422 
Q 3209 422 3611 934 
Q 4013 1447 4013 2328 
Q 4013 3213 3611 3725 
Q 3209 4238 2522 4238 
z
M 2522 4750 
Q 3503 4750 4090 4092 
Q 4678 3434 4678 2328 
Q 4678 1225 4090 567 
Q 3503 -91 2522 -91 
Q 1538 -91 948 565 
Q 359 1222 359 2328 
Q 359 3434 948 4092 
Q 1538 4750 2522 4750 
z
" transform="scale(0.015625)"/>
      <path id="DejaVuSans-64" d="M 2906 2969 
L 2906 4863 
L 3481 4863 
L 3481 0 
L 2906 0 
L 2906 525 
Q 2725 213 2448 61 
Q 2172 -91 1784 -91 
Q 1150 -91 751 415 
Q 353 922 353 1747 
Q 353 2572 751 3078 
Q 1150 3584 1784 3584 
Q 2172 3584 2448 3432 
Q 2725 3281 2906 2969 
z
M 947 1747 
Q 947 1113 1208 752 
Q 1469 391 1925 391 
Q 2381 391 2643 752 
Q 2906 1113 2906 1747 
Q 2906 2381 2643 2742 
Q 2381 3103 1925 3103 
Q 1469 3103 1208 2742 
Q 947 2381 947 1747 
z
" transform="scale(0.015625)"/>
      <path id="DejaVuSans-50" d="M 1259 4147 
L 1259 2394 
L 2053 2394 
Q 2494 2394 2734 2622 
Q 2975 2850 2975 3272 
Q 2975 3691 2734 3919 
Q 2494 4147 2053 4147 
L 1259 4147 
z
M 628 4666 
L 2053 4666 
Q 2838 4666 3239 4311 
Q 3641 3956 3641 3272 
Q 3641 2581 3239 2228 
Q 2838 1875 2053 1875 
L 1259 1875 
L 1259 0 
L 628 0 
L 628 4666 
z
" transform="scale(0.015625)"/>
      <path id="DejaVuSans-76" d="M 191 3500 
L 800 3500 
L 1894 563 
L 2988 3500 
L 3597 3500 
L 2284 0 
L 1503 0 
L 191 3500 
z
" transform="scale(0.015625)"/>
     </defs>
     <use xlink:href="#DejaVuSans-47"/>
     <use xlink:href="#DejaVuSans-72" transform="translate(77.490234 0)"/>
     <use xlink:href="#DejaVuSans-6f" transform="translate(116.353516 0)"/>
     <use xlink:href="#DejaVuSans-77" transform="translate(177.535156 0)"/>
     <use xlink:href="#DejaVuSans-74" transform="translate(259.322266 0)"/>
     <use xlink:href="#DejaVuSans-68" transform="translate(298.53125 0)"/>
     <use xlink:href="#DejaVuSans-20" transform="translate(361.910156 0)"/>
     <use xlink:href="#DejaVuSans-6f" transform="translate(393.697266 0)"/>
     <use xlink:href="#DejaVuSans-66" transform="translate(454.878906 0)"/>
     <use xlink:href="#DejaVuSans-20" transform="translate(490.083984 0)"/>
     <use xlink:href="#DejaVuSans-54" transform="translate(521.871094 0)"/>
     <use xlink:href="#DejaVuSans-6f" transform="translate(565.955078 0)"/>
     <use xlink:href="#DejaVuSans-70" transform="translate(627.136719 0)"/>
     <use xlink:href="#DejaVuSans-20" transform="translate(690.613281 0)"/>
     <use xlink:href="#DejaVuSans-54" transform="translate(722.400391 0)"/>
     <use xlink:href="#DejaVuSans-61" transform="translate(766.984375 0)"/>
     <use xlink:href="#DejaVuSans-78" transform="translate(828.263672 0)"/>
     <use xlink:href="#DejaVuSans-61" transform="translate(887.443359 0)"/>
     <use xlink:href="#DejaVuSans-20" transform="translate(948.722656 0)"/>
     <use xlink:href="#DejaVuSans-4f" transform="translate(980.509766 0)"/>
     <use xlink:href="#DejaVuSans-72" transform="translate(1059.220703 0)"/>
     <use xlink:href="#DejaVuSans-64" transform="translate(1098.583984 0)"/>
     <use xlink:href="#DejaVuSans-65" transform="translate(1162.060547 0)"/>
     <use xlink:href="#DejaVuSans-72" transform="translate(1223.583984 0)"/>
     <use xlink:href="#DejaVuSans-73" transform="translate(1264.697266 0)"/>
     <use xlink:href="#DejaVuSans-20" transform="translate(1316.796875 0)"/>
     <use xlink:href="#DejaVuSans-69" transform="translate(1348.583984 0)"/>
     <use xlink:href="#DejaVuSans-6e" transform="translate(1376.367188 0)"/>
     <use xlink:href="#DejaVuSans-20" transform="translate(1439.746094 0)"/>
     <use xlink:href="#DejaVuSans-54" transform="translate(1471.533203 0)"/>
     <use xlink:href="#DejaVuSans-6f" transform="translate(1515.617188 0)"/>
     <use xlink:href="#DejaVuSans-78" transform="translate(1573.673828 0)"/>
     <use xlink:href="#DejaVuSans-50" transform="translate(1632.853516 0)"/>
     <use xlink:href="#DejaVuSans-72" transform="translate(1691.40625 0)"/>
     <use xlink:href="#DejaVuSans-6f" transform="translate(1730.269531 0)"/>
     <use xlink:href="#DejaVuSans-74" transform="translate(1791.451172 0)"/>
     <use xlink:href="#DejaVuSans-20" transform="translate(1830.660156 0)"/>
     <use xlink:href="#DejaVuSans-4f" transform="translate(1862.447266 0)"/>
     <use xlink:href="#DejaVuSans-76" transform="translate(1941.158203 0)"/>
     <use xlink:href="#DejaVuSans-65" transform="translate(2000.337891 0)"/>
     <use xlink:href="#DejaVuSans-72" transform="translate(2061.861328 0)"/>
     <use xlink:href="#DejaVuSans-20" transform="translate(2102.974609 0)"/>
     <use xlink:href="#DejaVuSans-54" transform="translate(2134.761719 0)"/>
     <use xlink:href="#DejaVuSans-69" transform="translate(2192.720703 0)"/>
     <use xlink:href="#DejaVuSans-6d" transform="translate(2220.503906 0)"/>
     <use xlink:href="#DejaVuSans-65" transform="translate(2317.916016 0)"/>
    </g>
   </g>
  </g>
 </g>
 <defs>
  <clipPath id="pb2de358211">
   <rect x="62.289375" y="26.877187" width="471.6" height="388.08"/>
  </clipPath>
 </defs>
</svg>
